<svg id="圖層_1" data-name="圖層 1" xmlns="http://www.w3.org/2000/svg" xmlns:xlink="http://www.w3.org/1999/xlink" viewBox="0 0 416 312"><defs><style>.cls-1,.cls-10,.cls-14,.cls-8{fill:none;}.cls-2{clip-path:url(#clip-path);}.cls-3,.cls-9{fill:#6b00ff;}.cls-4{fill:#220156;opacity:0.3;}.cls-16,.cls-5{fill:#fc0;}.cls-13,.cls-6{fill:#00c2ba;}.cls-7{fill:#f80;}.cls-8,.cls-9{stroke:#fc0;}.cls-10,.cls-13,.cls-15,.cls-8,.cls-9{stroke-miterlimit:10;}.cls-10{stroke:#6b00ff;}.cls-10,.cls-15{stroke-width:2px;}.cls-11{fill:#fff;}.cls-12{fill:#42edf0;}.cls-13,.cls-14,.cls-15,.cls-16{stroke:#000;}.cls-13,.cls-14,.cls-16{stroke-linecap:round;stroke-width:3px;}.cls-14,.cls-16{stroke-linejoin:round;}.cls-17{clip-path:url(#clip-path-2);}.cls-18{clip-path:url(#clip-path-3);}</style><clipPath id="clip-path"><rect class="cls-1" width="416" height="312"/></clipPath><clipPath id="clip-path-2"><rect class="cls-1" x="436" width="416" height="312"/></clipPath><clipPath id="clip-path-3"><rect class="cls-1" x="434.39" y="-2" width="422.31" height="317.02"/></clipPath></defs><g class="cls-2"><rect class="cls-3" width="416" height="312"/><path class="cls-4" d="M424.63-27.11H-8.63V311.55c49-76,121.53-169.33,214.61-227,87.09-53.92,162.73-58.35,217.29-50.44Z"/><path class="cls-4" d="M-8.63-27.11H424.63V311.55c-49-76-121.53-169.33-214.61-227C122.93,30.67,47.29,26.24-7.27,34.15Z"/><rect class="cls-5" x="278.89" y="89.54" width="54.28" height="54.28" transform="translate(-0.45 1.18) rotate(-0.22)"/><path class="cls-6" d="M278.84,89.59H306a0,0,0,0,1,0,0v0a27.14,27.14,0,0,1-27.14,27.14h0a0,0,0,0,1,0,0V89.59A0,0,0,0,1,278.84,89.59Z" transform="translate(-0.4 1.13) rotate(-0.22)"/><path class="cls-6" d="M278.94,116.73h27.14a0,0,0,0,1,0,0v0a27.14,27.14,0,0,1-27.14,27.14h0a0,0,0,0,1,0,0V116.73A0,0,0,0,1,278.94,116.73Z" transform="translate(163.34 423.31) rotate(-90.22)"/><path class="cls-6" d="M306,89.48h27.14a0,0,0,0,1,0,0v0A27.14,27.14,0,0,1,306,116.62h0a0,0,0,0,1,0,0V89.48A0,0,0,0,1,306,89.48Z" transform="translate(421.37 -216.89) rotate(89.78)"/><path class="cls-6" d="M306.08,116.62h27.14a0,0,0,0,1,0,0v0a27.14,27.14,0,0,1-27.14,27.14h0a0,0,0,0,1,0,0V116.62A0,0,0,0,1,306.08,116.62Z" transform="translate(639.8 259.15) rotate(179.78)"/><rect class="cls-6" x="333.14" y="109.04" width="34.64" height="34.64" transform="translate(-0.48 1.35) rotate(-0.22)"/><path class="cls-5" d="M333.11,109.08h17.32a0,0,0,0,1,0,0v0a17.32,17.32,0,0,1-17.32,17.32h0a0,0,0,0,1,0,0V109.08a0,0,0,0,1,0,0Z" transform="translate(-0.45 1.32) rotate(-0.22)"/><path class="cls-5" d="M333.17,126.4h17.32a0,0,0,0,1,0,0v0a17.32,17.32,0,0,1-17.32,17.32h0a0,0,0,0,1,0,0V126.4A0,0,0,0,1,333.17,126.4Z" transform="translate(208.09 477.41) rotate(-90.22)"/><path class="cls-5" d="M350.43,109h17.32a0,0,0,0,1,0,0v0a17.32,17.32,0,0,1-17.32,17.32h0a0,0,0,0,1,0,0V109a0,0,0,0,1,0,0Z" transform="translate(475.37 -241.87) rotate(89.78)"/><path class="cls-5" d="M350.49,126.33h17.32a0,0,0,0,1,0,0v0a17.32,17.32,0,0,1-17.32,17.32h0a0,0,0,0,1,0,0V126.33A0,0,0,0,1,350.49,126.33Z" transform="translate(718.83 268.6) rotate(179.78)"/><rect class="cls-5" x="257.87" y="29.66" width="40.12" height="40.12" rx="20.06" transform="translate(13.49 148.66) rotate(-30.66)"/><polygon class="cls-3" points="277.84 34.46 267.58 47.2 272.8 47.2 272.8 63.39 282.88 63.39 282.88 47.2 288.1 47.2 277.84 34.46"/><rect class="cls-7" x="305.11" y="34.98" width="49.58" height="29.47" rx="14.73" transform="translate(-0.1 0.64) rotate(-0.11)"/><circle class="cls-5" cx="321.3" cy="49.73" r="11"/><path class="cls-5" d="M71.46,87.82l-9.4-4.42V80.77l9.4-4.42v2.41l-6.09,2.81a7.81,7.81,0,0,1-.82.33,4.16,4.16,0,0,1-.64.17l.65.17a5.68,5.68,0,0,1,.81.32l6.09,2.81Z"/><path class="cls-5" d="M74.31,91.3l7.34-19.71h2.72L77,91.3Z"/><path class="cls-5" d="M87.22,87.82V85.41L93.3,82.6a8,8,0,0,1,.83-.33,3.88,3.88,0,0,1,.64-.17c-.15,0-.37-.08-.65-.16a5.1,5.1,0,0,1-.82-.31L87.22,78.8V76.35l9.4,4.42V83.4Z"/><path class="cls-5" d="M367.22,292a2.69,2.69,0,0,1-1.83-1,2.69,2.69,0,0,1,.54-3.68,2.69,2.69,0,0,1,2-.43l1.16.17a2.64,2.64,0,0,1,1.81,1,2.75,2.75,0,0,1-.56,3.69,2.65,2.65,0,0,1-2,.43Zm-.33-8.82,1.07-7.75,3.05.44a4.51,4.51,0,0,0,3.25-.58,3.57,3.57,0,0,0,1.57-2.58,3.53,3.53,0,0,0-.76-2.94,4.6,4.6,0,0,0-3-1.48l-5.76-.85.66-4.53,5.54.82a11.29,11.29,0,0,1,4.8,1.75,7.86,7.86,0,0,1,2.82,3.36,8.25,8.25,0,0,1,.51,4.58,8.49,8.49,0,0,1-1.59,4,7.58,7.58,0,0,1-3.15,2.42,8.06,8.06,0,0,1-4.22.48l-.51,3.49Z"/><path class="cls-5" d="M240.12,146a2.65,2.65,0,0,1-1.76-1.11,2.45,2.45,0,0,1-.34-2,2.41,2.41,0,0,1,1.11-1.66,2.66,2.66,0,0,1,2.06-.3l1.15.24a2.68,2.68,0,0,1,1.75,1.09,2.49,2.49,0,0,1,.31,2,2.46,2.46,0,0,1-1.11,1.66,2.67,2.67,0,0,1-2.06.3Zm.24-8.82,1.55-7.67,3,.65a4.49,4.49,0,0,0,3.28-.39,3.91,3.91,0,0,0,1.16-5.45,4.65,4.65,0,0,0-2.88-1.67l-5.7-1.21,1-4.48,5.47,1.17a11.23,11.23,0,0,1,4.68,2,7.93,7.93,0,0,1,2.61,3.54,8.25,8.25,0,0,1,.21,4.6,8.41,8.41,0,0,1-1.84,3.88,7.47,7.47,0,0,1-3.29,2.22,8.06,8.06,0,0,1-4.25.22l-.73,3.44Z"/><path class="cls-5" d="M62.86,256.63l-1.94-7.58,3-.74a4.44,4.44,0,0,0,2.79-1.76,3.51,3.51,0,0,0,.48-3,3.57,3.57,0,0,0-1.8-2.44,4.61,4.61,0,0,0-3.32-.25l-5.66,1.38-1.09-4.44,5.43-1.33a11.18,11.18,0,0,1,5.11-.18,7.85,7.85,0,0,1,3.88,2.05,8.23,8.23,0,0,1,2.2,4,8.47,8.47,0,0,1,0,4.3,7.55,7.55,0,0,1-2,3.43,8.21,8.21,0,0,1-3.73,2l.83,3.42Zm3.62,8.05a2.69,2.69,0,0,1-2.07-.24,2.47,2.47,0,0,1-1.17-1.63,2.51,2.51,0,0,1,.28-2,2.72,2.72,0,0,1,1.73-1.16l1.14-.28a2.68,2.68,0,0,1,2,.22,2.74,2.74,0,0,1,.87,3.63,2.69,2.69,0,0,1-1.73,1.17Z"/><rect class="cls-8" x="248.7" y="18.86" width="114.13" height="59.26"/><rect class="cls-9" x="246.03" y="16.19" width="5.34" height="5.34"/><rect class="cls-9" x="360.16" y="16.19" width="5.34" height="5.34"/><rect class="cls-9" x="306.3" y="16.19" width="5.34" height="5.34"/><rect class="cls-9" x="306.3" y="75.45" width="5.34" height="5.34"/><rect class="cls-9" x="246.03" y="75.45" width="5.34" height="5.34"/><rect class="cls-9" x="246.03" y="45.82" width="5.34" height="5.34"/><rect class="cls-9" x="360.16" y="75.45" width="5.34" height="5.34"/><rect class="cls-9" x="360.16" y="45.82" width="5.34" height="5.34"/><rect class="cls-7" x="379.75" y="98.86" width="17.32" height="76.1" transform="translate(739.82 351.64) rotate(-167.99)"/><polygon class="cls-5" points="398.52 89.37 404.8 101.49 387.85 97.89 398.52 89.37"/><rect class="cls-5" x="313.35" y="196.54" width="107.39" height="17.32" transform="translate(355.61 -215.16) rotate(59.23)"/><line class="cls-10" x1="350.75" y1="160.89" x2="344.41" y2="164.67"/><line class="cls-10" x1="355.28" y1="168.5" x2="352.11" y2="170.39"/><line class="cls-10" x1="359.81" y1="176.12" x2="356.64" y2="178"/><line class="cls-10" x1="364.34" y1="183.73" x2="361.17" y2="185.61"/><line class="cls-10" x1="368.87" y1="191.34" x2="365.7" y2="193.22"/><line class="cls-10" x1="373.4" y1="198.95" x2="367.06" y2="202.72"/><line class="cls-10" x1="377.94" y1="206.56" x2="374.77" y2="208.45"/><line class="cls-10" x1="382.47" y1="214.17" x2="379.3" y2="216.06"/><line class="cls-10" x1="387" y1="221.78" x2="383.83" y2="223.67"/><line class="cls-10" x1="391.53" y1="229.39" x2="388.36" y2="231.28"/><line class="cls-10" x1="396.06" y1="237" x2="389.72" y2="240.78"/><line class="cls-10" x1="400.59" y1="244.61" x2="397.42" y2="246.5"/><path class="cls-5" d="M33.06,46.94V26.57h3.49v8.18H42V26.57H45.5V46.94H42V38H36.55v9Z"/><path class="cls-5" d="M54.27,46.94V29.81H48.94V26.57H63.11v3.24H57.78V46.94Z"/><path class="cls-5" d="M66,46.94V26.57h4.13l2,6.48c.2.65.37,1.24.5,1.78s.21.93.25,1.17c0-.24.12-.63.25-1.17s.29-1.13.48-1.78l1.89-6.48h4.13V46.94H76.31V40.61c0-.93,0-2,.08-3s.12-2.2.2-3.3.16-2.14.26-3.12.19-1.85.27-2.6l-2.74,9.63H71.2l-2.82-9.63c.1.71.19,1.54.28,2.5s.18,2,.27,3.07.15,2.19.21,3.31.08,2.17.08,3.18v6.33Z"/><path class="cls-5" d="M84,46.94V26.57H87.5V43.7h8.65v3.24Z"/><path class="cls-5" d="M37.8,131.59a4.15,4.15,0,0,1-3-1,3.69,3.69,0,0,1-1.09-2.8h2.12a2,2,0,0,0,.52,1.45,1.93,1.93,0,0,0,1.42.53,2,2,0,0,0,1.43-.52,1.94,1.94,0,0,0,.52-1.45V121H36.87v-2h5v8.72a3.64,3.64,0,0,1-1.1,2.8A4.11,4.11,0,0,1,37.8,131.59Z"/><path class="cls-5" d="M47.44,131.57a3.21,3.21,0,0,1-2.27-.76,2.63,2.63,0,0,1-.83-2.05,2.55,2.55,0,0,1,.91-2.11,4,4,0,0,1,2.59-.75h2.32v-.8a1.28,1.28,0,0,0-.44-1,1.73,1.73,0,0,0-1.2-.38,2.06,2.06,0,0,0-1.14.3,1.16,1.16,0,0,0-.55.83H44.76A2.94,2.94,0,0,1,46,122.7a4.25,4.25,0,0,1,2.64-.78,4,4,0,0,1,2.7.86,2.9,2.9,0,0,1,1,2.31v6.31H50.23v-1.62h-.34l.34-.46a2,2,0,0,1-.76,1.64A3.15,3.15,0,0,1,47.44,131.57Zm.69-1.59a2.2,2.2,0,0,0,1.46-.46,1.44,1.44,0,0,0,.57-1.18V127.2H47.88a1.45,1.45,0,0,0-1,.38,1.27,1.27,0,0,0-.39,1,1.31,1.31,0,0,0,.44,1A1.87,1.87,0,0,0,48.13,130Z"/><path class="cls-5" d="M57.27,131.4l-3.06-9.31h2.16l1.78,5.66q.15.5.3,1.05c.09.36.16.64.21.86.06-.22.13-.5.22-.86s.18-.71.27-1l1.74-5.67H63l-3,9.31Z"/><path class="cls-5" d="M67.75,131.57a3.23,3.23,0,0,1-2.27-.76,2.66,2.66,0,0,1-.83-2.05,2.56,2.56,0,0,1,.92-2.11,4,4,0,0,1,2.59-.75h2.32v-.8a1.32,1.32,0,0,0-.44-1,1.77,1.77,0,0,0-1.21-.38,2.06,2.06,0,0,0-1.14.3,1.19,1.19,0,0,0-.55.83H65.08a2.93,2.93,0,0,1,1.18-2.1,4.27,4.27,0,0,1,2.64-.78,4,4,0,0,1,2.7.86,2.9,2.9,0,0,1,1,2.31v6.31h-2v-1.62h-.33l.33-.46a2,2,0,0,1-.76,1.64A3.13,3.13,0,0,1,67.75,131.57Zm.69-1.59a2.25,2.25,0,0,0,1.47-.46,1.44,1.44,0,0,0,.57-1.18V127.2H68.19a1.42,1.42,0,0,0-1,.38,1.27,1.27,0,0,0-.39,1,1.31,1.31,0,0,0,.44,1A1.83,1.83,0,0,0,68.44,130Z"/><path class="cls-5" d="M79,131.57a5.33,5.33,0,0,1-2.2-.42,3.28,3.28,0,0,1-1.43-1.21,3.52,3.52,0,0,1-.51-1.86h2.11a1.46,1.46,0,0,0,.55,1.2,2.37,2.37,0,0,0,1.5.43,2.2,2.2,0,0,0,1.43-.42,1.44,1.44,0,0,0,.52-1.17,1.67,1.67,0,0,0-.37-1.09,1.82,1.82,0,0,0-1-.64L78.11,126a4.05,4.05,0,0,1-2.24-1.34,3.82,3.82,0,0,1-.32-4.16,3.15,3.15,0,0,1,1.35-1.2,4.7,4.7,0,0,1,2.06-.43,4.14,4.14,0,0,1,2.84.93,3.17,3.17,0,0,1,1.07,2.48H80.75a1.47,1.47,0,0,0-.47-1.15,2,2,0,0,0-1.34-.41,2,2,0,0,0-1.29.39,1.38,1.38,0,0,0-.45,1.1,1.73,1.73,0,0,0,.34,1.09,1.9,1.9,0,0,0,1,.64l1.47.4a4.08,4.08,0,0,1,2.26,1.33,3.68,3.68,0,0,1,.77,2.36,3.26,3.26,0,0,1-1.93,3.1A4.91,4.91,0,0,1,79,131.57Z"/><path class="cls-5" d="M89.15,131.57a4.58,4.58,0,0,1-2.08-.45,3.32,3.32,0,0,1-1.38-1.27,3.74,3.74,0,0,1-.49-1.93v-2.34a3.76,3.76,0,0,1,.49-2,3.37,3.37,0,0,1,1.38-1.26,4.58,4.58,0,0,1,2.08-.45,4.13,4.13,0,0,1,2.81.91,3.2,3.2,0,0,1,1.1,2.46H90.94a1.52,1.52,0,0,0-.51-1.12,1.89,1.89,0,0,0-1.28-.4,1.86,1.86,0,0,0-1.34.46,1.74,1.74,0,0,0-.49,1.33v2.36a1.74,1.74,0,0,0,.49,1.33,1.83,1.83,0,0,0,1.34.48,1.94,1.94,0,0,0,1.28-.4,1.54,1.54,0,0,0,.51-1.13h2.12a3.24,3.24,0,0,1-1.1,2.47A4.18,4.18,0,0,1,89.15,131.57Z"/><path class="cls-5" d="M95.77,131.4v-9.31h2v1.78h.52L97.66,125a3.35,3.35,0,0,1,.68-2.27,2.56,2.56,0,0,1,2-.76,3.09,3.09,0,0,1,2.37.93,3.67,3.67,0,0,1,.86,2.58v.67h-2.22v-.52a1.94,1.94,0,0,0-.46-1.39,1.67,1.67,0,0,0-1.28-.49,1.64,1.64,0,0,0-1.28.49,2,2,0,0,0-.45,1.39v5.82Z"/><path class="cls-5" d="M105.62,131.4v-1.93h3.25V124H106v-1.91h4.86v7.38h2.88v1.93Zm4.1-10.87a1.49,1.49,0,0,1-1-.33,1.24,1.24,0,0,1,0-1.77,1.49,1.49,0,0,1,1-.33,1.46,1.46,0,0,1,1,.33,1.24,1.24,0,0,1,0,1.77A1.46,1.46,0,0,1,109.72,120.53Z"/><path class="cls-5" d="M115.79,134.45V122.09h2.07v1.78h.47l-.47.49a2.38,2.38,0,0,1,.68-1.79,2.54,2.54,0,0,1,1.83-.65,2.84,2.84,0,0,1,2.25,1,3.79,3.79,0,0,1,.84,2.59V128a4.31,4.31,0,0,1-.38,1.89,2.89,2.89,0,0,1-1.07,1.24,3,3,0,0,1-1.64.44,2.54,2.54,0,0,1-1.83-.65,2.37,2.37,0,0,1-.68-1.79l.47.49h-.49l.07,2.22v2.61Zm3.83-4.71a1.66,1.66,0,0,0,1.27-.47,1.9,1.9,0,0,0,.46-1.35v-2.34a1.91,1.91,0,0,0-.46-1.36,1.7,1.7,0,0,0-1.27-.47,1.63,1.63,0,0,0-1.25.48,1.86,1.86,0,0,0-.46,1.35v2.34a1.85,1.85,0,0,0,.46,1.34A1.63,1.63,0,0,0,119.62,129.74Z"/><path class="cls-5" d="M130.74,131.4a2.87,2.87,0,0,1-2.09-.74,2.76,2.76,0,0,1-.75-2V124h-2.52v-1.91h2.52v-2.62H130v2.62h3.57V124H130v4.61a.77.77,0,0,0,.87.88h2.53v1.91Z"/><path class="cls-5" d="M120,37.08a5.81,5.81,0,0,1,1.46-4.17,5.17,5.17,0,0,1,3.93-1.53v3a2.75,2.75,0,0,0-2,.73,2.73,2.73,0,0,0,2,4.72h9.47v-4h2.75v7H125.36a5.11,5.11,0,0,1-3.93-1.53A5.83,5.83,0,0,1,120,37.08Z"/><path class="cls-5" d="M120,52.08a7.35,7.35,0,0,1,.59-3.09,4.49,4.49,0,0,1,1.7-2,5,5,0,0,1,2.59-.72v3a2,2,0,0,0-1.67.77,3.32,3.32,0,0,0-.6,2.1,3,3,0,0,0,.59,2,2,2,0,0,0,1.64.73,2.43,2.43,0,0,0,1.53-.51,2.62,2.62,0,0,0,.89-1.46l.54-2a5.78,5.78,0,0,1,1.88-3.14,5,5,0,0,1,3.28-1.1,4.85,4.85,0,0,1,2.56.66,4.3,4.3,0,0,1,1.68,1.89,6.44,6.44,0,0,1,.6,2.88,5.79,5.79,0,0,1-1.3,4,4.44,4.44,0,0,1-3.47,1.49v-3a2,2,0,0,0,1.6-.67,2.74,2.74,0,0,0,.58-1.87,2.68,2.68,0,0,0-.55-1.81,1.92,1.92,0,0,0-1.54-.64,2.46,2.46,0,0,0-1.53.49,2.56,2.56,0,0,0-.89,1.41l-.57,2.07a5.74,5.74,0,0,1-1.86,3.15A5.08,5.08,0,0,1,125,57.8a4.68,4.68,0,0,1-4.35-2.71A6.91,6.91,0,0,1,120,52.08Z"/><path class="cls-5" d="M120,66.27a6.38,6.38,0,0,1,.62-2.89,4.47,4.47,0,0,1,1.78-1.87,5.4,5.4,0,0,1,2.72-.65h7.55a5.4,5.4,0,0,1,2.72.65,4.47,4.47,0,0,1,1.78,1.87,6.25,6.25,0,0,1,.63,2.89,6.17,6.17,0,0,1-.63,2.89A4.52,4.52,0,0,1,135.41,71a5.45,5.45,0,0,1-2.7.65h-7.57a5.5,5.5,0,0,1-2.72-.65,4.52,4.52,0,0,1-1.78-1.87A6.29,6.29,0,0,1,120,66.27Zm2.61,0a2.39,2.39,0,0,0,.65,1.83,2.61,2.61,0,0,0,1.86.61h7.55a2.58,2.58,0,0,0,1.87-.61,2.9,2.9,0,0,0,0-3.66,2.59,2.59,0,0,0-1.87-.62h-7.55a2.57,2.57,0,0,0-1.86.63A2.4,2.4,0,0,0,122.63,66.27Z"/><path class="cls-5" d="M120.25,75.1h17.33v3.63l-14,4.82,1.79-.16c.69,0,1.39-.1,2.11-.13s1.35-.05,1.89-.05h8.21v2.71H120.25V82.29l14-4.77-1.66.12-2,.12c-.68,0-1.3,0-1.87,0h-8.48Z"/><rect class="cls-8" x="21.78" y="18.75" width="81.54" height="37.95"/><rect class="cls-8" x="55.42" y="62.82" width="47.89" height="37.95"/><path class="cls-5" d="M50.15,177.14l3.5-13.92h3.07l3.53,13.92H57.81l-.76-3.37h-3.7l-.76,3.37Zm3.64-5.32h2.82l-.84-3.74c-.14-.62-.26-1.18-.36-1.69s-.17-.86-.21-1.09c0,.23-.11.59-.2,1.09s-.22,1.06-.37,1.67Z"/><path class="cls-5" d="M62.39,177.14V163.22H67a5.38,5.38,0,0,1,2.44.53,4,4,0,0,1,1.61,1.5,4.71,4.71,0,0,1,0,4.51,4,4,0,0,1-1.61,1.51,5.31,5.31,0,0,1-2.43.53H64.77v5.34Zm2.38-7.49H67a2.21,2.21,0,0,0,1.6-.59,2.32,2.32,0,0,0,0-3.11,2.2,2.2,0,0,0-1.6-.58H64.77Z"/><path class="cls-5" d="M74.08,177.14V175h2.8v-9.72h-2.8v-2.1h8v2.1h-2.8V175h2.8v2.1Z"/><rect class="cls-8" x="42.36" y="152" width="47.89" height="37.95"/><path class="cls-5" d="M166.54,69.75a5.24,5.24,0,0,1-2.34-.5,3.7,3.7,0,0,1-1.54-1.44,4.22,4.22,0,0,1-.55-2.18V59.57a4.25,4.25,0,0,1,.55-2.2A3.71,3.71,0,0,1,164.2,56a5.24,5.24,0,0,1,2.34-.5,5.18,5.18,0,0,1,2.34.5,3.81,3.81,0,0,1,1.53,1.42,4.15,4.15,0,0,1,.55,2.2h-2.4a2,2,0,0,0-.53-1.51,2.42,2.42,0,0,0-3,0,2,2,0,0,0-.53,1.49v6.08a2,2,0,0,0,.53,1.5,2.42,2.42,0,0,0,3,0,2,2,0,0,0,.53-1.5H171a4.2,4.2,0,0,1-.55,2.18,3.79,3.79,0,0,1-1.53,1.44A5.18,5.18,0,0,1,166.54,69.75Z"/><path class="cls-5" d="M177.94,69.75a5.93,5.93,0,0,1-2.48-.48,3.65,3.65,0,0,1-1.61-1.36,4,4,0,0,1-.58-2.09h2.39a1.64,1.64,0,0,0,.61,1.35,2.71,2.71,0,0,0,1.69.48,2.49,2.49,0,0,0,1.61-.47,1.62,1.62,0,0,0,.59-1.32,2,2,0,0,0-.41-1.23,2.06,2.06,0,0,0-1.18-.71l-1.6-.44A4.71,4.71,0,0,1,174.44,62a4,4,0,0,1-.88-2.63,3.92,3.92,0,0,1,.53-2.06,3.53,3.53,0,0,1,1.52-1.36,5.32,5.32,0,0,1,2.31-.47,4.66,4.66,0,0,1,3.21,1,3.56,3.56,0,0,1,1.2,2.79H180a1.61,1.61,0,0,0-.54-1.29,2.21,2.21,0,0,0-1.5-.46,2.16,2.16,0,0,0-1.45.43,1.54,1.54,0,0,0-.52,1.24,1.93,1.93,0,0,0,.39,1.23,2.09,2.09,0,0,0,1.14.72l1.66.46a4.63,4.63,0,0,1,2.53,1.49,4.06,4.06,0,0,1,.88,2.66,3.83,3.83,0,0,1-.57,2.09,3.77,3.77,0,0,1-1.6,1.4A5.44,5.44,0,0,1,177.94,69.75Z"/><path class="cls-5" d="M189.39,69.75a5.9,5.9,0,0,1-2.48-.48,3.55,3.55,0,0,1-1.61-1.36,4,4,0,0,1-.59-2.09h2.39a1.62,1.62,0,0,0,.62,1.35,2.67,2.67,0,0,0,1.69.48,2.53,2.53,0,0,0,1.61-.47,1.64,1.64,0,0,0,.58-1.32,2,2,0,0,0-.41-1.23,2,2,0,0,0-1.17-.71l-1.61-.44A4.64,4.64,0,0,1,185.89,62a4,4,0,0,1-.89-2.63,3.92,3.92,0,0,1,.53-2.06,3.59,3.59,0,0,1,1.52-1.36,5.4,5.4,0,0,1,2.32-.47,4.65,4.65,0,0,1,3.2,1,3.56,3.56,0,0,1,1.2,2.79h-2.38a1.61,1.61,0,0,0-.54-1.29,2.67,2.67,0,0,0-2.95,0,1.57,1.57,0,0,0-.52,1.24,1.93,1.93,0,0,0,.39,1.23,2.13,2.13,0,0,0,1.14.72l1.66.46a4.66,4.66,0,0,1,2.54,1.49,4.11,4.11,0,0,1,.87,2.66,3.83,3.83,0,0,1-.57,2.09,3.71,3.71,0,0,1-1.6,1.4A5.42,5.42,0,0,1,189.39,69.75Z"/><rect class="cls-8" x="153.62" y="44.42" width="47.89" height="37.95"/><rect class="cls-8" x="19.78" y="107.5" width="128.01" height="37.95"/><path class="cls-5" d="M166.83,114.28V101.92h3.91a4.78,4.78,0,0,1,2.14.45,3.57,3.57,0,0,1,1.41,1.28,3.62,3.62,0,0,1,.51,1.94,3.82,3.82,0,0,1-.62,2.15,3.35,3.35,0,0,1-1.67,1.32l2.46,5.22H172.6l-2.15-4.91h-1.51v4.91Zm2.11-6.78h1.8a1.93,1.93,0,0,0,1.4-.49,1.78,1.78,0,0,0,.51-1.35,1.83,1.83,0,0,0-.51-1.38,1.93,1.93,0,0,0-1.4-.5h-1.8Z"/><path class="cls-5" d="M180.79,114.45a4.44,4.44,0,0,1-2.06-.46,3.39,3.39,0,0,1-1.37-1.28,3.75,3.75,0,0,1-.48-1.92v-2.34a3.75,3.75,0,0,1,.48-1.92,3.39,3.39,0,0,1,1.37-1.28,4.44,4.44,0,0,1,2.06-.45,4.38,4.38,0,0,1,2,.45,3.42,3.42,0,0,1,1.36,1.28,3.75,3.75,0,0,1,.48,1.92v1.68h-5.74v.66a2.1,2.1,0,0,0,.47,1.48,1.88,1.88,0,0,0,1.41.5,2.28,2.28,0,0,0,1.15-.25,1.1,1.1,0,0,0,.56-.72h2.08a3,3,0,0,1-1.28,1.93A4.34,4.34,0,0,1,180.79,114.45Zm1.83-5.51v-.5a2.16,2.16,0,0,0-.46-1.49,1.74,1.74,0,0,0-1.37-.51,1.78,1.78,0,0,0-1.39.52,2.18,2.18,0,0,0-.47,1.49v.36l3.84,0Z"/><path class="cls-5" d="M189.9,114.45a3.22,3.22,0,0,1-2.27-.77,2.64,2.64,0,0,1-.83-2.05,2.57,2.57,0,0,1,.92-2.11,4,4,0,0,1,2.59-.75h2.31V108a1.31,1.31,0,0,0-.44-1.06,1.78,1.78,0,0,0-1.2-.38,2.06,2.06,0,0,0-1.14.3,1.21,1.21,0,0,0-.55.83h-2.07a3,3,0,0,1,1.19-2.1,4.33,4.33,0,0,1,2.64-.77,4,4,0,0,1,2.7.85,2.9,2.9,0,0,1,1,2.31v6.32h-2.05v-1.63h-.34l.34-.46a2,2,0,0,1-.76,1.65A3.19,3.19,0,0,1,189.9,114.45Zm.69-1.6a2.3,2.3,0,0,0,1.47-.45,1.45,1.45,0,0,0,.56-1.19v-1.13h-2.28a1.42,1.42,0,0,0-1,.37,1.3,1.3,0,0,0-.39,1,1.28,1.28,0,0,0,.44,1A1.78,1.78,0,0,0,190.59,112.85Z"/><path class="cls-5" d="M201.14,114.45a4.51,4.51,0,0,1-2.07-.45,3.27,3.27,0,0,1-1.38-1.27,3.71,3.71,0,0,1-.49-1.94v-2.34a3.66,3.66,0,0,1,.49-1.94,3.21,3.21,0,0,1,1.38-1.27,4.64,4.64,0,0,1,2.07-.44,4.18,4.18,0,0,1,2.81.9,3.24,3.24,0,0,1,1.1,2.46h-2.12a1.52,1.52,0,0,0-.51-1.12,2.19,2.19,0,0,0-2.62.07,1.77,1.77,0,0,0-.49,1.33v2.35a1.82,1.82,0,0,0,.49,1.34,2.19,2.19,0,0,0,2.62.07,1.52,1.52,0,0,0,.51-1.12h2.12a3.22,3.22,0,0,1-1.1,2.46A4.18,4.18,0,0,1,201.14,114.45Z"/><path class="cls-5" d="M212.26,114.28a2.83,2.83,0,0,1-2.09-.75,2.76,2.76,0,0,1-.75-2v-4.6H206.9V105h2.52v-2.62h2.13V105h3.57v1.92h-3.57v4.6a.77.77,0,0,0,.86.88H215v1.92Z"/><rect class="cls-8" x="153.44" y="89.37" width="75.34" height="37.95"/><rect class="cls-8" x="88.04" y="40.55" width="81.54" height="37.95" transform="translate(188.33 -69.29) rotate(90)"/><rect class="cls-5" x="153.62" y="25.5" width="63.82" height="11.91"/><rect class="cls-5" x="24.55" y="75.84" width="37.95" height="11.91" transform="translate(125.32 38.27) rotate(90)"/><ellipse class="cls-11" cx="383.45" cy="65.81" rx="5.95" ry="6.51"/><path class="cls-7" d="M383,56.7a10.38,10.38,0,0,0-10.38,10.38c0,7.79,10.38,19.28,10.38,19.28s10.38-11.49,10.38-19.28A10.38,10.38,0,0,0,383,56.7Zm0,14.09a3.71,3.71,0,1,1,3.7-3.71A3.71,3.71,0,0,1,383,70.79Z"/><rect class="cls-5" x="388.15" y="39.56" width="15.27" height="2.54"/><rect class="cls-5" x="388.15" y="39.56" width="15.27" height="2.54" transform="translate(436.61 -354.96) rotate(90)"/><path class="cls-12" d="M172.3,177.75s60.94-29.36,108.81-13.49c26.15,8.67,43.45,26.75,53.72,51.82a121.16,121.16,0,0,1,8.77,45.73l.09,55.42-140.55.22L203,247.71C203,209.19,172.3,177.75,172.3,177.75Z"/><ellipse class="cls-11" cx="286.23" cy="228.73" rx="15.07" ry="18.85" transform="translate(-0.37 0.46) rotate(-0.09)"/><ellipse cx="290.83" cy="225.92" rx="7.54" ry="9.43" transform="translate(-0.36 0.47) rotate(-0.09)"/><ellipse class="cls-11" cx="260.31" cy="228.77" rx="15.07" ry="18.85" transform="translate(-0.37 0.42) rotate(-0.09)"/><ellipse cx="263.78" cy="225.96" rx="7.54" ry="9.43" transform="translate(-0.36 0.43) rotate(-0.09)"/><path class="cls-13" d="M250.6,211.32a13,13,0,0,0,13.2-4"/><path class="cls-14" d="M267.27,260.24a11.25,11.25,0,0,0,.55-6.11c-.62-2.77-2.6-5.76-7.76-6.86-1.74-.37-7.49-1.89-12.24,2.31a11.6,11.6,0,0,0-3.36,5.27c8.21,1.82,14.6,3.57,22.81,5.39"/><path class="cls-5" d="M147.24,112.5a66.57,66.57,0,0,0-65.76,67.36L83.08,313l133.11-1.59L214.6,178.26A66.57,66.57,0,0,0,147.24,112.5Z"/><ellipse class="cls-11" cx="135.55" cy="161.21" rx="14.27" ry="17.99" transform="translate(-1.92 1.64) rotate(-0.69)"/><ellipse class="cls-15" cx="131.98" cy="158.03" rx="7.14" ry="9" transform="translate(-1.88 1.59) rotate(-0.69)"/><ellipse class="cls-11" cx="160.1" cy="160.92" rx="14.27" ry="17.99" transform="translate(-1.92 1.93) rotate(-0.69)"/><ellipse class="cls-15" cx="156.52" cy="157.73" rx="7.14" ry="9" transform="translate(-1.88 1.89) rotate(-0.69)"/><path class="cls-16" d="M127.45,143.93a11.37,11.37,0,0,0,12.76-2.87"/><path class="cls-16" d="M155.58,184.86a11.35,11.35,0,0,0-12.87,2.27"/></g><g class="cls-17"><g class="cls-18"><path class="cls-4" d="M644,78.27a178.25,178.25,0,1,0,0,150.89,178.57,178.57,0,0,1,0-150.89Z"/></g></g></svg>