<svg id="圖層_1" data-name="圖層 1" xmlns="http://www.w3.org/2000/svg" xmlns:xlink="http://www.w3.org/1999/xlink" viewBox="0 0 416 312"><defs><style>.cls-1,.cls-11,.cls-12{fill:none;}.cls-2{clip-path:url(#clip-path);}.cls-3{fill:#6b00ff;}.cls-4,.cls-6,.cls-7{fill:#220156;}.cls-4{opacity:0.3;}.cls-5{clip-path:url(#clip-path-2);}.cls-6{opacity:0.4;}.cls-7{opacity:0.6;}.cls-10,.cls-8{fill:#42edf0;}.cls-9{fill:#fff;}.cls-10,.cls-11{stroke:#000;stroke-linecap:round;stroke-width:3px;}.cls-10,.cls-12,.cls-15,.cls-16,.cls-17,.cls-18{stroke-miterlimit:10;}.cls-11{stroke-linejoin:round;}.cls-12,.cls-15,.cls-18{stroke:#fc0;}.cls-12{stroke-width:2px;}.cls-13,.cls-15,.cls-16{fill:#fc0;}.cls-14,.cls-17,.cls-18{fill:#f80;}.cls-16,.cls-17{stroke:#f80;}</style><clipPath id="clip-path"><rect class="cls-1" width="416" height="312"/></clipPath><clipPath id="clip-path-2"><rect class="cls-1" x="-1.61" y="-2" width="422.31" height="317.02"/></clipPath></defs><g class="cls-2"><rect class="cls-3" width="416" height="312"/><path class="cls-4" d="M-12.55,322.81H420.7V256c-49,15-121.52,33.4-214.6,44.77a1457.05,1457.05,0,0,1-217.3,10Z"/><path class="cls-4" d="M420.7,322.81H-12.55V256c49,15,121.52,33.4,214.6,44.77a1457.05,1457.05,0,0,0,217.3,10Z"/><g class="cls-5"><path class="cls-4" d="M208,78.27a178.25,178.25,0,1,0,0,150.89,178.57,178.57,0,0,1,0-150.89Z"/><path class="cls-6" d="M369.52-24.52A178.25,178.25,0,0,0,208,78.27a178.57,178.57,0,0,1,0,150.89A178.25,178.25,0,1,0,369.52-24.52Z"/><ellipse class="cls-7" cx="208" cy="153.72" rx="16.72" ry="75.44"/></g><path class="cls-8" d="M309.56,187.33s-67.76-32.65-121-15c-29.07,9.64-48.31,29.74-59.73,57.61a134.62,134.62,0,0,0-9.76,50.86L119,342.42l157.28.25-.88-77.55C275.46,222.29,309.56,187.33,309.56,187.33Z"/><ellipse class="cls-9" cx="182.88" cy="244.01" rx="20.96" ry="16.76" transform="translate(-61.43 426.49) rotate(-89.91)"/><ellipse cx="181.53" cy="236.57" rx="10.48" ry="8.38" transform="translate(-55.34 417.72) rotate(-89.91)"/><ellipse class="cls-9" cx="211.69" cy="244.06" rx="20.96" ry="16.76" transform="translate(-32.7 455.35) rotate(-89.91)"/><ellipse cx="211.6" cy="236.62" rx="10.48" ry="8.38" transform="translate(-25.36 447.84) rotate(-89.91)"/><path class="cls-10" d="M222.5,224.65a14.47,14.47,0,0,1-7.81-.07,14.17,14.17,0,0,1-6.87-4.38"/><path class="cls-10" d="M185.15,220.42a14.47,14.47,0,0,1-14.8,4"/><path class="cls-11" d="M163.73,275.24c4.18-3.73,7.63-4.54,10.11-4.51,6.17.06,8.51,5.31,14.09,4.51,4.41-.64,5.35-4.59,10-4.89,6.21-.42,6.84,4.48,12.79,3.63,4.41-.63,5.29-4.25,9.79-4.93,5-.76,9.07,1.31,13,4.2"/><path class="cls-9" d="M387.23,130.44a31,31,0,0,0-28.47-30.88,42.28,42.28,0,0,0-79.49,14.77,23.61,23.61,0,0,0-5.91,45.46,14.13,14.13,0,0,0,6.59,1.63h78.26a13.85,13.85,0,0,0,3.94-.57A31,31,0,0,0,387.23,130.44Z"/><path class="cls-3" d="M317.5,133.24l-.1-9.88h3.9a5.69,5.69,0,0,0,3.95-1.33,4.93,4.93,0,0,0,0-7,5.84,5.84,0,0,0-4-1.3h-7.36v-5.78H321a14.06,14.06,0,0,1,6.32,1.31,9.85,9.85,0,0,1,4.15,3.68,10.36,10.36,0,0,1,1.48,5.62,10.75,10.75,0,0,1-1.26,5.29,9.55,9.55,0,0,1-3.48,3.6,10.18,10.18,0,0,1-5.18,1.38v4.45Zm2,11a3.39,3.39,0,0,1-2.47-.91,3.4,3.4,0,0,1,0-4.69,3.4,3.4,0,0,1,2.47-.92H321a3.38,3.38,0,0,1,2.45.89,3.2,3.2,0,0,1,.91,2.37,3.12,3.12,0,0,1-.94,2.35,3.38,3.38,0,0,1-2.47.91Z"/><circle class="cls-9" cx="365.37" cy="65.35" r="8.7"/><path class="cls-9" d="M379,68.56a6.4,6.4,0,0,0-5.89-6.38,8.74,8.74,0,0,0-16.43,3.05,4.88,4.88,0,0,0-1.22,9.4,2.86,2.86,0,0,0,1.36.34H373a2.76,2.76,0,0,0,.82-.12A6.41,6.41,0,0,0,379,68.56Z"/><circle class="cls-9" cx="356.32" cy="69.61" r="5.36"/><circle class="cls-9" cx="254.93" cy="82.11" r="14.04"/><path class="cls-9" d="M232.9,87.3A10.35,10.35,0,0,1,242.41,77,14.12,14.12,0,0,1,269,81.93a7.88,7.88,0,0,1,2,15.17,4.69,4.69,0,0,1-2.2.55H242.59a4.79,4.79,0,0,1-1.32-.19A10.35,10.35,0,0,1,232.9,87.3Z"/><circle class="cls-9" cx="269.54" cy="89" r="8.65"/><polyline class="cls-12" points="168.86 38.34 160.72 41.24 162.5 49.7 154.36 52.61 156.14 61.08 147.99 63.99"/><polygon class="cls-13" points="116.72 47.73 60.63 47.73 60.63 164.82 158.43 164.82 158.43 89.44 116.72 89.44 116.72 47.73"/><polygon class="cls-14" points="116.72 89.44 158.43 89.44 116.72 47.73 116.72 89.44"/><rect class="cls-15" x="40.64" y="138.6" width="67.23" height="33.12"/><rect class="cls-16" x="40.64" y="91.56" width="67.18" height="80.16"/><rect class="cls-17" x="40.74" y="91.56" width="67.14" height="8.66"/><rect class="cls-18" x="46.3" y="105.24" width="56.38" height="27.5"/><rect class="cls-18" x="51.35" y="160.77" width="45.92" height="5.6"/><rect class="cls-18" x="46.3" y="135.36" width="56.38" height="4.05"/><rect class="cls-18" x="46.3" y="142.52" width="56.38" height="4.05"/><rect class="cls-18" x="46.3" y="149.67" width="40.63" height="4.05"/><rect class="cls-13" x="42.34" y="66.53" width="3.86" height="3.86" transform="matrix(0.87, -0.5, 0.5, 0.87, -28.3, 31.31)"/><rect class="cls-13" x="161.54" y="81.66" width="2.34" height="2.34" transform="translate(63.21 -70.25) rotate(30)"/><rect class="cls-9" x="174.03" y="44.81" width="2.13" height="2.13" rx="1.07" transform="translate(0.52 93.69) rotate(-30)"/><rect class="cls-13" x="123.54" y="170.86" width="3.25" height="3.25" rx="1.62" transform="translate(-69.47 85.69) rotate(-30)"/><rect class="cls-13" x="139.12" y="51.64" width="6.37" height="1.06" transform="translate(13.09 -27.05) rotate(11.38)"/><rect class="cls-13" x="139.12" y="51.64" width="6.37" height="1.06" transform="translate(221.53 -77.05) rotate(101.38)"/><rect class="cls-9" x="39.29" y="184.14" width="6.37" height="1.06" transform="translate(37.27 -4.75) rotate(11.38)"/><rect class="cls-9" x="39.29" y="184.14" width="6.37" height="1.06" transform="translate(231.89 179.47) rotate(101.38)"/><rect class="cls-13" x="201.91" y="128.93" width="15.27" height="2.54"/><rect class="cls-13" x="201.91" y="128.93" width="15.27" height="2.54" transform="translate(339.74 -79.35) rotate(90)"/></g></svg>