<svg id="圖層_1" data-name="圖層 1" xmlns="http://www.w3.org/2000/svg" xmlns:xlink="http://www.w3.org/1999/xlink" viewBox="0 0 416 312"><defs><style>.cls-1,.cls-16{fill:none;}.cls-2{clip-path:url(#clip-path);}.cls-3{clip-path:url(#clip-path-2);}.cls-4,.cls-7{fill:#220156;}.cls-18,.cls-4{opacity:0.4;}.cls-5{clip-path:url(#clip-path-3);}.cls-6{fill:#6b00ff;}.cls-12,.cls-7{opacity:0.3;}.cls-11,.cls-8{fill:#fc0;}.cls-12,.cls-17,.cls-18,.cls-9{fill:#fff;}.cls-10,.cls-11{stroke:#000;}.cls-10,.cls-16{stroke-miterlimit:10;}.cls-10{stroke-width:2px;}.cls-11{stroke-linecap:round;stroke-linejoin:round;stroke-width:3px;}.cls-13{fill:#f80;}.cls-14{fill:#e57200;}.cls-15{fill:#e28a3b;}.cls-16{stroke:#bf6437;}.cls-17{opacity:0.51;}.cls-19{fill:#b3b3b3;}.cls-20{fill:#999;}.cls-21{fill:gray;}.cls-22{fill:#ccc;}.cls-23{fill:#f2f2f2;}</style><clipPath id="clip-path"><rect class="cls-1" x="-448.55" width="416" height="312"/></clipPath><clipPath id="clip-path-2"><rect class="cls-1" x="-450.16" y="-2" width="422.31" height="317.02"/></clipPath><clipPath id="clip-path-3"><rect class="cls-1" width="416" height="312"/></clipPath></defs><g class="cls-2"><g class="cls-3"><path class="cls-4" d="M-79-24.52A178.27,178.27,0,0,0-240.55,78.27a177.46,177.46,0,0,1,16.73,75.45,177.38,177.38,0,0,1-16.73,75.44A178.26,178.26,0,0,0-79,332,178.25,178.25,0,0,0,99.22,153.72,178.25,178.25,0,0,0-79-24.52Z"/></g></g><g class="cls-5"><rect class="cls-6" width="416" height="312"/><path class="cls-7" d="M-22.93,345.34h755V122.09C603.69,213.78,503.33,213.37,459.65,209c-48.62-4.85-97.08-21.56-183.45-51.34C204.49,133,168.71,115,105.76,107a464.7,464.7,0,0,0-120.47.68Z"/><path class="cls-7" d="M-18.12,327.39H655.75V276.46c-67,9.65-119.17,1.42-158.1-10.95-49-15.57-55.65-27.43-101.74-39.92-72-19.51-120,5.08-155.75,16.44-67.23,21.36-76.17,42.21-138.53,59.48A369.68,369.68,0,0,1-17.34,314Z"/><path class="cls-8" d="M316.45,146.52a64.06,64.06,0,0,0-52.7,73.69l21,126.38,126.38-21-21-126.38A64.05,64.05,0,0,0,316.45,146.52Z"/><ellipse class="cls-9" cx="312.45" cy="194.56" rx="13.74" ry="17.32" transform="translate(-27.65 53.82) rotate(-9.43)"/><ellipse class="cls-10" cx="309.29" cy="193.25" rx="6.87" ry="8.66" transform="translate(-27.48 53.28) rotate(-9.43)"/><ellipse class="cls-9" cx="335.75" cy="190.69" rx="13.74" ry="17.32" transform="translate(-26.71 57.58) rotate(-9.43)"/><ellipse class="cls-10" cx="332.59" cy="189.38" rx="6.87" ry="8.66" transform="matrix(0.99, -0.16, 0.16, 0.99, -26.53, 57.05)"/><path class="cls-11" d="M302.36,180.26a11.17,11.17,0,0,0,6.44-.39,11,11,0,0,0,5.28-4.21"/><ellipse class="cls-11" cx="334.13" cy="215.96" rx="3.28" ry="5.14" transform="translate(64.78 508.75) rotate(-80.26)"/><path class="cls-12" d="M316.11,126.66A149.69,149.69,0,0,0,182.67,291L480.44,260.1A149.68,149.68,0,0,0,316.11,126.66Z"/><polyline class="cls-9" points="311.92 116.62 307.38 113.89 310.23 106.2 312.87 105.4 310.02 113.08 314.39 115.7"/><polyline class="cls-9" points="317.66 118.53 320.69 121.28 318.63 129.28 315.88 129.55 317.95 121.59 314.96 118.86"/><circle class="cls-9" cx="312.03" cy="104.22" r="4.12"/><rect class="cls-13" x="155.56" y="273.6" width="355.8" height="47.03" rx="23.51" transform="matrix(1, -0.1, 0.1, 1, -27.87, 34.6)"/><rect class="cls-14" x="194.57" y="302.62" width="26.2" height="20.65" transform="translate(-133.93 156.83) rotate(-31.87)"/><rect class="cls-15" x="207.8" y="306.69" width="26.2" height="20.65" transform="translate(-134.08 164.43) rotate(-31.87)"/><line class="cls-16" x1="201.59" y1="300.85" x2="204.76" y2="306.49"/><line class="cls-16" x1="206.86" y1="297.11" x2="208.55" y2="303.36"/><line class="cls-16" x1="230.93" y1="302.74" x2="226.04" y2="306.98"/><line class="cls-16" x1="234.08" y1="307.6" x2="229.18" y2="311.84"/><line class="cls-16" x1="422.88" y1="281.44" x2="413.86" y2="285.28"/><line class="cls-16" x1="425.07" y1="283.43" x2="416.06" y2="287.27"/><line class="cls-16" x1="421.06" y1="290.51" x2="415.56" y2="282.4"/><polygon class="cls-17" points="401.19 222 392.74 212.12 391.83 223.76 376.77 209.39 385.39 225.44 371.48 225.56 387.41 234.4 368 244.87 386.18 243.7 381.85 253.78 393.81 245.47 396.8 263.45 403.12 250.56 415.35 264.07 411.6 246.24 422.91 248.69 413.76 236.66 440.19 230.76 412.97 229.01 420.53 219.52 410.27 222.63 412.69 202.63 401.19 222"/><polygon class="cls-18" points="257.33 186.37 248.88 176.49 247.97 188.13 232.91 173.76 241.53 189.81 227.62 189.93 243.55 198.77 224.14 209.24 242.32 208.07 237.99 218.15 249.95 209.84 252.94 227.82 259.26 214.94 271.49 228.44 267.74 210.61 279.05 213.06 269.9 201.03 296.33 195.13 269.11 193.38 276.67 183.89 266.41 187 268.83 167 257.33 186.37"/><rect class="cls-19" x="32.54" y="279.11" width="3.46" height="3.46" transform="translate(194.61 47.74) rotate(41.48)"/><rect class="cls-20" x="176.65" y="143.1" width="3.46" height="3.46" transform="translate(41.21 -39.5) rotate(14.27)"/><rect class="cls-21" x="189.25" y="210.3" width="3.46" height="3.46" transform="translate(188.33 -73.32) rotate(41.48)"/><polygon class="cls-1" points="86.35 180.36 87.57 179.13 87.57 178 86.35 180.36"/><path class="cls-22" d="M164,167.42q-3-13.46-5.84-26.93c-.2,1.4-.4,2.81-.61,4.21-.29-1.55-.58-3.1-.88-4.65l-2,1.21q1-3.82,2-7.65-2.07-9.72-4.1-19.46c-17.31,25-41.13,48.16-70.79,66.74l-1.23,2c0-.43.09-.86.14-1.29L79,182.63c-1,1.15-2,2.29-3,3.44l.21-1.79Q65,191,52.74,196.73q-3.43,21.63-6.69,43.3l2.44-.05-.09,1.61,1.39-.18c.16.5.32,1,.47,1.5l4.34,0c.84.83,1.7,1.65,2.55,2.47a303,303,0,0,0,84.61-54.81c-1.31-.39-2.62-.79-3.92-1.2,1.81-.06,3.63-.13,5.44-.21A270.41,270.41,0,0,0,164,167.42Z"/><polygon class="cls-1" points="199 291.47 199 290.13 198.21 289.74 199 291.47"/><path class="cls-23" d="M206.71,251.64a259.66,259.66,0,0,1-77.48-30.13c-.46.94-.92,1.87-1.39,2.81l-.33-3.83a239.84,239.84,0,0,1-28.14-19.85,429.58,429.58,0,0,0,6.9,50.46,296.66,296.66,0,0,0,103.1,39.7c0-1.36-.07-2.73-.1-4.09,1.43,1.63,2.87,3.24,4.34,4.85l1.15.2c-.21-1.21-.43-2.41-.64-3.62q2.26,2.14,4.57,4.25,8.58,1.33,17.38,2.21A441.65,441.65,0,0,1,206.71,251.64Z"/><polygon class="cls-14" points="44.18 161.6 41.06 45.53 178.16 -21.83 181.28 94.23 44.18 161.6"/><polygon class="cls-22" points="51.44 159.98 48.32 43.91 185.42 -23.46 188.54 92.61 51.44 159.98"/><rect class="cls-23" x="90.11" y="-12.92" width="117.21" height="152.76" transform="translate(140.08 -97.99) rotate(63.83)"/><rect class="cls-13" x="97.84" y="-13.49" width="117.21" height="152.76" transform="translate(143.9 -105.25) rotate(63.83)"/><polygon class="cls-8" points="62.11 44.09 40.91 45.57 178.02 -21.8 199.21 -23.28 62.11 44.09"/><line class="cls-16" x1="183.24" y1="12.66" x2="185.94" y2="18.82"/><line class="cls-16" x1="184.59" y1="11.15" x2="187.29" y2="17.31"/><line class="cls-16" x1="188.35" y1="11.4" x2="180.67" y2="16.94"/><line class="cls-16" x1="189.48" y1="13.85" x2="183.95" y2="17.68"/><line class="cls-16" x1="145.77" y1="111.15" x2="139.35" y2="113.16"/><line class="cls-16" x1="147.13" y1="112.66" x2="140.71" y2="114.67"/><line class="cls-16" x1="146.46" y1="116.37" x2="141.79" y2="108.13"/><line class="cls-16" x1="143.91" y1="117.22" x2="140.7" y2="111.31"/><rect class="cls-14" x="192.29" y="59.14" width="27.22" height="21.46" transform="translate(-9.71 97.97) rotate(-26.17)"/><rect class="cls-15" x="205.55" y="64.72" width="27.22" height="21.46" transform="translate(-10.81 104.38) rotate(-26.17)"/><line class="cls-16" x1="200.86" y1="56.73" x2="203.56" y2="62.89"/><line class="cls-16" x1="206.7" y1="53.42" x2="207.8" y2="60.05"/><line class="cls-16" x1="219.84" y1="82.93" x2="222.54" y2="89.09"/><line class="cls-16" x1="221.93" y1="81.58" x2="225.85" y2="87.04"/><line class="cls-16" x1="231.01" y1="61.72" x2="225.51" y2="65.6"/><line class="cls-16" x1="233.75" y1="67.06" x2="228.26" y2="70.94"/><line class="cls-16" x1="198.12" y1="76.84" x2="192.62" y2="80.72"/><line class="cls-16" x1="199.81" y1="79.64" x2="194.31" y2="83.52"/><polygon class="cls-9" points="268.33 17.43 269.61 18.85 257.36 43.15 273.44 21.45 296.27 27.17 306.34 41.63 337 33.07 325.19 79.64 344.01 82.93 318.81 98.74 365.18 80.19 339.3 70.94 343.18 21.53 307.4 36.48 296.27 19.53 268.33 17.43"/></g></svg>