<svg id="圖層_1" data-name="圖層 1" xmlns="http://www.w3.org/2000/svg" xmlns:xlink="http://www.w3.org/1999/xlink" viewBox="0 0 368 279"><defs><style>.cls-1{fill:none;}.cls-2{clip-path:url(#clip-path);}.cls-3{fill:#dfdfdf;}.cls-4{fill:#fff;}.cls-5{fill:#fc0;}.cls-6{fill:#f80;}.cls-7{fill:#42edf0;}.cls-8{fill:#a35eff;}.cls-9{fill:#6b00ff;}</style><clipPath id="clip-path"><rect class="cls-1" width="368" height="279"/></clipPath></defs><g class="cls-2"><g class="cls-2"><rect class="cls-3" width="369.03" height="279"/><circle class="cls-4" cx="26.9" cy="209.86" r="7.03"/><circle class="cls-4" cx="30.87" cy="219.57" r="5.98"/><circle class="cls-4" cx="39.31" cy="221.95" r="3.73"/><circle class="cls-4" cx="16.21" cy="200.87" r="11.02"/><circle class="cls-4" cx="17.6" cy="184" r="8.21"/><circle class="cls-4" cx="6.79" cy="172.71" r="1.84"/><circle class="cls-4" cx="4.23" cy="193.72" r="1.52"/><circle class="cls-4" cx="26.12" cy="192.32" r="2.87"/><circle class="cls-4" cx="8.45" cy="179.02" r="3.49"/><rect class="cls-5" x="256.18" y="201.53" width="5.44" height="54.29" transform="translate(0.6 -0.68) rotate(0.15)"/><rect class="cls-5" x="242.67" y="234.9" width="32.39" height="11.29" rx="3.96" transform="translate(0.63 -0.68) rotate(0.15)"/><circle class="cls-5" cx="259" cy="189.28" r="22.23"/><path class="cls-6" d="M259.05,171a18.69,18.69,0,0,0-16.13,9.18l32.21.08A18.7,18.7,0,0,0,259.05,171Z"/><path class="cls-6" d="M259,208.41a18.74,18.74,0,0,0,17-10.83l-34-.09A18.72,18.72,0,0,0,259,208.41Z"/><path class="cls-4" d="M275.13,180.27l-32.21-.08a18.63,18.63,0,0,0-.92,17.3l34,.09a18.64,18.64,0,0,0-.83-17.31Z"/><polygon class="cls-5" points="250.49 185.35 245.89 185.34 243.58 189.32 245.87 193.31 250.47 193.32 252.78 189.34 250.49 185.35"/><rect class="cls-5" x="255.12" y="185.19" width="8.34" height="8.34" transform="translate(0.5 -0.68) rotate(0.15)"/><polygon class="cls-5" points="270.4 185.22 265.56 193.54 275.19 193.57 270.4 185.22"/><path class="cls-6" d="M199,184.43c8.73,1,14.72,5.08,19.53,8.46A63.74,63.74,0,0,1,230.62,204a34.5,34.5,0,0,0-3.3-9.59l-1.67-30.55c-.83-21.18-10.43-23.93-25.82-23.78l-130.22.26c-27.14.27-33,20-37.7,45.77l158.9-1.6A34.25,34.25,0,0,1,199,184.43Z"/><path class="cls-6" d="M218.53,192.89c-4.81-3.38-10.8-7.5-19.53-8.46a34.25,34.25,0,0,0-8.19.08l-158.9,1.6A56.38,56.38,0,0,0,31,196.57l0,3.23a29,29,0,0,0,29.25,28.67l159.2-1.6a11.9,11.9,0,0,0,11.74-12S231,206,230.62,204A63.74,63.74,0,0,0,218.53,192.89Z"/><ellipse class="cls-5" cx="229.45" cy="209.16" rx="4.54" ry="7.81" transform="translate(-2.09 2.32) rotate(-0.58)"/><circle class="cls-7" cx="219.64" cy="194.98" r="3.53"/><path class="cls-5" d="M103.05,198.34l20.25-.21c1.62,0,2.94-1,2.93-2.14l-.29-28.42c0-1.16-1.35-2.1-3-2.08l-23.07.23c-1.63,0-3,1-2.94,2.14l3.11,28.4C100.09,197.42,101.43,198.35,103.05,198.34Z"/><path class="cls-5" d="M87.85,166l-27.67.43c-1.62,0-2.93,1-2.91,2.17l.6,28.42c0,1.16,1.37,2.08,3,2.05l30.48-.48c1.63,0,2.94-1,2.91-2.17l-3.42-28.37C90.82,166.9,89.47,166,87.85,166Z"/><path class="cls-5" d="M135.11,196.94l69.1-.42c1.63,0,2.95-1,2.94-2.14L206.86,166c0-1.16-1.35-2.1-3-2.08l-69.6,1c-1.63,0-2.95,1-2.94,2.13l.8,27.85C132.15,196,133.49,197,135.11,196.94Z"/><path class="cls-7" d="M223.81,229.73,53.25,231.44a24,24,0,0,1-3.73-.33c-4.67-.75-8.2-3.6-8.87-7.11h0c0-1.21,2.39-2.22,5.35-2.25l180-1.81c6.45-.06,9.46-.09,7.12,3.39l-1.71,2.29C228.71,228.59,226.76,229.7,223.81,229.73Z"/><circle class="cls-5" cx="178.09" cy="227.29" r="16.76"/><circle class="cls-5" cx="87.26" cy="228.2" r="16.76"/><rect class="cls-5" x="54.94" y="145.7" width="70.01" height="15.91" rx="5.58" transform="translate(-3.19 1.92) rotate(-1.2)"/><rect class="cls-8" x="61.09" y="154.97" width="54.14" height="2.43" transform="translate(-3.25 1.88) rotate(-1.2)"/><rect class="cls-8" x="61.09" y="150.95" width="21.94" height="2.43" transform="translate(-3.17 1.54) rotate(-1.2)"/><polygon class="cls-9" points="368 279 290.44 202.76 290.44 243.89 0 243.89 0 314.11 290.44 314.11 290.44 355.24 368 279"/></g></g></svg>