<svg id="圖層_1" data-name="圖層 1" xmlns="http://www.w3.org/2000/svg" xmlns:xlink="http://www.w3.org/1999/xlink" viewBox="0 0 368 279"><defs><style>.cls-1{fill:none;}.cls-2{clip-path:url(#clip-path);}.cls-3{fill:#dfdfdf;}.cls-4{fill:#fff;}.cls-5{fill:#00c2ba;}.cls-6{fill:#42edf0;}.cls-7{fill:#f80;}.cls-8{fill:#fc0;}</style><clipPath id="clip-path"><rect class="cls-1" width="368" height="279"/></clipPath></defs><g class="cls-2"><g class="cls-2"><rect class="cls-3" width="369.03" height="279"/><circle class="cls-4" cx="240.3" cy="162.92" r="14.25"/><circle class="cls-4" cx="140.74" cy="197.51" r="18.54"/><circle class="cls-4" cx="243.48" cy="170.2" r="18.54"/><circle class="cls-4" cx="49.18" cy="175.06" r="18.54"/><circle class="cls-4" cx="258.01" cy="160.43" r="8.72"/><circle class="cls-4" cx="227.7" cy="176.17" r="12.61"/><circle class="cls-4" cx="191.23" cy="170.2" r="12.61"/><circle class="cls-4" cx="89.86" cy="209" r="14.12"/><circle class="cls-4" cx="70.24" cy="145.12" r="14.12"/><circle class="cls-4" cx="86.64" cy="134.45" r="14.12"/><circle class="cls-4" cx="119.58" cy="162.69" r="14.12"/><circle class="cls-4" cx="72.52" cy="168.72" r="14.12"/><circle class="cls-4" cx="169.65" cy="186.58" r="14.12"/><circle class="cls-4" cx="145.59" cy="152.84" r="14.12"/><circle class="cls-4" cx="159.28" cy="188.52" r="35.14"/><circle class="cls-4" cx="102.35" cy="173.86" r="35.14"/><circle class="cls-4" cx="73.9" cy="172.46" r="27.34"/><circle class="cls-4" cx="128.6" cy="147.83" r="11.41"/><circle class="cls-4" cx="145.59" cy="171.99" r="8.72"/><path class="cls-5" d="M32.53,244.83a249.36,249.36,0,0,0,85.7-29,247.92,247.92,0,0,0,52.15-39,346.71,346.71,0,0,0,54.86,38.55,350.59,350.59,0,0,0,111.1,39.9l-4.85,25.39-292-2.27Z"/><path class="cls-6" d="M151.72,251.85c20.94-3.06-14.93-23.4,18.55-42.13,22.69-12.69-12.15-20.94.11-32.91a346.71,346.71,0,0,0,54.86,38.55,350.59,350.59,0,0,0,111.1,39.9l-4.85,25.39-292-2.27Z"/><rect class="cls-6" x="107.57" y="221.99" width="5.42" height="21.91" transform="translate(219.95 466.18) rotate(-179.85)"/><path class="cls-6" d="M124.35,214.52c0,11.36-6.44,20.55-14.31,20.53l.21-80.47C118.12,154.6,124.38,203.17,124.35,214.52Z"/><path class="cls-5" d="M110.25,154.58,110,235.05c-7.87,0-14.23-9.25-14.2-20.6S102.38,154.56,110.25,154.58Z"/><rect class="cls-6" x="51.88" y="222.25" width="5.42" height="21.91" transform="translate(108.57 466.56) rotate(-179.85)"/><path class="cls-6" d="M68.66,214.79c0,11.35-6.44,20.54-14.31,20.52l.21-80.47C62.43,154.86,68.69,203.43,68.66,214.79Z"/><path class="cls-5" d="M54.56,154.84l-.21,80.47c-7.87,0-14.23-9.24-14.2-20.6S46.69,154.82,54.56,154.84Z"/><rect class="cls-6" x="22.02" y="222.18" width="5.42" height="21.91" transform="translate(48.85 466.32) rotate(-179.85)"/><path class="cls-6" d="M38.8,214.71c0,11.35-6.44,20.54-14.31,20.52l.21-80.46C32.57,154.79,38.83,203.35,38.8,214.71Z"/><path class="cls-5" d="M24.7,154.77l-.21,80.46c-7.87,0-14.23-9.24-14.2-20.6S16.83,154.75,24.7,154.77Z"/><ellipse class="cls-4" cx="74.47" cy="217.09" rx="6.82" ry="7.47"/><path class="cls-7" d="M73.9,206.64A11.9,11.9,0,0,0,62,218.55c0,8.93,11.91,22.12,11.91,22.12s11.91-13.19,11.91-22.12A11.91,11.91,0,0,0,73.9,206.64Zm0,16.17a4.26,4.26,0,1,1,4.25-4.26A4.25,4.25,0,0,1,73.9,222.81Z"/><ellipse class="cls-4" cx="194.99" cy="180.02" rx="6.82" ry="7.47"/><path class="cls-7" d="M194.42,169.57a11.91,11.91,0,0,0-11.91,11.91c0,8.93,11.91,22.11,11.91,22.11s11.91-13.18,11.91-22.11A11.9,11.9,0,0,0,194.42,169.57Zm0,16.16a4.25,4.25,0,1,1,4.25-4.25A4.25,4.25,0,0,1,194.42,185.73Z"/><polygon class="cls-8" points="368 279 290.44 202.76 290.44 243.89 0 243.89 0 314.11 290.44 314.11 290.44 355.24 368 279"/></g></g></svg>