<svg id="圖層_1" data-name="圖層 1" xmlns="http://www.w3.org/2000/svg" xmlns:xlink="http://www.w3.org/1999/xlink" viewBox="0 0 368 279"><defs><style>.cls-1,.cls-12{fill:none;}.cls-2{clip-path:url(#clip-path);}.cls-3{clip-path:url(#clip-path-2);}.cls-4{fill:#dfdfdf;}.cls-5{fill:#fff;}.cls-6{fill:#6b00ff;}.cls-7{fill:#a35eff;}.cls-11,.cls-8{fill:#f80;}.cls-9{fill:#00c2ba;}.cls-10{fill:#42edf0;}.cls-11,.cls-12{stroke:#f80;stroke-linecap:round;stroke-linejoin:round;stroke-width:5px;}</style><clipPath id="clip-path"><rect class="cls-1" width="368" height="279"/></clipPath><clipPath id="clip-path-2"><rect class="cls-1" y="-0.97" width="368" height="279"/></clipPath></defs><g class="cls-2"><g class="cls-3"><rect class="cls-4" width="369.03" height="279"/><circle class="cls-5" cx="196.68" cy="123.74" r="12.95"/><circle class="cls-5" cx="194.5" cy="130.62" r="16.84"/><circle class="cls-5" cx="210.29" cy="132.64" r="7.92"/><circle class="cls-5" cx="180.14" cy="125.26" r="11.45"/><circle class="cls-5" cx="102.56" cy="112.57" r="25.17"/><circle class="cls-5" cx="108.17" cy="125.42" r="32.74"/><circle class="cls-5" cx="133.85" cy="108.17" r="15.4"/><circle class="cls-5" cx="34.69" cy="124.72" r="12.25"/><circle class="cls-5" cx="44.76" cy="136.69" r="12.25"/><circle class="cls-5" cx="80.41" cy="87.39" r="15.4"/><circle class="cls-5" cx="80.3" cy="135.96" r="22.26"/><circle class="cls-5" cx="75.92" cy="117.46" r="22.26"/><circle class="cls-5" cx="51.42" cy="101.48" r="22.26"/><polygon class="cls-6" points="179.3 246.01 128.75 246.52 128.53 128.59 179.09 128.08 179.3 246.01"/><path class="cls-6" d="M128.64,187.56h0l-.11-59,25.28-.26h0C153.87,160.9,142.6,187.42,128.64,187.56Z"/><path class="cls-6" d="M154,246.27h0l-25.28.26-.11-59h0C142.6,187.42,154,213.71,154,246.27Z"/><path class="cls-6" d="M153.81,128.33h0l25.28-.25.1,59h0C165.23,187.19,153.87,160.9,153.81,128.33Z"/><path class="cls-6" d="M179.19,187.05h0l.11,59-25.27.25h0C154,213.71,165.23,187.19,179.19,187.05Z"/><polygon class="cls-6" points="221.66 246.08 184.39 246.52 184.23 142.59 221.5 142.14 221.66 246.08"/><path class="cls-6" d="M184.31,194.56h0l-.08-52,18.64-.23h0C202.91,171.06,194.6,194.43,184.31,194.56Z"/><path class="cls-6" d="M203,246.3h0l-18.64.23-.08-52h0C194.6,194.43,203,217.6,203,246.3Z"/><path class="cls-6" d="M202.87,142.36h0l18.63-.22.08,52h0C211.29,194.23,202.91,171.06,202.87,142.36Z"/><path class="cls-6" d="M221.58,194.11h0l.08,52L203,246.3h0C203,217.6,211.29,194.23,221.58,194.11Z"/><polygon class="cls-6" points="48.79 251.83 22.19 252.31 22.07 140.21 48.68 139.72 48.79 251.83"/><path class="cls-6" d="M22.13,196.26h0l-.06-56L35.38,140h0C35.41,170.92,29.48,196.13,22.13,196.26Z"/><path class="cls-6" d="M35.49,252.07h0l-13.3.24-.06-56.05h0C29.48,196.13,35.46,221.11,35.49,252.07Z"/><path class="cls-6" d="M35.37,140h0l13.31-.25.06,56.06h0C41.39,195.91,35.41,170.92,35.37,140Z"/><path class="cls-6" d="M48.74,195.78h0l0,56.05-13.3.24h0C35.46,221.11,41.39,195.91,48.74,195.78Z"/><polygon class="cls-6" points="93.71 251.83 67.1 252.31 66.99 140.21 93.6 139.72 93.71 251.83"/><path class="cls-6" d="M67.05,196.26h0l-.06-56,13.3-.24h0C80.32,170.92,74.39,196.13,67.05,196.26Z"/><path class="cls-6" d="M80.41,252.07h0l-13.31.24,0-56.05h0C74.39,196.13,80.38,221.11,80.41,252.07Z"/><path class="cls-6" d="M80.29,140h0l13.31-.25.05,56.06h0C86.31,195.91,80.32,170.92,80.29,140Z"/><path class="cls-6" d="M93.65,195.78h0l.06,56.05-13.3.24h0C80.38,221.11,86.31,195.91,93.65,195.78Z"/><polygon class="cls-6" points="71.34 174.01 44.82 174.37 44.71 90.88 71.23 90.52 71.34 174.01"/><path class="cls-6" d="M44.76,132.63h0l0-41.75L58,90.7h0C58,113.75,52.09,132.53,44.76,132.63Z"/><path class="cls-6" d="M58.08,174.19h0l-13.26.18-.06-41.74h0C52.09,132.53,58.05,151.14,58.08,174.19Z"/><path class="cls-6" d="M58,90.7h0l13.26-.18.06,41.75h0C64,132.37,58,113.75,58,90.7Z"/><path class="cls-6" d="M71.29,132.27h0l0,41.74-13.26.18h0C58.05,151.14,64,132.37,71.29,132.27Z"/><polygon class="cls-6" points="251.78 268.79 214.52 269.23 214.36 165.29 251.62 164.85 251.78 268.79"/><path class="cls-6" d="M214.44,217.27h0l-.08-52,18.63-.23h0C233,193.77,224.73,217.14,214.44,217.27Z"/><path class="cls-6" d="M233.15,269h0l-18.63.23-.08-52h0C224.73,217.14,233.11,240.31,233.15,269Z"/><path class="cls-6" d="M233,165.07h0l18.63-.22.08,52h0C241.41,216.94,233,193.77,233,165.07Z"/><path class="cls-6" d="M251.7,216.82h0l.09,52-18.64.22h0C233.11,240.31,241.41,216.94,251.7,216.82Z"/><polygon class="cls-7" points="108.53 246.24 75.99 246.52 75.85 180.08 108.39 179.79 108.53 246.24"/><path class="cls-7" d="M75.92,213.3h0l-.07-33.22,16.27-.15h0C92.16,198.28,84.9,213.22,75.92,213.3Z"/><path class="cls-7" d="M92.26,246.38h0L76,246.53l-.07-33.23h0C84.9,213.22,92.22,228,92.26,246.38Z"/><path class="cls-7" d="M92.12,179.93h0l16.28-.14.07,33.23h0C99.48,213.09,92.16,198.28,92.12,179.93Z"/><path class="cls-7" d="M108.47,213h0l.07,33.22-16.28.14h0C92.22,228,99.48,213.09,108.47,213Z"/><polygon class="cls-7" points="230.19 245.73 173.61 246.1 173.36 158.32 229.94 157.95 230.19 245.73"/><path class="cls-7" d="M173.48,202.22h0l-.12-43.9,28.29-.18h0C201.72,182.38,189.11,202.11,173.48,202.22Z"/><path class="cls-7" d="M201.9,245.92h0l-28.3.19-.12-43.89h0C189.11,202.11,201.83,221.68,201.9,245.92Z"/><path class="cls-7" d="M201.65,158.14h0L230,158l.12,43.89h0C214.44,201.94,201.72,182.38,201.65,158.14Z"/><path class="cls-7" d="M230.07,201.84h0l.12,43.89-28.29.19h0C201.83,221.68,214.44,201.94,230.07,201.84Z"/><polygon class="cls-7" points="136.95 245.75 102.05 246.18 101.9 145.71 136.8 145.28 136.95 245.75"/><path class="cls-7" d="M102,196h0l-.08-50.24,17.45-.22h0C119.39,173.24,111.61,195.83,102,196Z"/><path class="cls-7" d="M119.5,246h0l-17.45.22L102,196h0C111.61,195.83,119.46,218.23,119.5,246Z"/><path class="cls-7" d="M119.35,145.49h0l17.45-.21.07,50.24h0C127.24,195.64,119.39,173.24,119.35,145.49Z"/><path class="cls-7" d="M136.87,195.52h0l.08,50.24L119.5,246h0C119.46,218.23,127.24,195.64,136.87,195.52Z"/><rect class="cls-6" x="182.82" y="175.57" width="49.82" height="27.68" transform="translate(392.56 -22.4) rotate(88.75)"/><circle class="cls-8" cx="207.2" cy="178.54" r="10.47"/><circle class="cls-9" cx="207.67" cy="200.49" r="10.47"/><rect class="cls-6" x="204.67" y="212.39" width="7.52" height="32.1" rx="2.73" transform="matrix(1, -0.02, 0.02, 1, -4.93, 4.6)"/><rect class="cls-6" x="194.82" y="240.18" width="28.39" height="4.93" rx="1.79"/><polygon class="cls-8" points="368 279 290.44 202.76 290.44 243.89 0 243.89 0 314.11 290.44 314.11 290.44 355.24 368 279"/><circle class="cls-8" cx="139.21" cy="182.95" r="29.5"/><circle class="cls-10" cx="139.21" cy="182.95" r="23.41"/><circle class="cls-8" cx="64.2" cy="214.81" r="29.5"/><circle class="cls-10" cx="64.2" cy="214.81" r="23.41"/><line class="cls-11" x1="87.32" y1="145.6" x2="138" y2="181.72"/><line class="cls-11" x1="64.52" y1="214.25" x2="103.64" y2="160.27"/><line class="cls-11" x1="92.19" y1="138.3" x2="80.35" y2="155.33"/><path class="cls-12" d="M162.56,157.08a29.43,29.43,0,0,1,9.91,13.17,30.84,30.84,0,0,1,1.85,16.62"/><path class="cls-12" d="M34.69,196.06a29.58,29.58,0,0,1,11.47-11.84,30.77,30.77,0,0,1,16.13-4.41"/></g></g></svg>