<svg id="圖層_1" data-name="圖層 1" xmlns="http://www.w3.org/2000/svg" xmlns:xlink="http://www.w3.org/1999/xlink" viewBox="0 0 1920 226"><defs><style>.cls-1{fill:none;}.cls-2{clip-path:url(#clip-path);}.cls-3{clip-path:url(#clip-path-2);}.cls-4{fill:#fc0;}.cls-5{fill:#f80;opacity:0.24;}.cls-6{fill:#220156;}.cls-7{fill:#6b00ff;}.cls-8{fill:#42edf0;}</style><clipPath id="clip-path"><rect class="cls-1" width="1920" height="226"/></clipPath><clipPath id="clip-path-2"><rect class="cls-1" x="-10.33" y="-8.82" width="1934.08" height="244.14"/></clipPath></defs><g class="cls-2"><g class="cls-3"><rect class="cls-4" x="-3" y="-2.13" width="1926.75" height="231.44"/><circle class="cls-5" cx="952.53" cy="125.32" r="882.87"/><path class="cls-5" d="M952.53,808.19a678.49,678.49,0,0,1-265.74-53.58A680.81,680.81,0,0,1,469.67,608.18a680.09,680.09,0,0,1-200-482.86A683.84,683.84,0,0,1,686.79-504a685.81,685.81,0,0,1,531.49,0A680.94,680.94,0,0,1,1435.4-357.55a680.09,680.09,0,0,1,200,482.87,683.88,683.88,0,0,1-417.13,629.29A678.5,678.5,0,0,1,952.53,808.19Z"/><path class="cls-5" d="M952.53,608.19A479.48,479.48,0,0,1,764.7,570.41a482.13,482.13,0,0,1-295-445.09,483.88,483.88,0,0,1,295-445.09,485.83,485.83,0,0,1,375.67,0,482.18,482.18,0,0,1,295,445.09,483.88,483.88,0,0,1-295,445.09A479.52,479.52,0,0,1,952.53,608.19Z"/><rect class="cls-6" x="658.57" y="21.39" width="26.7" height="6.25"/><rect class="cls-6" x="1234.85" y="21.39" width="26.7" height="6.25"/><rect class="cls-6" x="658.57" y="198.2" width="26.7" height="6.25"/><rect class="cls-6" x="1234.85" y="198.2" width="26.7" height="6.25"/><polygon class="cls-7" points="1276.88 115.38 1281.06 98.64 1229.87 98.65 1215.2 101.52 1207.36 107.2 1214.18 116.97 1221.67 115.4 1233.89 109.05 1237.17 109.54 1276.88 115.38"/><path class="cls-7" d="M1212.57,118.09l-6.82-9.76a2,2,0,0,1,.46-2.72l7.84-5.68a1.88,1.88,0,0,1,.78-.34l14.66-2.87a2.33,2.33,0,0,1,.37,0h51.2a2,2,0,0,1,1.91,2.44l-4.18,16.75a2,2,0,0,1-2.19,1.47l-42.37-6.24-11.65,6a1.58,1.58,0,0,1-.5.18l-7.5,1.57a1.81,1.81,0,0,1-.4,0A2,2,0,0,1,1212.57,118.09Zm8.44-4.56-6,1.25-5-7.12,5.93-4.29,14-2.75,48.48,0-3.13,12.58-41.23-6.07a2,2,0,0,0-1.2.2Z"/><polyline class="cls-7" points="1281.06 98.64 1229.87 98.65 1215.2 101.52 1200.09 104.48 1190.11 94.09 1212.15 82.06 1238.75 79.11 1277.65 77.41 1254.02 77.42 1212.15 82.06 1198.58 77.43 1194.03 68.88 1247.73 50.06 1295.77 45.77 1320.56 54.31 1386.43 104.73 1506.09 108.97 1506.12 191.43 1382.2 168.23 1337.4 168.24 1280.38 140.96 1255.39 132.83 1216.46 120.64 1214.18 116.97 1221.67 115.4 1233.89 109.05 1285.29 114.64"/><path class="cls-7" d="M1506.12,193.4a2,2,0,0,0,2-2l0-82.46a2,2,0,0,0-1.9-2l-119-4.22-65.38-50a2,2,0,0,0-.55-.3l-24.79-8.54a2.08,2.08,0,0,0-.82-.1l-48,4.29a2.73,2.73,0,0,0-.48.1L1193.38,67a2,2,0,0,0-1.18,1.14,2,2,0,0,0,.09,1.64l4.55,8.55a2,2,0,0,0,1.1.93l9.34,3.19-18.11,9.89a2,2,0,0,0-.48,3.08l10,10.39a2,2,0,0,0,1.79.57l29.6-5.79,51,0a2,2,0,1,0,0-3.93h-51.2a2.33,2.33,0,0,0-.37,0l-28.73,5.62-7.45-7.76L1212.75,84l26.16-2.9,38.83-1.7a2,2,0,0,0-.09-3.93H1253.8l-15.24,1.69h0l-26.17,2.9L1200,75.82,1196.84,70l51.31-18,47.37-4.23,24.1,8.3,65.62,50.23a1.92,1.92,0,0,0,1.13.4l117.76,4.17,0,78.19L1382.57,166.3a2.22,2.22,0,0,0-.37,0h-44.35l-56.63-27.1a.85.85,0,0,0-.24-.09L1256,131l-38.25-12-.42-.66,4.75-1a1.58,1.58,0,0,0,.5-.18l11.69-6.07,50.81,5.52a2,2,0,1,0,.43-3.91l-51.41-5.58a2,2,0,0,0-1.12.21l-12,6.22-7.23,1.51a2,2,0,0,0-1.27,3l2.28,3.68a2,2,0,0,0,1.09.84l38.93,12.19,24.83,8.08L1336.55,170a2,2,0,0,0,.85.19H1382l123.73,23.17A2.31,2.31,0,0,0,1506.12,193.4Z"/><polyline class="cls-7" points="1344.49 150.25 1303.57 127.24 1294.09 116.94 1274.27 111.75 1244.28 106.47 1226.11 95.51 1228.29 82.05 1255.24 82.05 1289.38 83.83 1314.46 82.03"/><path class="cls-7" d="M1344.49,152.22a2,2,0,0,0,1-3.68l-40.65-22.86-9.27-10.07a2,2,0,0,0-.94-.57l-19.82-5.2-.16,0L1245,104.59l-16.72-10.08L1230,84h25.22l34.09,1.78h.24L1314.6,84a2,2,0,1,0-.29-3.92l-25,1.79-34-1.78h-27a2,2,0,0,0-1.94,1.65l-2.19,13.45a2,2,0,0,0,.93,2l18.17,11a1.86,1.86,0,0,0,.68.25l29.91,5.27,19.18,5,9.09,9.87a2,2,0,0,0,.48.39l40.93,23A1.94,1.94,0,0,0,1344.49,152.22Z"/><polygon class="cls-8" points="1282.74 109.38 1286.92 92.63 1235.72 92.64 1221.06 95.51 1213.22 101.19 1220.04 110.96 1227.53 109.39 1239.75 103.05 1243.03 103.53 1282.74 109.38"/><path class="cls-7" d="M1218.43,112.08l-6.82-9.76a2,2,0,0,1,.46-2.72l7.84-5.68a2,2,0,0,1,.77-.34l14.67-2.87a2.31,2.31,0,0,1,.37,0l51.2,0h0a2,2,0,0,1,1.91,2.44l-4.18,16.75a2,2,0,0,1-2.19,1.47l-42.37-6.24-11.65,6.06a2.3,2.3,0,0,1-.5.18l-7.5,1.56a1.81,1.81,0,0,1-.4,0A1.93,1.93,0,0,1,1218.43,112.08Zm8.44-4.56-6,1.25-5-7.12,5.93-4.29,14-2.75h48.49l-3.13,12.57L1240,101.1a2,2,0,0,0-1.2.2Z"/><polyline class="cls-8" points="1286.92 92.63 1235.72 92.64 1221.06 95.51 1205.94 98.47 1195.97 88.08 1218.01 76.05 1244.61 73.1 1283.51 71.4 1259.88 71.41 1218.01 76.05 1204.44 71.42 1199.89 62.88 1253.59 44.05 1301.63 40.94 1326.42 51.06 1371.88 93.6 1391.79 104.17 1511.95 102.97 1511.97 185.43 1388.06 162.22 1343.26 161.84 1311.34 151.13 1287.41 133.38 1261.34 124.63 1222.32 116.6 1220.04 110.96 1227.53 109.39 1239.75 103.05 1291.15 108.63"/><path class="cls-7" d="M1512,187.39a2,2,0,0,0,2-2l0-82.45a2,2,0,0,0-2-2l-119.66,1.2L1373,92l-45.27-42.36a2,2,0,0,0-.6-.38l-24.79-10.12a2,2,0,0,0-.87-.14l-48,3.11a1.93,1.93,0,0,0-.52.11L1199.24,61a2,2,0,0,0-1.18,1.14,2,2,0,0,0,.09,1.64l4.55,8.55a2,2,0,0,0,1.1.94l9.34,3.18L1195,86.36a1.94,1.94,0,0,0-1,1.42,2,2,0,0,0,.52,1.67l10,10.38a2,2,0,0,0,1.79.57l29.59-5.79,51,0a2,2,0,1,0,0-3.93h0l-51.2,0a2.31,2.31,0,0,0-.37,0l-28.73,5.62-7.45-7.75L1218.61,78l26.16-2.9,38.83-1.69a2,2,0,0,0-.09-3.94h-23.85l-15.25,1.69h0l-26.18,2.9-12.41-4.24L1202.7,64,1254,46l47.31-3.07,24,9.81L1370.54,95a1.79,1.79,0,0,0,.42.3l19.91,10.58a2,2,0,0,0,.94.23L1510,105l0,78.11-121.59-22.77a1.87,1.87,0,0,0-.34,0l-44.49-.38-31.33-10.51-23.67-17.57a1.93,1.93,0,0,0-.55-.29L1262,122.76l-.22-.06-38-7.81-1-2.49,5.2-1.08a2.3,2.3,0,0,0,.5-.18l11.69-6.07,50.81,5.51a2,2,0,0,0,.43-3.91L1240,101.09a2,2,0,0,0-1.12.21l-12,6.22-7.23,1.51a2,2,0,0,0-1.42,2.67l2.28,5.64a2,2,0,0,0,1.43,1.19l38.9,8,25.66,8.61,23.68,17.57a2.16,2.16,0,0,0,.54.29l31.92,10.71a2.16,2.16,0,0,0,.61.1l44.63.38,123.74,23.17A2.22,2.22,0,0,0,1512,187.39Z"/><line class="cls-8" x1="1285.28" y1="69.24" x2="1283.99" y2="77.23"/><path class="cls-7" d="M1284,79.2a2,2,0,0,0,1.94-1.65l1.29-8a2,2,0,1,0-3.88-.63l-1.29,8a2,2,0,0,0,1.63,2.26Z"/><line class="cls-8" x1="1282.81" y1="115.55" x2="1281.02" y2="106.33"/><path class="cls-7" d="M1282.81,117.52a2.58,2.58,0,0,0,.38,0,2,2,0,0,0,1.55-2.31L1283,106a2,2,0,1,0-3.87.75l1.79,9.21A2,2,0,0,0,1282.81,117.52Z"/><polygon class="cls-7" points="643.12 115.38 638.94 98.64 690.13 98.65 704.8 101.52 712.64 107.2 705.82 116.97 698.33 115.4 686.11 109.05 682.83 109.54 643.12 115.38"/><path class="cls-7" d="M705.82,118.93a1.81,1.81,0,0,1-.4,0l-7.5-1.57a1.58,1.58,0,0,1-.5-.18l-11.65-6-42.37,6.24a2,2,0,0,1-2.19-1.47L637,99.11a2,2,0,0,1,1.91-2.44h51.2a2.33,2.33,0,0,1,.37,0l14.66,2.87a1.88,1.88,0,0,1,.78.34l7.84,5.68a2,2,0,0,1,.46,2.72l-6.82,9.76A2,2,0,0,1,705.82,118.93Zm-6.83-5.4,6,1.25,5-7.12L704,103.37l-14-2.75-48.48,0,3.13,12.58,41.23-6.07a2,2,0,0,1,1.2.2Z"/><polyline class="cls-7" points="638.94 98.64 690.13 98.65 704.8 101.52 719.91 104.48 729.89 94.09 707.85 82.06 681.25 79.11 642.35 77.41 665.98 77.42 707.85 82.06 721.42 77.43 725.97 68.88 672.27 50.06 624.23 45.77 599.44 54.31 533.57 104.73 413.91 108.97 413.88 191.43 537.8 168.23 582.6 168.24 639.62 140.96 664.61 132.83 703.54 120.64 705.82 116.97 698.33 115.4 686.11 109.05 634.71 114.64"/><path class="cls-7" d="M413.88,193.4a2,2,0,0,1-2-2l0-82.46a2,2,0,0,1,1.9-2l119-4.22,65.38-50a2,2,0,0,1,.55-.3l24.79-8.54a2.08,2.08,0,0,1,.82-.1l48,4.29a2.73,2.73,0,0,1,.48.1L726.62,67a2,2,0,0,1,1.18,1.14,2,2,0,0,1-.09,1.64l-4.55,8.55a2,2,0,0,1-1.1.93l-9.34,3.19,18.11,9.89a2,2,0,0,1,.48,3.08l-10,10.39a2,2,0,0,1-1.79.57l-29.6-5.79-51,0a2,2,0,1,1,0-3.93h51.2a2.33,2.33,0,0,1,.37,0l28.73,5.62,7.45-7.76L707.25,84l-26.16-2.9-38.83-1.7a2,2,0,0,1,.09-3.93H666.2l15.24,1.69h0l26.17,2.9,12.42-4.23L723.16,70,671.85,52l-47.37-4.23-24.1,8.3L534.76,106.3a1.92,1.92,0,0,1-1.13.4l-117.76,4.17,0,78.19L537.43,166.3a2.22,2.22,0,0,1,.37,0h44.35l56.63-27.1a.85.85,0,0,1,.24-.09L664,131l38.25-12,.42-.66-4.75-1a1.58,1.58,0,0,1-.5-.18l-11.69-6.07-50.81,5.52a2,2,0,1,1-.43-3.91l51.41-5.58a2,2,0,0,1,1.12.21l12,6.22,7.23,1.51a2,2,0,0,1,1.27,3l-2.28,3.68a2,2,0,0,1-1.09.84l-38.93,12.19-24.83,8.08L583.45,170a2,2,0,0,1-.85.19H538L414.25,193.37A2.31,2.31,0,0,1,413.88,193.4Z"/><polyline class="cls-7" points="575.51 150.25 616.43 127.24 625.91 116.94 645.73 111.75 675.72 106.47 693.89 95.51 691.71 82.05 664.76 82.05 630.62 83.83 605.54 82.03"/><path class="cls-7" d="M575.51,152.22a2,2,0,0,1-1-3.68l40.65-22.86,9.27-10.07a2,2,0,0,1,.94-.57l19.82-5.2.16,0L675,104.59l16.72-10.08L690,84H664.81l-34.09,1.78h-.24L605.4,84a2,2,0,1,1,.29-3.92l24.95,1.79,34-1.78h27.05a2,2,0,0,1,1.94,1.65l2.19,13.45a2,2,0,0,1-.93,2l-18.17,11a1.86,1.86,0,0,1-.68.25l-29.91,5.27-19.18,5-9.09,9.87a2,2,0,0,1-.48.39l-40.93,23A1.94,1.94,0,0,1,575.51,152.22Z"/><polygon class="cls-8" points="637.26 109.38 633.08 92.63 684.28 92.64 698.94 95.51 706.78 101.19 699.96 110.96 692.47 109.39 680.25 103.05 676.97 103.53 637.26 109.38"/><path class="cls-7" d="M700,112.92a1.81,1.81,0,0,1-.4,0l-7.5-1.56a2.3,2.3,0,0,1-.5-.18l-11.65-6.06-42.37,6.24a2,2,0,0,1-2.19-1.47L631.17,93.1a2,2,0,0,1,1.91-2.44h0l51.2,0a2.31,2.31,0,0,1,.37,0l14.67,2.87a2,2,0,0,1,.77.34l7.84,5.68a2,2,0,0,1,.46,2.72l-6.82,9.76A1.93,1.93,0,0,1,700,112.92Zm-6.83-5.4,6,1.25,5-7.12-5.93-4.29-14-2.75H635.6l3.13,12.57L680,101.1a2,2,0,0,1,1.2.2Z"/><polyline class="cls-8" points="633.08 92.63 684.28 92.64 698.94 95.51 714.05 98.47 724.03 88.08 702 76.05 675.39 73.1 636.49 71.4 660.12 71.41 702 76.05 715.56 71.42 720.11 62.88 666.41 44.05 618.38 40.94 593.58 51.06 548.12 93.6 528.21 104.17 408.05 102.97 408.02 185.43 531.94 162.22 576.74 161.84 608.66 151.13 632.59 133.38 658.66 124.63 697.68 116.6 699.96 110.96 692.47 109.39 680.25 103.05 628.85 108.63"/><path class="cls-7" d="M408,187.39a2,2,0,0,1-2-2l0-82.45a2,2,0,0,1,2-2l119.66,1.2L547,92l45.27-42.36a2,2,0,0,1,.6-.38l24.79-10.12a2,2,0,0,1,.87-.14l48,3.11a1.93,1.93,0,0,1,.52.11L720.76,61a2,2,0,0,1,1.18,1.14,2,2,0,0,1-.09,1.64l-4.55,8.55a2,2,0,0,1-1.1.94l-9.34,3.18L725,86.36a1.94,1.94,0,0,1,1,1.42,2,2,0,0,1-.52,1.67l-10,10.38a2,2,0,0,1-1.79.57l-29.59-5.79-51,0a2,2,0,1,1,0-3.93h0l51.2,0a2.31,2.31,0,0,1,.37,0l28.73,5.62,7.45-7.75L701.39,78l-26.16-2.9L636.4,73.37a2,2,0,0,1,.09-3.94h23.85l15.25,1.69h0l26.18,2.9,12.41-4.24L717.3,64,666,46,618.7,42.93l-24,9.81L549.46,95a1.79,1.79,0,0,1-.42.3l-19.91,10.58a2,2,0,0,1-.94.23L410,105l0,78.11,121.59-22.77a1.87,1.87,0,0,1,.34,0l44.49-.38,31.33-10.51,23.67-17.57a1.93,1.93,0,0,1,.55-.29L658,122.76l.22-.06,38-7.81,1-2.49-5.2-1.08a2.3,2.3,0,0,1-.5-.18l-11.69-6.07-50.81,5.51a2,2,0,1,1-.43-3.91L680,101.09a2,2,0,0,1,1.12.21l12,6.22,7.23,1.51a2,2,0,0,1,1.42,2.67l-2.28,5.64a2,2,0,0,1-1.43,1.19l-38.9,8-25.66,8.61-23.68,17.57a2.16,2.16,0,0,1-.54.29l-31.92,10.71a2.16,2.16,0,0,1-.61.1l-44.63.38L408.39,187.36A2.22,2.22,0,0,1,408,187.39Z"/><rect class="cls-7" x="649.31" y="34.04" width="620.32" height="157.77"/><line class="cls-8" x1="634.72" y1="69.24" x2="636.01" y2="77.23"/><path class="cls-7" d="M636,79.2a2,2,0,0,1-1.94-1.65l-1.29-8a2,2,0,1,1,3.88-.63l1.29,8a2,2,0,0,1-1.63,2.26Z"/><rect class="cls-4" x="696.26" y="173.75" width="18.26" height="4.61" rx="2.31"/><rect class="cls-4" x="721.66" y="173.75" width="18.26" height="4.61" rx="2.31"/><rect class="cls-4" x="747.06" y="173.75" width="18.26" height="4.61" rx="2.31"/><rect class="cls-4" x="772.47" y="173.75" width="18.26" height="4.61" rx="2.31"/><rect class="cls-4" x="797.87" y="173.75" width="18.26" height="4.61" rx="2.31"/><rect class="cls-4" x="823.27" y="173.75" width="18.26" height="4.61" rx="2.31"/><rect class="cls-4" x="848.68" y="173.75" width="18.26" height="4.61" rx="2.31"/><rect class="cls-4" x="874.47" y="173.75" width="18.26" height="4.61" rx="2.31"/><rect class="cls-4" x="899.87" y="173.75" width="18.26" height="4.61" rx="2.31"/><rect class="cls-4" x="925.27" y="173.75" width="18.26" height="4.61" rx="2.31"/><rect class="cls-4" x="950.68" y="173.75" width="18.26" height="4.61" rx="2.31"/><rect class="cls-4" x="976.08" y="173.75" width="18.26" height="4.61" rx="2.31"/><rect class="cls-4" x="1001.48" y="173.75" width="18.26" height="4.61" rx="2.31"/><rect class="cls-4" x="1026.89" y="173.75" width="18.26" height="4.61" rx="2.31"/><rect class="cls-4" x="1052.26" y="173.75" width="18.26" height="4.61" rx="2.31"/><rect class="cls-4" x="1077.66" y="173.75" width="18.26" height="4.61" rx="2.31"/><rect class="cls-4" x="1103.06" y="173.75" width="18.26" height="4.61" rx="2.31"/><rect class="cls-4" x="1128.47" y="173.75" width="18.26" height="4.61" rx="2.31"/><rect class="cls-4" x="1153.87" y="173.75" width="18.26" height="4.61" rx="2.31"/><rect class="cls-4" x="1179.27" y="173.75" width="18.26" height="4.61" rx="2.31"/><rect class="cls-4" x="1204.68" y="173.75" width="18.26" height="4.61" rx="2.31"/><rect class="cls-4" x="696.26" y="47.19" width="18.26" height="4.61" rx="2.31"/><rect class="cls-4" x="721.66" y="47.19" width="18.26" height="4.61" rx="2.31"/><rect class="cls-4" x="747.06" y="47.19" width="18.26" height="4.61" rx="2.31"/><rect class="cls-4" x="772.47" y="47.19" width="18.26" height="4.61" rx="2.31"/><rect class="cls-4" x="797.87" y="47.19" width="18.26" height="4.61" rx="2.31"/><rect class="cls-4" x="823.27" y="47.19" width="18.26" height="4.61" rx="2.31"/><rect class="cls-4" x="848.68" y="47.19" width="18.26" height="4.61" rx="2.31"/><rect class="cls-4" x="874.47" y="47.19" width="18.26" height="4.61" rx="2.31"/><rect class="cls-4" x="899.87" y="47.19" width="18.26" height="4.61" rx="2.31"/><rect class="cls-4" x="925.27" y="47.19" width="18.26" height="4.61" rx="2.31"/><rect class="cls-4" x="950.68" y="47.19" width="18.26" height="4.61" rx="2.31"/><rect class="cls-4" x="976.08" y="47.19" width="18.26" height="4.61" rx="2.31"/><rect class="cls-4" x="1001.48" y="47.19" width="18.26" height="4.61" rx="2.31"/><rect class="cls-4" x="1026.89" y="47.19" width="18.26" height="4.61" rx="2.31"/><rect class="cls-4" x="1052.26" y="47.19" width="18.26" height="4.61" rx="2.31"/><rect class="cls-4" x="1077.66" y="47.19" width="18.26" height="4.61" rx="2.31"/><rect class="cls-4" x="1103.06" y="47.19" width="18.26" height="4.61" rx="2.31"/><rect class="cls-4" x="1128.47" y="47.19" width="18.26" height="4.61" rx="2.31"/><rect class="cls-4" x="1153.87" y="47.19" width="18.26" height="4.61" rx="2.31"/><rect class="cls-4" x="1179.27" y="47.19" width="18.26" height="4.61" rx="2.31"/><rect class="cls-4" x="1204.68" y="47.19" width="18.26" height="4.61" rx="2.31"/><line class="cls-8" x1="637.19" y1="115.55" x2="638.98" y2="106.33"/><path class="cls-7" d="M637.19,117.52a2.58,2.58,0,0,1-.38,0,2,2,0,0,1-1.55-2.31L637,106a2,2,0,0,1,3.87.75l-1.79,9.21A2,2,0,0,1,637.19,117.52Z"/><rect class="cls-6" x="649.64" y="27.64" width="46.94" height="170.56"/><rect class="cls-6" x="1223.16" y="27.64" width="46.94" height="170.56"/><rect class="cls-7" x="646.36" y="27.64" width="46.94" height="170.56"/><rect class="cls-7" x="1226.7" y="27.9" width="46.94" height="170.56"/><polyline class="cls-8" points="569.65 144.24 610.58 121.23 620.05 110.94 639.87 105.74 669.86 100.46 688.04 89.5 685.85 76.05 658.9 76.04 624.76 77.82 599.69 76.02"/><path class="cls-7" d="M569.65,146.21a2,2,0,0,1-1-3.68l40.65-22.86,9.27-10.07a2,2,0,0,1,.95-.57l19.81-5.2.16,0,29.63-5.21L685.88,88.5,684.18,78H659l-34.09,1.79h-.24L599.54,78a2,2,0,1,1,.29-3.92l24.95,1.79,34-1.78h27.05a2,2,0,0,1,1.94,1.65L690,89.18a2,2,0,0,1-.93,2l-18.17,11a2.08,2.08,0,0,1-.68.26l-29.91,5.26-19.18,5L612,122.57a2,2,0,0,1-.48.38l-40.92,23A2,2,0,0,1,569.65,146.21Z"/><polyline class="cls-8" points="1350.35 144.24 1309.42 121.23 1299.95 110.94 1280.13 105.74 1250.14 100.46 1231.96 89.5 1234.15 76.05 1261.1 76.04 1295.24 77.82 1320.31 76.02"/><path class="cls-7" d="M1350.35,146.21a2,2,0,0,0,1-3.68l-40.65-22.86-9.27-10.07a2,2,0,0,0-1-.57l-19.81-5.2-.16,0-29.63-5.21L1234.12,88.5l1.7-10.49h25.23l34.09,1.79h.24l25.08-1.8a2,2,0,1,0-.29-3.92l-25,1.79-34-1.78h-27a2,2,0,0,0-1.94,1.65L1230,89.18a2,2,0,0,0,.93,2l18.17,11a2.08,2.08,0,0,0,.68.26l29.91,5.26,19.18,5,9.09,9.88a2,2,0,0,0,.48.38l40.92,23A2,2,0,0,0,1350.35,146.21Z"/><rect class="cls-4" x="644.84" y="38.25" width="49.99" height="5.39"/><rect class="cls-4" x="644.84" y="182.73" width="49.99" height="5.39"/><rect class="cls-4" x="1225.16" y="38.25" width="49.56" height="5.39"/><rect class="cls-4" x="1225.16" y="182.73" width="49.56" height="5.39"/><polygon class="cls-1" points="403.15 78.8 403.15 78.8 403.15 78.8 403.15 78.8"/><polygon class="cls-1" points="480.19 125.32 480.19 125.32 480.19 125.32 480.19 125.32"/><path class="cls-4" d="M464.93,63.53h0l0,0,0,0Z"/><path class="cls-4" d="M418.41,140.57Z"/><path class="cls-4" d="M418.41,140.57h0l0,0Z"/><path class="cls-8" d="M371.38,121.67a29.92,29.92,0,0,1-41.05,10.12h0a29.9,29.9,0,0,1,10.16,41,29.9,29.9,0,0,1,41.05-10.11h0A29.91,29.91,0,0,1,371.38,121.67Z"/><path class="cls-8" d="M1548.62,121.67a29.92,29.92,0,0,0,41.05,10.12h0a29.9,29.9,0,0,0-10.16,41,29.9,29.9,0,0,0-41-10.11h0A29.91,29.91,0,0,0,1548.62,121.67Z"/></g></g></svg>