<svg id="圖層_1" data-name="圖層 1" xmlns="http://www.w3.org/2000/svg" xmlns:xlink="http://www.w3.org/1999/xlink" viewBox="0 0 636 336"><defs><style>.cls-1,.cls-12,.cls-20{fill:none;}.cls-2{clip-path:url(#clip-path);}.cls-3{fill:#3a00aa;}.cls-4,.cls-8{opacity:0.2;}.cls-13,.cls-5,.cls-8{fill:#fff;}.cls-15,.cls-6,.cls-7{fill:#6b00ff;}.cls-13,.cls-6{opacity:0.3;}.cls-9{fill:#fc0;}.cls-10{fill:#f80;}.cls-11,.cls-12,.cls-15,.cls-18,.cls-20{stroke:#000;}.cls-11,.cls-15,.cls-18,.cls-20{stroke-miterlimit:10;}.cls-11{stroke-width:2px;}.cls-12,.cls-15,.cls-18,.cls-20{stroke-linecap:round;stroke-width:1.5px;}.cls-12{stroke-linejoin:round;}.cls-14{fill:#42edf0;}.cls-16,.cls-18{fill:#a35eff;}.cls-17{fill:#ffb8b8;}.cls-19{fill:#00c2ba;}</style><clipPath id="clip-path"><rect class="cls-1" width="636" height="336"/></clipPath></defs><g class="cls-2"><rect class="cls-3" width="636" height="336"/><g class="cls-4"><rect class="cls-5" x="222.04" y="274.54" width="16.89" height="4.27" rx="2.13" transform="translate(555.99 430.68) rotate(155.12)"/><rect class="cls-5" x="200.72" y="284.43" width="16.89" height="4.27" rx="2.13" transform="translate(519.49 458.51) rotate(155.12)"/><rect class="cls-5" x="179.4" y="294.31" width="16.89" height="4.27" rx="2.13" transform="translate(482.99 486.34) rotate(155.12)"/><rect class="cls-5" x="158.08" y="304.2" width="16.89" height="4.27" rx="2.13" transform="matrix(-0.91, 0.42, -0.42, -0.91, 446.49, 514.17)"/><rect class="cls-5" x="136.76" y="314.09" width="16.89" height="4.27" rx="2.13" transform="translate(409.99 542) rotate(155.12)"/><rect class="cls-5" x="115.44" y="323.98" width="16.89" height="4.27" rx="2.13" transform="translate(373.49 569.82) rotate(155.12)"/><rect class="cls-5" x="94.12" y="333.87" width="16.89" height="4.27" rx="2.13" transform="translate(336.99 597.65) rotate(155.12)"/></g><path class="cls-6" d="M-47.07,361.5h755V138.25c-128.39,91.69-228.75,91.29-272.43,86.93-48.62-4.84-97.08-21.55-183.45-51.33-71.71-24.73-107.49-42.71-170.44-50.66a464.61,464.61,0,0,0-120.47.69Z"/><path class="cls-6" d="M-18.56,343.56H655.31V292.63c-67,9.65-119.17,1.41-158.1-11-49-15.56-55.65-27.42-101.75-39.91-72-19.51-120,5.08-155.74,16.43-67.23,21.36-76.18,42.22-138.53,59.49a369.68,369.68,0,0,1-119,12.52Z"/><polygon class="cls-7" points="391.75 86.13 345.83 41 345.83 65.35 -54.09 65.35 -54.09 106.92 345.83 106.92 345.83 131.27 391.75 86.13"/><polygon class="cls-8" points="391.75 86.13 345.83 41 345.83 65.35 -54.09 65.35 -54.09 106.92 345.83 106.92 345.83 131.27 391.75 86.13"/><polygon class="cls-9" points="613.86 169.29 567.95 124.15 567.95 148.5 -72.36 148.5 -72.36 190.07 567.95 190.07 567.95 214.42 613.86 169.29"/><polygon class="cls-10" points="317 256.25 271.09 211.12 271.09 235.47 -42.67 235.47 -42.67 277.04 271.09 277.04 271.09 301.39 317 256.25"/><polygon class="cls-8" points="613.1 169.36 567.19 124.23 567.19 148.58 -73.12 148.58 -73.12 190.15 567.19 190.15 567.19 214.5 613.1 169.36"/><polygon class="cls-8" points="317 256.25 271.09 211.12 271.09 235.47 -42.67 235.47 -42.67 277.04 271.09 277.04 271.09 301.39 317 256.25"/><rect class="cls-7" x="433.19" y="113.54" width="33.16" height="19.71" rx="9.86" transform="translate(804.33 426.4) rotate(-154.82)"/><rect class="cls-9" x="444.03" y="73.39" width="39.42" height="39.42" rx="19.71" transform="translate(652.36 526.85) rotate(-124.85)"/><polygon class="cls-7" points="470.18 79.56 473.98 95.19 469.34 93 462.57 107.4 453.6 103.19 460.37 88.79 455.73 86.61 470.18 79.56"/><circle class="cls-9" cx="454.97" cy="125.84" r="7.36"/><path class="cls-9" d="M510.92,104.44a24.65,24.65,0,0,1,11.82,32.79l-21,44.6-44.61-21,21-44.61A24.64,24.64,0,0,1,510.92,104.44Z"/><ellipse class="cls-5" cx="507.39" cy="122.65" rx="6.66" ry="5.28" transform="translate(180.55 529.66) rotate(-64.82)"/><ellipse class="cls-11" cx="509.03" cy="123.42" rx="3.33" ry="2.64" transform="translate(180.8 531.59) rotate(-64.82)"/><ellipse class="cls-5" cx="499.16" cy="118.78" rx="6.66" ry="5.28" transform="translate(179.32 520) rotate(-64.82)"/><ellipse class="cls-11" cx="500.8" cy="119.55" rx="3.33" ry="2.64" transform="translate(179.57 521.92) rotate(-64.82)"/><path class="cls-12" d="M500.1,129.2a4.35,4.35,0,0,1-2.34-.81,4.25,4.25,0,0,1-1.51-2.12"/><line class="cls-12" x1="502.68" y1="111.83" x2="505.34" y2="116.36"/><rect class="cls-10" x="365.43" y="145.13" width="193.36" height="39.66" rx="19.83" transform="translate(107.52 -174.2) rotate(24.08)"/><path class="cls-13" d="M503.24,73.37A80.48,80.48,0,0,1,544,179.63L397,114.12A80.47,80.47,0,0,1,503.24,73.37Z"/><rect class="cls-5" x="503.7" y="58.6" width="1.92" height="15.86" transform="translate(933.08 341.43) rotate(-154.82)"/><circle class="cls-5" cx="508.67" cy="58.01" r="2.86"/><polygon class="cls-5" points="482.12 36.63 487.22 52.41 493.01 47.59 498.92 56.95 495.62 40.23 488.58 44.17 482.12 36.63"/><polygon class="cls-5" points="504.31 28.87 501.46 39.28 506.33 38.73 506.2 45.93 510.38 35.66 505.14 35.29 504.31 28.87"/><polygon class="cls-14" points="131.19 108.19 175.22 107.62 214.91 122.51 229.48 122.51 280.72 105.28 211.35 93.25 131.19 108.19"/><path class="cls-7" d="M237.83,34h0a23.66,23.66,0,0,1,23.66,23.66v61.27a0,0,0,0,1,0,0H214.17a0,0,0,0,1,0,0V57.67A23.66,23.66,0,0,1,237.83,34Z" transform="translate(-9.01 37.96) rotate(-8.96)"/><ellipse class="cls-5" cx="237.96" cy="54.68" rx="6.42" ry="8.09" transform="matrix(0.98, -0.18, 0.18, 0.98, -5.93, 43.15)"/><ellipse cx="240.61" cy="55.6" rx="3.21" ry="4.05" transform="translate(-6.05 43.63) rotate(-10.23)"/><path class="cls-12" d="M233.64,64.32s7.47,1.09,8.24,1.45a2.68,2.68,0,0,1-.7,1.93,4,4,0,0,1-3.77,1.18,5.87,5.87,0,0,1-2.79-1.55C233.65,66.32,233.17,65.17,233.64,64.32Z"/><line class="cls-15" x1="233.46" y1="46.2" x2="241.27" y2="47.15"/><path class="cls-7" d="M223.28,39.52c-3.77-.85-6.7-6.63-4.89-10.16.05-.1,1.18-2.24,3.19-2.44,2.74-.27,4.95,3.27,5.72,5.58.18.52,1.54,4.59-.54,6.37A4.26,4.26,0,0,1,223.28,39.52Z"/><path class="cls-7" d="M231.31,38.25c-3.77-.85-6.7-6.63-4.89-10.16.05-.09,1.18-2.24,3.19-2.44,2.74-.27,4.95,3.28,5.72,5.58.18.53,1.54,4.6-.54,6.38A4.2,4.2,0,0,1,231.31,38.25Z"/><path class="cls-7" d="M238.75,37.08c-3.77-.85-6.7-6.63-4.89-10.16,0-.1,1.18-2.24,3.19-2.44,2.74-.27,4.95,3.27,5.72,5.58.17.53,1.54,4.6-.54,6.38A4.24,4.24,0,0,1,238.75,37.08Z"/><path class="cls-16" d="M275.62,41.3h0A23.66,23.66,0,0,1,299.28,65V110a0,0,0,0,1,0,0H252a0,0,0,0,1,0,0V65A23.66,23.66,0,0,1,275.62,41.3Z" transform="translate(-8.42 43.84) rotate(-8.96)"/><ellipse class="cls-5" cx="277.02" cy="61.87" rx="6.42" ry="8.09" transform="translate(-6.58 50.2) rotate(-10.23)"/><ellipse cx="279.5" cy="61.87" rx="3.21" ry="4.05" transform="translate(-6.55 50.64) rotate(-10.23)"/><path class="cls-17" d="M268.9,65.64h0a2.16,2.16,0,0,1,2.16,2.16v2.39a0,0,0,0,1,0,0h-4.31a0,0,0,0,1,0,0V67.79A2.16,2.16,0,0,1,268.9,65.64Z" transform="translate(28.53 -70.44) rotate(15.75)"/><path class="cls-12" d="M275.94,71.49A14,14,0,0,1,266,68.74"/><path class="cls-18" d="M272.41,52a3.25,3.25,0,1,0,6.37-1.25"/><path class="cls-16" d="M267.76,46.56c-3.77-.86-6.7-6.64-4.89-10.17.05-.09,1.19-2.24,3.2-2.43,2.73-.27,4.94,3.27,5.71,5.58.18.52,1.54,4.59-.54,6.37A4.26,4.26,0,0,1,267.76,46.56Z"/><path class="cls-16" d="M272.37,44.74c-3.05-2.37-3.26-8.84-.13-11.28.08-.06,2-1.52,3.92-.86,2.59.92,3.1,5.06,2.82,7.48-.06.55-.54,4.81-3.18,5.55A4.27,4.27,0,0,1,272.37,44.74Z"/><polygon class="cls-19" points="278.06 96.74 345.3 82.64 307.66 106.86 225 124.41 214.91 122.51 278.06 96.74"/><polygon class="cls-19" points="138.64 107.38 135.26 107.35 131.19 108.19 175.22 107.62 214.91 122.51 219.99 123.47 222.13 122.68 175.3 106.55 138.64 107.38"/><polygon class="cls-14" points="217.51 121.09 277.32 95.49 340.37 83.06 345.3 82.64 278.06 96.75 218.99 121.59 217.51 121.09"/><g class="cls-4"><rect class="cls-5" x="424.46" y="1.41" width="27.99" height="3.66" transform="translate(172.59 -345.43) rotate(52.25)"/><rect class="cls-5" x="418.17" y="6.28" width="27.99" height="3.66" transform="translate(174.01 -338.57) rotate(52.25)"/><rect class="cls-5" x="411.88" y="11.16" width="27.99" height="3.66" transform="translate(175.42 -331.7) rotate(52.25)"/><rect class="cls-5" x="405.58" y="16.03" width="27.99" height="3.66" transform="translate(176.83 -324.83) rotate(52.25)"/><rect class="cls-5" x="399.29" y="20.9" width="27.99" height="3.66" transform="translate(178.24 -317.97) rotate(52.25)"/><rect class="cls-5" x="393" y="25.78" width="27.99" height="3.66" transform="translate(179.66 -311.1) rotate(52.25)"/></g><circle class="cls-5" cx="39.21" cy="295.58" r="7.5"/><circle class="cls-5" cx="46.74" cy="303.86" r="6.38"/><circle class="cls-5" cx="56.07" cy="303.15" r="3.99"/><circle class="cls-5" cx="25.19" cy="290.49" r="11.76"/><circle class="cls-5" cx="20.4" cy="273.07" r="8.76"/><circle class="cls-5" cx="5.43" cy="265.73" r="1.96"/><circle class="cls-5" cx="10.56" cy="287.72" r="1.62"/><circle class="cls-5" cx="31.99" cy="278.28" r="3.06"/><circle class="cls-5" cx="9.4" cy="271.44" r="3.73"/><path class="cls-10" d="M202.37,207c9.1-2.23,16.61-.31,22.67,1.32a68.2,68.2,0,0,1,16.2,6.69,37,37,0,0,0-6.83-8.4l-12.88-30c-8.59-20.93-19.23-20.16-34.59-14.36l-130.42,48c-27.1,10.23-25.79,32.12-21,59.7l158.67-59.88A37.13,37.13,0,0,1,202.37,207Z"/><path class="cls-10" d="M225,208.3c-6.06-1.63-13.57-3.55-22.67-1.32a37.13,37.13,0,0,0-8.18,3.08L35.52,269.94a59.59,59.59,0,0,0,2.94,10.81L39.68,284a31,31,0,0,0,39.84,18l159-60a12.69,12.69,0,0,0,7.37-16.31s-3.54-8.85-4.62-10.69A68.2,68.2,0,0,0,225,208.3Z"/><ellipse class="cls-9" cx="241.96" cy="220.59" rx="4.85" ry="8.33" transform="translate(-62.3 99.63) rotate(-20.67)"/><circle class="cls-14" cx="226.92" cy="209.98" r="3.77"/><path class="cls-9" d="M111.3,256.11l20.22-7.63c1.62-.61,2.59-2.06,2.15-3.22L123,216.87c-.44-1.16-2.12-1.61-3.74-1l-23,8.69c-1.63.61-2.6,2.06-2.16,3.22l13.54,27.32C108,256.27,109.68,256.72,111.3,256.11Z"/><path class="cls-9" d="M84.21,229.29,56.64,239.86c-1.62.63-2.57,2.08-2.12,3.24l11,28.27c.45,1.15,2.14,1.58,3.75.95l30.38-11.66c1.62-.63,2.57-2.09,2.12-3.25L88,230.24C87.51,229.08,85.82,228.66,84.21,229.29Z"/><path class="cls-9" d="M142.92,243,212,217.18c1.63-.61,2.6-2.06,2.16-3.22l-10.71-28.39c-.44-1.15-2.12-1.6-3.75-1l-69.39,26.54c-1.63.61-2.6,2.06-2.16,3.22l11,27.61C139.62,243.11,141.3,243.56,142.92,243Z"/><path class="cls-14" d="M243.84,243.28,73.53,307.55a23.74,23.74,0,0,1-3.86,1c-5,1-9.54-.59-11.5-3.87h0c-.46-1.2,1.58-3.1,4.53-4.21l179.7-67.81c6.44-2.43,9.45-3.57,8.38.78l-.87,2.93C248.34,240.34,246.79,242.17,243.84,243.28Z"/><circle class="cls-9" cx="197.13" cy="257.6" r="17.89"/><circle class="cls-9" cx="106.43" cy="291.83" r="17.89"/><rect class="cls-9" x="44.42" y="207.64" width="74.72" height="16.98" rx="5.58" transform="translate(-72.91 44.46) rotate(-21.3)"/><rect class="cls-16" x="52.02" y="218.02" width="57.78" height="2.6" transform="matrix(0.93, -0.36, 0.36, 0.93, -74.13, 44.36)"/><rect class="cls-16" x="51.6" y="219.9" width="23.42" height="2.6" transform="translate(-76.02 38.1) rotate(-21.3)"/><path class="cls-14" d="M115.88,205.42s15.55-22,35.32-25.65c10.79-2,20.32,1,28.76,7.88A49,49,0,0,1,191.87,202l10.4,18.79-53,19.8-9.15-16.53C132.65,210.57,115.88,205.42,115.88,205.42Z"/><ellipse class="cls-5" cx="165.46" cy="201.43" rx="6" ry="7.56" transform="translate(-76.83 105.27) rotate(-28.95)"/><ellipse cx="167.41" cy="200.48" rx="3" ry="3.78" transform="translate(-76.13 106.09) rotate(-28.95)"/><ellipse class="cls-5" cx="156.44" cy="206.42" rx="6" ry="7.56" transform="translate(-80.37 101.52) rotate(-28.95)"/><ellipse cx="157.99" cy="205.7" rx="3" ry="3.78" transform="translate(-79.83 102.18) rotate(-28.95)"/><path class="cls-12" d="M155.52,215.37c3.19-1,7.69-2.35,10.87-3.39a4.65,4.65,0,0,1-.07,2.5,5.47,5.47,0,0,1-3.72,3.28,6.79,6.79,0,0,1-5.2-.95,8.72,8.72,0,0,1-1.88-1.44"/><line class="cls-20" x1="148.83" y1="199.82" x2="157.32" y2="198.96"/><g class="cls-4"><rect class="cls-9" x="68.78" y="31.8" width="9.65" height="9.65" transform="translate(83.65 -44.97) rotate(70.56)"/><path class="cls-7" d="M72.66,31.13h4.83a0,0,0,0,1,0,0v0A4.83,4.83,0,0,1,72.66,36h0a0,0,0,0,1,0,0V31.13A0,0,0,0,1,72.66,31.13Z" transform="translate(81.73 -48.42) rotate(70.56)"/><path class="cls-7" d="M68.11,32.74h4.83a0,0,0,0,1,0,0v0a4.83,4.83,0,0,1-4.83,4.83h0a0,0,0,0,1,0,0V32.74A0,0,0,0,1,68.11,32.74Z" transform="translate(-7.68 25.47) rotate(-19.44)"/><path class="cls-7" d="M74.27,35.68H79.1a0,0,0,0,1,0,0v0a4.83,4.83,0,0,1-4.83,4.83h0a0,0,0,0,1,0,0V35.68A0,0,0,0,1,74.27,35.68Z" transform="translate(161.67 48.5) rotate(160.56)"/><path class="cls-7" d="M69.72,37.29h4.83a0,0,0,0,1,0,0v0a4.83,4.83,0,0,1-4.83,4.83h0a0,0,0,0,1,0,0V37.29A0,0,0,0,1,69.72,37.29Z" transform="translate(58.7 120.94) rotate(-109.44)"/></g><g class="cls-4"><rect class="cls-9" x="391.93" y="198.41" width="8.06" height="8.06" transform="translate(754.77 -60.29) rotate(116.71)"/><path class="cls-7" d="M396.65,199.53h4a0,0,0,0,1,0,0v0a4,4,0,0,1-4,4h0a0,0,0,0,1,0,0v-4A0,0,0,0,1,396.65,199.53Z" transform="translate(757.89 -64.01) rotate(116.71)"/><path class="cls-7" d="M393.05,197.72h4a0,0,0,0,1,0,0v0a4,4,0,0,1-4,4h0a0,0,0,0,1,0,0v-4A0,0,0,0,1,393.05,197.72Z" transform="translate(131.91 -156.24) rotate(26.71)"/><path class="cls-7" d="M394.84,203.14h4a0,0,0,0,1,0,0v0a4,4,0,0,1-4,4h0a0,0,0,0,1,0,0v-4A0,0,0,0,1,394.84,203.14Z" transform="translate(659.18 566.77) rotate(-153.29)"/><path class="cls-7" d="M391.24,201.32h4a0,0,0,0,1,0,0v0a4,4,0,0,1-4,4h0a0,0,0,0,1,0,0v-4A0,0,0,0,1,391.24,201.32Z" transform="translate(34.87 463.26) rotate(-63.29)"/></g><g class="cls-4"><rect class="cls-9" x="526.87" y="296.56" width="9.65" height="9.65" transform="translate(801.68 -246.93) rotate(86.67)"/><path class="cls-7" d="M531.56,296.43h4.83a0,0,0,0,1,0,0v0a4.83,4.83,0,0,1-4.83,4.83h0a0,0,0,0,1,0,0v-4.83A0,0,0,0,1,531.56,296.43Z" transform="matrix(0.06, 1, -1, 0.06, 801.27, -251.59)"/><path class="cls-7" d="M526.74,296.71h4.83a0,0,0,0,1,0,0v0a4.83,4.83,0,0,1-4.83,4.83h0a0,0,0,0,1,0,0v-4.83A0,0,0,0,1,526.74,296.71Z" transform="translate(-16.49 31.26) rotate(-3.33)"/><path class="cls-7" d="M531.84,301.25h4.83a0,0,0,0,1,0,0v0a4.83,4.83,0,0,1-4.83,4.83h0a0,0,0,0,1,0,0v-4.83A0,0,0,0,1,531.84,301.25Z" transform="translate(1085.24 575.76) rotate(176.67)"/><path class="cls-7" d="M527,301.53h4.83a0,0,0,0,1,0,0v0a4.83,4.83,0,0,1-4.83,4.83h0a0,0,0,0,1,0,0v-4.83A0,0,0,0,1,527,301.53Z" transform="translate(256.77 850.14) rotate(-93.33)"/></g><rect class="cls-8" x="595.78" y="56.95" width="3.92" height="3.92" transform="translate(93.63 -267.65) rotate(27.31)"/><rect class="cls-8" x="496.22" y="261.81" width="3.92" height="3.92" transform="translate(176.52 -199.15) rotate(27.31)"/><rect class="cls-8" x="324.71" y="53.65" width="3.92" height="3.92" transform="translate(61.91 -143.66) rotate(27.31)"/><rect class="cls-8" x="578.63" y="224.22" width="6.48" height="6.48" transform="translate(621.72 -396.01) rotate(72.31)"/><circle class="cls-8" cx="326.67" cy="281.83" r="1.53"/><circle class="cls-8" cx="191.77" cy="12.99" r="1.53"/><g class="cls-4"><rect class="cls-5" x="630.38" y="256.45" width="16.89" height="4.27" rx="2.13" transform="translate(1221.62 626.44) rotate(-169.78)"/><rect class="cls-5" x="607.25" y="252.28" width="16.89" height="4.27" rx="2.13" transform="translate(1176.47 614.06) rotate(-169.78)"/><rect class="cls-5" x="584.12" y="248.1" width="16.89" height="4.27" rx="2.13" transform="translate(1131.32 601.68) rotate(-169.78)"/><rect class="cls-5" x="561" y="243.93" width="16.89" height="4.27" rx="2.13" transform="translate(1086.17 589.3) rotate(-169.78)"/><rect class="cls-5" x="537.87" y="239.76" width="16.89" height="4.27" rx="2.13" transform="translate(1041.02 576.92) rotate(-169.78)"/><rect class="cls-5" x="514.74" y="235.59" width="16.89" height="4.27" rx="2.13" transform="translate(995.88 564.54) rotate(-169.78)"/></g></g></svg>