<svg id="圖層_1" data-name="圖層 1" xmlns="http://www.w3.org/2000/svg" viewBox="0 0 196 196"><defs><style>.cls-1{fill:#ccc;}.cls-2,.cls-4,.cls-8,.cls-9{fill:#fff;}.cls-2,.cls-8{stroke:#fff;}.cls-2{stroke-linecap:round;stroke-linejoin:round;stroke-width:3px;opacity:0.23;}.cls-3{fill:#ededed;}.cls-5{fill:#1a1a1a;}.cls-6{fill:#e57200;}.cls-7{fill:#f80;}.cls-8,.cls-9{stroke-miterlimit:10;stroke-width:5px;}.cls-9{stroke:#fc0;}</style></defs><polygon class="cls-1" points="98 2.18 15.01 50.09 15.01 145.91 98 193.82 180.99 145.91 180.99 50.09 98 2.18"/><polygon class="cls-2" points="30.01 137.25 30.01 58.75 98 19.5 165.99 58.75 165.99 137.25 98 176.5 30.01 137.25"/><polygon class="cls-3" points="191.71 179.07 148.1 179.07 148.1 143.21 191.71 143.21 183.78 161.14 191.71 179.07"/><polygon class="cls-3" points="4.29 179.07 47.9 179.07 47.9 143.21 4.29 143.21 12.22 161.14 4.29 179.07"/><rect class="cls-4" x="22.48" y="139.87" width="151.05" height="42.55"/><path class="cls-5" d="M89,108h2v.64a7.8,7.8,0,0,1-.08.87h2.48a10.18,10.18,0,0,0-1.3-.61l.74-.59a8,8,0,0,1-.94-.12l-.2-1-.72.6a11.92,11.92,0,0,0-1.85-1.2l.89-.73H88.53v-1.15h.59l-.4-.89c.63-.08,1.22-.2,1.76-.32-.24-.18-.48-.36-.73-.52l1.09-.89a10.67,10.67,0,0,1,.89,1l.55-.23a.67.67,0,0,0,.12-.06,12.25,12.25,0,0,0-1.18-.83l.75-.66h-.35A11.24,11.24,0,0,1,89,102.87l-.61-.93a8,8,0,0,0,2.94-2.54l1.86.25-.43.53h3.82v1.12a8.59,8.59,0,0,1-2.86,2.35h1.66v1h1.54v1.15H95.38v1.09a1.24,1.24,0,0,1-.46,1.08,2.19,2.19,0,0,1-1,.32c.32.25.68.54,1,.86l-.4.34h2.4v1.31H91.68A11.14,11.14,0,0,0,97.43,113l-.61,1.28a11.79,11.79,0,0,1-6.94-2.69c-1.24,1.4-3.49,2.28-6.79,2.68l-.4-1.33q4.05-.51,5.5-2.16H83V109.5H88.9a8.58,8.58,0,0,0,.1-.87Zm-3.22-2.61a4.15,4.15,0,0,1-2,3.41l-1-.81a3.61,3.61,0,0,0,1.16-2.6h-.93V104.1h3.38v-.89H83.63v-3.13h1.8V102h1V99.72h1.82v8.74H86.47v-3.08Zm7.59-1.58a15.38,15.38,0,0,1-3.3.86h3.42v-.91Zm-2.65,2A13.42,13.42,0,0,1,91.83,107a8.72,8.72,0,0,0,1.07.08.55.55,0,0,0,.47-.19,1.28,1.28,0,0,0,.12-.63v-.42Zm1.84-4.51a10.07,10.07,0,0,1,.85.88,10.11,10.11,0,0,0,1-.88Z"/><path class="cls-5" d="M113.29,113.85H98.72v-1.34H105v-3.93H99.75v-1.31H105v-2h-3.2v-.91a28.08,28.08,0,0,1-2.67,1.23l-.72-1.12a20.31,20.31,0,0,0,7.5-5.49l1.84.77-.48.49a22.58,22.58,0,0,0,6.37,4.18l-.73,1.14a23.36,23.36,0,0,1-2.72-1.27v1H107v2h5.26v1.31H107v3.93h6.29Zm-10.9-4.91a18.82,18.82,0,0,1,1,2.86l-1.25.39a15.41,15.41,0,0,0-1.57-2.65Zm7.13-5a24.27,24.27,0,0,1-3.55-2.48,25.13,25.13,0,0,1-3.39,2.48Zm2,5.65a16.65,16.65,0,0,1-1.94,2.69l-1.18-.51a23.12,23.12,0,0,0,1.42-2.94Z"/><path class="cls-5" d="M52.84,123.3v9.33H51.18V119.5h2.11L61,129.05V119.5h1.66v13.13H60.37Z"/><path class="cls-5" d="M68.07,121H64V119.5H74.77V121H70.7v11.65H68.07Z"/><path class="cls-5" d="M86.12,130.9a5.43,5.43,0,0,1-4.28,1.73H76.15V119.5h5.69a5.58,5.58,0,0,1,4.28,1.63,6.84,6.84,0,0,1,1.52,4.8A7.31,7.31,0,0,1,86.12,130.9ZM84,122.28A3.09,3.09,0,0,0,81.3,121H78.78v10.17h2.55A3.13,3.13,0,0,0,84,129.88a6.81,6.81,0,0,0,.92-3.95A6.48,6.48,0,0,0,84,122.28Z"/><path class="cls-5" d="M98.06,122.1l-2.56,1.78-.4-1.39,4.23-3h1.28v13.13H98.06Z"/><path class="cls-5" d="M106.51,129.7h3.08l-3.33,5.42H105Z"/><path class="cls-5" d="M120.72,119.5v2H115.5l-.58,3.48a6.46,6.46,0,0,1,1.24-.76,4.2,4.2,0,0,1,1.61-.27,4,4,0,0,1,2.88,1.13,4.29,4.29,0,0,1,1.17,3.16,4.38,4.38,0,0,1-1.35,3.38,5.32,5.32,0,0,1-3.75,1.24,6.33,6.33,0,0,1-2-.32,7.07,7.07,0,0,1-2-1.08l.57-2h.31a3.26,3.26,0,0,0,1.11,1.62,2.81,2.81,0,0,0,1.77.56,2.38,2.38,0,0,0,2-.92,3.88,3.88,0,0,0,.67-2.36,3.59,3.59,0,0,0-.63-2.25,2.28,2.28,0,0,0-1.88-.79,2.89,2.89,0,0,0-1.27.3,5.42,5.42,0,0,0-1.44,1.21l-.72-.56,1.15-6.79Z"/><path class="cls-5" d="M132.26,120.89c.84,1.1,1.26,2.86,1.26,5.26s-.44,4.07-1.28,5.13a4.54,4.54,0,0,1-6.92,0c-.84-1.06-1.27-2.77-1.27-5.13s.43-4.16,1.27-5.26a4.49,4.49,0,0,1,6.94,0ZM127.14,122a13.09,13.09,0,0,0-.48,4.18,11.58,11.58,0,0,0,.5,4,1.68,1.68,0,0,0,1.62,1.29,1.72,1.72,0,0,0,1.64-1.29,12.15,12.15,0,0,0,.49-4,13.77,13.77,0,0,0-.47-4.18,1.73,1.73,0,0,0-1.66-1.28A1.7,1.7,0,0,0,127.14,122Z"/><path class="cls-5" d="M143.88,120.89c.85,1.1,1.26,2.86,1.26,5.26s-.43,4.07-1.27,5.13a4.54,4.54,0,0,1-6.92,0c-.84-1.06-1.28-2.77-1.28-5.13s.44-4.16,1.28-5.26a4.48,4.48,0,0,1,6.93,0ZM138.77,122a13,13,0,0,0-.49,4.18,11.53,11.53,0,0,0,.51,4,1.68,1.68,0,0,0,1.62,1.29,1.72,1.72,0,0,0,1.64-1.29,12.2,12.2,0,0,0,.48-4,13.84,13.84,0,0,0-.46-4.18,1.74,1.74,0,0,0-1.66-1.28A1.69,1.69,0,0,0,138.77,122Z"/><rect class="cls-6" x="69.8" y="30.15" width="26.68" height="48.33" transform="translate(182.3 59.78) rotate(150)"/><rect class="cls-7" x="77.84" y="30.15" width="10.61" height="48.33" transform="translate(182.3 59.78) rotate(150)"/><rect class="cls-4" x="82.68" y="29.43" width="3.41" height="48.33" transform="translate(184.26 57.82) rotate(150)"/><rect class="cls-6" x="99.52" y="30.15" width="26.68" height="48.33" transform="translate(42.28 -49.15) rotate(30)"/><rect class="cls-7" x="107.56" y="30.15" width="10.61" height="48.33" transform="matrix(0.87, 0.5, -0.5, 0.87, 42.28, -49.15)"/><rect class="cls-4" x="109.91" y="29.43" width="3.41" height="48.33" transform="translate(41.75 -48.63) rotate(30)"/><circle class="cls-8" cx="98" cy="68.61" r="23.27"/><circle class="cls-9" cx="98" cy="68.61" r="19.22"/><polygon class="cls-7" points="98 56.12 102.06 64.35 111.14 65.67 104.57 72.07 106.12 81.11 98 76.84 89.88 81.11 91.43 72.07 84.86 65.67 93.94 64.35 98 56.12"/><path class="cls-5" d="M57.78,167.09a19.17,19.17,0,0,0,6.39-11.5H60.35v-1.41h5.93a25.94,25.94,0,0,0,2.21,7.46,20.22,20.22,0,0,0,4.2,5.45l-1.08,1a24,24,0,0,1-4.53-5.38,21,21,0,0,1-1.68-3.92A19.51,19.51,0,0,1,58.78,168Z"/><path class="cls-5" d="M88,154v14.12h-2v-.85H76.19v.85h-2V154Zm-11.81,1.09v11.06h9.86V155.05Zm.36,7.12h4.17v-.49H77.27V159.1H85v2.58H82.57v.49h2.9v1.06h-2.9v.67h3.11V165H82.57v.89H80.72V165H76.63l.79-1.73h-.87Zm9.18-3.54H76.6v-1H79l.11-.66H77.21v-1h2l.13-.72,1.83.14-.12.58h3.56v1.68h1.09Zm-5,4.6H79l-.26.67h2Zm2.46-3.17H79.1v.65h4.08Zm-2.4-2.48h2.13v-.66h-2Z"/><path class="cls-5" d="M96.14,161.79h2v.64a5.84,5.84,0,0,1-.08.86h2.48a12.52,12.52,0,0,0-1.29-.61l.73-.59A6.73,6.73,0,0,1,99,162l-.19-1-.72.59a12.08,12.08,0,0,0-1.86-1.2l.9-.72H95.67v-1.15h.6l-.4-.9a17.28,17.28,0,0,0,1.76-.32c-.24-.17-.48-.35-.74-.51l1.09-.9a12.15,12.15,0,0,1,.9,1c.17-.08.36-.14.54-.22a.75.75,0,0,1,.13-.06c-.37-.29-.75-.56-1.19-.84l.76-.65h-.36a11.57,11.57,0,0,1-2.62,1.56l-.61-.92a8.11,8.11,0,0,0,3-2.55l1.85.26-.43.53h3.83v1.12a8.62,8.62,0,0,1-2.87,2.35h1.67v1h1.53v1.15h-1.53v1.09a1.2,1.2,0,0,1-.47,1.07,2.15,2.15,0,0,1-1,.32c.32.26.67.55,1,.87l-.4.33h2.4v1.31H98.83a11,11,0,0,0,5.74,2.23l-.6,1.28a11.91,11.91,0,0,1-7-2.69c-1.23,1.39-3.49,2.27-6.79,2.67l-.4-1.32c2.71-.34,4.53-1.06,5.51-2.17H90.1v-1.31H96a8.39,8.39,0,0,0,.1-.86Zm-3.22-2.61a4.14,4.14,0,0,1-2,3.41l-.94-.82a3.56,3.56,0,0,0,1.15-2.59h-.93V157.9h3.38V157H90.78v-3.12h1.79v1.87h1v-2.24h1.82v8.74H93.61v-3.07Zm7.59-1.59a15.83,15.83,0,0,1-3.3.87h3.43v-.91Zm-2.64,2a11.85,11.85,0,0,1,1.1,1.15,8.72,8.72,0,0,0,1.07.08.51.51,0,0,0,.47-.19,1.33,1.33,0,0,0,.13-.62v-.42Zm1.84-4.51a11.84,11.84,0,0,1,.85.88,11.49,11.49,0,0,0,1-.88Z"/><path class="cls-5" d="M109.51,158h2.56l1.86,2.67,2-2.67h1.65l-2.92,3.73,3.57,4.94h-2.56l-2.29-3.26-2.46,3.26h-1.65l3.36-4.3Z"/><path class="cls-5" d="M122.49,157.29l-2.27,1.58-.36-1.23,3.77-2.66h1.13v11.67h-2.27Z"/><path class="cls-5" d="M130,156.3a4.8,4.8,0,0,1,1.64-1.14,5,5,0,0,1,2.06-.4,4,4,0,0,1,2.82.9,2.93,2.93,0,0,1,1,2.25c0,1.12-.77,2.41-2.29,3.85a38.12,38.12,0,0,1-3.62,3.1h5.89v1.79H130v-1.28a28.92,28.92,0,0,0,3.39-3.85,6.93,6.93,0,0,0,1.72-3.72,1.73,1.73,0,0,0-.48-1.31,1.75,1.75,0,0,0-1.24-.45,2.87,2.87,0,0,0-1.6.43,3.32,3.32,0,0,0-1.05,1.35h-.28Z"/></svg>