<svg id="圖層_1" data-name="圖層 1" xmlns="http://www.w3.org/2000/svg" viewBox="0 0 196 196"><defs><style>.cls-1{fill:#00c2ba;}.cls-2,.cls-4,.cls-8,.cls-9{fill:#fff;}.cls-2,.cls-8{stroke:#fff;}.cls-2{stroke-linecap:round;stroke-linejoin:round;stroke-width:3px;opacity:0.23;}.cls-3{fill:#c5e2e0;}.cls-5{fill:#003531;}.cls-6{fill:#e57200;}.cls-7{fill:#f80;}.cls-8,.cls-9{stroke-miterlimit:10;stroke-width:5px;}.cls-9{stroke:#fc0;}</style></defs><polygon class="cls-1" points="98 2.18 15.01 50.09 15.01 145.91 98 193.82 180.99 145.91 180.99 50.09 98 2.18"/><polygon class="cls-2" points="30.01 137.25 30.01 58.75 98 19.5 165.99 58.75 165.99 137.25 98 176.5 30.01 137.25"/><polygon class="cls-3" points="191.71 179.07 148.1 179.07 148.1 143.21 191.71 143.21 183.78 161.14 191.71 179.07"/><polygon class="cls-3" points="4.29 179.07 47.9 179.07 47.9 143.21 4.29 143.21 12.22 161.14 4.29 179.07"/><rect class="cls-4" x="22.48" y="139.87" width="151.05" height="42.55"/><path class="cls-5" d="M89,108h2v.64a7.8,7.8,0,0,1-.08.87h2.48a10.18,10.18,0,0,0-1.3-.61l.74-.59a8,8,0,0,1-.94-.12l-.2-1-.72.6a11.92,11.92,0,0,0-1.85-1.2l.89-.73H88.53v-1.15h.59l-.4-.89c.63-.08,1.22-.2,1.76-.32-.24-.18-.48-.36-.73-.52l1.09-.89a10.67,10.67,0,0,1,.89,1l.55-.23a.67.67,0,0,0,.12-.06,12.25,12.25,0,0,0-1.18-.83l.75-.66h-.35A11.11,11.11,0,0,1,89,102.87l-.6-.93a8,8,0,0,0,2.94-2.54l1.86.25-.43.53h3.82v1.12a8.59,8.59,0,0,1-2.86,2.35h1.66v1h1.54v1.15H95.38v1.09a1.24,1.24,0,0,1-.46,1.08,2.19,2.19,0,0,1-1,.32c.32.25.67.54,1,.86l-.4.34h2.4v1.31H91.68A11.14,11.14,0,0,0,97.43,113l-.61,1.28a11.79,11.79,0,0,1-6.94-2.69c-1.24,1.4-3.49,2.28-6.79,2.68l-.4-1.33q4.05-.51,5.5-2.16H83V109.5H88.9a6.42,6.42,0,0,0,.09-.87Zm-3.21-2.61a4.15,4.15,0,0,1-2,3.41l-1-.81a3.61,3.61,0,0,0,1.16-2.6h-.93V104.1h3.38v-.89H83.63v-3.13h1.8V102h1V99.72h1.82v8.74H86.47v-3.08Zm7.58-1.58a15.14,15.14,0,0,1-3.29.86h3.42v-.91Zm-2.64,2A13.42,13.42,0,0,1,91.83,107a8.72,8.72,0,0,0,1.07.08.53.53,0,0,0,.46-.19,1.26,1.26,0,0,0,.13-.63v-.42Zm1.84-4.51a10.07,10.07,0,0,1,.85.88,10.11,10.11,0,0,0,1-.88Z"/><path class="cls-5" d="M113.29,113.85H98.72v-1.34H105v-3.93H99.75v-1.31H105v-2h-3.2v-.91a28.08,28.08,0,0,1-2.67,1.23l-.72-1.12a20.31,20.31,0,0,0,7.5-5.49l1.84.77-.48.49a22.58,22.58,0,0,0,6.37,4.18l-.73,1.14a23.36,23.36,0,0,1-2.72-1.27v1H107v2h5.26v1.31H107v3.93h6.29Zm-10.9-4.91a18.82,18.82,0,0,1,1,2.86l-1.25.39a15.41,15.41,0,0,0-1.57-2.65Zm7.13-5a24.27,24.27,0,0,1-3.55-2.48,25.13,25.13,0,0,1-3.39,2.48Zm2,5.65a16.65,16.65,0,0,1-1.94,2.69l-1.18-.51a23.12,23.12,0,0,0,1.42-2.94Z"/><path class="cls-5" d="M52.84,123.3v9.33H51.18V119.5h2.11L61,129.05V119.5h1.66v13.13H60.37Z"/><path class="cls-5" d="M68.07,121H64V119.5H74.77V121H70.7v11.65H68.07Z"/><path class="cls-5" d="M86.12,130.9a5.42,5.42,0,0,1-4.28,1.73H76.15V119.5h5.69a5.56,5.56,0,0,1,4.28,1.63,6.84,6.84,0,0,1,1.52,4.8A7.31,7.31,0,0,1,86.12,130.9ZM84,122.28A3.09,3.09,0,0,0,81.3,121H78.78v10.17h2.55A3.13,3.13,0,0,0,84,129.88a6.81,6.81,0,0,0,.92-3.95A6.48,6.48,0,0,0,84,122.28Z"/><path class="cls-5" d="M102,120.21a3.29,3.29,0,0,1,1.14,2.68,2.81,2.81,0,0,1-.53,1.66,3,3,0,0,1-1.51,1.09,3.52,3.52,0,0,1,2,1.18,3.26,3.26,0,0,1,.58,1.92,3.77,3.77,0,0,1-1.3,3.06,5.42,5.42,0,0,1-3.67,1.08,6.39,6.39,0,0,1-1.94-.3,6.53,6.53,0,0,1-2-1.12l.61-2.05h.31a3.14,3.14,0,0,0,1.13,1.71,2.92,2.92,0,0,0,1.77.56,2.41,2.41,0,0,0,1.76-.71,3,3,0,0,0,.7-2.23,2.37,2.37,0,0,0-.72-1.89,3.83,3.83,0,0,0-2.19-.74v-.61a2.57,2.57,0,0,0,1.89-.88,3,3,0,0,0,.52-1.8,2.67,2.67,0,0,0-.49-1.77,1.76,1.76,0,0,0-1.36-.57,2.31,2.31,0,0,0-1.54.57,6.14,6.14,0,0,0-1.26,1.86h-.3L95,121a4.42,4.42,0,0,1,1.75-1.32,5.13,5.13,0,0,1,2.07-.47A4.88,4.88,0,0,1,102,120.21Z"/><path class="cls-5" d="M106.51,129.7h3.08l-3.33,5.42H105Z"/><path class="cls-5" d="M120.72,119.5v2H115.5l-.58,3.48a6.46,6.46,0,0,1,1.24-.76,4.2,4.2,0,0,1,1.61-.27,4,4,0,0,1,2.88,1.13,4.29,4.29,0,0,1,1.17,3.16,4.38,4.38,0,0,1-1.35,3.38,5.32,5.32,0,0,1-3.75,1.24,6.33,6.33,0,0,1-2-.32,7.07,7.07,0,0,1-2-1.08l.57-2h.31a3.26,3.26,0,0,0,1.11,1.62,2.81,2.81,0,0,0,1.77.56,2.38,2.38,0,0,0,2-.92,3.88,3.88,0,0,0,.67-2.36,3.59,3.59,0,0,0-.63-2.25,2.28,2.28,0,0,0-1.88-.79,2.89,2.89,0,0,0-1.27.3,5.42,5.42,0,0,0-1.44,1.21l-.72-.56,1.15-6.79Z"/><path class="cls-5" d="M132.26,120.89c.84,1.1,1.26,2.86,1.26,5.26s-.44,4.07-1.28,5.13a4.54,4.54,0,0,1-6.92,0c-.84-1.06-1.27-2.77-1.27-5.13s.43-4.16,1.27-5.26a4.49,4.49,0,0,1,6.94,0ZM127.14,122a13.09,13.09,0,0,0-.48,4.18,11.58,11.58,0,0,0,.5,4,1.68,1.68,0,0,0,1.62,1.29,1.72,1.72,0,0,0,1.64-1.29,12.15,12.15,0,0,0,.49-4,13.77,13.77,0,0,0-.47-4.18,1.73,1.73,0,0,0-1.66-1.28A1.7,1.7,0,0,0,127.14,122Z"/><path class="cls-5" d="M143.88,120.89c.85,1.1,1.26,2.86,1.26,5.26s-.43,4.07-1.27,5.13a4.54,4.54,0,0,1-6.92,0c-.84-1.06-1.28-2.77-1.28-5.13s.44-4.16,1.28-5.26a4.48,4.48,0,0,1,6.93,0ZM138.77,122a13,13,0,0,0-.49,4.18,11.53,11.53,0,0,0,.51,4,1.68,1.68,0,0,0,1.62,1.29,1.72,1.72,0,0,0,1.64-1.29,12.2,12.2,0,0,0,.48-4,13.84,13.84,0,0,0-.46-4.18,1.74,1.74,0,0,0-1.66-1.28A1.69,1.69,0,0,0,138.77,122Z"/><rect class="cls-6" x="69.8" y="30.15" width="26.68" height="48.33" transform="translate(182.3 59.78) rotate(150)"/><rect class="cls-7" x="77.84" y="30.15" width="10.61" height="48.33" transform="translate(182.3 59.78) rotate(150)"/><rect class="cls-4" x="82.68" y="29.43" width="3.41" height="48.33" transform="translate(184.26 57.82) rotate(150)"/><rect class="cls-6" x="99.52" y="30.15" width="26.68" height="48.33" transform="translate(42.28 -49.15) rotate(30)"/><rect class="cls-7" x="107.56" y="30.15" width="10.61" height="48.33" transform="matrix(0.87, 0.5, -0.5, 0.87, 42.28, -49.15)"/><rect class="cls-4" x="109.91" y="29.43" width="3.41" height="48.33" transform="translate(41.75 -48.63) rotate(30)"/><circle class="cls-8" cx="98" cy="68.61" r="23.27"/><circle class="cls-9" cx="98" cy="68.61" r="19.22"/><polygon class="cls-7" points="98 56.12 102.06 64.35 111.14 65.67 104.57 72.07 106.12 81.11 98 76.84 89.88 81.11 91.43 72.07 84.86 65.67 93.94 64.35 98 56.12"/><path class="cls-5" d="M43.73,146.2c.27-.64.51-1.35.75-2.12l1.86.71c-.26.48-.54.94-.85,1.41h3.6v1.34H34.91V146.2h3.86c-.29-.48-.61-1-1-1.46l1.86-.61a22,22,0,0,1,.77,2.07Zm-8.15,12.9V148.57h6.65v8.65a1.89,1.89,0,0,1-.44,1.41,2.27,2.27,0,0,1-1.56.4,10,10,0,0,1-1.48-.12l-.25-1.61a7.14,7.14,0,0,0,1.21.12.63.63,0,0,0,.48-.15.51.51,0,0,0,.15-.4v-1.45H37.47v3.68Zm4.76-9.22H37.47v1.52h2.87Zm0,2.86H37.47v1.33h2.87Zm3.12,3.64V148.9h1.73v7.48Zm3-8.13h1.89v9.31a1.41,1.41,0,0,1-.53,1.22,3.27,3.27,0,0,1-1.79.37,11.07,11.07,0,0,1-2-.16l-.31-1.56a10.59,10.59,0,0,0,1.64.15,1.56,1.56,0,0,0,.85-.16.67.67,0,0,0,.22-.53Z"/><path class="cls-5" d="M56.07,156.75a54.75,54.75,0,0,1-5.25,1.63l-.39-1.91,2.8-.41a68.82,68.82,0,0,0,.8-7.41l1.76.3c-.28,2.29-.67,4.58-1.15,6.83l1.31-.25ZM55.91,148H50.66v-1.35h2a16.59,16.59,0,0,0-.84-2.09l1.93-.23c.16.8.28,1.57.36,2.32h1.8Zm-3.43.72a40.31,40.31,0,0,1,.43,6.61l-1.2.22A34.43,34.43,0,0,0,50.8,149Zm3.39.94h9.51v1.31H61l-.66,1.32h4.79v5.5a1.38,1.38,0,0,1-.34,1.06,1.61,1.61,0,0,1-1.07.29,5.48,5.48,0,0,1-.83-.08l-.27-1.32v1.08H61v-5.22h-.77v5.22H58.69v-5.22h-.85V159H56.18v-6.78H58.8l.34-1.32H55.87Zm.61-.88v-3.68h1.73v2.37h1.51v-3H61.6v3H63v-2.37h1.73v3.68Zm7,4.82H62.6v4a1.55,1.55,0,0,0,.35,0,.65.65,0,0,0,.38-.08.3.3,0,0,0,.12-.19Z"/><path class="cls-5" d="M67.81,146H80.25v1.41H75.06v9.42h6.29v1.41H66.7v-1.41H73V147.4h-5.2Z"/><path class="cls-5" d="M86.64,159.16H84.79v-5.83a28.6,28.6,0,0,1-2.05,3.16l-.58-1.35a20.48,20.48,0,0,0,2.27-4.94H82.74v-1.35h2.05v-2.17c-.53.11-1.06.2-1.59.32l-.58-1.12a39.87,39.87,0,0,0,4.74-1.65l1.09,1.47c-.58.18-1.18.35-1.81.53v2.62h1.71v1.35H86.64v1.44l1-.55a21.81,21.81,0,0,1,1.1,2.65l-1,.56a12.72,12.72,0,0,0-1.07-1.85Zm11-.49H87.87v-1.35h4v-1.86H88.63v-1.31h3.21v-1.66l-3,.16-.38-1.19a47.09,47.09,0,0,0,7.73-1.23l.8,1.54c-1,.2-2.07.36-3.2.51v1.87H97v1.31H93.8v1.86h3.84Zm-1-13.51v4.75H89v-4.75Zm-1.88,1.31H90.85v2.13h3.88Z"/><path class="cls-5" d="M99.09,159V146.12h1.52c.13-.66.24-1.32.35-2l2,.33a11.51,11.51,0,0,1-.75,1.64h2.24V151h-3.61v1.71h3.85v5.94h-1.76v-1h-2.09V159Zm1.7-11.59v2.29h1.92V147.4Zm0,6.56v2.32h2.09V154Zm7.41,5.2v-9.27H107V157h-1.7v-8.48h2.91v-1.63h-3.29v-1.38h8.53v1.38H110v1.63h3v7.07a1.29,1.29,0,0,1-.35,1.06,1.8,1.8,0,0,1-1.18.3,7.07,7.07,0,0,1-1-.09l-.29-1.39a5.21,5.21,0,0,0,.64,0,.8.8,0,0,0,.43-.08.38.38,0,0,0,.1-.22v-5.35H110v9.27Z"/><path class="cls-5" d="M120.53,147.19h-5.94v-1.28h2.28a14.36,14.36,0,0,0-.85-1.23l1.79-.55a17.25,17.25,0,0,1,.56,1.78h2.16Zm-.42,6.4V159h-1.72v-1h-1.68V159H115v-5.44ZM115,148.53h5.08v1.25H115Zm0,2.4h5.08v1.25H115Zm1.69,3.91v1.86h1.68v-1.86Zm12.93-1H126v5.28h-1.89v-5.28H120.5v-1.44h3.58v-5.75h-3.2v-1.37h8.5v1.37H126v5.75h3.67Zm-7.48-2.32a18.9,18.9,0,0,0-1.29-3.57l1.69-.42a17.43,17.43,0,0,1,.84,3.73Zm7.16-3.52a19.89,19.89,0,0,1-1.55,3.57l-1.16-.23a22.24,22.24,0,0,0,1-3.73Z"/><path class="cls-5" d="M141.65,158.35h-7.36v.72h-1.95v-5.32c-.44.11-.88.23-1.33.32l-.48-1.1a17.47,17.47,0,0,0,4.18-1.67h-3.46v-1.21h2.45c-.24-.31-.48-.6-.74-.88l1.95-.37a9.72,9.72,0,0,1,.45,1.25H137v-1.35c-1.41,0-2.87,0-4.38,0l-.2-.93h-1.36V145.4h6.14a10.15,10.15,0,0,0-.64-1.14l2-.35a13.5,13.5,0,0,1,.19,1.49h6.11v2.32h-1.69l.27.64c-1.46.14-3,.25-4.55.32v1.41h1.75c.17-.45.33-.9.46-1.36l1.95.33a8.78,8.78,0,0,1-.76,1h2.54v1.21h-3.5a26.74,26.74,0,0,0,4.13,1.84l-.58,1.11c-.43-.15-.86-.27-1.26-.42v5.24h-2Zm1.25-11.71H133v.89a81.24,81.24,0,0,0,9.81-.58l.08.17Zm-.85,6.58a22.64,22.64,0,0,1-3.17-1.73v1.41H137v-1.33a18.3,18.3,0,0,1-3.16,1.65Zm-5.05,2v-.81h-2.71v.81Zm0,1.94v-.82h-2.71v.82Zm1.88-2.75v.81h2.77v-.81Zm0,1.93v.82h2.77v-.82Z"/><path class="cls-5" d="M153,152.87h2v.64a7.8,7.8,0,0,1-.08.87h2.48a10.18,10.18,0,0,0-1.3-.61l.74-.6a6.39,6.39,0,0,1-.94-.11l-.2-1-.72.6a12.64,12.64,0,0,0-1.85-1.21l.89-.72h-1.47v-1.15h.59l-.4-.89c.63-.08,1.22-.2,1.76-.32-.24-.18-.48-.36-.73-.52l1.09-.89a9.61,9.61,0,0,1,.89,1l.55-.23s.08,0,.12-.06a12.25,12.25,0,0,0-1.18-.83l.75-.66h-.35a11.24,11.24,0,0,1-2.62,1.57l-.61-.93a8.05,8.05,0,0,0,2.94-2.54l1.86.25-.43.53h3.82v1.12a8.59,8.59,0,0,1-2.86,2.35h1.66v1h1.54v1.15h-1.54v1.09a1.24,1.24,0,0,1-.46,1.08,2.09,2.09,0,0,1-1,.31c.32.26.68.55,1,.87l-.4.34h2.4v1.31h-5.25a11.14,11.14,0,0,0,5.75,2.22l-.61,1.28a11.79,11.79,0,0,1-6.94-2.69c-1.24,1.4-3.49,2.28-6.79,2.68l-.4-1.33q4-.51,5.5-2.16H147v-1.31h5.94a8.58,8.58,0,0,0,.1-.87Zm-3.22-2.61a4.15,4.15,0,0,1-2,3.41l-.95-.81a3.61,3.61,0,0,0,1.16-2.6h-.93V149h3.38v-.9h-2.84V145h1.8v1.88h1V144.6h1.82v8.73h-1.82v-3.07Zm7.58-1.58a15.14,15.14,0,0,1-3.29.86h3.42v-.91Zm-2.64,2a13.42,13.42,0,0,1,1.11,1.16c.4,0,.75.08,1.07.08a.51.51,0,0,0,.46-.2,1.21,1.21,0,0,0,.13-.62v-.42Zm1.84-4.51a10.07,10.07,0,0,1,.85.88,10.11,10.11,0,0,0,1-.88Z"/><path class="cls-5" d="M56,165.4a20.73,20.73,0,0,0,.76-2.12l1.85.71a16,16,0,0,1-.85,1.41h3.61v1.34H47.22V165.4h3.86c-.29-.48-.61-1-1-1.46l1.85-.61a19.53,19.53,0,0,1,.77,2.07ZM47.9,178.3V167.77h6.64v8.65a1.89,1.89,0,0,1-.43,1.41,2.31,2.31,0,0,1-1.57.4,9.79,9.79,0,0,1-1.47-.12l-.26-1.61a7.16,7.16,0,0,0,1.22.12.66.66,0,0,0,.48-.15.54.54,0,0,0,.14-.4v-1.45H49.79v3.68Zm4.75-9.22H49.79v1.52h2.86Zm0,2.86H49.79v1.33h2.86Zm3.12,3.64V168.1H57.5v7.48Zm3-8.13h1.89v9.31a1.41,1.41,0,0,1-.53,1.22,3.27,3.27,0,0,1-1.79.37,11.07,11.07,0,0,1-2-.16l-.3-1.56a10.37,10.37,0,0,0,1.63.15,1.56,1.56,0,0,0,.85-.16.63.63,0,0,0,.22-.53Z"/><path class="cls-5" d="M68.38,176a54.75,54.75,0,0,1-5.25,1.63l-.39-1.91,2.81-.41a71.46,71.46,0,0,0,.8-7.41l1.76.3c-.29,2.29-.68,4.58-1.16,6.83l1.32-.25Zm-.16-8.79H63v-1.35h2a18.11,18.11,0,0,0-.83-2.09l1.92-.23c.16.8.29,1.57.37,2.32h1.79Zm-3.43.72a41.53,41.53,0,0,1,.44,6.61l-1.21.22a34.43,34.43,0,0,0-.91-6.53Zm3.4.94h9.5v1.31h-4.4l-.65,1.32h4.78V177a1.42,1.42,0,0,1-.33,1.06,1.66,1.66,0,0,1-1.08.29,5.48,5.48,0,0,1-.83-.08l-.27-1.31V178H73.34v-5.22h-.77V178H71v-5.22h-.84v5.47H68.49v-6.78h2.63l.33-1.32H68.19Zm.6-.88v-3.68h1.73v2.37H72v-3h1.89v3h1.37v-2.37H77v3.68Zm7,4.82h-.85v4a1.14,1.14,0,0,0,.35.05.71.71,0,0,0,.39-.08.33.33,0,0,0,.11-.19Z"/><path class="cls-5" d="M93.41,164.4v14H91.55v-1h-6.5v1H83.19V164.6c-.33.83-.7,1.65-1.07,2.45v11.31H80.26v-7.89c-.33.54-.68,1.07-1.05,1.6l-.64-1.44a25.54,25.54,0,0,0,3-7.36l2,.4-.28.73Zm-8.36,1.35V176h6.5V165.75Zm5.81,4.93V175h-5v-4.32H87.4v-1.49h-2v-1.31h2v-1.55h1.83v1.55h2v1.31h-2v1.49ZM87.48,172v1.76H89.2V172Z"/><path class="cls-5" d="M94.79,177.21q6.46-3.94,6.47-10.47v-3h2v3c0,.19,0,.39,0,.59v0a16.57,16.57,0,0,0,2,5.56,16,16,0,0,0,4.64,4.32l-1.05,1.1a15.06,15.06,0,0,1-5.25-4.78,13.37,13.37,0,0,1-1.19-2.36c-1.1,2.8-3.33,5.16-6.64,7.09Z"/><path class="cls-5" d="M110.73,177.9a16.22,16.22,0,0,0,.53-3.83l1.68.23a15.39,15.39,0,0,1-1.09,4Zm6.51-11.78a43.77,43.77,0,0,1-4.13,5.66l2.12-.51-.5-1.3,1.52-.46a25.73,25.73,0,0,1,.79,3.7l-1.17.35-.23-1-4.24,1.2-.48-1.5a7.64,7.64,0,0,0,1.44-1.57c.35-.5.71-1,1.06-1.57-.69.19-1.33.38-1.92.56L111,168a3.33,3.33,0,0,0,.8-.75,10.67,10.67,0,0,0,.8-1.25,23.35,23.35,0,0,0,1.12-2.66l1.92.4a25.77,25.77,0,0,1-2.38,3.95l1.15-.14c.35-.62.7-1.28,1.05-2ZM114,177.66a23.58,23.58,0,0,0-.77-3.43l1.57-.27a22.21,22.21,0,0,1,.43,3.55Zm10.86-13.29V176.5H126v1.38h-9.41v-1.26l-.58.11a15.73,15.73,0,0,0-.88-2.77l1.49-.4a18.32,18.32,0,0,1,.59,2.93h.45V164.37ZM123,165.72h-3.49v2.72H123Zm0,4.06h-3.49v2.56H123Zm0,3.91h-3.49v2.81H123Z"/><path class="cls-5" d="M130.68,168.26h2.56l1.86,2.68,2-2.68h1.65L135.85,172l3.57,4.95h-2.56l-2.29-3.27-2.47,3.27h-1.64l3.36-4.31Z"/><path class="cls-5" d="M143.66,167.57l-2.28,1.59-.35-1.23,3.76-2.66h1.14v11.67h-2.27Z"/></svg>