<svg id="圖層_1" data-name="圖層 1" xmlns="http://www.w3.org/2000/svg" viewBox="0 0 196 196"><defs><style>.cls-1{fill:#a35eff;}.cls-2,.cls-4,.cls-8,.cls-9{fill:#fff;}.cls-2,.cls-8{stroke:#fff;}.cls-2{stroke-linecap:round;stroke-linejoin:round;stroke-width:3px;opacity:0.23;}.cls-3{fill:#e3d2ff;}.cls-5{fill:#220156;}.cls-6{fill:#e57200;}.cls-7{fill:#f80;}.cls-8,.cls-9{stroke-miterlimit:10;stroke-width:5px;}.cls-9{stroke:#fc0;}</style></defs><polygon class="cls-1" points="98 2.18 15.01 50.09 15.01 145.91 98 193.82 180.99 145.91 180.99 50.09 98 2.18"/><polygon class="cls-2" points="30.01 137.25 30.01 58.75 98 19.5 165.99 58.75 165.99 137.25 98 176.5 30.01 137.25"/><polygon class="cls-3" points="191.71 179.07 148.1 179.07 148.1 143.21 191.71 143.21 183.78 161.14 191.71 179.07"/><polygon class="cls-3" points="4.29 179.07 47.9 179.07 47.9 143.21 4.29 143.21 12.22 161.14 4.29 179.07"/><rect class="cls-4" x="22.48" y="139.87" width="151.05" height="42.55"/><path class="cls-5" d="M89,108h2v.64a7.8,7.8,0,0,1-.08.87h2.48a10.18,10.18,0,0,0-1.3-.61l.74-.59a8,8,0,0,1-.94-.12l-.2-1-.72.6a11.92,11.92,0,0,0-1.85-1.2l.89-.73H88.53v-1.15h.59l-.4-.89c.63-.08,1.22-.2,1.76-.32-.24-.18-.48-.36-.73-.52l1.09-.89a10.67,10.67,0,0,1,.89,1l.55-.23a.67.67,0,0,0,.12-.06,12.25,12.25,0,0,0-1.18-.83l.75-.66h-.35A11.11,11.11,0,0,1,89,102.87l-.6-.93a8,8,0,0,0,2.94-2.54l1.86.25-.43.53h3.82v1.12a8.59,8.59,0,0,1-2.86,2.35h1.66v1h1.54v1.15H95.38v1.09a1.24,1.24,0,0,1-.46,1.08,2.19,2.19,0,0,1-1,.32c.32.25.67.54,1,.86l-.4.34h2.4v1.31H91.68A11.14,11.14,0,0,0,97.43,113l-.61,1.28a11.79,11.79,0,0,1-6.94-2.69c-1.24,1.4-3.49,2.28-6.79,2.68l-.4-1.33q4.05-.51,5.5-2.16H83V109.5H88.9a6.42,6.42,0,0,0,.09-.87Zm-3.21-2.61a4.15,4.15,0,0,1-2,3.41l-1-.81a3.61,3.61,0,0,0,1.16-2.6h-.93V104.1h3.38v-.89H83.63v-3.13h1.8V102h1V99.72h1.82v8.74H86.47v-3.08Zm7.58-1.58a15.14,15.14,0,0,1-3.29.86h3.42v-.91Zm-2.64,2A13.42,13.42,0,0,1,91.83,107a8.72,8.72,0,0,0,1.07.08.53.53,0,0,0,.46-.19,1.26,1.26,0,0,0,.13-.63v-.42Zm1.84-4.51a10.07,10.07,0,0,1,.85.88,10.11,10.11,0,0,0,1-.88Z"/><path class="cls-5" d="M113.29,113.85H98.72v-1.34H105v-3.93H99.75v-1.31H105v-2h-3.2v-.91a28.08,28.08,0,0,1-2.67,1.23l-.72-1.12a20.31,20.31,0,0,0,7.5-5.49l1.84.77-.48.49a22.58,22.58,0,0,0,6.37,4.18l-.73,1.14a23.36,23.36,0,0,1-2.72-1.27v1H107v2h5.26v1.31H107v3.93h6.29Zm-10.9-4.91a18.82,18.82,0,0,1,1,2.86l-1.25.39a15.41,15.41,0,0,0-1.57-2.65Zm7.13-5a24.27,24.27,0,0,1-3.55-2.48,25.13,25.13,0,0,1-3.39,2.48Zm2,5.65a16.65,16.65,0,0,1-1.94,2.69l-1.18-.51a23.12,23.12,0,0,0,1.42-2.94Z"/><path class="cls-5" d="M52.84,123.3v9.33H51.18V119.5h2.11L61,129.05V119.5h1.66v13.13H60.37Z"/><path class="cls-5" d="M68.07,121H64V119.5H74.77V121H70.7v11.65H68.07Z"/><path class="cls-5" d="M86.12,130.9a5.43,5.43,0,0,1-4.28,1.73H76.15V119.5h5.69a5.58,5.58,0,0,1,4.28,1.63,6.84,6.84,0,0,1,1.52,4.8A7.31,7.31,0,0,1,86.12,130.9ZM84,122.28A3.09,3.09,0,0,0,81.3,121H78.78v10.17h2.55A3.13,3.13,0,0,0,84,129.88a6.81,6.81,0,0,0,.92-3.95A6.48,6.48,0,0,0,84,122.28Z"/><path class="cls-5" d="M100.63,119.45a4.16,4.16,0,0,1,1.31.61,3.16,3.16,0,0,1,.9,1,2.36,2.36,0,0,1,.35,1.29,2,2,0,0,1-.22,1,2.22,2.22,0,0,1-.58.74,3.42,3.42,0,0,1-.84.56,6.53,6.53,0,0,1-1,.4c.45.23.89.48,1.34.72a7.66,7.66,0,0,1,1.2.82,4.74,4.74,0,0,1,.87,1.07,2.92,2.92,0,0,1,.32,1.4,3,3,0,0,1-.36,1.42,4,4,0,0,1-1.06,1.25,5.32,5.32,0,0,1-1.64.86,6.2,6.2,0,0,1-2.16.34,8.3,8.3,0,0,1-1.78-.2,5.37,5.37,0,0,1-1.61-.64,3.52,3.52,0,0,1-1.15-1.12A2.85,2.85,0,0,1,94,129.3a3,3,0,0,1,.29-1.37,3.78,3.78,0,0,1,.76-1,4.31,4.31,0,0,1,1-.68,6.06,6.06,0,0,1,1.09-.4,8,8,0,0,1-.92-.66,4.11,4.11,0,0,1-.78-.78,3.17,3.17,0,0,1-.54-.9,2.75,2.75,0,0,1-.2-1,2.57,2.57,0,0,1,.35-1.35,3.46,3.46,0,0,1,.93-1,4.71,4.71,0,0,1,1.39-.65,6.61,6.61,0,0,1,1.71-.22A6.48,6.48,0,0,1,100.63,119.45ZM96,130.22a2.43,2.43,0,0,0,.68.79,3,3,0,0,0,1,.49,4.79,4.79,0,0,0,1.22.16,3.84,3.84,0,0,0,1.1-.16,2.66,2.66,0,0,0,.85-.45,2.36,2.36,0,0,0,.57-.69,1.73,1.73,0,0,0,.2-.81,1.64,1.64,0,0,0-.27-.88,4.17,4.17,0,0,0-.74-.79,7.57,7.57,0,0,0-1.06-.74c-.4-.23-.79-.45-1.21-.65l-.43-.21a4.86,4.86,0,0,0-.85.5,4,4,0,0,0-.7.65,4.07,4.07,0,0,0-.48.79,2.19,2.19,0,0,0-.18.92A2.11,2.11,0,0,0,96,130.22Zm1.8-9.35a1.23,1.23,0,0,0-.61,1.12,1.37,1.37,0,0,0,.21.72,2.32,2.32,0,0,0,.58.65,5.93,5.93,0,0,0,.84.63c.31.2.65.41,1,.61a3.37,3.37,0,0,0,1.28-1.08,2.17,2.17,0,0,0,.43-1.17,1.72,1.72,0,0,0-.18-.83,1.82,1.82,0,0,0-.5-.57,2.42,2.42,0,0,0-.74-.36,3,3,0,0,0-.85-.11A2.61,2.61,0,0,0,97.77,120.87Z"/><path class="cls-5" d="M106.51,129.7h3.08l-3.33,5.42H105Z"/><path class="cls-5" d="M120.72,119.5v2H115.5l-.58,3.48a6.46,6.46,0,0,1,1.24-.76,4.2,4.2,0,0,1,1.61-.27,4,4,0,0,1,2.88,1.13,4.29,4.29,0,0,1,1.17,3.16,4.38,4.38,0,0,1-1.35,3.38,5.32,5.32,0,0,1-3.75,1.24,6.33,6.33,0,0,1-2-.32,7.07,7.07,0,0,1-2-1.08l.57-2h.31a3.26,3.26,0,0,0,1.11,1.62,2.81,2.81,0,0,0,1.77.56,2.38,2.38,0,0,0,2-.92,3.88,3.88,0,0,0,.67-2.36,3.59,3.59,0,0,0-.63-2.25,2.28,2.28,0,0,0-1.88-.79,2.89,2.89,0,0,0-1.27.3,5.42,5.42,0,0,0-1.44,1.21l-.72-.56,1.15-6.79Z"/><path class="cls-5" d="M132.26,120.89c.84,1.1,1.26,2.86,1.26,5.26s-.44,4.07-1.28,5.13a4.54,4.54,0,0,1-6.92,0c-.84-1.06-1.27-2.77-1.27-5.13s.43-4.16,1.27-5.26a4.49,4.49,0,0,1,6.94,0ZM127.14,122a13.09,13.09,0,0,0-.48,4.18,11.58,11.58,0,0,0,.5,4,1.68,1.68,0,0,0,1.62,1.29,1.72,1.72,0,0,0,1.64-1.29,12.15,12.15,0,0,0,.49-4,13.77,13.77,0,0,0-.47-4.18,1.73,1.73,0,0,0-1.66-1.28A1.7,1.7,0,0,0,127.14,122Z"/><path class="cls-5" d="M143.88,120.89c.85,1.1,1.26,2.86,1.26,5.26s-.43,4.07-1.27,5.13a4.54,4.54,0,0,1-6.92,0c-.84-1.06-1.28-2.77-1.28-5.13s.44-4.16,1.28-5.26a4.48,4.48,0,0,1,6.93,0ZM138.77,122a13,13,0,0,0-.49,4.18,11.53,11.53,0,0,0,.51,4,1.68,1.68,0,0,0,1.62,1.29,1.72,1.72,0,0,0,1.64-1.29,12.2,12.2,0,0,0,.48-4,13.84,13.84,0,0,0-.46-4.18,1.74,1.74,0,0,0-1.66-1.28A1.69,1.69,0,0,0,138.77,122Z"/><rect class="cls-6" x="69.8" y="30.15" width="26.68" height="48.33" transform="translate(182.3 59.78) rotate(150)"/><rect class="cls-7" x="77.84" y="30.15" width="10.61" height="48.33" transform="translate(182.3 59.78) rotate(150)"/><rect class="cls-4" x="82.68" y="29.43" width="3.41" height="48.33" transform="translate(184.26 57.82) rotate(150)"/><rect class="cls-6" x="99.52" y="30.15" width="26.68" height="48.33" transform="translate(42.28 -49.15) rotate(30)"/><rect class="cls-7" x="107.56" y="30.15" width="10.61" height="48.33" transform="matrix(0.87, 0.5, -0.5, 0.87, 42.28, -49.15)"/><rect class="cls-4" x="109.91" y="29.43" width="3.41" height="48.33" transform="translate(41.75 -48.63) rotate(30)"/><circle class="cls-8" cx="98" cy="68.61" r="23.27"/><circle class="cls-9" cx="98" cy="68.61" r="19.22"/><polygon class="cls-7" points="98 56.12 102.06 64.35 111.14 65.67 104.57 72.07 106.12 81.11 98 76.84 89.88 81.11 91.43 72.07 84.86 65.67 93.94 64.35 98 56.12"/><path class="cls-5" d="M53.17,153.94v14.14h-2v-.8H41.35v.8h-2V153.94Zm-11.82,1.12v11.06h9.86V155.06Zm6.39,7.24-5.86.4-.16-1.17,3.68-.08V161H42.25v-3.57H45.4v-.49H41.9v-1h3.5v-.65h1.83V156h3.46v1H47.23v.49h3.1V161h-.16c.27.48.53.95.74,1.41l-.87.35-.44-.59h-.07v.74h1.41v1H49.53v.59a1.1,1.1,0,0,1-.45,1,2.76,2.76,0,0,1-1.53.32,9.17,9.17,0,0,1-1.54-.12l-.22-1.16a7.58,7.58,0,0,0,1.26.11.72.72,0,0,0,.55-.17,1.22,1.22,0,0,0,.14-.58h-3.6c.4.27.83.59,1.3.95l-.82.73c-.75-.41-1.49-.78-2.21-1.09l.7-.59H41.69v-1h6.05Zm-2.34-3.49v-.51H44v.51Zm0,1.33v-.5H44v.5Zm1.83-1.84v.51h1.34v-.51Zm0,1.34v.5h1.34v-.5Zm0,1.78,1.66,0-.38-.39H47.23Z"/><path class="cls-5" d="M55.42,168v-7.5h-.53v-2.44h.56v-4.16h5.26v4.16h.6v2.25h8.38v1.15H61.26v-1h-.55v5.87a1.74,1.74,0,0,1-.36,1.25A2,2,0,0,1,59,168a9.38,9.38,0,0,1-1.14-.08l-.22-1.44a6.89,6.89,0,0,0,1,.08.36.36,0,0,0,.29-.13A.85.85,0,0,0,59,166v-.67H57.15V168Zm4.41-8.82H56.36v.87h3.47Zm-2.91-4.09v3h.53v-2.2h1.79v-.77ZM59,161.21H57.15v.88H59Zm0,2H57.15v1H59Zm-.36-6.35v1.18h.61v-1.18Zm10.58,5.35v3.29h-.92l-.61,1.14h2v1.18H61.07v-1.18h2.09l-.46-1.14h-1v-3.29Zm.07-2.57h-7.7v-5.28h2.14v-1.2H65.1v1.2h.66v-1.2h1.37v1.2h2.15Zm-5.56-3.18v-1H63v1Zm0,2v-.94H63v.94Zm3.51,4.84H63.66v1h3.57Zm-.72,2.17H64.46l.14,1.14h1.62Zm-.75-9v-1H65.1v1Zm0,2v-.94H65.1v.94Zm1.37-3v1h.74v-1Zm0,2v.94h.74v-.94Z"/><path class="cls-5" d="M70.73,167.61a16.05,16.05,0,0,0,.53-3.82l1.68.22a15.56,15.56,0,0,1-1.09,4Zm6.51-11.78a43.88,43.88,0,0,1-4.13,5.67l2.12-.51-.5-1.3,1.52-.46a24.23,24.23,0,0,1,.78,3.69l-1.16.36c-.07-.31-.15-.63-.23-1l-4.24,1.2L70.92,162a7.39,7.39,0,0,0,1.44-1.57c.35-.49.7-1,1.06-1.57l-1.92.56L71,157.75a3.14,3.14,0,0,0,.8-.75,11.15,11.15,0,0,0,.8-1.25,23,23,0,0,0,1.12-2.65l1.92.4a25.77,25.77,0,0,1-2.38,3.95l1.15-.14c.35-.63.7-1.28,1.05-2ZM74,167.37a23.45,23.45,0,0,0-.77-3.42l1.57-.27a22.07,22.07,0,0,1,.43,3.55Zm10.86-13.28v12.13H86v1.38H76.54v-1.27l-.58.12a15.73,15.73,0,0,0-.88-2.77l1.49-.4a18.2,18.2,0,0,1,.59,2.92l0,0h.5V154.09ZM83,155.43H79.47v2.72H83Zm0,4.07H79.47v2.56H83Zm0,3.9H79.47v2.82H83Z"/><path class="cls-5" d="M92.84,156.11H86.9v-1.28h2.28a12.49,12.49,0,0,0-.85-1.24l1.79-.54a15.11,15.11,0,0,1,.56,1.78h2.16Zm-.41,6.4v5.38H90.7v-1H89V168H87.29v-5.44Zm-5.09-5.06h5.07v1.25H87.34Zm0,2.4h5.07v1.25H87.34ZM89,163.76v1.85H90.7v-1.85Zm12.93-1H98.29v5.28H96.4V162.8H92.81v-1.44H96.4v-5.75H93.19v-1.38h8.5v1.38h-3.4v5.75H102Zm-7.47-2.33a19.31,19.31,0,0,0-1.3-3.56l1.7-.42a17.82,17.82,0,0,1,.83,3.73Zm7.15-3.52a18.92,18.92,0,0,1-1.55,3.57l-1.16-.22a22.49,22.49,0,0,0,1-3.73Z"/><path class="cls-5" d="M114,167.26H106.6V168h-1.95v-5.31l-1.33.32-.48-1.11a16.89,16.89,0,0,0,4.18-1.66h-3.46V159H106c-.24-.3-.48-.59-.74-.88l2-.37a10.26,10.26,0,0,1,.44,1.25h1.64v-1.34c-1.41,0-2.87,0-4.37,0l-.21-.93h-1.36v-2.39h6.15a11.89,11.89,0,0,0-.64-1.13l2-.36a11.69,11.69,0,0,1,.19,1.49h6.12v2.32h-1.7l.27.64c-1.45.15-3,.26-4.54.32V159h1.74a12.84,12.84,0,0,0,.47-1.36l2,.34a9.09,9.09,0,0,1-.77,1h2.54v1.22h-3.5a26.74,26.74,0,0,0,4.13,1.84l-.58,1.1-1.26-.41V168h-2Zm1.25-11.7h-9.89v.88a81.28,81.28,0,0,0,9.81-.57l.08.17Zm-.84,6.58a22.54,22.54,0,0,1-3.17-1.73v1.41h-1.89v-1.33a19,19,0,0,1-3.16,1.65Zm-5.06,2v-.82H106.6v.82Zm0,1.94v-.82H106.6v.82Zm1.89-2.76v.82H114v-.82Zm0,1.94v.82H114v-.82Z"/><path class="cls-5" d="M125.31,161.79h2v.64a5.84,5.84,0,0,1-.08.86h2.48a12.52,12.52,0,0,0-1.29-.61l.73-.59a6.73,6.73,0,0,1-.94-.11l-.19-1-.72.59a12.6,12.6,0,0,0-1.86-1.2l.9-.72h-1.48v-1.15h.6l-.4-.9a17.28,17.28,0,0,0,1.76-.32c-.24-.17-.48-.35-.74-.51l1.09-.9a12,12,0,0,1,.89,1l.55-.22a.75.75,0,0,1,.13-.06c-.37-.29-.76-.56-1.19-.84l.75-.65h-.35a11.57,11.57,0,0,1-2.62,1.56l-.61-.92a8,8,0,0,0,2.94-2.55l1.86.26-.43.53h3.82v1.12a8.59,8.59,0,0,1-2.86,2.35h1.66v1h1.54v1.15h-1.54v1.09a1.22,1.22,0,0,1-.46,1.07,2.15,2.15,0,0,1-1,.32c.32.26.67.55,1,.87l-.4.33h2.4v1.31H128a11,11,0,0,0,5.74,2.23l-.61,1.28a11.91,11.91,0,0,1-6.94-2.69c-1.23,1.39-3.49,2.27-6.79,2.67l-.4-1.32c2.71-.34,4.53-1.06,5.51-2.17h-5.24v-1.31h5.94a8.39,8.39,0,0,0,.1-.86Zm-3.22-2.61a4.14,4.14,0,0,1-2,3.41l-.94-.82a3.56,3.56,0,0,0,1.15-2.59h-.93V157.9h3.38V157H120v-3.12h1.79v1.87h1v-2.24h1.82v8.74h-1.82v-3.07Zm7.59-1.59a15.83,15.83,0,0,1-3.3.87h3.42v-.91Zm-2.64,2a13.18,13.18,0,0,1,1.1,1.15,8.72,8.72,0,0,0,1.07.08.51.51,0,0,0,.47-.19,1.24,1.24,0,0,0,.12-.62v-.42Zm1.84-4.51a11.84,11.84,0,0,1,.85.88,11.49,11.49,0,0,0,1-.88Z"/><path class="cls-5" d="M138.68,158h2.56l1.86,2.67,2-2.67h1.65l-2.91,3.73,3.57,4.94h-2.56l-2.29-3.26-2.47,3.26h-1.64l3.36-4.3Z"/><path class="cls-5" d="M151.66,157.29l-2.28,1.58-.35-1.23,3.76-2.66h1.14v11.67h-2.27Z"/></svg>