<svg id="圖層_1" data-name="圖層 1" xmlns="http://www.w3.org/2000/svg" viewBox="0 0 196 196"><defs><style>.cls-1{fill:#f2f2f2;}.cls-2,.cls-3,.cls-7,.cls-8{fill:#fff;}.cls-2,.cls-7{stroke:#fff;}.cls-2{stroke-linecap:round;stroke-linejoin:round;stroke-width:3px;opacity:0.23;}.cls-4{fill:#1a1a1a;}.cls-5{fill:#e57200;}.cls-6{fill:#f80;}.cls-7,.cls-8{stroke-miterlimit:10;stroke-width:5px;}.cls-8{stroke:#fc0;}</style></defs><polygon class="cls-1" points="98 2.18 15.01 50.09 15.01 145.91 98 193.82 180.99 145.91 180.99 50.09 98 2.18"/><polygon class="cls-2" points="30.01 137.25 30.01 58.75 98 19.5 165.99 58.75 165.99 137.25 98 176.5 30.01 137.25"/><polygon class="cls-1" points="191.71 179.07 148.1 179.07 148.1 143.21 191.71 143.21 183.78 161.14 191.71 179.07"/><polygon class="cls-1" points="4.29 179.07 47.9 179.07 47.9 143.21 4.29 143.21 12.22 161.14 4.29 179.07"/><rect class="cls-3" x="22.48" y="139.87" width="151.05" height="42.55"/><path class="cls-4" d="M45,119H60.91v1.72H45Z"/><path class="cls-4" d="M63.06,115h9v-3.08h2.16V115h2.65a16.07,16.07,0,0,0-2.25-1.59l1.55-1.15a16,16,0,0,1,1.94,2.09l-.88.65h1.67v1.58H74.26a30.75,30.75,0,0,0,.65,7c.45,1.69,1,2.54,1.51,2.54.24,0,.45-.29.65-.86a13,13,0,0,0,.43-2.47l1.75,1.33a7.35,7.35,0,0,1-1.1,3.23,2.17,2.17,0,0,1-1.73,1q-2,0-3.15-3.08a25.8,25.8,0,0,1-1.17-8.77h-9Zm.79,3.65h7.6v1.59H68.79v4.5c1.06-.16,2.1-.34,3.13-.54l.14,1.48a75.5,75.5,0,0,1-8.57,1.92l-.3-2.1,3.33-.42v-4.84H63.85Z"/><path class="cls-4" d="M96.47,116.14a17,17,0,0,1-1.63,7.47,12.66,12.66,0,0,0,2.9,3.91l-1,1.17a15.86,15.86,0,0,1-2.89-3.39,17.27,17.27,0,0,1-3,3.39l-.76-.86-.81.79a16.21,16.21,0,0,0-3.22-1.53A13.87,13.87,0,0,1,81,128.71l-.4-1.21a17.17,17.17,0,0,0,3.44-1.08c-.72-.22-1.5-.43-2.31-.63.35-.45.67-.92,1-1.39H80.92V123h2.66c.17-.27.31-.56.47-.83H81.46v-3.33h3.28v-.63h-3v-1.82H80.58V115h1.18v-1.75h3v-1.4h1.9v1.4h3V115h1.23v1.16a24.15,24.15,0,0,0,1.2-4.31l2.09.33c-.27.81-.54,1.58-.82,2.36h4v1.58Zm-11.73,4H83.33V121h1.41Zm-1.1-5h1.1v-.8h-1.1Zm1.1,1.18h-1.1v.72h1.1Zm0,8-.42.55c.49.12,1,.28,1.5.46a7.92,7.92,0,0,0,1.15-1Zm1-1.36h4.86v1.36H89.33a16.85,16.85,0,0,1-1.79,1.7A24.75,24.75,0,0,1,90,127.39a15.44,15.44,0,0,0,2.88-3.9,20.39,20.39,0,0,1-1.48-4.85c-.3.53-.61,1-.92,1.55l-.54-1v3h-3.6Zm.88-7.85h1.1v-.8h-1.1Zm1.1,1.18h-1.1v.72h1.1Zm1.87,1.88h-3v.63h3.17l-.1-.2q.56-1.08,1-2.22H89.61Zm-1.51,1.89H86.64V121H88.1Zm4.74-4a26.42,26.42,0,0,0,1,4.93,18.47,18.47,0,0,0,.67-4.93Z"/><path class="cls-4" d="M98.31,120a29.13,29.13,0,0,0,3.76-8.28l2.23.52c-.5,1.17-1,2.33-1.58,3.46v13h-2.2v-9.14c-.49.74-1,1.47-1.53,2.18Zm11.81,6.54a61.82,61.82,0,0,0,1.94-9.38l2.27.29a51.46,51.46,0,0,1-2.5,9.09h3.73v1.55h-12.1v-1.55Zm-.52-14.76c.3,1,.54,2,.72,3h4.84v1.55h-11.4v-1.55h4.81a20.77,20.77,0,0,0-1.21-2.55Zm-3,13.81a39.34,39.34,0,0,0-2-7.93l2.2-.36a36.94,36.94,0,0,1,1.37,8.07Z"/><path class="cls-4" d="M123.87,121.58h2.23v.72a7.43,7.43,0,0,1-.09,1h2.79a12.79,12.79,0,0,0-1.46-.68l.83-.67a8.08,8.08,0,0,1-1.06-.13l-.22-1.17-.81.67a14.14,14.14,0,0,0-2.09-1.35l1-.81h-1.65v-1.3H124l-.45-1a18,18,0,0,0,2-.36c-.27-.19-.54-.39-.83-.57l1.23-1a12.07,12.07,0,0,1,1,1.17l.61-.25a.91.91,0,0,1,.14-.07,14.15,14.15,0,0,0-1.33-.94l.85-.74h-.4a13,13,0,0,1-2.95,1.77l-.69-1a8.94,8.94,0,0,0,3.32-2.86l2.09.29-.49.59h4.3v1.26a9.62,9.62,0,0,1-3.22,2.65h1.87v1.13h1.73v1.3h-1.73v1.22a1.38,1.38,0,0,1-.52,1.21,2.36,2.36,0,0,1-1.15.36c.36.29.75.61,1.17,1l-.45.38h2.7v1.48h-5.91a12.55,12.55,0,0,0,6.47,2.5l-.69,1.44a13.4,13.4,0,0,1-7.81-3c-1.39,1.56-3.93,2.55-7.64,3l-.45-1.49c3-.38,5.1-1.19,6.2-2.43h-5.89v-1.48h6.68c0-.32.09-.65.11-1Zm-3.62-2.94a4.64,4.64,0,0,1-2.22,3.84l-1.06-.92a4,4,0,0,0,1.3-2.92h-1V117.2H121v-1h-3.18v-3.51h2v2.11H121v-2.52h2.06v9.83H121v-3.46Zm8.53-1.78a17.57,17.57,0,0,1-3.71,1h3.86v-1Zm-3,2.27a13.88,13.88,0,0,1,1.25,1.3,11.16,11.16,0,0,0,1.2.09.58.58,0,0,0,.52-.22,1.48,1.48,0,0,0,.15-.7v-.47Zm2.07-5.08a12.79,12.79,0,0,1,1,1,11.3,11.3,0,0,0,1.1-1Z"/><path class="cls-4" d="M147.13,112.05v4.4a4.18,4.18,0,0,1,0,.5H151v1.59h-3.85a18.2,18.2,0,0,0,4.36,8.94l-1.12,1.19a20.8,20.8,0,0,1-4.19-6.21,15.57,15.57,0,0,1-3.86,6.23l-1-1v.81h-2.16v-7h-1.42v1.16a8.58,8.58,0,0,1-2.13,6l-1.15-1a9.26,9.26,0,0,0,1.22-5v-1.16h-1V120h4.45v-1.87h-3.66v-5.31h2.09v3.83h1.57V112h2.16v15.45a15.84,15.84,0,0,0,3.46-8.89h-3V117h3.08a4.18,4.18,0,0,0,0-.5v-4.4Zm2.08.69a17.79,17.79,0,0,1,1.25,3.13l-1.28.5a19.93,19.93,0,0,0-1.77-2.84Z"/><rect class="cls-5" x="69.8" y="30.15" width="26.68" height="48.33" transform="translate(182.3 59.78) rotate(150)"/><rect class="cls-6" x="77.84" y="30.15" width="10.61" height="48.33" transform="translate(182.3 59.78) rotate(150)"/><rect class="cls-3" x="82.68" y="29.43" width="3.41" height="48.33" transform="translate(184.26 57.82) rotate(150)"/><rect class="cls-5" x="99.52" y="30.15" width="26.68" height="48.33" transform="translate(42.28 -49.15) rotate(30)"/><rect class="cls-6" x="107.56" y="30.15" width="10.61" height="48.33" transform="matrix(0.87, 0.5, -0.5, 0.87, 42.28, -49.15)"/><rect class="cls-3" x="109.91" y="29.43" width="3.41" height="48.33" transform="translate(41.75 -48.63) rotate(30)"/><circle class="cls-7" cx="98" cy="69.61" r="23.27"/><circle class="cls-8" cx="98" cy="69.61" r="19.22"/><polygon class="cls-6" points="98 56.12 102.06 64.35 111.14 65.67 104.57 72.07 106.12 81.11 98 76.84 89.88 81.11 91.43 72.07 84.86 65.67 93.94 64.35 98 56.12"/><path class="cls-4" d="M57.43,160.33a25.51,25.51,0,0,0,3.14-7.23l2,.43c-.41,1-.84,2-1.31,3v11.56H59.32V160c-.4.62-.82,1.23-1.23,1.82Zm15.3,7.12H62v-1.37h4.38v-2.34H62.65V162.4h3.68v-1.83h2v1.83h3.8v1.34h-3.8v2.34h4.44ZM72.4,160H62.2v-1.34h4.07v-2.1H63v-1.34h3.31v-2.05h2v2.05h3.46v1.34H68.22v2.1H72.4Z"/><path class="cls-4" d="M73.54,160.38A25.59,25.59,0,0,0,76.86,153l2,.46c-.38.91-.78,1.79-1.2,2.67v11.93h-2v-8.42c-.5.77-1,1.5-1.54,2.22Zm8.2,7.7V156.79H81.4a24.58,24.58,0,0,1-2.32,4l-1-1a22.49,22.49,0,0,0,2.54-6.73l2,.26c-.2.69-.42,1.39-.68,2.1h6.66v1.37H83.76v2.53h4.48v1.38H83.76v2.56h4.48v1.38H83.76v3.44Z"/><path class="cls-4" d="M96.14,161.79h2v.64a5.84,5.84,0,0,1-.08.86h2.48a12.52,12.52,0,0,0-1.29-.61l.73-.59A6.73,6.73,0,0,1,99,162l-.19-1-.72.59a12.08,12.08,0,0,0-1.86-1.2l.9-.72H95.67v-1.15h.6l-.4-.9a17.28,17.28,0,0,0,1.76-.32c-.24-.17-.48-.35-.74-.51l1.09-.9a12.15,12.15,0,0,1,.9,1c.17-.08.36-.14.54-.22a.75.75,0,0,1,.13-.06c-.37-.29-.75-.56-1.19-.84l.76-.65h-.36a11.57,11.57,0,0,1-2.62,1.56l-.61-.92a8.11,8.11,0,0,0,3-2.55l1.85.26-.43.53h3.83v1.12a8.62,8.62,0,0,1-2.87,2.35h1.67v1h1.53v1.15h-1.53v1.09a1.2,1.2,0,0,1-.47,1.07,2.15,2.15,0,0,1-1,.32c.32.26.67.55,1,.87l-.4.33h2.4v1.31H98.83a11,11,0,0,0,5.74,2.23l-.6,1.28a11.91,11.91,0,0,1-7-2.69c-1.23,1.39-3.49,2.27-6.79,2.67l-.4-1.32c2.71-.34,4.53-1.06,5.51-2.17H90.1v-1.31H96a8.39,8.39,0,0,0,.1-.86Zm-3.22-2.61a4.14,4.14,0,0,1-2,3.41l-.94-.82a3.56,3.56,0,0,0,1.15-2.59h-.93V157.9h3.38V157H90.78v-3.12h1.79v1.87h1v-2.24h1.82v8.74H93.61v-3.07Zm7.59-1.59a15.83,15.83,0,0,1-3.3.87h3.43v-.91Zm-2.64,2a11.85,11.85,0,0,1,1.1,1.15,8.72,8.72,0,0,0,1.07.08.51.51,0,0,0,.47-.19,1.33,1.33,0,0,0,.13-.62v-.42Zm1.84-4.51a11.84,11.84,0,0,1,.85.88,11.49,11.49,0,0,0,1-.88Z"/><path class="cls-4" d="M109.51,158h2.56l1.86,2.67,2-2.67h1.65l-2.92,3.73,3.57,4.94h-2.56l-2.29-3.26-2.46,3.26h-1.65l3.36-4.3Z"/><path class="cls-4" d="M122.49,157.29l-2.27,1.58-.36-1.23,3.77-2.66h1.13v11.67h-2.27Z"/><path class="cls-4" d="M136.88,155v1.8h-4.65l-.51,3.09a5.34,5.34,0,0,1,1.11-.68,3.69,3.69,0,0,1,1.42-.24,3.55,3.55,0,0,1,2.56,1,3.78,3.78,0,0,1,1,2.8,3.88,3.88,0,0,1-1.2,3,4.7,4.7,0,0,1-3.33,1.11,5.86,5.86,0,0,1-1.78-.29,6,6,0,0,1-1.79-1l.51-1.78h.28a2.77,2.77,0,0,0,1,1.44,2.46,2.46,0,0,0,1.57.5,2.1,2.1,0,0,0,1.82-.82,3.45,3.45,0,0,0,.59-2.09,3.18,3.18,0,0,0-.56-2,2,2,0,0,0-1.66-.7,2.62,2.62,0,0,0-1.14.27,5.19,5.19,0,0,0-1.28,1.08l-.64-.5,1-6Z"/></svg>