<svg id="圖層_1" data-name="圖層 1" xmlns="http://www.w3.org/2000/svg" xmlns:xlink="http://www.w3.org/1999/xlink" viewBox="0 0 526 755"><defs><style>.cls-1,.cls-20,.cls-9{fill:none;}.cls-2{clip-path:url(#clip-path);}.cls-22,.cls-3,.cls-8{fill:#dfdfdf;}.cls-4{fill:#11002d;}.cls-5,.cls-7{fill:#6b00ff;}.cls-6{fill:#220156;}.cls-13,.cls-14,.cls-7,.cls-8,.cls-9{stroke:#220156;stroke-linecap:round;stroke-linejoin:round;}.cls-13,.cls-14,.cls-20,.cls-7,.cls-8,.cls-9{stroke-width:2px;}.cls-10,.cls-21{fill:#fff;}.cls-11{fill:#a35eff;}.cls-12{opacity:0.47;}.cls-13,.cls-17{fill:#42edf0;}.cls-14,.cls-15{fill:#fc0;}.cls-16{stroke:#000;}.cls-16,.cls-20{stroke-miterlimit:10;}.cls-18{fill:#00c2ba;}.cls-19{fill:#f80;}.cls-20{stroke:#6b00ff;}.cls-21{opacity:0.3;}.cls-22{opacity:0.2;}</style><clipPath id="clip-path"><rect class="cls-1" width="526" height="755"/></clipPath></defs><g class="cls-2"><rect class="cls-3" x="-1.97" y="-7.63" width="534.01" height="765.79"/><g id="main"><path id="Union_6" data-name="Union 6" class="cls-4" d="M285.63,76,297.19,44.3h31.7l-3.37,9.24H307l-1,2.64H323.2l-2.88,7.92H303.18l-1,2.64h18.53L317.34,76Zm-21.14,0H251.28l7.22-19.82H277l1-2.64H259.46l3.37-9.24h31.71l-7.22,19.81h-18.5l-1,2.65h18.5L283,76Zm-47.57,0,11.55-31.71h31.71l-4.33,11.89H238.68l-1,2.64h17.17L251,69.39H233.87L231.46,76Zm-42.27,0L186.2,44.27h31.71l-3.37,9.24H196l-1,2.65h17.17l-2.89,7.93H192.19l-1,2.65h18.53L206.36,76Zm-15.86,0,3.38-9.25h-5.3L153.5,76H140.29l11.56-31.71h13.21l-3.38,9.24H167l3.37-9.24h13.21L172,76Zm-44.92,0,5.78-15.85h-7.93l5.77-15.85H149.2l-5.77,15.86H135.5L129.72,76Z"/><polygon class="cls-5" points="393.02 64.14 398.31 64.14 399.27 61.49 393.99 61.49 393.02 64.14"/><path class="cls-5" d="M364,49.6l-7.7,21.14H335.14l2.25-6.17h12.34l.66-1.76H338.94l1.92-5.29h11.43l.67-1.76H340.6l2.25-6.17Zm-24.53-5.29L327.91,76h79.27l11.55-31.7Zm36.22,16.76L377,57.53h-2.64l-4.81,13.21H358.9l7.22-19.82h13.21l-1,2.63h7.93l-2.74,7.52Zm28.18,9.68H382.69l6.25-17.18h13.21l1.93-5.28H412Z"/></g><rect class="cls-5" x="101.03" y="82.87" width="328.4" height="4.04"/><path class="cls-6" d="M218.59,117.52a18.7,18.7,0,0,0,2.75-.14v4a8.75,8.75,0,0,0-1.3-.09c-.35,1.36-.41,1.54-.67,2.34a13,13,0,0,0,2-.11v4a19.74,19.74,0,0,0-2.75-.14h-1.41V129h1.21a22,22,0,0,0,2.66-.12v4a16.9,16.9,0,0,0-2.66-.15h-1.21v1.36a19.05,19.05,0,0,0,.17,3.21H212.9a19.39,19.39,0,0,0,.17-3.21V132.8h-1.21a16.27,16.27,0,0,0-2.63.15v-4a21.63,21.63,0,0,0,2.63.12h1.21v-1.56h-1.7a19,19,0,0,0-2.72.14v-4a14.76,14.76,0,0,0,2.17.11,14.3,14.3,0,0,0-.61-2.36c-.66,0-1,0-1.56.11v-4a19,19,0,0,0,2.72.14h1.7v-1.39h-1.15a22.94,22.94,0,0,0-2.63.12v-4a17.2,17.2,0,0,0,2.63.14h1.15v-.26a10.51,10.51,0,0,0-.14-1.91h4.39a7.1,7.1,0,0,0-.17,1.91v.26h1a17,17,0,0,0,2.63-.14v4a23.28,23.28,0,0,0-2.63-.12h-1v1.39Zm-3,6.15c.24-.8.38-1.41.58-2.36h-2.28a22.16,22.16,0,0,1,.52,2.36Zm19.62-1.41a12.35,12.35,0,0,0-.35,1.41,34.84,34.84,0,0,1-2.11,6.68,14.53,14.53,0,0,0,3.36,2.45,21.4,21.4,0,0,0-2.32,4.45,22,22,0,0,1-3.29-3.12,19.28,19.28,0,0,1-2.92,3.15,15.69,15.69,0,0,0-1.58-2.89,25,25,0,0,0,.2,3h-4.51a36.49,36.49,0,0,0,.17-4v-19.3c0-1,0-2.37-.11-3.12a23.15,23.15,0,0,0,2.66.12H232a19.87,19.87,0,0,0,2.92-.15c-.08,1.1-.08,1.1-.17,2.84-.2,3.43-.38,4.3-1,5s-1.42.87-3.33.87c-.6,0-1.27,0-2.48-.12a14.85,14.85,0,0,0-.75-3.43,18.55,18.55,0,0,0,2.6.23c.63,0,.72-.18.78-1.42h-4.56v5.35h4.41a19.93,19.93,0,0,0,3.18-.15ZM226.05,133a12.59,12.59,0,0,0,2.1-2.2,22.48,22.48,0,0,1-2.1-5.14Zm3-9a15.91,15.91,0,0,0,1.21,3,18.36,18.36,0,0,0,.84-3Z"/><path class="cls-6" d="M244.13,128.44a43.53,43.53,0,0,1-4.62,2,14.76,14.76,0,0,0-2.57-4.07,33.53,33.53,0,0,0,9.39-3.78,25.91,25.91,0,0,0-3.09-2.92,28.44,28.44,0,0,1-3.33,2,13.37,13.37,0,0,0-2.71-3.41,27,27,0,0,0,6.41-4,15.46,15.46,0,0,0,3.73-4.48l4.88,1c-.61.84-.81,1.13-1.18,1.59h5.54a14.26,14.26,0,0,0,2.37-.14l2.4,2.4c-.41.49-.41.49-1.13,1.41a46.67,46.67,0,0,1-7.8,7.43h7.86c1.33,0,2.05,0,2.75-.09a20.12,20.12,0,0,0-.15,3v7.92a23.52,23.52,0,0,0,.17,3.15h-4.53v-1.5h-10v1.5H244a25,25,0,0,0,.17-3.15Zm3.24-12.16c-.46.43-.55.52-1,.87a27,27,0,0,1,3.5,3,27.61,27.61,0,0,0,4.22-3.9Zm1.1,15.71h10.08v-4.62H248.47Z"/><path class="cls-6" d="M271.46,117.15a27,27,0,0,0-4.88-3.76l2.8-3.24a32.16,32.16,0,0,1,4.28,3.24v-1a24.42,24.42,0,0,0,3.52.17h3.12v-.29a9.44,9.44,0,0,0-.17-2h4.74a9.46,9.46,0,0,0-.18,2.08v.26h4.57a29.11,29.11,0,0,0,3.55-.17v4.3a27.79,27.79,0,0,0-3.49-.17h-.75a35.07,35.07,0,0,1,4.44,5.52l-3.72,2.25v0a17.4,17.4,0,0,0-.06,2v6.18c0,.55.06.64.46.64s.61-.09.64-.72c.08-.9.11-2.37.11-3.93a14.67,14.67,0,0,0,3.07,1.21c-.15,3.84-.29,5.11-.76,5.95-.54,1-1.67,1.42-3.87,1.42-1.61,0-2.54-.23-3.06-.72s-.55-1-.55-2.2v-7.63c0-1.5,0-2.1-.08-2.71H289c-.46-.78-.52-.87-.84-1.39-3.49.38-6.07.58-9.16.75-4.1.21-4.56.23-5.14.29l-.29-2.34-2.37,3.5a30.3,30.3,0,0,0-5.4-3.87l2.51-3.33a32.68,32.68,0,0,1,5.23,3.41l-.17-1.56a29.81,29.81,0,0,0,3.29.06,14.35,14.35,0,0,0,1.56-2.77H277.1a31.74,31.74,0,0,0-3.44.17v-2.51Zm7.51,7c0,.5-.05.64-.05,1.13-.15,4-.44,5.84-1.13,7.57a11.36,11.36,0,0,1-3.64,4.68,16.34,16.34,0,0,0-3-3.26c-.38.92-.61,1.38-.61,1.44a8.17,8.17,0,0,1-.41.78c-.11.23-.2.4-.37.81l-3.84-3.3a6.18,6.18,0,0,0,1.1-1.61,29.25,29.25,0,0,0,2.6-7.2l3.66,2.55a36.33,36.33,0,0,1-2.08,6.41c2.72-2,3.67-4.13,3.67-8.44a9.87,9.87,0,0,0-.08-1.56Zm.9,12.37a21.53,21.53,0,0,0,.17-2.95v-7.19a20.17,20.17,0,0,0-.11-2.4h4.16c-.06.78-.09,1.27-.09,2.34v7.31a27.79,27.79,0,0,0,.15,2.89Zm3.09-20a17.46,17.46,0,0,1-1.62,2.71c1.85-.08,1.85-.08,4.39-.29-.4-.46-.54-.63-1-1.18l2.66-1.24Z"/><path class="cls-6" d="M298.74,115.61c-.75.15-1.22.24-2.34.41a20.09,20.09,0,0,0-1.42-3.87c4-.52,7.22-1.36,8.73-2.34l2.62,3.61v-.2c0-.9,0-1.65-.08-2.29a17.18,17.18,0,0,0,2.4.12h9.93a17.39,17.39,0,0,0,2.43-.12,18.33,18.33,0,0,0-.12,2.29v5.28a15.32,15.32,0,0,0,.12,2.29c-.66-.06-1.36-.09-2.4-.09h-10c-1,0-1.77,0-2.4.09a17.08,17.08,0,0,0,.08-2.26v-5.11c-1.9.72-2.45.92-3.4,1.21v3.09h.92a9.83,9.83,0,0,0,1.7-.11v4.19a10.8,10.8,0,0,0-1.82-.12h-.63a10.73,10.73,0,0,0,2.51,3.21v-3.27a13.06,13.06,0,0,0,3.27.23h9.47a25.57,25.57,0,0,0,3.38-.14v4.19c-1-.09-1.88-.12-3.38-.12h-2.71v1.42h2.63a24.64,24.64,0,0,0,2.91-.12v4a25,25,0,0,0-2.91-.12h-2.63v1.56h3.09a25.31,25.31,0,0,0,3.38-.14v4.27a29.55,29.55,0,0,0-3.38-.17H308.1a29.43,29.43,0,0,0-3.38.17v-4.27a25.12,25.12,0,0,0,3.38.14h3.32V131h-2.51a25.14,25.14,0,0,0-2.89.12v-4a21.33,21.33,0,0,0,2.89.12h2.51v-1.42h-2.6a21.33,21.33,0,0,0-2.95.12,19.26,19.26,0,0,0-1.41,3.18,9.22,9.22,0,0,1-1.59-2.29c0,.5.06,1.3.06,2v5.17a26.18,26.18,0,0,0,.14,3.5h-4.51a29.39,29.39,0,0,0,.18-3.47v-3.09c0-.67,0-1.48.05-2.37a12.35,12.35,0,0,1-2.48,4.19,19.49,19.49,0,0,0-1.7-4.39,17.43,17.43,0,0,0,3.75-6.62h-1.18a10.59,10.59,0,0,0-1.85.15v-4.25a11.23,11.23,0,0,0,2,.14h1.42ZM310.58,117h6v-2.22h-6Z"/><polygon class="cls-6" points="197.27 124.85 187.05 115 187.05 134.7 197.27 124.85"/><polygon class="cls-6" points="333.18 124.85 343.41 134.7 343.41 115 333.18 124.85"/><rect class="cls-7" x="90.33" y="228.33" width="106.06" height="42.06"/><rect class="cls-8" x="85.67" y="224.25" width="106.06" height="42.06"/><path class="cls-6" d="M220.21,168.33a9.17,9.17,0,0,0,1.63.1h4.29a11,11,0,0,0,1.63-.08v2.1a9.15,9.15,0,0,0-1.55-.08h-4.37a12.44,12.44,0,0,0-1.63.08Zm.65-2.88a10.09,10.09,0,0,0,1.72.1h3.06a10,10,0,0,0,1.71-.1v2a13.8,13.8,0,0,0-1.71-.08h-3.06a13.67,13.67,0,0,0-1.72.08Zm.06,18.34a17.37,17.37,0,0,0,.11-2v-3.12a12,12,0,0,0-.09-1.63,11.6,11.6,0,0,0,1.56.08H226a7.55,7.55,0,0,0,1.39-.06,12.47,12.47,0,0,0-.06,1.49v3.36a11.7,11.7,0,0,0,.08,1.59h-2v-.69H223v1Zm0-12.42a11.35,11.35,0,0,0,1.35.06h3.79a10.27,10.27,0,0,0,1.31-.06v1.89a11.17,11.17,0,0,0-1.31-.06h-3.79a11.83,11.83,0,0,0-1.35.06Zm0,2.85a11.35,11.35,0,0,0,1.35.06h3.79a10.49,10.49,0,0,0,1.31-.06v1.9a11.47,11.47,0,0,0-1.35-.06h-3.77a11.68,11.68,0,0,0-1.33.06Zm2,6.81h2.41v-2.12H223Zm7.49-10.74a16,16,0,0,0-2.18.12v-2.29a14.47,14.47,0,0,0,2.2.13H232v-1.06a16.06,16.06,0,0,0-.12-2.15h2.51a11.85,11.85,0,0,0-.15,2.17v1h2.08a14.89,14.89,0,0,0,2.21-.13v2.29a16.93,16.93,0,0,0-2.19-.12h-2.1v3.91H236a15.56,15.56,0,0,0,2.08-.12v2.28a16.42,16.42,0,0,0-2.12-.12h-1.74v4.69h2.33a18.61,18.61,0,0,0,2.18-.12v2.28a17.54,17.54,0,0,0-2.2-.12h-6.41a17.2,17.2,0,0,0-2.18.12v-2.28a16,16,0,0,0,2.18.12H232v-4.69h-1.43a17,17,0,0,0-2.14.12v-2.28a16.21,16.21,0,0,0,2.14.12H232v-3.91Z"/><path class="cls-6" d="M244.3,174.9v6.36a18.23,18.23,0,0,0,.1,2.51h-2.51a23.34,23.34,0,0,0,.12-2.57v-6.3a13.52,13.52,0,0,0-1.73.12v-2.35a14,14,0,0,0,1.73.13V168c0-.94,0-1.51-.08-2.28.63.06,1.37.08,2.61.08h10.69a24.29,24.29,0,0,0,2.53-.08c0,.63-.08,1.53-.08,2.59v4.51a14.19,14.19,0,0,0,1.65-.13V175a11.45,11.45,0,0,0-1.65-.12v6.66c0,1.49-.58,1.94-2.53,1.94l-1.33,0a5.63,5.63,0,0,0-.47-2.16,10.21,10.21,0,0,0,1.53.14c.37,0,.49-.1.49-.45V174.9H253v5.73a21.51,21.51,0,0,0,.09,2.4h-2.25a23,23,0,0,0,.08-2.34V174.9h-2.3v5.77a22.65,22.65,0,0,0,.08,2.38h-2.24a22.85,22.85,0,0,0,.08-2.4V174.9Zm2.22-7.1H244.3v5h2.22Zm4.38,5v-5h-2.3v5Zm4.47,0v-5H253v5Z"/><path class="cls-6" d="M270.22,166.17l-7.36,19.31h-2.51l7.38-19.31Z"/><path class="cls-6" d="M278.76,170.43a10.73,10.73,0,0,0,1.78-.1v2.16a9.43,9.43,0,0,0-1.15-.08,12.59,12.59,0,0,1-.67,2.26H279a8.32,8.32,0,0,0,1.57-.1v2.16a14.72,14.72,0,0,0-1.78-.08h-1.59v1.63h1.39a13.05,13.05,0,0,0,1.69-.08v2.14a13.45,13.45,0,0,0-1.69-.08h-1.39v1.49c0,.67,0,1.43.1,2.08H275a16.66,16.66,0,0,0,.12-2.08v-1.49h-1.47a13.66,13.66,0,0,0-1.69.08V178.2a13.05,13.05,0,0,0,1.69.08h1.47v-1.63h-1.81a15.15,15.15,0,0,0-1.78.08v-2.16a9.88,9.88,0,0,0,1.78.1h.22a12.21,12.21,0,0,0-.53-2.26,10.12,10.12,0,0,0-1.47.08v-2.16a10.88,10.88,0,0,0,1.78.1h1.83v-1.57h-1.38a13.94,13.94,0,0,0-1.7.08v-2.12a12.55,12.55,0,0,0,1.7.08h1.38v-.37a7.83,7.83,0,0,0-.12-1.55h2.2a11.53,11.53,0,0,0-.08,1.55v.37h1.2a12.55,12.55,0,0,0,1.7-.08v2.12a13.94,13.94,0,0,0-1.7-.08h-1.2v1.57Zm-2,4.24a13.2,13.2,0,0,0,.62-2.26H275a15,15,0,0,1,.51,2.26Zm12.93-1.45a4.53,4.53,0,0,0-.24.9,23.2,23.2,0,0,1-1.73,5.06,9.5,9.5,0,0,0,2.81,2.36,12,12,0,0,0-1.18,2.17,17.18,17.18,0,0,1-2.78-2.65,14.06,14.06,0,0,1-2.42,2.63,12.92,12.92,0,0,0-1.15-1.78c0,.82.07,1.23.15,1.92h-2.33a13.89,13.89,0,0,0,.15-2.43V167.76a20.59,20.59,0,0,0-.11-2.08,13.93,13.93,0,0,0,1.92.1h5a12.52,12.52,0,0,0,1.89-.1c-.06.59-.08.83-.1,1.32-.24,3.76-.53,4.18-2.77,4.18-.55,0-.92,0-1.84-.1a7.57,7.57,0,0,0-.44-1.92,13.79,13.79,0,0,0,2.1.25c.63,0,.73-.2.81-1.71H283v4.46h3.84a14.55,14.55,0,0,0,1.94-.08ZM283,181.63a10.39,10.39,0,0,0,2.27-2.37,15.88,15.88,0,0,1-1.94-5.16H283Zm2.19-7.53a11.35,11.35,0,0,0,1.22,3.24,14.36,14.36,0,0,0,1-3.24Z"/><path class="cls-6" d="M298.28,170.2a18.1,18.1,0,0,1,2.55,2,21.16,21.16,0,0,0,3.49-3.52H299a21.35,21.35,0,0,1-5.5,4.24,5.1,5.1,0,0,0-1.39-1.71c3.34-1.64,6-4.08,7.24-6.59l2.41.59c-.54.77-.72,1-1.07,1.49h4.19a11.39,11.39,0,0,0,1.79-.1l1.2,1.28-.73.94a27.26,27.26,0,0,1-6.14,5.89h6.61a12.81,12.81,0,0,0,1.71-.08,12.58,12.58,0,0,0-.1,1.88v5.24a13.93,13.93,0,0,0,.12,2H307v-1.1h-7.79v1.1h-2.37a15.68,15.68,0,0,0,.12-2v-4.43a33.5,33.5,0,0,1-3.87,1.84,5.53,5.53,0,0,0-1.31-2,30,30,0,0,0,4.9-2.08c.65-.37,1.32-.8,2.42-1.53a14.31,14.31,0,0,0-2.48-2.14Zm.88,10.57H307v-4h-7.83Z"/><path class="cls-6" d="M109.44,255a18.05,18.05,0,0,0,.13-2.63V239a20.14,20.14,0,0,0-.13-2.45,21.47,21.47,0,0,0,2.51.11h12.93a18.41,18.41,0,0,0,2.41-.11,21.54,21.54,0,0,0-.12,2.45v13.34a20.25,20.25,0,0,0,.12,2.61h-2.24v-.73H111.69V255Zm9.69-15.89h3.41a12,12,0,0,0,1.81-.1v1.69a15,15,0,0,0-1.79-.08h-3.43v.59H122c.71,0,1,0,1.41,0a10.61,10.61,0,0,0,0,1.21v2.1a11.46,11.46,0,0,0,0,1.24c-.25,0-.31,0-.49,0a16.52,16.52,0,0,1,1.63,1.67l-1.47.86c-.35-.47-.45-.63-.61-.86l-.43,0h-.14v.86h1a10,10,0,0,0,1.67-.1v1.71a12.84,12.84,0,0,0-1.63-.08h-1v.86c0,1.22-.49,1.48-2.7,1.48-.24,0-.46,0-1,0a6.24,6.24,0,0,0-.49-1.67,9.17,9.17,0,0,0,1.42.12c.72,0,.86-.08.86-.46v-.29H116a13.28,13.28,0,0,1,1.53,1.37l-1.39,1.06a13.48,13.48,0,0,0-1.83-1.76l1-.67h-1.47a13.18,13.18,0,0,0-1.65.08V248.1a10.07,10.07,0,0,0,1.69.1h6.2v-.73c-2.22.08-4.24.12-6.06.16a10.27,10.27,0,0,0-1.28.06l-.37-1.59a22.32,22.32,0,0,0,2.9.1l2.1,0v-.57h-2.61a12,12,0,0,0-1.39.06c0-.41,0-.71,0-1.24v-2.1c0-.53,0-.82,0-1.21.39,0,.69,0,1.39,0h2.61v-.59h-3.06a14.4,14.4,0,0,0-1.82.08V239a11.57,11.57,0,0,0,1.82.1h3.06v-.65h-5.65v14.05h13.36V238.41h-5.92Zm-3.93,3.27v.57h2.14v-.57Zm0,1.57v.61h2.14v-.61Zm6.38-1v-.57h-2.47v.57Zm0,1.61v-.61h-2.47v.61Zm-1.79,1.65c.38,0,.89,0,1.67-.06l-.19-.16-.3-.33h-1.86v.55Z"/><path class="cls-6" d="M136.69,241.71a4.33,4.33,0,0,0,.72-.06,9.88,9.88,0,0,0-.06,1.17v1.42a11.18,11.18,0,0,0,1.71.09h7a11.89,11.89,0,0,0,2-.11v1.9a17.26,17.26,0,0,0-2-.1h-7a15.33,15.33,0,0,0-1.86.08V245h-.65v7.83c0,1.45-.43,1.84-2,1.84l-.92,0a5.9,5.9,0,0,0-.43-1.89,5.62,5.62,0,0,0,1,.12c.37,0,.45-.1.45-.47v-1.32h-2.26v1.44a21.4,21.4,0,0,0,.1,2.27h-2.16a16.94,16.94,0,0,0,.1-2.25V245.2h-1.06a6.59,6.59,0,0,0,.08-1.16v-1.18a8.3,8.3,0,0,0-.08-1.19l1,0V238c0-.47,0-1.26-.06-1.53a7.57,7.57,0,0,0,1.36.08h3.59a8.63,8.63,0,0,0,1.49-.08,11.5,11.5,0,0,0-.06,1.27Zm-1,1.74h-4.36v.83h3.45c.36,0,.46,0,.91,0Zm-3-3.24a8.49,8.49,0,0,0-.06-1.09l1.39,0h1.1v-.79h-3v3.34h.61Zm2,6.81v-1h-2.26v1Zm0,2.55v-1h-2.26v1Zm.43-7.86v-1.1h-1v1.1Zm4.79,10.73a9.55,9.55,0,0,0-.65-1.71c-.75,0-.75,0-1.08,0,0-.41,0-.76,0-1.39v-1.12c0-.16,0-.69,0-1.55.45,0,.86,0,1.49,0h5.94c.63,0,1,0,1.46,0a3.77,3.77,0,0,1,0,.47c0,.18,0,.55,0,1.06v1.1a13.66,13.66,0,0,0,0,1.43l-1.12,0a9.56,9.56,0,0,1-.73,1.71h1a19.41,19.41,0,0,0,2-.1v2.06c-.58-.06-1.45-.1-2.31-.1H139.2c-.81,0-1.59,0-2.18.1v-2.06a11,11,0,0,0,1.9.1Zm5.72-15a16.74,16.74,0,0,0,1.87-.1,17,17,0,0,0-.08,2v2.59a16.65,16.65,0,0,0,.08,1.83,16.84,16.84,0,0,0-1.71-.06h-6.43c-.55,0-1,0-1.48.06,0-.61.06-1,.06-1.83v-2.61a15.5,15.5,0,0,0-.09-1.94,13.53,13.53,0,0,0,1.84.1h.8v-.18a6,6,0,0,0-.09-1.21h1.78a6.81,6.81,0,0,0-.08,1.19v.2h1v-.2A7,7,0,0,0,143,236h1.75a10,10,0,0,0-.06,1.19v.2Zm-6,1.57v.86h1V239Zm0,2.24v.88h1v-.88Zm.65,8H145v-1h-4.75Zm1,1.49c.24.59.37,1,.61,1.71h1.51a13.71,13.71,0,0,0,.74-1.71Zm.9-10.89h1V239h-1Zm0,2.26h1v-.88h-1Zm2.51-2.26h1V239h-1Zm0,2.26h1v-.88h-1Z"/><path class="cls-6" d="M152.52,247.73a22.64,22.64,0,0,1-1.08,6l-1.78-.82a16.1,16.1,0,0,0,1.08-5.46Zm-2.59-3.08a9.82,9.82,0,0,0,1.32.06h.55c.49-.61.53-.67.92-1.22a20.21,20.21,0,0,0-3-3.24l1-1.84c.45.43.58.55.9.9a15.44,15.44,0,0,0,1.63-3.37l2.08.76a5.34,5.34,0,0,0-.38.65,31.1,31.1,0,0,1-2,3.36,13.61,13.61,0,0,1,.89,1A20.89,20.89,0,0,0,156,238l1.83,1c-.16.23-.26.39-.55.84-1.14,1.81-2.57,3.85-3.32,4.77.77,0,1-.06,2.26-.2a15.61,15.61,0,0,0-.69-1.45l1.55-.72a20.78,20.78,0,0,1,1.69,4.14l-1.65.78c-.12-.51-.17-.65-.29-1l-1.65.18v6.39a12.9,12.9,0,0,0,.12,2.18H153a13.18,13.18,0,0,0,.12-2.18v-6.22c-.53,0-1,.08-1.47.1a11.32,11.32,0,0,0-1.47.16Zm7.38,2.82a22.31,22.31,0,0,1,.69,3.89l-1.67.37a23.15,23.15,0,0,0-.57-3.9Zm10.1,4.65a5.68,5.68,0,0,0,1.26-.13v2.31a16.54,16.54,0,0,0-2.1-.12H159a15.56,15.56,0,0,0-2.08.12V252a7.27,7.27,0,0,0,1.43.13h.59v-13.2c0-.78,0-1.37-.08-2.08.65,0,1.2.06,2.06.06h4.26a19.91,19.91,0,0,0,2.14-.08c-.06.69-.08,1.24-.08,2.24v13.06Zm-6.33-10.28h4.08V239h-4.08Zm0,5h4.08v-3h-4.08Zm0,5.29h4.08v-3.27h-4.08Z"/><path class="cls-6" d="M366,252.52a20.26,20.26,0,0,0,.11,2.37h-2.39a21.94,21.94,0,0,0,.12-2.39v-6.07c0-.68,0-1.17,0-2.27a10,10,0,0,1-1.47,2.12,12.17,12.17,0,0,0-.93-2.42,14.91,14.91,0,0,0,3.1-5.25,12.8,12.8,0,0,0,.77-2.85l2.22.79-.38,1.11a29.69,29.69,0,0,1-1.19,3.05Zm1.55-13.38c0-1,0-1.63-.08-2.3.74.06,1.27.08,2.23.08h8a23.35,23.35,0,0,0,2.45-.08,19.69,19.69,0,0,0-.08,2.51v12.72a22.08,22.08,0,0,0,.1,2.68h-2.14v-.9H369.6v.9h-2.14a20.08,20.08,0,0,0,.12-2.51Zm2,12.73h8.47v-13H369.6Zm5.69-7.06c.59,0,1,0,1.51-.06a11.49,11.49,0,0,0,0,1.41v3.1a7.57,7.57,0,0,0,.06,1.43c-.53,0-1.06-.06-1.51-.06h-3c-.59,0-1,0-1.48.06a10.25,10.25,0,0,0,.06-1.39v-3.16a10,10,0,0,0-.06-1.39c.44,0,.83.06,1.48.06h.51V243h-1.44a7.78,7.78,0,0,0-1.23.08V241a5.64,5.64,0,0,0,1.25.1h1.42v-.45a7.63,7.63,0,0,0-.1-1.36h2.16a8,8,0,0,0-.08,1.36v.45h1.49a6.11,6.11,0,0,0,1.31-.1v2.06a8,8,0,0,0-1.27-.08h-1.53v1.81Zm-2.65,4H375v-2.2h-2.31Z"/><path class="cls-6" d="M393.08,236.33a13.6,13.6,0,0,0-.15,2.1,14.65,14.65,0,0,0,2,8,13.64,13.64,0,0,0,3.23,3.87,13.32,13.32,0,0,0,3.16,2.2,7.58,7.58,0,0,0-1.59,2.27,19.77,19.77,0,0,1-5.18-4.82,16.13,16.13,0,0,1-2.72-5.56,14.28,14.28,0,0,1-1.59,4.12,13.94,13.94,0,0,1-3.14,3.91,17.19,17.19,0,0,1-3.16,2.35,6.12,6.12,0,0,0-1.59-2.1,13.49,13.49,0,0,0,4.44-3.41c2.64-3,3.74-6.36,3.74-11.26a13.59,13.59,0,0,0-.08-1.71Z"/><path class="cls-6" d="M405.58,247.73a22.64,22.64,0,0,1-1.08,6l-1.78-.82a16.1,16.1,0,0,0,1.08-5.46ZM403,244.65a9.82,9.82,0,0,0,1.32.06h.55c.49-.61.53-.67.92-1.22a20.21,20.21,0,0,0-3-3.24l1-1.84c.45.43.58.55.9.9a15,15,0,0,0,1.63-3.37l2.08.76a5.34,5.34,0,0,0-.38.65,31.1,31.1,0,0,1-2,3.36,13.61,13.61,0,0,1,.89,1,20.89,20.89,0,0,0,2.13-3.76l1.83,1c-.16.23-.26.39-.55.84-1.14,1.81-2.57,3.85-3.32,4.77.77,0,1-.06,2.26-.2a15.61,15.61,0,0,0-.69-1.45l1.55-.72a20.78,20.78,0,0,1,1.69,4.14l-1.65.78c-.12-.51-.17-.65-.29-1l-1.65.18v6.39a12.9,12.9,0,0,0,.12,2.18h-2.32a13.18,13.18,0,0,0,.12-2.18v-6.22c-.53,0-1,.08-1.47.1a11.32,11.32,0,0,0-1.47.16Zm7.38,2.82a22.31,22.31,0,0,1,.69,3.89l-1.67.37a23.15,23.15,0,0,0-.57-3.9Zm10.1,4.65a5.68,5.68,0,0,0,1.26-.13v2.31a16.43,16.43,0,0,0-2.1-.12h-7.57a15.56,15.56,0,0,0-2.08.12V252a7.27,7.27,0,0,0,1.43.13H412v-13.2c0-.78,0-1.37-.08-2.08.65,0,1.2.06,2.06.06h4.26a20.24,20.24,0,0,0,2.15-.08,20.13,20.13,0,0,0-.09,2.24v13.06Zm-6.33-10.28h4.08V239h-4.08Zm0,5h4.08v-3h-4.08Zm0,5.29h4.08v-3.27h-4.08Z"/><path class="cls-6" d="M73.54,625.13a20.86,20.86,0,0,0,.15-2.65v-6.41a18,18,0,0,0-.15-2.65h2.73v1c0,.12,0,.43,0,.76a4.1,4.1,0,0,1,3.79-2,3.62,3.62,0,0,1,2.63.92,2.55,2.55,0,0,1,.77,1.22,4.72,4.72,0,0,1,1.72-1.61,4.45,4.45,0,0,1,2.28-.53,4,4,0,0,1,3.06,1.16,4.23,4.23,0,0,1,1,3.1v5a17,17,0,0,0,.16,2.65h-3a16.47,16.47,0,0,0,.16-2.65v-4.57c0-1.8-.63-2.61-2-2.61a2.35,2.35,0,0,0-1.67.61,3.84,3.84,0,0,0-1.29,2.53v4a20.38,20.38,0,0,0,.14,2.65H81.07a17,17,0,0,0,.16-2.65v-4.57c0-1.71-.65-2.57-2-2.57a2.54,2.54,0,0,0-2.1,1.06,4.64,4.64,0,0,0-.88,2v4a21.55,21.55,0,0,0,.15,2.65Z"/><path class="cls-6" d="M101.89,623.8a4.48,4.48,0,0,1-2.16,1.29,7.38,7.38,0,0,1-1.9.24c-2.49,0-4-1.28-4-3.42a3.62,3.62,0,0,1,2.31-3.31c1.32-.55,2.83-.75,5.75-.81v-1c0-1.19-.8-1.8-2.35-1.8a3.75,3.75,0,0,0-2.12.59,2.24,2.24,0,0,0-.81,1.31L94,616.38a4.24,4.24,0,0,1,1.61-2.26,6.06,6.06,0,0,1,3.89-1c2,0,3.15.34,4,1.2a3.4,3.4,0,0,1,1,2.81v5.49a16.76,16.76,0,0,0,.16,2.55h-2.75Zm0-4.24c-3.9.08-5.42.76-5.42,2.35,0,1,.71,1.55,1.85,1.55a4.18,4.18,0,0,0,2.84-1.08,2.44,2.44,0,0,0,.73-1.8Z"/><path class="cls-6" d="M110.07,608.89v2.59h-3v-2.59Zm0,4.53a18.5,18.5,0,0,0-.15,2.67v6.37a20.75,20.75,0,0,0,.15,2.67h-3a18.68,18.68,0,0,0,.16-2.65v-6.41a17.12,17.12,0,0,0-.16-2.65Z"/><path class="cls-6" d="M115.55,608.89a19.38,19.38,0,0,0-.14,2.68v10.91a21.43,21.43,0,0,0,.14,2.65h-3a20.17,20.17,0,0,0,.14-2.65V611.55a18.87,18.87,0,0,0-.14-2.66Z"/><path class="cls-6" d="M128,609.51a13.28,13.28,0,0,0-.1-1.62h1.92a13,13,0,0,0-.06,1.53v3h.91v-3a13.6,13.6,0,0,0-.06-1.51h1.92a8.1,8.1,0,0,0-.1,1.6v2.89h.77a11.49,11.49,0,0,0,1.88-.1v2c-.47,0-.75-.06-1.41-.08a19,19,0,0,1-.77,2.08H133a12.91,12.91,0,0,0,1.75-.08v1.95a15.16,15.16,0,0,0-1.93-.08h-1.76v1.63h1.27a12,12,0,0,0,1.87-.1v2a14.69,14.69,0,0,0-1.87-.08h-1.27v1.86c1.43-.17,2.25-.31,4-.66v2a58.45,58.45,0,0,1-6,1l-3.28.31a6.7,6.7,0,0,0-.9.14l-.36-2.31.69,0c.92,0,2.24-.08,3.77-.22v-2.1h-1.63a14.23,14.23,0,0,0-1.85.08v-2a11.68,11.68,0,0,0,1.85.1H129v-1.63h-2a15.57,15.57,0,0,0-1.93.08v-2a10.84,10.84,0,0,0,1.81.1h.35a9.7,9.7,0,0,0-.61-2.08h-.13a16.5,16.5,0,0,0-1.87.08v-2a11.13,11.13,0,0,0,1.87.1H128Zm-1.63-1.21a13.07,13.07,0,0,1,1.39,3l-1.69.8a11.37,11.37,0,0,0-1.37-3.06Zm4.63,8a13.4,13.4,0,0,0,.63-2.08h-3a12.88,12.88,0,0,1,.53,2.08Zm4.81-7.41a18.46,18.46,0,0,1-1.59,3.21l-1.61-.7a11.68,11.68,0,0,0,1.45-3.22Zm1.35,12.22a18.44,18.44,0,0,0-2-5l1.84-.87a23.85,23.85,0,0,1,2.12,4.95Zm2.49-10.81a14.87,14.87,0,0,0-.14-2.43h2.4a19.31,19.31,0,0,0-.12,2.43v1.82a12.64,12.64,0,0,0,1.63-.13v2.23a15.52,15.52,0,0,0-1.63-.1v10c0,1-.2,1.59-.71,1.92a3.83,3.83,0,0,1-2.06.32c-.57,0-.62,0-2-.08a5.88,5.88,0,0,0-.55-2.18,16.14,16.14,0,0,0,2.36.18c.68,0,.84-.1.84-.51v-9.64H137.4a16.91,16.91,0,0,0-1.9.1V612a10.76,10.76,0,0,0,1.9.13h2.22Z"/><path class="cls-6" d="M159.69,618.93h1.77a10.39,10.39,0,0,0,1.63-.08v1.71a9.38,9.38,0,0,0-1.63-.1h-6.93a9.22,9.22,0,0,0-1,0,12.6,12.6,0,0,0,.06-1.37v-2.32c0-.17,0-.59,0-1.31a11.34,11.34,0,0,1-.84.8,6.84,6.84,0,0,0-.83-1.14v3.52a10.73,10.73,0,0,0,.08,1.92h-2.1a12.48,12.48,0,0,0,.1-1.94v-1.91c0-.57,0-.92,0-1.59a8.27,8.27,0,0,1-1.08,1.36,10.14,10.14,0,0,0-.76-1.43c0,2.13-.12,4-.28,5.51a13.46,13.46,0,0,1-1.76,5.9,6.16,6.16,0,0,0-1.63-1.72,12.58,12.58,0,0,0,1.45-5.67c.1-1.18.14-3.93.14-8a17.21,17.21,0,0,0-.1-2.31,18.49,18.49,0,0,0,2.33.1h5.16v-.14a5.91,5.91,0,0,0-.11-1.2h2.47a4.8,4.8,0,0,0-.1,1.22v.12h5.47a15.17,15.17,0,0,0,2.12-.12v2.1a18.58,18.58,0,0,0-2.12-.08h-2l1.41.37c-.13.2-.13.2-.43.71-.06.08-.12.19-.25.37h1.51a7.16,7.16,0,0,0,1.35-.08v1.67a7.3,7.3,0,0,0-1.35-.08h-1.81v.79h1.57a6.34,6.34,0,0,0,1.36-.1V616a8.16,8.16,0,0,0-1.36-.08h-1.57v.82h1.57a6.09,6.09,0,0,0,1.36-.09v1.55a8.16,8.16,0,0,0-1.36-.08h-1.57Zm-12,6a9.54,9.54,0,0,0,2-3.74l1.78.8a12.54,12.54,0,0,1-2.16,4.3Zm.55-14.18v3.65a10.17,10.17,0,0,0,2.57-3.65Zm3.7,3.81a8.62,8.62,0,0,0,2.67-3.81h-3.24l1.42.51a.93.93,0,0,0-.1.2l-.2.35s-.09.16-.21.37-.12.18-.34.55Zm2.12,9.24c0,.66.2.74,1.87.74,1.23,0,1.76-.1,2-.35a2.52,2.52,0,0,0,.27-1.43,4.74,4.74,0,0,0,2,.62c-.19,1.57-.41,2.12-1,2.5a3.48,3.48,0,0,1-1.66.39c-.55,0-1.57.06-2,.06a8.07,8.07,0,0,1-2.7-.28c-.57-.21-.75-.57-.75-1.41v-2.1a6.91,6.91,0,0,0-.1-1.41h2.2a10.73,10.73,0,0,0-.08,1.45Zm2.51-.16a11.82,11.82,0,0,0-1.92-2.24l1.47-.84a14.56,14.56,0,0,1,2,2.06Zm-.11-12.44c-.24.49-.28.59-.51,1H158a7.24,7.24,0,0,0,.76-1.45H155Zm1.39,2.51h-2.41v.79h2.41Zm0,2.18h-2.41v.82h2.41Zm-2.41,2.2v.82h2.41v-.82Zm6.43,8.1a16.36,16.36,0,0,0-2.2-4.32l1.59-.9a18.58,18.58,0,0,1,2.3,4Z"/><path class="cls-6" d="M182.77,614.85c-.12.31-.12.31-.45,1.08a22,22,0,0,1-2.75,5.1,9.37,9.37,0,0,0,1.22,1.75,3,3,0,0,0,.92.74c.08,0,.17-.12.27-.39a12.13,12.13,0,0,0,.38-2.39,6.06,6.06,0,0,0,1.84,1.37c-.47,2.75-1.18,4-2.3,4s-2.66-1.37-3.84-3.29a18.65,18.65,0,0,1-4.93,3.57,6.89,6.89,0,0,0-1.55-1.77,15.35,15.35,0,0,0,5.48-3.75,25.69,25.69,0,0,1-1.53-8.14h-6.32c0,2,0,2,0,2.69h3.75a9.08,9.08,0,0,0,1.45-.08c0,.37-.08.94-.12,1.73-.21,3.67-.33,4.75-.68,5.61s-1.06,1.12-2.63,1.12c-.57,0-.89,0-1.55-.06a7.43,7.43,0,0,0-.53-2.16,12.7,12.7,0,0,0,2,.16c.63,0,.82-.12.92-.63a22.55,22.55,0,0,0,.3-3.69h-3a33.26,33.26,0,0,1-.63,5.12,11.1,11.1,0,0,1-1.68,4,7.46,7.46,0,0,0-1.77-1.74,9.72,9.72,0,0,0,1.41-3.22,38.94,38.94,0,0,0,.61-8.06,20.43,20.43,0,0,0-.12-2.89c.73.06,1.57.1,2.63.1h5.91c0-.16,0-.69-.06-1.59a6.47,6.47,0,0,0-.1-1.29h2.42a17.27,17.27,0,0,0-.1,1.94v.94h2.7a9.88,9.88,0,0,0-1.8-1.88l1.57-1a11.62,11.62,0,0,1,2.06,2.14l-1.06.74h.61a11.57,11.57,0,0,0,2.16-.12v2.24c-.67-.06-1.44-.1-2.48-.1h-3.68a28,28,0,0,0,.94,6.1,14.07,14.07,0,0,0,2-4.78Z"/><path class="cls-6" d="M187.3,611.77a9.08,9.08,0,0,0-1.47.1v-2.22a10.94,10.94,0,0,0,1.79.1h4a11.3,11.3,0,0,0,1.8-.1v2.22a7.93,7.93,0,0,0-1.41-.1h-1.33v7.61c1.11-.37,1.51-.51,2.76-1v2.1a65,65,0,0,1-6.28,2.32,8.42,8.42,0,0,0-1,.39l-.51-2.41a15,15,0,0,0,2.85-.71v-8.28Zm14.58.61a17.78,17.78,0,0,0,2.08-.08c0,.47-.06.73-.12,3.2-.08,1.88-.33,5.67-.51,7.18-.18,1.7-.53,2.61-1.1,3a4.73,4.73,0,0,1-2.47.47c-.55,0-1.18,0-2.16-.12a7.62,7.62,0,0,0-.63-2.33,17,17,0,0,0,2.75.27c.9,0,1.06-.17,1.26-1.25a56.18,56.18,0,0,0,.6-8.34h-3.14a19.3,19.3,0,0,1-1.72,6.85,13.8,13.8,0,0,1-4.75,5.33l-.65-.82a7.55,7.55,0,0,0-1-1c3.75-2.26,5.32-5,5.89-10.38h-1.51a11.91,11.91,0,0,0-1.85.1v-2.22a8.48,8.48,0,0,0,1.67.1h1.85c.05-1,.07-1.67.07-2.55a10.39,10.39,0,0,0-.13-1.94h2.49a12.05,12.05,0,0,0-.12,1.82c0,1.06,0,1.84-.06,2.67Z"/><polyline class="cls-9" points="138.7 224.25 138.7 175.9 211.27 175.9"/><polyline class="cls-9" points="318.18 175.9 391.76 175.9 391.76 224.25"/><rect class="cls-5" x="317.39" y="427.67" width="148.73" height="42.06" rx="21.03"/><line class="cls-9" x1="138.7" y1="334.86" x2="138.7" y2="270.39"/><line class="cls-9" x1="391.76" y1="266.31" x2="391.76" y2="298.58"/><rect class="cls-9" x="212.2" y="153.32" width="106.06" height="42.06"/><rect class="cls-9" x="338.73" y="224.25" width="106.06" height="42.06"/><rect class="cls-9" x="64.66" y="596.07" width="148.73" height="42.06"/><polyline class="cls-9" points="332.74 345.74 332.74 299.59 450.77 299.59 450.77 345.74"/><line class="cls-9" x1="138.87" y1="596.07" x2="138.87" y2="578.04"/><line class="cls-9" x1="138.87" y1="656.17" x2="138.87" y2="638.13"/><line class="cls-9" x1="79.85" y1="492.74" x2="79.85" y2="469.6"/><line class="cls-9" x1="197.88" y1="492.74" x2="197.88" y2="469.6"/><polyline class="cls-9" points="197.88 557.45 197.88 577.02 79.85 577.02 79.85 557.45"/><path class="cls-10" d="M358.87,444.76a9.59,9.59,0,0,0,1.78-.11v2.17a7.53,7.53,0,0,0-1.14-.09,13.6,13.6,0,0,1-.68,2.27h.25a8.32,8.32,0,0,0,1.57-.1v2.16a14.72,14.72,0,0,0-1.78-.08h-1.59v1.63h1.39a13,13,0,0,0,1.69-.08v2.14a13.45,13.45,0,0,0-1.69-.08h-1.39v1.48a20.59,20.59,0,0,0,.11,2.09h-2.25a16.83,16.83,0,0,0,.12-2.09v-1.48H353.8a13.73,13.73,0,0,0-1.7.08v-2.14a13.12,13.12,0,0,0,1.7.08h1.46V451h-1.81a15.26,15.26,0,0,0-1.78.08V448.9a9.88,9.88,0,0,0,1.78.1h.22a12.3,12.3,0,0,0-.53-2.27,8.74,8.74,0,0,0-1.47.09v-2.17a9.72,9.72,0,0,0,1.78.11h1.83v-1.57H353.9a14,14,0,0,0-1.7.08v-2.12a12.55,12.55,0,0,0,1.7.08h1.38v-.37a7.83,7.83,0,0,0-.12-1.55h2.2a11.53,11.53,0,0,0-.08,1.55v.37h1.21a12.48,12.48,0,0,0,1.69-.08v2.12a13.87,13.87,0,0,0-1.69-.08h-1.21v1.57ZM356.92,449a14.34,14.34,0,0,0,.61-2.27h-2.45a14,14,0,0,1,.51,2.27Zm12.93-1.45a3.68,3.68,0,0,0-.25.9,23.38,23.38,0,0,1-1.73,5.06,9.78,9.78,0,0,0,2.81,2.36A13,13,0,0,0,369.5,458a17.1,17.1,0,0,1-2.77-2.65A13.85,13.85,0,0,1,364.3,458a13.38,13.38,0,0,0-1.14-1.77,18.19,18.19,0,0,0,.14,1.92H361a13.89,13.89,0,0,0,.15-2.43V442.08c0-.73,0-1.53-.1-2.08a12.29,12.29,0,0,0,1.91.11h5a11.18,11.18,0,0,0,1.9-.11c-.06.6-.08.84-.11,1.33-.24,3.75-.53,4.18-2.77,4.18a18.19,18.19,0,0,1-1.83-.1,7.87,7.87,0,0,0-.45-1.92,15.2,15.2,0,0,0,2.1.25c.63,0,.73-.21.81-1.72h-4.44v4.47H367a14.55,14.55,0,0,0,1.94-.08Zm-6.69,8.4a10.3,10.3,0,0,0,2.26-2.36,16.11,16.11,0,0,1-1.94-5.16h-.32Zm2.18-7.52a11.78,11.78,0,0,0,1.22,3.24,13.87,13.87,0,0,0,1-3.24Z"/><path class="cls-10" d="M378.39,444.53a17.55,17.55,0,0,1,2.55,2,21.24,21.24,0,0,0,3.49-3.53h-5.37a20.92,20.92,0,0,1-5.5,4.24,5.2,5.2,0,0,0-1.39-1.71c3.34-1.63,6-4.08,7.24-6.59l2.41.6c-.53.77-.72,1-1.06,1.48h4.18a11.39,11.39,0,0,0,1.79-.1l1.21,1.29c-.25.3-.27.32-.74.94a27,27,0,0,1-6.14,5.89h6.61a12.88,12.88,0,0,0,1.72-.08,11.17,11.17,0,0,0-.11,1.87v5.25a12.56,12.56,0,0,0,.13,2h-2.33V457h-7.79v1.11h-2.37a15.79,15.79,0,0,0,.12-2v-4.43a34.38,34.38,0,0,1-3.87,1.84,5.53,5.53,0,0,0-1.31-2,30,30,0,0,0,4.9-2.08c.65-.37,1.32-.8,2.43-1.53a15.28,15.28,0,0,0-2.49-2.15Zm.88,10.57h7.83v-4h-7.83Z"/><path class="cls-10" d="M409.82,446.45c-.12.3-.12.3-.45,1.08a22.41,22.41,0,0,1-2.75,5.1,8.51,8.51,0,0,0,1.22,1.75,3,3,0,0,0,.92.74c.08,0,.16-.13.26-.39a10.84,10.84,0,0,0,.39-2.39,6.06,6.06,0,0,0,1.84,1.37c-.47,2.75-1.19,4-2.31,4s-2.65-1.37-3.83-3.29a18.76,18.76,0,0,1-4.94,3.57,6.54,6.54,0,0,0-1.55-1.77,15.29,15.29,0,0,0,5.49-3.76,25,25,0,0,1-1.53-8.13h-6.32c0,1.95,0,1.95,0,2.69H400a9.16,9.16,0,0,0,1.45-.08c0,.36-.09.94-.13,1.73-.2,3.67-.32,4.75-.67,5.61s-1.06,1.12-2.63,1.12c-.57,0-.9,0-1.55-.06a7.36,7.36,0,0,0-.53-2.16,12.7,12.7,0,0,0,2,.16c.63,0,.81-.12.92-.63a22.55,22.55,0,0,0,.3-3.69h-3a30.94,30.94,0,0,1-.63,5.12,11,11,0,0,1-1.67,4,7.45,7.45,0,0,0-1.78-1.73,9.32,9.32,0,0,0,1.41-3.22,38.3,38.3,0,0,0,.61-8.06,20.43,20.43,0,0,0-.12-2.89c.74.06,1.57.1,2.63.1h5.92c0-.17,0-.7-.06-1.59a5.66,5.66,0,0,0-.11-1.29h2.43a17.27,17.27,0,0,0-.1,1.94v.94h2.69a9.53,9.53,0,0,0-1.79-1.88l1.57-1a11.63,11.63,0,0,1,2.06,2.14l-1.06.74h.61a11.57,11.57,0,0,0,2.16-.12v2.24c-.67-.06-1.45-.1-2.49-.1h-3.67a27.29,27.29,0,0,0,.94,6.09,14.15,14.15,0,0,0,2-4.77Z"/><path class="cls-10" d="M414.35,443.37a9,9,0,0,0-1.47.1v-2.22a10.94,10.94,0,0,0,1.79.1h4a11.24,11.24,0,0,0,1.79-.1v2.22a7.75,7.75,0,0,0-1.4-.1h-1.33V451c1.1-.37,1.51-.51,2.75-1v2.1a65.7,65.7,0,0,1-6.28,2.32,7.5,7.5,0,0,0-1,.39l-.51-2.41a14.83,14.83,0,0,0,2.86-.71v-8.28Zm14.58.61a17.78,17.78,0,0,0,2.08-.08c0,.47-.06.73-.12,3.2-.09,1.88-.33,5.67-.51,7.18-.19,1.69-.53,2.61-1.11,3a4.67,4.67,0,0,1-2.46.47c-.55,0-1.19,0-2.16-.12a7.54,7.54,0,0,0-.64-2.33,18.3,18.3,0,0,0,2.76.27c.89,0,1.06-.17,1.26-1.25a55.34,55.34,0,0,0,.59-8.34h-3.14a19.16,19.16,0,0,1-1.71,6.85,13.8,13.8,0,0,1-4.75,5.33c-.21-.25-.21-.25-.66-.82a6.5,6.5,0,0,0-1-1c3.76-2.26,5.33-5,5.9-10.38h-1.51a12,12,0,0,0-1.86.1v-2.22a8.66,8.66,0,0,0,1.68.1h1.85c0-1,.06-1.67.06-2.55a11.39,11.39,0,0,0-.12-1.94h2.49a12.05,12.05,0,0,0-.12,1.82c0,1.06,0,1.83-.07,2.67Z"/><line class="cls-9" x1="391.6" y1="428.52" x2="391.6" y2="410.49"/><polyline class="cls-9" points="450.62 366.56 450.62 409.47 332.58 409.47 332.58 366.56"/><line class="cls-9" x1="138.87" y1="379.7" x2="138.87" y2="409.41"/><polyline class="cls-9" points="79.85 439.11 79.85 409.4 197.88 409.4 197.88 439.11"/><path class="cls-5" d="M79.28,284.51,52,284.37l.17-33.57a13.69,13.69,0,0,1,13.72-13.58h0a13.69,13.69,0,0,1,13.58,13.72Z"/><ellipse class="cls-10" cx="67.85" cy="249.31" rx="3.7" ry="4.67" transform="translate(-4.28 1.2) rotate(-0.99)"/><ellipse cx="69.27" cy="250.09" rx="1.85" ry="2.33" transform="matrix(1, -0.02, 0.02, 1, -4.29, 1.23)"/><path class="cls-5" d="M65.31,242.89a2.95,2.95,0,0,1,3.29-.84"/><path d="M65.31,243.24a.35.35,0,0,1-.22-.08.34.34,0,0,1,0-.49,3.24,3.24,0,0,1,1.64-1,3.31,3.31,0,0,1,2,.09.35.35,0,1,1-.25.65,2.61,2.61,0,0,0-2.89.75A.36.36,0,0,1,65.31,243.24Z"/><path d="M67.1,257.85a2.8,2.8,0,0,1-1-.18,3.68,3.68,0,0,1-1.6-1.26,1.88,1.88,0,0,1-.27-2.22.33.33,0,0,1,.38-.12c.7.22,4.22,1.35,4.65,1.63a.36.36,0,0,1,.15.29,1.87,1.87,0,0,1-.7,1.3A2.31,2.31,0,0,1,67.1,257.85Zm-2.42-3a1.68,1.68,0,0,0,.38,1.19,3,3,0,0,0,1.3,1,1.94,1.94,0,0,0,1.89-.27,1.42,1.42,0,0,0,.41-.57C68.07,255.94,66.33,255.35,64.68,254.82Z"/><path class="cls-5" d="M60.9,239.32c-2.07-.83-3.2-4.39-1.85-6.24A2.73,2.73,0,0,1,61.1,232c1.58.1,2.51,2.32,2.74,3.71,0,.31.45,2.76-.9,3.58A2.45,2.45,0,0,1,60.9,239.32Z"/><path class="cls-5" d="M65.59,239.35c-2.07-.84-3.2-4.4-1.85-6.24A2.7,2.7,0,0,1,65.79,232c1.58.1,2.51,2.32,2.74,3.7,0,.32.45,2.76-.9,3.58A2.46,2.46,0,0,1,65.59,239.35Z"/><path class="cls-5" d="M69.93,239.37c-2.07-.84-3.2-4.4-1.84-6.24a2.65,2.65,0,0,1,2-1.09c1.58.1,2.51,2.32,2.74,3.7,0,.32.45,2.76-.9,3.58A2.46,2.46,0,0,1,69.93,239.37Z"/><path class="cls-11" d="M87.35,244.93h0A13.65,13.65,0,0,1,101,258.58v26a0,0,0,0,1,0,0H73.7a0,0,0,0,1,0,0v-26a13.65,13.65,0,0,1,13.65-13.65Z" transform="translate(1.35 -0.44) rotate(0.29)"/><ellipse class="cls-10" cx="89.42" cy="257.03" rx="3.7" ry="4.67" transform="translate(-4.41 1.58) rotate(-0.99)"/><ellipse cx="88.09" cy="255.86" rx="1.85" ry="2.33" transform="translate(-4.39 1.55) rotate(-0.99)"/><path class="cls-5" d="M86.88,250.61a3,3,0,0,1,3.28-.85"/><path d="M86.88,251a.34.34,0,0,1-.23-.08.36.36,0,0,1,0-.49,3.34,3.34,0,0,1,1.64-1,3.4,3.4,0,0,1,2,.1.35.35,0,0,1-.25.65,2.65,2.65,0,0,0-1.6-.08,2.73,2.73,0,0,0-1.3.82A.3.3,0,0,1,86.88,251Z"/><path d="M90.56,265.53a3.54,3.54,0,0,1-1.37-.27c-1-.41-1.48-1.06-1.42-1.74a.37.37,0,0,1,.26-.3c.71-.19,4.3-1.11,4.81-1.09a.36.36,0,0,1,.28.15,1.94,1.94,0,0,1,.1,1.48,2.67,2.67,0,0,1-2,1.72A5.13,5.13,0,0,1,90.56,265.53Zm-2.06-1.71a1.7,1.7,0,0,0,1,.8,3.09,3.09,0,0,0,1.64.17,2,2,0,0,0,1.46-1.23,1.48,1.48,0,0,0,0-.71C92,263,90.18,263.38,88.5,263.82Z"/><path class="cls-11" d="M85.57,247.45c-2.07-.83-3.2-4.39-1.84-6.24a2.68,2.68,0,0,1,2-1.09c1.59.1,2.51,2.32,2.74,3.71,0,.31.45,2.76-.9,3.58A2.45,2.45,0,0,1,85.57,247.45Z"/><path class="cls-11" d="M88.36,246.85c-1.52-1.63-1-5.34,1-6.44a2.7,2.7,0,0,1,2.32-.12c1.39.76,1.29,3.16.91,4.52-.09.3-.76,2.69-2.33,2.86A2.47,2.47,0,0,1,88.36,246.85Z"/><rect class="cls-8" x="26.82" y="493.98" width="106.06" height="62.7"/><rect class="cls-8" x="144.85" y="493.98" width="106.06" height="62.7"/><rect class="cls-8" x="26.82" y="428.79" width="106.06" height="42.06"/><rect class="cls-8" x="144.85" y="428.79" width="106.06" height="42.06"/><path class="cls-6" d="M57.45,449.84c-.24.33-.41.6-.69,1.06a21.45,21.45,0,0,1-2.41,3.21c.68,1.28,1.47,2.26,1.86,2.26s.55-.9.73-2.86a6.17,6.17,0,0,0,1.86,1.35A11.6,11.6,0,0,1,58,458a1.6,1.6,0,0,1-1.51,1c-1.22,0-2.48-1.14-3.77-3.34a18.45,18.45,0,0,1-4.55,2.87,7.16,7.16,0,0,0-1.4-1.94,15.35,15.35,0,0,0,5-2.89,19.55,19.55,0,0,1-1.24-5.51l-4.24,0v2.49c1.16-.27,1.77-.41,3.22-.82l.06,2c-1.69.49-2.3.64-3.28.88v4.06c0,1-.17,1.49-.68,1.77a4.3,4.3,0,0,1-2,.33c-.36,0-1.32,0-1.93-.08a6.94,6.94,0,0,0-.53-2.27l.49.09a11.81,11.81,0,0,0,1.83.14c.57,0,.69-.1.69-.49v-3.08l-2.38.45a7.89,7.89,0,0,0-1.31.28L40,451.64h.17a27.85,27.85,0,0,0,3.93-.55v-2.88H42.48a19.43,19.43,0,0,0-2.36.15v-2.27a23.38,23.38,0,0,0,2.36.1l1.65,0v-2.36c-1,.2-1.65.32-3.1.51a6.45,6.45,0,0,0-.79-2,28.93,28.93,0,0,0,6.4-1.25,6.48,6.48,0,0,0,1.63-.71l1.13,2a6.53,6.53,0,0,0-1.08.31c-1,.32-1.35.42-2,.59v2.87l4.08,0c-.05-.65-.07-1.1-.11-2a21.63,21.63,0,0,0-.2-3.52H52.5a6,6,0,0,0-.15,1.91c0,1.23,0,2.14.13,3.57l3.87,0a16.23,16.23,0,0,0,2.18-.12v2.26a20.55,20.55,0,0,0-2.36-.1l-3.53,0a19.13,19.13,0,0,0,.77,3.86,11.23,11.23,0,0,0,2.08-3.35Zm-2.73-8.95a17.39,17.39,0,0,1,2.94,3.41L56,445.66A19.94,19.94,0,0,0,53.15,442Z"/><path class="cls-6" d="M68.87,451h-6a19.82,19.82,0,0,0-2.31.12V449a17.86,17.86,0,0,0,2.29.12H76.56a17.32,17.32,0,0,0,2.29-.12v2.16a19.58,19.58,0,0,0-2.29-.12H71.08v1.71h4.09a12.85,12.85,0,0,0,2.09-.1v2a14.16,14.16,0,0,0-2.09-.11H71.08v2.17c.93.08,1.75.12,2.93.12a45.72,45.72,0,0,0,5-.27,10.11,10.11,0,0,0-.59,2.29c-1.47.08-2.47.12-3.65.12a38,38,0,0,1-4.12-.24,9.58,9.58,0,0,1-4.1-1.35,9.94,9.94,0,0,1-1.65-1.43,11.35,11.35,0,0,1-3,3.35,6.34,6.34,0,0,0-1.61-1.76,9.16,9.16,0,0,0,4-6.1l2.25.55-.43,1.37c-.08.23-.14.43-.29.78a7,7,0,0,0,3,2.12Zm-3.75-2.86c-1,0-1.57,0-2.22.08a18.63,18.63,0,0,0,.08-2v-3.14a18.35,18.35,0,0,0-.08-2c.69.06,1.32.08,2.42.08h8.83c1.13,0,1.74,0,2.43-.08a17.54,17.54,0,0,0-.08,2v3.14a17.94,17.94,0,0,0,.08,2c-.65-.06-1.24-.08-2.22-.08Zm0-4.28h9.2v-1h-9.2Zm0,2.61h9.2v-1h-9.2Z"/><path class="cls-6" d="M83.47,452.07a21.69,21.69,0,0,1-1.08,6l-1.77-.81a16.11,16.11,0,0,0,1.08-5.47ZM80.88,449a10.1,10.1,0,0,0,1.33.06h.55c.49-.61.53-.68.92-1.23a21.11,21.11,0,0,0-3-3.24l1-1.83c.45.42.57.55.9.89a15.61,15.61,0,0,0,1.63-3.36l2.08.75c-.16.25-.22.35-.39.66a31.1,31.1,0,0,1-2,3.36c.41.43.49.55.9,1A20.34,20.34,0,0,0,87,442.34l1.84,1c-.16.22-.27.39-.55.83A55,55,0,0,1,84.94,449c.78,0,1-.06,2.27-.21-.25-.59-.37-.81-.7-1.45l1.55-.71a19.84,19.84,0,0,1,1.7,4.14l-1.66.78c-.12-.51-.16-.66-.28-1l-1.65.18V457a13.1,13.1,0,0,0,.12,2.19H84a12.21,12.21,0,0,0,.13-2.19v-6.22l-1.47.11a11.32,11.32,0,0,0-1.47.16Zm7.39,2.81a23.44,23.44,0,0,1,.69,3.9l-1.67.36a24.08,24.08,0,0,0-.57-3.89Zm10.09,4.65a5.83,5.83,0,0,0,1.27-.12v2.3a16.54,16.54,0,0,0-2.1-.12H90a15.46,15.46,0,0,0-2.08.12v-2.3a7.34,7.34,0,0,0,1.43.12h.59V443.26c0-.78,0-1.37-.08-2.08.65,0,1.2.06,2.06.06h4.26a19.91,19.91,0,0,0,2.14-.08c-.06.69-.08,1.24-.08,2.24v13.05ZM92,446.17h4.08V443.3H92Zm0,5h4.08v-3H92Zm0,5.28h4.08v-3.26H92Z"/><path class="cls-6" d="M117.82,452.45c-.16.13-.41.35-1.16,1a13.84,13.84,0,0,1-2,1.41A18,18,0,0,0,120,456.7,9.93,9.93,0,0,0,119,459a17.5,17.5,0,0,1-7.34-3.55,10.73,10.73,0,0,1-3.12-4h-1.78v4.62a33.26,33.26,0,0,0,4.1-1.1l0,2a57.46,57.46,0,0,1-8,2,8.08,8.08,0,0,0-.92.21l-.43-2.29a19.58,19.58,0,0,0,2.9-.37v-5.07h-1.1a13,13,0,0,0-2.08.12v-2.21a12.05,12.05,0,0,0,2.12.13h1.06v-6.45a16.21,16.21,0,0,0-.08-2,16.62,16.62,0,0,0,2.22.1h9.14a14,14,0,0,0,2.36-.12v2.16a17,17,0,0,0-2.34-.1h-9v1h8.65a14.32,14.32,0,0,0,1.88-.1v1.86a18,18,0,0,0-1.88-.11h-8.65v1h8.65a13.88,13.88,0,0,0,1.88-.1v1.88a12.42,12.42,0,0,0-1.88-.1h-8.65v1.08h10.88a11.78,11.78,0,0,0,2-.13v2.21a12,12,0,0,0-1.83-.12H115.9Zm-7-1a6.35,6.35,0,0,0,2.14,2.36,14.82,14.82,0,0,0,2.74-2.36Z"/><path class="cls-6" d="M175.75,449.84a12.37,12.37,0,0,0-.69,1.06,21.45,21.45,0,0,1-2.41,3.21c.67,1.28,1.47,2.26,1.86,2.26s.55-.9.73-2.86a6.17,6.17,0,0,0,1.86,1.35,11.6,11.6,0,0,1-.8,3.12,1.62,1.62,0,0,1-1.51,1c-1.22,0-2.49-1.14-3.77-3.34a18.74,18.74,0,0,1-4.55,2.87,7,7,0,0,0-1.41-1.94,15.4,15.4,0,0,0,5-2.89,19.55,19.55,0,0,1-1.24-5.51l-4.25,0v2.49c1.17-.27,1.78-.41,3.23-.82l.06,2c-1.7.49-2.31.63-3.29.88v4.06c0,1-.16,1.49-.67,1.77a4.32,4.32,0,0,1-2,.33c-.37,0-1.32,0-1.94-.08a6.46,6.46,0,0,0-.53-2.27l.49.08a10.94,10.94,0,0,0,1.84.15c.57,0,.69-.1.69-.49v-3.08l-2.38.45a7.89,7.89,0,0,0-1.31.28l-.41-2.32h.17a29.74,29.74,0,0,0,3.93-.55v-2.88h-1.65a22.52,22.52,0,0,0-2.37.14v-2.26c.6.06,1.35.1,2.37.1l1.65,0v-2.36c-1,.2-1.65.32-3.1.51a6.71,6.71,0,0,0-.79-2,29.16,29.16,0,0,0,6.4-1.25,6.48,6.48,0,0,0,1.63-.71l1.12,2a7.67,7.67,0,0,0-1.08.3c-1,.33-1.34.43-2,.6v2.87l4.08,0c0-.65-.06-1.1-.1-2a21.71,21.71,0,0,0-.2-3.53h2.42a6.54,6.54,0,0,0-.14,1.92c0,1.23,0,2.14.12,3.57l3.88,0a16.23,16.23,0,0,0,2.18-.12v2.26a20.62,20.62,0,0,0-2.37-.1l-3.52,0a18.46,18.46,0,0,0,.77,3.86,11.23,11.23,0,0,0,2.08-3.35ZM173,440.89A17,17,0,0,1,176,444.3l-1.63,1.36a19.26,19.26,0,0,0-2.87-3.63Z"/><path class="cls-6" d="M187.17,451h-6a19.6,19.6,0,0,0-2.3.13V449a17.68,17.68,0,0,0,2.28.12h13.69a17.05,17.05,0,0,0,2.28-.12v2.16a19.12,19.12,0,0,0-2.28-.13h-5.49v1.72h4.1a12.78,12.78,0,0,0,2.08-.1v2a13.94,13.94,0,0,0-2.08-.11h-4.1v2.17c.94.08,1.76.12,2.94.12a45.84,45.84,0,0,0,5-.27,9.61,9.61,0,0,0-.59,2.29c-1.47.08-2.47.12-3.66.12a35.88,35.88,0,0,1-4.12-.25,9.44,9.44,0,0,1-4.1-1.34,10.36,10.36,0,0,1-1.65-1.43,11.09,11.09,0,0,1-3,3.35,6.2,6.2,0,0,0-1.61-1.76,9.13,9.13,0,0,0,4-6.1l2.24.55-.42,1.37c-.09.22-.15.43-.29.78a7,7,0,0,0,3,2.12Zm-3.75-2.85c-1,0-1.57,0-2.23.08a16.08,16.08,0,0,0,.09-2v-3.14a15.74,15.74,0,0,0-.09-2c.7.06,1.33.08,2.43.08h8.83c1.12,0,1.74,0,2.43-.08a17.54,17.54,0,0,0-.08,2v3.14a17.94,17.94,0,0,0,.08,2c-.65-.06-1.24-.08-2.22-.08Zm0-4.28h9.2v-1h-9.2Zm0,2.61h9.2v-1h-9.2Z"/><path class="cls-6" d="M201.77,452.07a22.07,22.07,0,0,1-1.08,6l-1.77-.81a16.35,16.35,0,0,0,1.08-5.47ZM199.18,449a10,10,0,0,0,1.33.06h.55c.49-.61.53-.68.92-1.23a21.11,21.11,0,0,0-3-3.24l1-1.83c.45.42.57.55.9.89a16.1,16.1,0,0,0,1.63-3.36l2.08.75a7.44,7.44,0,0,0-.39.65,30.32,30.32,0,0,1-2,3.37c.41.43.49.55.9,1a21.33,21.33,0,0,0,2.12-3.75l1.84,1c-.17.22-.27.38-.56.83a57.61,57.61,0,0,1-3.32,4.78c.78,0,1-.07,2.26-.21a14.37,14.37,0,0,0-.69-1.45l1.55-.71a19.23,19.23,0,0,1,1.69,4.14l-1.65.78c-.12-.51-.16-.66-.28-1l-1.66.18V457a11.77,11.77,0,0,0,.13,2.18h-2.33a13.18,13.18,0,0,0,.12-2.18v-6.22c-.53,0-1,.08-1.46.1a12.36,12.36,0,0,0-1.47.17Zm7.38,2.81a23.12,23.12,0,0,1,.7,3.9l-1.67.36a24,24,0,0,0-.58-3.89Zm10.1,4.65a5.83,5.83,0,0,0,1.27-.12v2.3a16.7,16.7,0,0,0-2.11-.12h-7.56a15.46,15.46,0,0,0-2.08.12v-2.3a7.27,7.27,0,0,0,1.43.12h.59v-13.2c0-.77,0-1.36-.08-2.08.65.05,1.2.07,2,.07h4.27a17.21,17.21,0,0,0,2.14-.09c-.06.7-.08,1.25-.08,2.25v13.05Zm-6.32-10.28h4.08V443.3h-4.08Zm0,5h4.08v-3h-4.08Zm0,5.28h4.08v-3.26h-4.08Z"/><path class="cls-6" d="M223.08,455.7c-1,0-1.61,0-2.26.08,0-.51.08-1.12.08-2.14v-5.16a20.84,20.84,0,0,0-.08-2.19,20.08,20.08,0,0,0,2.26.09h10.85a21.47,21.47,0,0,0,2.29-.09,18.75,18.75,0,0,0-.08,2.19v5.16c0,.79,0,1.24,0,1.32a3.69,3.69,0,0,0,.06.82c-.63-.06-1.27-.08-2.29-.08H232.3a16.46,16.46,0,0,0,5.88,1.73,6.93,6.93,0,0,0-1.27,2,15.34,15.34,0,0,1-6.81-2.73l1.1-1h-5.55l1.29,1.08a18.3,18.3,0,0,1-3.71,1.81,24.08,24.08,0,0,1-3.12.82,6.61,6.61,0,0,0-1.25-2,15.42,15.42,0,0,0,5.79-1.69ZM235.38,444c0,.61,0,1.06.06,1.53-.61,0-1.3-.06-2.2-.06h-9.4c-.92,0-1.63,0-2.25.06a15,15,0,0,0,.09-1.53v-1.57a9.21,9.21,0,0,0-.11-1.57,18.58,18.58,0,0,0,2.33.1h9.26a18,18,0,0,0,2.3-.1,12.66,12.66,0,0,0-.08,1.57Zm-12.3,5h10.85v-.94H223.08Zm0,2.46h10.85v-.93H223.08Zm0,2.53h10.85v-1H223.08Zm.84-11.3v1.13h9.2V442.7Z"/><path class="cls-6" d="M47.78,519.76a16.28,16.28,0,0,0-2.2.13V518.4c-1.28.65-2.38,1.14-4.1,1.83l-1.06.47L40,518.32a16.65,16.65,0,0,0,2.37-.72v-5.79h-.55a13.64,13.64,0,0,0-1.61.1v-2.18a10.6,10.6,0,0,0,1.65.1h.51v-2.77a17.2,17.2,0,0,0-.12-2.27h2.34a13.86,13.86,0,0,0-.12,2.29v2.75h.35a9.65,9.65,0,0,0,1.45-.08v2.14a11.22,11.22,0,0,0-1.43-.08h-.37v5l1.9-.92v2c.45,0,1,0,1.45,0h9a15.5,15.5,0,0,0,2.22-.13v2.11a16.28,16.28,0,0,0-2.2-.13H54.54a11.34,11.34,0,0,0,4.54,1.92,7.67,7.67,0,0,0-1.2,1.84,15,15,0,0,1-5-2.55l1.29-1.21H49.82L51.13,521a11.94,11.94,0,0,1-5,2.53,5.32,5.32,0,0,0-1.28-1.8c2.42-.55,3.53-1,4.65-1.94Zm8-10.89c.92,0,1.28,0,1.83-.06a15.45,15.45,0,0,0-.08,1.82v4.71a15.9,15.9,0,0,0,.11,1.89c-.74,0-1.23-.06-1.9-.06H48.89c-.84,0-1.27,0-1.88.06a12.27,12.27,0,0,0,.1-1.87v-4.69a17.84,17.84,0,0,0-.08-1.86,1.08,1.08,0,0,0,.22,0c.37,0,.37,0,1.58,0h2.3v-1h-3A14.31,14.31,0,0,0,46,508V506a16.15,16.15,0,0,0,2.2.12h2.94V506a9,9,0,0,0-.1-1.43h2.36a6.85,6.85,0,0,0-.12,1.41v.12h3.37a16.25,16.25,0,0,0,2.2-.12V508a14.47,14.47,0,0,0-2.14-.1H53.27v1Zm-6.61,2.31h6.3v-.8h-6.3Zm0,2.2h6.3v-.8h-6.3Zm0,2.24h6.3v-.83h-6.3Z"/><path class="cls-6" d="M65.63,518.87a15,15,0,0,1-2.18,4.34l-1.76-1.28a9.37,9.37,0,0,0,2-3.21,15.74,15.74,0,0,1-2.06.92,4.61,4.61,0,0,0-1-2,10,10,0,0,0,4.63-2.36H65a17.35,17.35,0,0,0-1.86.08,17.77,17.77,0,0,0,.08-2v-3H61.08a8,8,0,0,0,.1-1.49v-1.26a11.88,11.88,0,0,0-.08-1.51c.65.06,1.22.08,2.16.08h5.31v-.3a5.54,5.54,0,0,0-.11-1.29H71a7.3,7.3,0,0,0-.1,1.26v.33h5.69a19.39,19.39,0,0,0,2.16-.08,9.74,9.74,0,0,0-.08,1.45v1.3a8.28,8.28,0,0,0,.1,1.51H76.64v2.92c0,.9,0,1.47.06,2.06a15.44,15.44,0,0,0-2-.06H67.85a9.89,9.89,0,0,1-.73.87H77a12.34,12.34,0,0,0,1.71-.08,15.09,15.09,0,0,0-.1,1.59c-.16,2.57-.47,4-1,4.8-.43.59-1.06.79-2.61.79-.41,0-.69,0-1.39,0a6.16,6.16,0,0,0-.47-2.12l.37.06a13.42,13.42,0,0,0-1.16-2.77l1.26-.45H65l-.59.35Zm10.91-10.81H63.3v1.16a11.37,11.37,0,0,0,5.1-.9l1,1.61a19,19,0,0,1-4.12.66v.75h2.45a9.48,9.48,0,0,0,1.45-.08v1.67a10.36,10.36,0,0,0-1.45-.08H65.3v.88h9.28v-.88H72.2a12.08,12.08,0,0,0-1.51.08v-1.67a9.69,9.69,0,0,0,1.51.08h2.38v-.84H72a11,11,0,0,0-1.34.07v-1.74a7.89,7.89,0,0,0,1.51.1h2.89c.65,0,1.06,0,1.49-.06Zm-8.46,10.48a27.9,27.9,0,0,1,.53,4l-2,.26a24.82,24.82,0,0,0-.33-4.06Zm2.87-.2a20.32,20.32,0,0,1,1.1,3.46l-1.87.49a18.19,18.19,0,0,0-.88-3.63Zm2.88,2.91c.47,0,1.06.08,1.34.08.62,0,.78-.16.94-.89a18.66,18.66,0,0,0,.27-2.47H73.87a19.61,19.61,0,0,1,1.28,2.69Z"/><path class="cls-6" d="M83.74,516.3a22.47,22.47,0,0,1-1.08,6l-1.78-.81A16.09,16.09,0,0,0,82,516Zm-2.59-3.08a9.92,9.92,0,0,0,1.32.06H83a14.76,14.76,0,0,0,.91-1.23,21.63,21.63,0,0,0-3-3.24L82,507c.44.42.57.55.89.89a15.15,15.15,0,0,0,1.63-3.36l2.09.75a5,5,0,0,0-.39.66,31.1,31.1,0,0,1-2,3.36c.41.43.49.55.9,1a21.33,21.33,0,0,0,2.12-3.75l1.83,1c-.16.22-.26.38-.55.83a57.61,57.61,0,0,1-3.32,4.78c.77,0,1-.07,2.26-.21-.24-.59-.37-.81-.69-1.45l1.55-.71A19.75,19.75,0,0,1,90,515l-1.65.78a8.67,8.67,0,0,0-.29-1l-1.65.18v6.38a13.1,13.1,0,0,0,.12,2.19H84.23a13.38,13.38,0,0,0,.12-2.19v-6.22c-.53,0-1,.08-1.47.1a12.66,12.66,0,0,0-1.47.17ZM88.53,516a23.12,23.12,0,0,1,.7,3.9l-1.68.36A23,23,0,0,0,87,516.4Zm10.1,4.65a5.67,5.67,0,0,0,1.26-.12v2.3a16.43,16.43,0,0,0-2.1-.12H90.23a15.72,15.72,0,0,0-2.09.12v-2.3a7.34,7.34,0,0,0,1.43.12h.59V507.49c0-.78,0-1.37-.08-2.09.65.05,1.21.07,2.06.07H96.4a17.38,17.38,0,0,0,2.15-.09c-.06.7-.08,1.25-.08,2.25v13ZM92.31,510.4h4.07v-2.87H92.31Zm0,5h4.07v-3H92.31Zm0,5.28h4.07v-3.26H92.31Z"/><path class="cls-6" d="M105.05,519.93c-1,0-1.61,0-2.26.08,0-.51.08-1.12.08-2.14v-5.16a20.84,20.84,0,0,0-.08-2.19,20.08,20.08,0,0,0,2.26.09H115.9a21.47,21.47,0,0,0,2.29-.09,16.25,16.25,0,0,0-.09,2.19v5.16c0,.79,0,1.24,0,1.32a3.17,3.17,0,0,0,.07.82c-.64-.06-1.27-.08-2.29-.08h-1.63a16.41,16.41,0,0,0,5.87,1.73,6.86,6.86,0,0,0-1.26,2,15.29,15.29,0,0,1-6.81-2.73l1.1-1h-5.55l1.29,1.08a18.12,18.12,0,0,1-3.72,1.81,23.19,23.19,0,0,1-3.12.82,6.39,6.39,0,0,0-1.24-2,15.48,15.48,0,0,0,5.79-1.69Zm12.3-11.69c0,.61,0,1.06.06,1.53-.61,0-1.31-.06-2.2-.06h-9.4c-.92,0-1.64,0-2.25.06,0-.51.08-1,.08-1.53v-1.57a10.35,10.35,0,0,0-.1-1.57,18.58,18.58,0,0,0,2.33.1h9.26a18,18,0,0,0,2.3-.1,12.66,12.66,0,0,0-.08,1.57Zm-12.3,5H115.9v-.94H105.05Zm0,2.46H115.9v-.93H105.05Zm0,2.53H115.9v-1H105.05Zm.84-11.3v1.13h9.2v-1.13Z"/><path class="cls-6" d="M58.88,547.5a21,21,0,0,0,.14-2.65v-6.41a18.26,18.26,0,0,0-.14-2.65h2.73v1c0,.12,0,.43,0,.76a4.1,4.1,0,0,1,3.8-2,3.64,3.64,0,0,1,2.63.92,2.62,2.62,0,0,1,.77,1.22,4.63,4.63,0,0,1,1.71-1.61,4.51,4.51,0,0,1,2.29-.53,4.06,4.06,0,0,1,3.06,1.16,4.23,4.23,0,0,1,1,3.1v5A17,17,0,0,0,77,547.5H74a16.32,16.32,0,0,0,.17-2.65v-4.57c0-1.8-.64-2.61-2-2.61a2.36,2.36,0,0,0-1.68.61,3.84,3.84,0,0,0-1.28,2.53v4a20.38,20.38,0,0,0,.14,2.65H66.41a17,17,0,0,0,.16-2.65v-4.57c0-1.71-.65-2.57-2-2.57a2.53,2.53,0,0,0-2.1,1.06,4.64,4.64,0,0,0-.88,2v4a21.65,21.65,0,0,0,.14,2.65Z"/><path class="cls-6" d="M87.23,546.17a4.48,4.48,0,0,1-2.16,1.29,7.44,7.44,0,0,1-1.9.24c-2.49,0-4-1.28-4-3.42A3.63,3.63,0,0,1,81.48,541c1.32-.55,2.83-.75,5.75-.81v-1c0-1.19-.8-1.8-2.35-1.8a3.75,3.75,0,0,0-2.12.59,2.19,2.19,0,0,0-.81,1.31l-2.61-.47A4.19,4.19,0,0,1,81,536.49a6.06,6.06,0,0,1,3.89-1c2,0,3.14.34,4,1.2a3.43,3.43,0,0,1,1,2.81V545A16.76,16.76,0,0,0,90,547.5H87.23Zm0-4.24c-3.9.08-5.43.76-5.43,2.35,0,1,.72,1.55,1.86,1.55a4.14,4.14,0,0,0,2.83-1.08,2.44,2.44,0,0,0,.74-1.8Z"/><path class="cls-6" d="M95.41,531.26v2.59h-3v-2.59Zm0,4.53a18.75,18.75,0,0,0-.14,2.67v6.37a20.91,20.91,0,0,0,.14,2.67h-3a18.68,18.68,0,0,0,.16-2.65v-6.41a17.12,17.12,0,0,0-.16-2.65Z"/><path class="cls-6" d="M100.89,531.26a19.38,19.38,0,0,0-.14,2.68v10.91a21.43,21.43,0,0,0,.14,2.65h-3a18.42,18.42,0,0,0,.15-2.65V533.92a17.26,17.26,0,0,0-.15-2.66Z"/><path class="cls-6" d="M165.55,519.76a16.28,16.28,0,0,0-2.2.13V518.4c-1.29.65-2.39,1.14-4.1,1.83l-1.06.47-.43-2.38a17,17,0,0,0,2.37-.72v-5.79h-.55a13.64,13.64,0,0,0-1.61.1v-2.18a10.6,10.6,0,0,0,1.65.1h.51v-2.77a17.2,17.2,0,0,0-.12-2.27h2.34a13.86,13.86,0,0,0-.12,2.29v2.75h.35a9.51,9.51,0,0,0,1.44-.08v2.14a11.22,11.22,0,0,0-1.43-.08h-.36v5l1.9-.92v2c.44,0,1,0,1.44,0h9a15.6,15.6,0,0,0,2.22-.13v2.11a16.28,16.28,0,0,0-2.2-.13H172.3a11.45,11.45,0,0,0,4.55,1.92,7.67,7.67,0,0,0-1.2,1.84,14.87,14.87,0,0,1-5-2.55l1.29-1.21h-4.35L168.9,521a11.94,11.94,0,0,1-5,2.53,5.47,5.47,0,0,0-1.28-1.8c2.42-.55,3.52-1,4.65-1.94Zm8-10.89c.91,0,1.28,0,1.83-.06a15.45,15.45,0,0,0-.08,1.82v4.71a18.45,18.45,0,0,0,.1,1.89c-.73,0-1.22-.06-1.89-.06h-6.84c-.83,0-1.26,0-1.87.06a12.27,12.27,0,0,0,.1-1.87v-4.69a17.84,17.84,0,0,0-.08-1.86,1.08,1.08,0,0,0,.22,0c.37,0,.37,0,1.57,0h2.31v-1h-3a14.31,14.31,0,0,0-2.14.1V506a16.15,16.15,0,0,0,2.2.12h2.94V506a9,9,0,0,0-.1-1.43h2.36A6.85,6.85,0,0,0,171,506v.12h3.36a16.31,16.31,0,0,0,2.21-.12V508a14.47,14.47,0,0,0-2.14-.1H171v1Zm-6.61,2.31h6.3v-.8h-6.3Zm0,2.2h6.3v-.8h-6.3Zm0,2.24h6.3v-.83h-6.3Z"/><path class="cls-6" d="M183.4,518.87a15.23,15.23,0,0,1-2.19,4.34l-1.75-1.28a9.37,9.37,0,0,0,2-3.21,16.36,16.36,0,0,1-2.06.92,4.72,4.72,0,0,0-1-2,10,10,0,0,0,4.63-2.36h-.22a17.35,17.35,0,0,0-1.86.08,17.77,17.77,0,0,0,.08-2v-3h-2.18a8,8,0,0,0,.1-1.49v-1.26a11.88,11.88,0,0,0-.08-1.51c.65.06,1.22.08,2.16.08h5.3v-.3a6.2,6.2,0,0,0-.1-1.29h2.53a7.3,7.3,0,0,0-.1,1.26v.33h5.69a19.39,19.39,0,0,0,2.16-.08,9.74,9.74,0,0,0-.08,1.45v1.3a8.28,8.28,0,0,0,.1,1.51h-2.12v2.92c0,.9,0,1.47.06,2.06a15.54,15.54,0,0,0-2-.06h-6.87c-.29.36-.41.53-.73.87h9.83a12.43,12.43,0,0,0,1.71-.08,15.09,15.09,0,0,0-.1,1.59c-.16,2.57-.47,4-1,4.8-.43.59-1.06.79-2.61.79-.41,0-.7,0-1.39,0a6.16,6.16,0,0,0-.47-2.12l.37.06a13.42,13.42,0,0,0-1.16-2.77l1.26-.45h-8.57c-.26.16-.32.2-.59.35Zm10.91-10.81H181.07v1.16a11.37,11.37,0,0,0,5.1-.9l1,1.61a19,19,0,0,1-4.12.66v.75h2.45a9.48,9.48,0,0,0,1.45-.08v1.67a10.36,10.36,0,0,0-1.45-.08h-2.45v.88h9.28v-.88H190a12.08,12.08,0,0,0-1.51.08v-1.67a9.85,9.85,0,0,0,1.51.08h2.39v-.84h-2.59a11.25,11.25,0,0,0-1.35.07v-1.74a8,8,0,0,0,1.51.1h2.9c.65,0,1.06,0,1.49-.06Zm-8.47,10.48a25.3,25.3,0,0,1,.53,4l-2,.26a26,26,0,0,0-.33-4.06Zm2.88-.2a20.32,20.32,0,0,1,1.1,3.46l-1.87.49a18.19,18.19,0,0,0-.88-3.63Zm2.88,2.91c.47,0,1.06.08,1.34.08.61,0,.78-.16.94-.89a20.5,20.5,0,0,0,.27-2.47h-2.51a22.28,22.28,0,0,1,1.28,2.69Z"/><path class="cls-6" d="M201.51,516.3a22.47,22.47,0,0,1-1.08,6l-1.78-.81a16.11,16.11,0,0,0,1.08-5.47Zm-2.59-3.08a9.82,9.82,0,0,0,1.32.06h.55c.49-.61.53-.68.92-1.23a21.11,21.11,0,0,0-3-3.24l1-1.83c.45.42.58.55.9.89a15.61,15.61,0,0,0,1.63-3.36l2.08.75a6.45,6.45,0,0,0-.38.66,31.1,31.1,0,0,1-2,3.36c.4.43.49.55.89,1a20.9,20.9,0,0,0,2.13-3.75l1.83,1c-.16.22-.26.38-.55.83A57.61,57.61,0,0,1,203,513.2c.77,0,1-.07,2.26-.21-.25-.59-.37-.81-.69-1.45l1.55-.71a20.31,20.31,0,0,1,1.69,4.14l-1.65.78c-.13-.51-.17-.66-.29-1l-1.65.18v6.38a13.1,13.1,0,0,0,.12,2.19H202a13.38,13.38,0,0,0,.12-2.19v-6.22c-.53,0-1,.08-1.47.1a12.66,12.66,0,0,0-1.47.17ZM206.3,516a22.27,22.27,0,0,1,.69,3.9l-1.67.36a23,23,0,0,0-.57-3.89Zm10.1,4.65a5.73,5.73,0,0,0,1.26-.12v2.3a16.54,16.54,0,0,0-2.1-.12H208a15.56,15.56,0,0,0-2.08.12v-2.3a7.34,7.34,0,0,0,1.43.12h.59V507.49c0-.78,0-1.37-.08-2.09.65.05,1.2.07,2.06.07h4.26a17.21,17.21,0,0,0,2.14-.09c-.06.7-.08,1.25-.08,2.25v13Zm-6.33-10.28h4.08v-2.87h-4.08Zm0,5h4.08v-3h-4.08Zm0,5.28h4.08v-3.26h-4.08Z"/><path class="cls-6" d="M235.85,516.68c-.16.13-.41.35-1.16,1a13.29,13.29,0,0,1-2,1.41,18,18,0,0,0,5.35,1.82,9.94,9.94,0,0,0-1.09,2.34,17.5,17.5,0,0,1-7.34-3.55,10.79,10.79,0,0,1-3.12-4h-1.77v4.63a34.25,34.25,0,0,0,4.1-1.1l0,2a58,58,0,0,1-8,2c-.49.1-.55.1-.92.2l-.42-2.28a19.49,19.49,0,0,0,2.89-.37v-5.08h-1.1a11.87,11.87,0,0,0-2.08.13V513.6a12.05,12.05,0,0,0,2.12.13h1.06v-6.45a16.21,16.21,0,0,0-.08-2,16.62,16.62,0,0,0,2.22.1h9.14a14.22,14.22,0,0,0,2.37-.12v2.16a17.24,17.24,0,0,0-2.35-.1H224.8v1h8.64a14.32,14.32,0,0,0,1.88-.1v1.86a15.6,15.6,0,0,0-1.88-.11H224.8v1h8.64a13.88,13.88,0,0,0,1.88-.1v1.88a12.42,12.42,0,0,0-1.88-.1H224.8v1.08h10.87a11.83,11.83,0,0,0,2-.13v2.21a11.92,11.92,0,0,0-1.84-.13h-1.92Zm-7-1a6.3,6.3,0,0,0,2.14,2.37,14.39,14.39,0,0,0,2.73-2.37Z"/><path class="cls-6" d="M176.91,547.5a21,21,0,0,0,.14-2.65v-6.41a18.26,18.26,0,0,0-.14-2.65h2.73v1c0,.12,0,.43,0,.76a4.11,4.11,0,0,1,3.8-2,3.62,3.62,0,0,1,2.63.92,2.55,2.55,0,0,1,.77,1.22,4.64,4.64,0,0,1,1.72-1.61,4.45,4.45,0,0,1,2.28-.53,4,4,0,0,1,3.06,1.16,4.23,4.23,0,0,1,1,3.1v5a17,17,0,0,0,.16,2.65h-3a15.26,15.26,0,0,0,.17-2.65v-4.57c0-1.8-.63-2.61-2-2.61a2.35,2.35,0,0,0-1.67.61,3.84,3.84,0,0,0-1.29,2.53v4a20.38,20.38,0,0,0,.14,2.65h-2.93a17,17,0,0,0,.16-2.65v-4.57c0-1.71-.65-2.57-2-2.57a2.54,2.54,0,0,0-2.1,1.06,4.64,4.64,0,0,0-.88,2v4a21.55,21.55,0,0,0,.15,2.65Z"/><path class="cls-6" d="M205.26,546.17a4.44,4.44,0,0,1-2.16,1.29,7.38,7.38,0,0,1-1.9.24c-2.49,0-4-1.28-4-3.42a3.63,3.63,0,0,1,2.31-3.31c1.32-.55,2.83-.75,5.75-.81v-1c0-1.19-.79-1.8-2.34-1.8a3.76,3.76,0,0,0-2.13.59,2.24,2.24,0,0,0-.81,1.31l-2.61-.47a4.24,4.24,0,0,1,1.61-2.26,6.06,6.06,0,0,1,3.89-1c2,0,3.15.34,4,1.2a3.4,3.4,0,0,1,1,2.81V545a16.76,16.76,0,0,0,.16,2.55h-2.75Zm0-4.24c-3.89.08-5.42.76-5.42,2.35,0,1,.71,1.55,1.85,1.55a4.18,4.18,0,0,0,2.84-1.08,2.43,2.43,0,0,0,.73-1.8Z"/><path class="cls-6" d="M213.44,531.26v2.59h-3v-2.59Zm0,4.53a18.5,18.5,0,0,0-.15,2.67v6.37a20.75,20.75,0,0,0,.15,2.67h-3a18.68,18.68,0,0,0,.16-2.65v-6.41a17.12,17.12,0,0,0-.16-2.65Z"/><path class="cls-6" d="M218.92,531.26a19.38,19.38,0,0,0-.14,2.68v10.91a21.43,21.43,0,0,0,.14,2.65H216a20.17,20.17,0,0,0,.14-2.65V533.92a18.87,18.87,0,0,0-.14-2.66Z"/><rect class="cls-8" x="57.36" y="322.31" width="162.68" height="65.85"/><path class="cls-6" d="M83.52,349.47A3.16,3.16,0,0,0,86,351.29a6.63,6.63,0,0,0-1.32-1.41,8.44,8.44,0,0,0,3.08-1.59H85.49a8.32,8.32,0,0,0-1.57.1v-1.88a7.11,7.11,0,0,0,1.57.11H87v-1.27h-.45a14.06,14.06,0,0,0-1.89.08v-1.79a13.49,13.49,0,0,0,1.89.08H87c0-.49,0-.69-.08-1h2.24c0,.33-.06.59-.08,1h2.76a8.58,8.58,0,0,0-.09-1H94a7.05,7.05,0,0,0-.1,1H95a13.87,13.87,0,0,0,1.89-.08v1.79a14.6,14.6,0,0,0-1.91-.08H93.9v1.27h1.57a12.52,12.52,0,0,0,2-.09v1.84a15.12,15.12,0,0,0-2-.08H93.28a10.86,10.86,0,0,0,3.8,1.43,7,7,0,0,0-1.18,1.55c.55,0,.55,0,2.08-.25a9.09,9.09,0,0,0-.62,2.35c-1.79.08-4.4.12-7,.12-3.18,0-4.37-.1-5.39-.43a5,5,0,0,1-2.51-1.86,19.84,19.84,0,0,1-2,1.72l-.92.73-1-2.32a10.86,10.86,0,0,0,2.81-2v-4.41H80.31a6.81,6.81,0,0,0-1.36.11v-2.21a9.38,9.38,0,0,0,1.63.1h1.47a11.22,11.22,0,0,0,1.53-.08,20.6,20.6,0,0,0-.06,2.21Zm-2.84-14.09a22.62,22.62,0,0,1,3.12,3.26l-1.69,1.65a16.13,16.13,0,0,0-3.06-3.38ZM90,338.54a8.16,8.16,0,0,0,0,1.1c-.51,0-.81-.06-1.3-.06H86.13v.61c0,.43.06.47.87.47,1.59,0,1.61,0,1.68-1a4.32,4.32,0,0,0,1.67.65c-.12,1.13-.33,1.53-.88,1.74a9.67,9.67,0,0,1-2.69.18c-2.12,0-2.51-.2-2.51-1.3v-1.74a10,10,0,0,0-.06-1.2,12.09,12.09,0,0,0,1.43.06h2.42v-.84H85.7a10.15,10.15,0,0,0-1.65.09v-1.8a13.21,13.21,0,0,0,1.67.08h2.53a16.56,16.56,0,0,0,1.79-.06,7.48,7.48,0,0,0,0,1.12Zm-.2,10.56a10.07,10.07,0,0,1-3.33,2.25c1,.1,2.14.14,3.53.14s3.28-.06,5.14-.16a11,11,0,0,1-3.85-2.19l1.24-.85h-4Zm-.72-2.48h2.78v-1.27H89.08Zm7.75-8.08a8.32,8.32,0,0,0,0,1.1c-.51,0-.81-.06-1.3-.06H93v.61c0,.29,0,.35.18.41a3.09,3.09,0,0,0,.94.08c1.47,0,1.51,0,1.55-1a5.84,5.84,0,0,0,1.8.67c-.17,1.13-.31,1.47-.76,1.68a8.56,8.56,0,0,1-2.81.24,6,6,0,0,1-2.25-.2c-.43-.19-.59-.53-.59-1.16v-1.58a3.77,3.77,0,0,0,0-.87,3.32,3.32,0,0,1,0-.43,11.93,11.93,0,0,0,1.41.06h2.44v-.84H92.57a10.15,10.15,0,0,0-1.65.09v-1.8a13.52,13.52,0,0,0,1.67.08h2.49a16.43,16.43,0,0,0,1.79-.06,7.79,7.79,0,0,0,0,1.12Z"/><path class="cls-6" d="M103.75,338.72a10.35,10.35,0,0,0,1.4-.08v2.27a9.94,9.94,0,0,0-1.38-.07h-.23v3.27l1.41-.49v2l-1.41.53v5.59c0,1.57-.53,2-2.45,2-.42,0-.75,0-1.34-.06a4.9,4.9,0,0,0-.49-2.18,13.79,13.79,0,0,0,1.49.12c.61,0,.69-.06.69-.55v-4.26c-.45.14-.45.14-.86.24a9.35,9.35,0,0,0-1,.33l-.53-2.2a16.18,16.18,0,0,0,2.34-.49v-3.86h-.51a10.85,10.85,0,0,0-1.53.09v-2.31a8.89,8.89,0,0,0,1.55.1h.49v-1.55a11.61,11.61,0,0,0-.12-2.1h2.32a14.06,14.06,0,0,0-.1,2.08v1.57Zm3.44,1.49c-.61,0-1.12,0-1.61.06a11.63,11.63,0,0,0,.06-1.47V337a11.12,11.12,0,0,0-.08-1.45,14.71,14.71,0,0,0,1.86.08h8.38a12.43,12.43,0,0,0,1.81-.08,13.06,13.06,0,0,0-.06,1.43v1.89a13.1,13.1,0,0,0,.06,1.45c-.46,0-.91-.06-1.54-.06h-3.53v.94h2.67a14,14,0,0,0,1.83-.08v1.87c-.4,0-1.08-.08-1.83-.08h-2.67v.94H116a12,12,0,0,0,1.86-.1v2a14.2,14.2,0,0,0-1.86-.1h-.59a11.63,11.63,0,0,1-.67,1.32h1a15.43,15.43,0,0,0,1.9-.08v2a14.62,14.62,0,0,0-1.9-.08h-3.22v1h2.73a13.78,13.78,0,0,0,1.84-.09v2a14.15,14.15,0,0,0-2-.1h-2.55v.39a15.47,15.47,0,0,0,.1,2.16h-2.35a12.61,12.61,0,0,0,.13-2.16v-.39h-2.66a14.46,14.46,0,0,0-2,.1v-2a14.05,14.05,0,0,0,1.88.09h2.82v-1h-3.23a13.37,13.37,0,0,0-1.85.08v-2a14.84,14.84,0,0,0,1.85.08h1.15a9.64,9.64,0,0,0-.62-1.32h-.51a14,14,0,0,0-1.83.08v-2a15.53,15.53,0,0,0,1.83.08h3.21v-.94H108a14,14,0,0,0-1.82.08v-1.87a14.12,14.12,0,0,0,1.86.08h2.45v-.94Zm1.88-3h-1.55v1.33h1.55Zm.86,8.35a12.67,12.67,0,0,1,.55,1.32h2.06c.3-.55.44-.85.65-1.32Zm2.42-8.35H110.8v1.33h1.55Zm3.31,1.33v-1.33h-1.59v1.33Z"/><path class="cls-6" d="M120.12,354a20.19,20.19,0,0,0,.12-2.63V338a22.56,22.56,0,0,0-.12-2.45,24.1,24.1,0,0,0,2.51.1h12.93a20.84,20.84,0,0,0,2.41-.1,21.54,21.54,0,0,0-.12,2.45v13.34A20.25,20.25,0,0,0,138,354h-2.24v-.74H122.37V354Zm9.69-15.89h3.41A12,12,0,0,0,135,338v1.69a15,15,0,0,0-1.79-.08h-3.43v.59h2.9c.71,0,1,0,1.4,0a10.51,10.51,0,0,0,0,1.2v2.1a11.56,11.56,0,0,0,0,1.25c-.24,0-.3,0-.49,0a15.49,15.49,0,0,1,1.63,1.67l-1.46.86c-.35-.47-.45-.64-.62-.86l-.42,0h-.15v.86h1a8.77,8.77,0,0,0,1.67-.11v1.72a12.64,12.64,0,0,0-1.63-.08h-1v.85c0,1.23-.49,1.49-2.69,1.49-.24,0-.47,0-1,0a5.59,5.59,0,0,0-.49-1.67,9.19,9.19,0,0,0,1.43.12c.71,0,.86-.08.86-.47v-.28h-4.08a12.27,12.27,0,0,1,1.53,1.36l-1.39,1.06a13.56,13.56,0,0,0-1.84-1.75l1-.67h-1.46a13.25,13.25,0,0,0-1.66.08V347.1a9,9,0,0,0,1.7.11h6.2v-.74c-2.23.08-4.24.13-6.06.17a10.45,10.45,0,0,0-1.29.06l-.36-1.59a22.13,22.13,0,0,0,2.89.1l2.1,0v-.57H125.4a11.82,11.82,0,0,0-1.38.06c0-.41,0-.72,0-1.25v-2.1c0-.53,0-.81,0-1.2.38,0,.69,0,1.38,0H128v-.59H125a14.33,14.33,0,0,0-1.81.08V338a11.51,11.51,0,0,0,1.81.1H128v-.65h-5.64v14.05h13.36V337.42h-5.92Zm-3.94,3.26v.57H128v-.57Zm0,1.57v.62H128v-.62Zm6.39-1v-.57h-2.47v.57Zm0,1.62v-.62h-2.47v.62Zm-1.8,1.65c.39,0,.9,0,1.67-.06l-.18-.17-.3-.32h-1.86v.55Z"/><path class="cls-6" d="M147.37,340.72a4.07,4.07,0,0,0,.71-.06,9.7,9.7,0,0,0-.06,1.16v1.43a11.78,11.78,0,0,0,1.72.08h7a12.14,12.14,0,0,0,2-.1v1.9a17,17,0,0,0-2-.11h-7a15,15,0,0,0-1.86.09V344h-.65v7.83c0,1.45-.43,1.83-2,1.83l-.92,0a5.9,5.9,0,0,0-.43-1.89,5.62,5.62,0,0,0,1,.12c.37,0,.45-.1.45-.47v-1.33h-2.26v1.45a21.19,21.19,0,0,0,.1,2.26H141a16.77,16.77,0,0,0,.1-2.24v-7.34h-1.06a6.59,6.59,0,0,0,.08-1.16v-1.19a8.26,8.26,0,0,0-.08-1.18l1,0v-3.67c0-.47,0-1.26-.06-1.53a7.57,7.57,0,0,0,1.36.08h3.59a8.7,8.7,0,0,0,1.49-.08,11.38,11.38,0,0,0-.06,1.27Zm-1,1.74H142v.83h3.44c.37,0,.47,0,.92,0Zm-3-3.25a8.32,8.32,0,0,0-.06-1.08l1.39,0h1.1v-.79h-3v3.34h.61Zm2,6.81v-1h-2.26v1Zm0,2.55v-1h-2.26v1Zm.43-7.85v-1.1h-1v1.1Zm4.79,10.73a10.38,10.38,0,0,0-.65-1.71c-.76,0-.76,0-1.08,0,0-.41,0-.76,0-1.39v-1.12c0-.17,0-.7,0-1.55.45,0,.85,0,1.49,0h5.93c.63,0,1,0,1.47,0a3.94,3.94,0,0,1,0,.47c0,.18,0,.55,0,1.06v1.1a13.77,13.77,0,0,0,0,1.43l-1.12,0a9.57,9.57,0,0,1-.74,1.71h1a19.12,19.12,0,0,0,2-.1v2.06c-.57-.06-1.45-.1-2.3-.1h-6.71c-.82,0-1.59,0-2.18.1v-2.06a10.82,10.82,0,0,0,1.89.1Zm5.71-15a16.8,16.8,0,0,0,1.88-.1,16.91,16.91,0,0,0-.08,1.95v2.59a16.73,16.73,0,0,0,.08,1.84,17,17,0,0,0-1.71-.06H150c-.55,0-1,0-1.49.06,0-.61.06-1,.06-1.84v-2.61a17.89,17.89,0,0,0-.08-1.93,13.35,13.35,0,0,0,1.84.1h.79v-.19a6.79,6.79,0,0,0-.08-1.2h1.78a5.78,5.78,0,0,0-.09,1.18v.21h1v-.21a6.83,6.83,0,0,0-.08-1.18h1.76a9.59,9.59,0,0,0-.07,1.18v.21Zm-6,1.57v.85h1V338Zm0,2.24v.88h1v-.88Zm.66,8h4.75v-1H150.9Zm1,1.49c.24.59.36.95.61,1.71H154a13.73,13.73,0,0,0,.73-1.71Zm.89-10.9h1V338h-1Zm0,2.27h1v-.88h-1Zm2.51-2.27h1V338h-1Zm0,2.27h1v-.88h-1Z"/><path class="cls-6" d="M173.07,347.84a38,38,0,0,1-11.55,5.87,7.83,7.83,0,0,0-1.16-2,32.19,32.19,0,0,0,10.12-4.48c-4.27.51-4.92.57-8.37.83a12.69,12.69,0,0,0-1.28.15l-.31-2.19c.25,0,.45,0,.66,0l2.1-.08v-7.3a16.88,16.88,0,0,0-.09-2,20.5,20.5,0,0,0,2.21.09H167a8.54,8.54,0,0,0,.92-2l2.38.3c-.38.74-.67,1.25-.94,1.7h3.78a18.31,18.31,0,0,0,2.18-.09,16.79,16.79,0,0,0-.1,2.23v4.32a14.6,14.6,0,0,0,1.83-2.32l1.53,1.59a9.38,9.38,0,0,0-1,1.06,25.69,25.69,0,0,1-2.38,2.44v5.67c0,1.45-.72,1.9-3,1.9-.45,0-.45,0-2.22-.06a7.48,7.48,0,0,0-.55-2.22,13.4,13.4,0,0,0,2.32.2c1,0,1.27-.08,1.27-.41Zm0-9.18h-7.61v1.14h7.61Zm-7.61,4h7.61v-1.18h-7.61Zm0,3.14c4.36-.31,4.36-.31,7.61-.65v-.78h-7.61Z"/><path class="cls-6" d="M181.81,345.6c0-.64,0-1,.07-2.27a15.69,15.69,0,0,1-1.45,2.16,9,9,0,0,0-.94-2.42,15.81,15.81,0,0,0,3.2-5.39,12.62,12.62,0,0,0,.78-2.83l2.34.55c-.14.41-.18.51-.37,1.12a20.49,20.49,0,0,1-1.42,3.53v11.5a17.57,17.57,0,0,0,.14,2.37h-2.49a18.5,18.5,0,0,0,.14-2.39Zm4.78-2.61c-.19.16-.33.32-.64.61a5.58,5.58,0,0,0-1.63-1.63,11,11,0,0,0,3.08-4,8,8,0,0,0,.53-1.59l1.49.61v-1.77a11.26,11.26,0,0,0,1.74.1h1.75a14.34,14.34,0,0,0,1.65-.1,6.78,6.78,0,0,0,.65,1.83,13.06,13.06,0,0,0,3.76,4.57,7.74,7.74,0,0,0-1.68,1.77l-.57-.55c0,.29,0,.41,0,.78-.1,4.53-.41,7.16-.94,8.34-.42,1-1.14,1.33-2.89,1.33-.51,0-.84,0-2.21-.11a7.16,7.16,0,0,0-.5-2.16,12.24,12.24,0,0,0,2.44.27c1,0,1.12-.17,1.39-1.39a29.09,29.09,0,0,0,.45-5.43H191.5a12.82,12.82,0,0,1-1.06,4.57,9.09,9.09,0,0,1-2.61,3.41,9.21,9.21,0,0,1-2,1.24,7,7,0,0,0-1.49-1.85,7.46,7.46,0,0,0,4.2-4,8.66,8.66,0,0,0,.74-3.35h-.67a20.42,20.42,0,0,0-2,.11Zm4.57-5.61c-.19,0-1,0-1.23,0l-.18.49a16.43,16.43,0,0,1-2.69,4.59c.44,0,.77,0,1.28,0h6.57c.59,0,.75,0,1.4,0a12.13,12.13,0,0,1-1.34-1.62,15.68,15.68,0,0,1-1.94-3.5Z"/><g class="cls-12"><path class="cls-6" d="M84.48,376.87a12.35,12.35,0,0,1-2.06-3.47,12.12,12.12,0,0,1-.87-4.5,11.89,11.89,0,0,1,.85-4.39,13,13,0,0,1,2.06-3.46h2a11.8,11.8,0,0,0-2.33,3.43,10.69,10.69,0,0,0-.9,4.42,11.26,11.26,0,0,0,.91,4.54,12.09,12.09,0,0,0,2.33,3.43Z"/><path class="cls-6" d="M99.5,362.2a12.45,12.45,0,0,0-.14,2.16v6.14c0,3.38-2,5.28-5.55,5.28a5.65,5.65,0,0,1-4.17-1.51,5.14,5.14,0,0,1-1.26-3.77v-6.12a12.87,12.87,0,0,0-.13-2.18h2.16a11,11,0,0,0-.14,2.18v6.08a3.8,3.8,0,0,0,.78,2.57,3.62,3.62,0,0,0,2.82,1.09,3.49,3.49,0,0,0,3-1.28,3.94,3.94,0,0,0,.61-2.38v-6.08a12.48,12.48,0,0,0-.14-2.18Z"/><path class="cls-6" d="M104.14,362.2a12.2,12.2,0,0,0-.14,2.08v9.14a11.77,11.77,0,0,0,.14,2.07H102a12,12,0,0,0,.14-2.07v-9.14a11.89,11.89,0,0,0-.14-2.08Z"/><path class="cls-6" d="M107.37,371.67a18.79,18.79,0,0,1,3.65,3.69l-1.39,1.29a17.9,17.9,0,0,0-3.56-3.81Z"/><path class="cls-6" d="M119.48,363.48a10,10,0,0,0-1.54-2.08l1.49-.47a12.79,12.79,0,0,1,1.76,2.55h2.34a10.16,10.16,0,0,0,1.67-2.54l1.59.48a16.92,16.92,0,0,1-1.56,2.06h3a12.72,12.72,0,0,0,1.76-.1v1.54a10.69,10.69,0,0,0-1.76-.1H116.63a11.28,11.28,0,0,0-1.77.1v-1.54a11,11,0,0,0,1.77.1Zm-2.1,11.37a9.31,9.31,0,0,0,.1,1.8h-1.67a13.81,13.81,0,0,0,.09-1.89v-7.25c0-.82,0-1.11-.05-1.52a15.53,15.53,0,0,0,1.61.07h3.11a9.86,9.86,0,0,0,1.53-.07c0,.39,0,.8,0,1.74V375c0,1.18-.36,1.5-1.66,1.5-.36,0-.67,0-1.28-.05a5.12,5.12,0,0,0-.36-1.4,9,9,0,0,0,1.28.14c.47,0,.56-.07.56-.41V373h-3.21Zm3.21-6V367.4h-3.21v1.45Zm0,2.8v-1.46h-3.21v1.46Zm4.88-5.4a9,9,0,0,0-.09,1.61v3.56a13.86,13.86,0,0,0,.07,1.86h-1.63a14.82,14.82,0,0,0,.07-1.85v-3.58a9.62,9.62,0,0,0-.09-1.6Zm3.59-.48a11.23,11.23,0,0,0-.11,1.82v7.23c0,1.39-.41,1.75-2.07,1.75-.44,0-1,0-1.9-.09a5.41,5.41,0,0,0-.45-1.53,15.09,15.09,0,0,0,2.13.21c.68,0,.78-.07.78-.53v-7.09a10.52,10.52,0,0,0-.09-1.77Z"/><path class="cls-6" d="M131.53,373.76a15.54,15.54,0,0,0,2.67-.58,38.67,38.67,0,0,0,1-5.42,16.37,16.37,0,0,0,.17-1.87l1.45.39c-.07.26-.07.31-.48,2.67a34.36,34.36,0,0,1-.8,3.83c.66-.23.8-.26,1.46-.51l0,1.42c-1.51.56-3.23,1.14-4.45,1.48a3.79,3.79,0,0,0-.65.21Zm2.28-11.2a5.23,5.23,0,0,0-.1-1.24h1.67a4.22,4.22,0,0,0-.11,1.22v1.4h.67a6.34,6.34,0,0,0,1.15-.07v1.49a10.62,10.62,0,0,0-1.15-.06h-3a9.56,9.56,0,0,0-1.23.06v-1.49a6.43,6.43,0,0,0,1.14.07h.92Zm-.42,3.48a41.54,41.54,0,0,1,.8,5.87l-1.33.39a35.22,35.22,0,0,0-.77-6Zm5.49,2a13.22,13.22,0,0,0-1.7.07v-1.5a10.07,10.07,0,0,0,1.71.08h6.45a10.51,10.51,0,0,0,1.75-.1v1.52a13.64,13.64,0,0,0-1.74-.07h-2.56c-.24.52-.38.85-.72,1.48h3a11.17,11.17,0,0,0,1.66-.09,14.76,14.76,0,0,0-.07,1.67v4.23c0,.56-.13.88-.44,1.07a2.29,2.29,0,0,1-1.19.19h-.59a2.88,2.88,0,0,0-.34-1.46,6,6,0,0,0,.85.08c.24,0,.3-.07.3-.32V370.8h-1.31v3.83a12.89,12.89,0,0,0,.07,1.56h-1.41a13.38,13.38,0,0,0,.07-1.58V370.8h-1.21v3.83a11.85,11.85,0,0,0,.07,1.56H140.1a13.38,13.38,0,0,0,.07-1.58V370.8H139V375a11.08,11.08,0,0,0,.09,1.82h-1.62a10.33,10.33,0,0,0,.1-1.89v-3.82c0-.72,0-1.19-.05-1.57.63,0,1,.06,1.65.06h1.41a8.58,8.58,0,0,0,.68-1.48Zm2.41-5.66a5.88,5.88,0,0,0-.1-1.24h1.66a6.56,6.56,0,0,0-.1,1.24v1.88h2.13V363a10,10,0,0,0,0-1.07h1.58a7,7,0,0,0-.07,1.16v1.44a9,9,0,0,0,0,1c-.68,0-.75,0-1.24,0h-6.07a10.9,10.9,0,0,0-1.24,0c0-.38,0-.63,0-1V363.1a9.26,9.26,0,0,0-.08-1.19h1.58a6.66,6.66,0,0,0-.07,1.14v1.24h2Z"/><path class="cls-6" d="M149.85,371.67a18.56,18.56,0,0,1,3.66,3.69l-1.4,1.29a17.86,17.86,0,0,0-3.55-3.81Z"/><path class="cls-6" d="M167.65,363.05v-.25a8.06,8.06,0,0,0-.09-1.5h1.72a9,9,0,0,0-.1,1.48v.27h1.44a13.83,13.83,0,0,0,1.81-.08v1.56a16.53,16.53,0,0,0-1.81-.08h-1.44v7.24h1.32a18.48,18.48,0,0,0,2-.1v1.61a15,15,0,0,0-2-.12h-11.1a14.26,14.26,0,0,0-2,.12v-1.63a16.59,16.59,0,0,0,2,.12h1.28v-7.24H159.3a16,16,0,0,0-1.78.08V363a15.71,15.71,0,0,0,1.77.08h1.29v-.27a9.24,9.24,0,0,0-.1-1.48h1.71a11.49,11.49,0,0,0-.08,1.48v.27Zm-4.17,11.17a12.91,12.91,0,0,1-4.91,2.6,4.81,4.81,0,0,0-1.07-1.33,9.17,9.17,0,0,0,4.71-2.19Zm4.17-8.24v-1.53h-5.54V366Zm0,2.83V367.3h-5.54v1.51Zm0,2.88v-1.55h-5.54v1.55Zm-.2,1.59a11.33,11.33,0,0,0,5.06,2.18,6.66,6.66,0,0,0-1,1.36,13.77,13.77,0,0,1-5.23-2.65Z"/><path class="cls-6" d="M176,369.53c0-.53,0-.73.05-1.94a13.41,13.41,0,0,1-1.58,2.21,7.06,7.06,0,0,0-.82-1.58,14.43,14.43,0,0,0,3.13-4.84,9.37,9.37,0,0,0,.68-2.35l1.63.49c-.13.36-.17.5-.34,1a18.49,18.49,0,0,1-1.24,2.89v9.35c0,.78,0,1.41.09,2h-1.7a16.78,16.78,0,0,0,.1-2.07Zm5.34-1.58v6.1c0,.37.1.49.52.58a11.47,11.47,0,0,0,2.32.13c2,0,2.78-.08,3.16-.3s.51-.75.61-2.26a5.6,5.6,0,0,0,1.55.49c-.24,1.87-.48,2.57-1,2.92s-1.77.58-4.78.58A13.45,13.45,0,0,1,181,376c-.87-.22-1.16-.58-1.16-1.43v-6.1a2.13,2.13,0,0,1-.44.13,9.69,9.69,0,0,0-1,.41l-.18-1.61a8.89,8.89,0,0,0,1.57-.38l.1,0v-2.14a12.38,12.38,0,0,0-.1-1.79h1.7a11.25,11.25,0,0,0-.1,1.72v1.72l2.05-.68v-2.89a11.69,11.69,0,0,0-.1-1.65H185a12.35,12.35,0,0,0-.1,1.63v2.43l2.55-.85a10.44,10.44,0,0,0,1.38-.53c0,.46,0,.46,0,.85,0,1.91-.17,4.37-.31,5.46-.17,1.26-.55,1.58-1.79,1.58-.28,0-.63,0-1,0a4.41,4.41,0,0,0-.39-1.46,6.63,6.63,0,0,0,1.28.15c.42,0,.49-.15.61-1.34.08-.78.14-1.94.15-3.2l-2.43.82v4.59A10.27,10.27,0,0,0,185,373H183.3a11.46,11.46,0,0,0,.1-1.71v-4.05Z"/><path class="cls-6" d="M190.91,376.87a11.68,11.68,0,0,0,2.33-3.43,11.2,11.2,0,0,0,.92-4.54,10.62,10.62,0,0,0-.9-4.42,12.22,12.22,0,0,0-2.33-3.43h2a12.39,12.39,0,0,1,2.05,3.46,11.62,11.62,0,0,1,.85,4.39,11.84,11.84,0,0,1-.86,4.5,12.35,12.35,0,0,1-2.06,3.47Z"/></g><rect class="cls-13" x="284.37" y="336.12" width="106.06" height="42.06"/><rect class="cls-14" x="402.4" y="336.12" width="106.06" height="42.06"/><rect class="cls-8" x="279.71" y="332.04" width="106.06" height="42.06"/><rect class="cls-8" x="397.74" y="332.04" width="106.06" height="42.06"/><path class="cls-6" d="M318.72,346.54a12.83,12.83,0,0,0-1.65-2.24l2.2-.63a17,17,0,0,1,1.9,2.87h2.75a10.49,10.49,0,0,0,1.8-2.85l2.3.63a19.76,19.76,0,0,1-1.63,2.22h3.14a15,15,0,0,0,2.18-.12v2.2a12.62,12.62,0,0,0-2.18-.12H315.68a13.18,13.18,0,0,0-2.18.12v-2.2a14,14,0,0,0,2.18.12Zm-2,13.93a11.58,11.58,0,0,0,.13,2.19h-2.35a18.58,18.58,0,0,0,.1-2.33v-8.79c0-1,0-1.32-.06-1.84a15.36,15.36,0,0,0,1.92.09h4a10.41,10.41,0,0,0,1.81-.09c0,.49-.06,1-.06,2v8.77c0,1.57-.45,2-2.35,2l-1.28,0a7.71,7.71,0,0,0-.49-2,12.76,12.76,0,0,0,1.43.13c.49,0,.59-.09.59-.45v-1.74h-3.35Zm3.35-7.34V351.7h-3.35v1.43Zm0,3.35v-1.43h-3.35v1.43Zm6.28-6.41a11.87,11.87,0,0,0-.1,1.94v4.36a17.85,17.85,0,0,0,.08,2.21h-2.3a18.32,18.32,0,0,0,.08-2.19V352a12.51,12.51,0,0,0-.1-1.92Zm4.35-.55a11.17,11.17,0,0,0-.13,2.16v8.59a2.34,2.34,0,0,1-.47,1.75c-.42.41-1,.55-2.28.55-.49,0-.92,0-2.2-.08a7.48,7.48,0,0,0-.64-2.16,18.24,18.24,0,0,0,2.49.23c.84,0,.94-.09.94-.66v-8.28a13.39,13.39,0,0,0-.1-2.1Z"/><path class="cls-6" d="M333.51,359a19.58,19.58,0,0,0,3.1-.61,45,45,0,0,0,1.2-6.26,23.55,23.55,0,0,0,.25-2.43l2,.56c-.07.18-.29,1.36-.68,3.56a38.17,38.17,0,0,1-.87,4c.53-.16.83-.26,1.65-.57l0,2.06c-1.82.67-4,1.37-5.37,1.76a6.34,6.34,0,0,0-.81.26Zm2.63-13.37a8,8,0,0,0-.1-1.47h2.3a6.37,6.37,0,0,0-.1,1.44v1.53h.65a7.81,7.81,0,0,0,1.39-.08v2.12a12.84,12.84,0,0,0-1.41-.08h-3.61c-.51,0-1,0-1.49.08V347a7.66,7.66,0,0,0,1.35.08h1Zm-.23,4.26a44.94,44.94,0,0,1,.94,6.93l-1.85.59a41,41,0,0,0-.92-7.15Zm6.59,2.57a19.62,19.62,0,0,0-2.08.08v-2.12a13.23,13.23,0,0,0,2.1.1h7.69a13,13,0,0,0,2.08-.12v2.14a18.51,18.51,0,0,0-2.06-.08h-2.89c-.23.53-.43.94-.74,1.53H350a17.2,17.2,0,0,0,1.93-.08,17.59,17.59,0,0,0-.08,1.95V361c0,.86-.2,1.27-.69,1.49a4.11,4.11,0,0,1-1.73.19h-.25a3.48,3.48,0,0,0-.49-2.08c.17,0,.61.06.78.06s.36-.09.36-.37v-4.49H348.6v4.51a15.12,15.12,0,0,0,.08,1.86h-2a14.2,14.2,0,0,0,.09-1.88v-4.49h-1.11v4.51a12.55,12.55,0,0,0,.09,1.86h-2a16.46,16.46,0,0,0,.08-1.88v-4.49h-1.08v4.84a18.41,18.41,0,0,0,.08,2.2h-2.26a14.15,14.15,0,0,0,.12-2.29v-4.79c0-.92,0-1.34-.06-1.83.71,0,1.1.06,1.91.06h1.8a9.94,9.94,0,0,0,.67-1.53Zm2.65-7a7.42,7.42,0,0,0-.12-1.45h2.37a7,7,0,0,0-.13,1.45v2.12h2.11v-1.41a8.12,8.12,0,0,0-.07-1.24h2.25a7.92,7.92,0,0,0-.08,1.37v1.83a9.91,9.91,0,0,0,.06,1.29c-.65,0-.86,0-1.45,0h-7.53c-.67,0-.93,0-1.46,0,0-.51,0-.7,0-1.19v-1.93a7.32,7.32,0,0,0-.11-1.41h2.23a7.65,7.65,0,0,0-.08,1.31v1.38h2Z"/><path class="cls-6" d="M454.87,345.1a15.47,15.47,0,0,0-.17,2.77v7.24c0,4.22-2.51,6.59-6.95,6.59a7,7,0,0,1-5.26-1.92,6.56,6.56,0,0,1-1.53-4.69v-7.2a16.83,16.83,0,0,0-.17-2.79h3a16.19,16.19,0,0,0-.16,2.79v7.2c0,2.75,1.43,4.2,4.18,4.2s4.14-1.45,4.14-4.22v-7.18a16.8,16.8,0,0,0-.16-2.79Z"/><path class="cls-6" d="M460.84,345.1a15.44,15.44,0,0,0-.16,2.63v11a15.66,15.66,0,0,0,.16,2.63h-3.1a15.66,15.66,0,0,0,.16-2.63v-11a15.44,15.44,0,0,0-.16-2.63Z"/><path class="cls-15" d="M501.17,341.27a16.84,16.84,0,0,0-16.82,16.88l0,33.7,33.71-.06-.06-33.7A16.84,16.84,0,0,0,501.17,341.27Z"/><ellipse class="cls-10" cx="498.09" cy="353.57" rx="3.61" ry="4.56" transform="translate(-0.58 0.81) rotate(-0.09)"/><ellipse class="cls-16" cx="497.29" cy="353.07" rx="1.81" ry="2.28" transform="translate(-0.58 0.81) rotate(-0.09)"/><ellipse class="cls-10" cx="504.3" cy="353.56" rx="3.61" ry="4.56" transform="matrix(1, 0, 0, 1, -0.58, 0.82)"/><ellipse class="cls-16" cx="503.5" cy="353.06" rx="1.81" ry="2.28" transform="translate(-0.58 0.82) rotate(-0.09)"/><path d="M501.83,360.26a3.2,3.2,0,0,1-1.25-.25.3.3,0,1,1,.23-.55,2.63,2.63,0,0,0,1.51.16,2.56,2.56,0,0,0,1.39-.78.3.3,0,1,1,.44.41,3.18,3.18,0,0,1-1.71.95A2.63,2.63,0,0,1,501.83,360.26Z"/><path class="cls-17" d="M273.25,294.7s15.79-7.61,28.16-3.44c6.76,2.28,11.23,7,13.87,13.55a31.78,31.78,0,0,1,2.23,11.93v14.45l-36.37-.05,0-18.18C281.16,302.92,273.25,294.7,273.25,294.7Z"/><ellipse class="cls-10" cx="302.69" cy="308.07" rx="4.92" ry="3.9" transform="translate(-5.74 610.4) rotate(-89.93)"/><ellipse cx="303.46" cy="308.89" rx="2.46" ry="1.95" transform="translate(-5.79 611.99) rotate(-89.93)"/><ellipse class="cls-10" cx="295.99" cy="308.06" rx="4.92" ry="3.9" transform="translate(-12.43 603.68) rotate(-89.93)"/><ellipse cx="296.46" cy="308.88" rx="2.46" ry="1.95" transform="translate(-12.77 604.98) rotate(-89.93)"/><path class="cls-18" d="M293.43,301.25a3.11,3.11,0,0,1,3.48-.82"/><path d="M293.43,301.63a.39.39,0,0,1-.24-.1.38.38,0,0,1,0-.53,3.57,3.57,0,0,1,1.75-1.06,3.53,3.53,0,0,1,2.15.14.38.38,0,0,1,.21.49.37.37,0,0,1-.49.2,2.74,2.74,0,0,0-3.06.73A.37.37,0,0,1,293.43,301.63Z"/><path d="M296.86,316.93a4.13,4.13,0,0,1-1-.12,4.72,4.72,0,0,1-2.89-2.34,5.54,5.54,0,0,1-.65-1.52.36.36,0,0,1,.43-.46c1.07.21,2.37.49,3.63.75s2.55.55,3.61.76a.35.35,0,0,1,.25.17.33.33,0,0,1,0,.29,3.33,3.33,0,0,1-.93,1.57A3.51,3.51,0,0,1,296.86,316.93Zm-3.65-3.58a5,5,0,0,0,.37.73,4.05,4.05,0,0,0,2.42,2,3.2,3.2,0,0,0,2.81-.59,2.82,2.82,0,0,0,.59-.84l-3.2-.67Z"/><rect class="cls-5" x="61.21" y="656.17" width="155.3" height="42.06" rx="21.03"/><path class="cls-10" d="M81.47,679.79a22.64,22.64,0,0,1-1.08,6L78.61,685a16.11,16.11,0,0,0,1.08-5.47Zm-2.59-3.08a9.82,9.82,0,0,0,1.32.06h.55c.49-.61.53-.67.92-1.22a20.77,20.77,0,0,0-3-3.25l1-1.83c.45.43.57.55.9.9A15.44,15.44,0,0,0,82.28,668l2.08.76a7,7,0,0,0-.39.65,29.54,29.54,0,0,1-2,3.36c.4.43.49.55.89,1A19.74,19.74,0,0,0,85,670.06l1.84,1c-.16.23-.27.39-.55.84-1.14,1.81-2.57,3.85-3.32,4.77.77,0,1-.06,2.26-.2-.25-.6-.37-.82-.69-1.45l1.55-.72a20.78,20.78,0,0,1,1.69,4.14l-1.65.78c-.13-.51-.17-.65-.29-1l-1.65.18v6.39a12.9,12.9,0,0,0,.12,2.18H82a13.18,13.18,0,0,0,.12-2.18v-6.22c-.53,0-1,.08-1.47.1a11.32,11.32,0,0,0-1.47.16Zm7.38,2.82a22.31,22.31,0,0,1,.69,3.89l-1.67.37a24.23,24.23,0,0,0-.57-3.9Zm10.1,4.64a5.79,5.79,0,0,0,1.26-.12v2.31a16.54,16.54,0,0,0-2.1-.12H88a15.56,15.56,0,0,0-2.08.12v-2.31a7.34,7.34,0,0,0,1.43.12h.59V671c0-.78,0-1.37-.08-2.08.65,0,1.2.06,2.06.06h4.26a19.91,19.91,0,0,0,2.14-.08c-.06.69-.08,1.24-.08,2.24v13ZM90,673.9h4.08V671H90Zm0,5h4.08v-3H90Zm0,5.28h4.08v-3.26H90Z"/><path class="cls-10" d="M111.77,673a10.76,10.76,0,0,1-1.14,1.18,14.36,14.36,0,0,1,1.49,2.67,17.09,17.09,0,0,1,1.33,6.39c0,1.57-.35,2.63-1,3.1a4,4,0,0,1-2.29.42,13.19,13.19,0,0,1-1.43-.08,5.72,5.72,0,0,0-.42-2.14,14.53,14.53,0,0,0,2.14.23c.4,0,.57,0,.65-.19a3.6,3.6,0,0,0,.26-1.69c0-.47,0-.86-.06-1.43a19.4,19.4,0,0,1-2.42,2,26.15,26.15,0,0,1-3.67,2.18,6.67,6.67,0,0,0-1.35-1.73,22.49,22.49,0,0,0,7.06-4.51c-.13-.51-.21-.75-.37-1.24a18.92,18.92,0,0,1-3.94,2.57,6.42,6.42,0,0,0-.85-1.72,5.38,5.38,0,0,1,.08.78,2.5,2.5,0,0,1-.82,2.14,3.61,3.61,0,0,1-2.24.45,2.85,2.85,0,0,1-.37,0,4.57,4.57,0,0,0-.37-2.06,5.71,5.71,0,0,0,.9.1c.69,0,.86-.16.86-.84a6,6,0,0,0-.39-2,7,7,0,0,0-1.39-2.2,16.77,16.77,0,0,0,1.17-2.63c.4-1,.44-1.16.69-1.94h-2.1v13.77c0,1,0,1.86.1,2.47h-2.3a24.13,24.13,0,0,0,.12-2.53V670.55c0-.69,0-1.26-.06-1.9a8.91,8.91,0,0,0,1.43.07h3a6.77,6.77,0,0,0,1.39-.09l.79,1.19a5.48,5.48,0,0,0-.38,1.08,12,12,0,0,0,1.53.08h1a13.88,13.88,0,0,0-1.49-2.39l2.14-.57a20.71,20.71,0,0,1,1.67,3h1.57a15.31,15.31,0,0,0,1.47-3l2.18.55a17.9,17.9,0,0,1-1.36,2.43h1.53a10.61,10.61,0,0,0,1.89-.1v2.18a16,16,0,0,0-2-.1H114.2a17.11,17.11,0,0,0,.61,3.12,8.29,8.29,0,0,0,1.33-2l2,1.2-.46.59a14.88,14.88,0,0,1-2.08,2.31,13,13,0,0,0,3,4.65,8.68,8.68,0,0,0-1.1,2.49,13.93,13.93,0,0,1-2.51-3.59A29,29,0,0,1,112.1,673Zm-6-1.84a32.52,32.52,0,0,1-1.72,3.86,8.18,8.18,0,0,1,1.68,3.81,16.6,16.6,0,0,0,4-2.37,8.72,8.72,0,0,0-.67-1.06,19.9,19.9,0,0,1-3.16,1.86,6,6,0,0,0-.9-1.79A11.34,11.34,0,0,0,109.1,673h-1.57a14.94,14.94,0,0,0-1.75.08Z"/><path class="cls-10" d="M126.86,673.53a10.73,10.73,0,0,0,1.78-.1v2.16a9.25,9.25,0,0,0-1.14-.08,13.48,13.48,0,0,1-.68,2.26h.25a8.32,8.32,0,0,0,1.57-.1v2.16a14.72,14.72,0,0,0-1.78-.08h-1.59v1.63h1.39a13.05,13.05,0,0,0,1.69-.08v2.14a13.45,13.45,0,0,0-1.69-.08h-1.39v1.49c0,.67,0,1.43.1,2.08h-2.24a16.66,16.66,0,0,0,.12-2.08v-1.49h-1.46a13.73,13.73,0,0,0-1.7.08V681.3a13.12,13.12,0,0,0,1.7.08h1.46v-1.63h-1.81a15.15,15.15,0,0,0-1.78.08v-2.16a9.88,9.88,0,0,0,1.78.1h.22a12.21,12.21,0,0,0-.53-2.26,10.12,10.12,0,0,0-1.47.08v-2.16a10.88,10.88,0,0,0,1.78.1h1.83V672h-1.38a13.94,13.94,0,0,0-1.7.08v-2.12a12.55,12.55,0,0,0,1.7.08h1.38v-.37a7.83,7.83,0,0,0-.12-1.55h2.2a11.53,11.53,0,0,0-.08,1.55V670h1.21a12.48,12.48,0,0,0,1.69-.08V672a13.87,13.87,0,0,0-1.69-.08h-1.21v1.57Zm-2,4.24a14.2,14.2,0,0,0,.61-2.26h-2.45a13.91,13.91,0,0,1,.51,2.26Zm12.93-1.45a4.38,4.38,0,0,0-.25.9,23.2,23.2,0,0,1-1.73,5.06,9.63,9.63,0,0,0,2.81,2.36,12.64,12.64,0,0,0-1.18,2.17,16.73,16.73,0,0,1-2.77-2.66,14.2,14.2,0,0,1-2.43,2.64,12.87,12.87,0,0,0-1.14-1.78,17.8,17.8,0,0,0,.14,1.92H129a13.89,13.89,0,0,0,.15-2.43V670.86c0-.74,0-1.53-.1-2.08a13.78,13.78,0,0,0,1.91.1h5a12.78,12.78,0,0,0,1.9-.1c-.06.59-.08.83-.1,1.32-.25,3.76-.54,4.18-2.78,4.18-.55,0-.92,0-1.84-.1a7.57,7.57,0,0,0-.44-1.92,13.79,13.79,0,0,0,2.1.25c.63,0,.73-.21.81-1.71h-4.44v4.46H135a14.55,14.55,0,0,0,1.94-.08Zm-6.69,8.41a10.56,10.56,0,0,0,2.26-2.37,16.11,16.11,0,0,1-1.94-5.16h-.32Zm2.18-7.53a11.66,11.66,0,0,0,1.22,3.24,13.87,13.87,0,0,0,1-3.24Z"/><path class="cls-10" d="M146.38,673.3a17.55,17.55,0,0,1,2.55,2,21.16,21.16,0,0,0,3.49-3.52h-5.37a21.35,21.35,0,0,1-5.5,4.24,5.23,5.23,0,0,0-1.39-1.72c3.34-1.63,6-4.07,7.24-6.58l2.41.59c-.53.77-.72,1-1.06,1.49h4.18a10.18,10.18,0,0,0,1.79-.11l1.21,1.29c-.25.31-.27.33-.74.94a27,27,0,0,1-6.14,5.89h6.61a12.71,12.71,0,0,0,1.71-.08,12.58,12.58,0,0,0-.1,1.88v5.24a14,14,0,0,0,.12,2h-2.32v-1.1h-7.79v1.1h-2.37a15.59,15.59,0,0,0,.13-2v-4.43a33.75,33.75,0,0,1-3.88,1.84,5.53,5.53,0,0,0-1.31-2,30,30,0,0,0,4.9-2.08c.65-.37,1.32-.8,2.43-1.53a14.76,14.76,0,0,0-2.49-2.14Zm.88,10.57h7.83v-4h-7.83Z"/><path class="cls-10" d="M177.81,675.22c-.12.31-.12.31-.45,1.08a22.2,22.2,0,0,1-2.75,5.1,8,8,0,0,0,1.22,1.75,3,3,0,0,0,.92.74c.08,0,.16-.12.26-.39a10.82,10.82,0,0,0,.39-2.38,6.07,6.07,0,0,0,1.84,1.36c-.47,2.76-1.19,4-2.31,4s-2.65-1.37-3.83-3.29a18.54,18.54,0,0,1-4.94,3.57,6.69,6.69,0,0,0-1.55-1.77,15.39,15.39,0,0,0,5.49-3.75,25.09,25.09,0,0,1-1.53-8.14h-6.32c0,2,0,2-.05,2.69H168a9.16,9.16,0,0,0,1.45-.08c0,.37-.09.94-.13,1.73-.2,3.67-.32,4.76-.67,5.61s-1.06,1.12-2.63,1.12c-.57,0-.9,0-1.55-.06a7.86,7.86,0,0,0-.53-2.16,12.7,12.7,0,0,0,2,.16c.63,0,.81-.12.92-.63a22.55,22.55,0,0,0,.3-3.69h-3a30.79,30.79,0,0,1-.63,5.12,11.08,11.08,0,0,1-1.67,4,7.31,7.31,0,0,0-1.78-1.74,9.32,9.32,0,0,0,1.41-3.22,38.24,38.24,0,0,0,.61-8.06,20.43,20.43,0,0,0-.12-2.89c.74.06,1.57.1,2.63.1h5.92c0-.16,0-.69-.06-1.59a5.72,5.72,0,0,0-.11-1.29h2.43a17.27,17.27,0,0,0-.1,1.94V671h2.69a10.11,10.11,0,0,0-1.79-1.88l1.57-1a12,12,0,0,1,2.06,2.15l-1.06.73h.61a11.57,11.57,0,0,0,2.16-.12v2.24c-.67-.06-1.45-.1-2.49-.1h-3.67a27.4,27.4,0,0,0,.94,6.1,14.23,14.23,0,0,0,2-4.77Z"/><path class="cls-10" d="M182.33,672.14a9,9,0,0,0-1.46.1V670a10.94,10.94,0,0,0,1.79.1h4a11.24,11.24,0,0,0,1.79-.1v2.22a7.82,7.82,0,0,0-1.4-.1h-1.33v7.61c1.1-.37,1.51-.51,2.75-1v2.1a63.09,63.09,0,0,1-6.28,2.32,9.17,9.17,0,0,0-1,.39l-.51-2.4a15.89,15.89,0,0,0,2.86-.72v-8.28Zm14.59.61a17.78,17.78,0,0,0,2.08-.08c0,.47-.06.74-.12,3.2-.09,1.88-.33,5.67-.51,7.18-.19,1.7-.53,2.61-1.11,3a4.67,4.67,0,0,1-2.46.47c-.55,0-1.19,0-2.17-.12a7.35,7.35,0,0,0-.63-2.33,17,17,0,0,0,2.76.27c.89,0,1.06-.16,1.26-1.25a55.22,55.22,0,0,0,.59-8.34h-3.14a19.43,19.43,0,0,1-1.71,6.86A13.77,13.77,0,0,1,187,687c-.21-.25-.21-.25-.66-.82a7,7,0,0,0-1-1c3.76-2.26,5.33-5,5.9-10.38h-1.51a12,12,0,0,0-1.86.1v-2.22a8.6,8.6,0,0,0,1.67.1h1.86c0-1,.06-1.67.06-2.55a11.2,11.2,0,0,0-.12-1.93h2.49a11.91,11.91,0,0,0-.12,1.81c0,1.06,0,1.84-.07,2.67Z"/><rect class="cls-19" x="440.76" y="640.93" width="25.52" height="112.1" transform="translate(681.44 1496.68) rotate(-162.86)"/><polygon class="cls-15" points="474.62 628.58 482.23 647.18 457.85 639.66 474.62 628.58"/><rect class="cls-15" x="348.7" y="687.72" width="204.14" height="25.52" transform="translate(887.29 -8.97) rotate(64.37)"/><line class="cls-20" x1="422.76" y1="612.61" x2="412.96" y2="617.32"/><line class="cls-20" x1="428.4" y1="624.38" x2="423.5" y2="626.73"/><line class="cls-20" x1="434.05" y1="636.14" x2="429.15" y2="638.49"/><line class="cls-20" x1="439.69" y1="647.91" x2="434.79" y2="650.26"/><line class="cls-20" x1="445.34" y1="659.67" x2="440.44" y2="662.02"/><line class="cls-20" x1="450.98" y1="671.43" x2="441.18" y2="676.14"/><line class="cls-20" x1="456.63" y1="683.2" x2="451.73" y2="685.55"/><line class="cls-20" x1="462.27" y1="694.96" x2="457.37" y2="697.31"/><line class="cls-20" x1="467.92" y1="706.73" x2="463.02" y2="709.08"/><line class="cls-20" x1="473.57" y1="718.49" x2="468.66" y2="720.84"/><line class="cls-20" x1="479.21" y1="730.25" x2="469.41" y2="734.96"/><line class="cls-20" x1="484.86" y1="742.02" x2="479.96" y2="744.37"/><line class="cls-20" x1="490.5" y1="753.78" x2="485.6" y2="756.13"/><rect class="cls-17" x="395.81" y="744.73" width="3.57" height="14.41" transform="translate(804.83 1498.69) rotate(179.26)"/><path class="cls-17" d="M406.66,739.67c.1,7.47-4,13.58-9.2,13.65l-.68-52.94C402,700.31,406.57,732.2,406.66,739.67Z"/><path class="cls-18" d="M396.78,700.38l.68,52.94c-5.18.07-9.46-5.94-9.56-13.41S391.6,700.44,396.78,700.38Z"/><rect class="cls-17" x="351.41" y="745.59" width="3.57" height="14.41" transform="translate(716.04 1500.98) rotate(179.26)"/><path class="cls-17" d="M362.26,740.53c.09,7.47-4,13.58-9.21,13.65l-.68-52.94C357.55,701.17,362.16,733.06,362.26,740.53Z"/><path class="cls-18" d="M352.37,701.24l.68,52.94c-5.18.07-9.45-5.93-9.55-13.41S347.19,701.3,352.37,701.24Z"/><rect class="cls-17" x="331.76" y="745.84" width="3.57" height="14.41" transform="translate(676.75 1501.74) rotate(179.26)"/><path class="cls-17" d="M342.61,740.79c.09,7.47-4,13.58-9.21,13.64l-.68-52.94C337.9,701.42,342.51,733.31,342.61,740.79Z"/><path class="cls-18" d="M332.72,701.49l.68,52.94c-5.18.07-9.45-5.93-9.55-13.4S327.54,701.56,332.72,701.49Z"/><rect class="cls-15" x="376.85" y="720.6" width="3.8" height="37.95" transform="translate(-9.49 4.94) rotate(-0.74)"/><rect class="cls-15" x="367.54" y="753.45" width="22.64" height="7.89" rx="3.95" transform="translate(-9.72 4.94) rotate(-0.74)"/><circle class="cls-15" cx="378.4" cy="721.56" r="15.54"/><path class="cls-19" d="M378.23,708.79a13.09,13.09,0,0,0-11.18,6.59l22.52-.29A13.08,13.08,0,0,0,378.23,708.79Z"/><path class="cls-19" d="M378.57,734.93a13.08,13.08,0,0,0,11.77-7.75l-23.74.3A13.08,13.08,0,0,0,378.57,734.93Z"/><path class="cls-10" d="M389.57,715.09l-22.52.29a13.06,13.06,0,0,0-.45,12.1l23.74-.3a13,13,0,0,0-.77-12.09Z"/><polygon class="cls-15" points="372.41 718.91 369.19 718.95 367.62 721.75 369.26 724.52 372.48 724.48 374.05 721.67 372.41 718.91"/><rect class="cls-15" x="375.68" y="718.7" width="5.83" height="5.83" transform="translate(-9.26 4.93) rotate(-0.74)"/><polygon class="cls-15" points="386.32 718.6 383.03 724.47 389.76 724.38 386.32 718.6"/><rect class="cls-15" x="402.26" y="681.32" width="79.25" height="79.25" transform="translate(-1.09 0.67) rotate(-0.09)"/><path class="cls-5" d="M402.23,681.35h39.62a0,0,0,0,1,0,0v0A39.62,39.62,0,0,1,402.23,721h0a0,0,0,0,1,0,0V681.35A0,0,0,0,1,402.23,681.35Z" transform="translate(-1.06 0.64) rotate(-0.09)"/><path class="cls-5" d="M402.29,721h39.62a0,0,0,0,1,0,0v0a39.62,39.62,0,0,1-39.62,39.62h0a0,0,0,0,1,0,0V721A0,0,0,0,1,402.29,721Z" transform="translate(-318.04 1164.01) rotate(-90.09)"/><path class="cls-5" d="M441.85,681.29h39.62a0,0,0,0,1,0,0v0a39.62,39.62,0,0,1-39.62,39.62h0a0,0,0,0,1,0,0V681.29A0,0,0,0,1,441.85,681.29Z" transform="translate(1162.07 238.37) rotate(89.91)"/><path class="cls-5" d="M441.91,720.91h39.62a0,0,0,0,1,0,0v0a39.62,39.62,0,0,1-39.62,39.62h0a0,0,0,0,1,0,0V720.91A0,0,0,0,1,441.91,720.91Z" transform="translate(924.57 1480.75) rotate(179.91)"/><rect class="cls-18" x="481.43" y="709.95" width="50.57" height="50.57" transform="matrix(1, 0, 0, 1, -1.11, 0.77)"/><path class="cls-15" d="M481.41,710H506.7a0,0,0,0,1,0,0v0a25.29,25.29,0,0,1-25.29,25.29h0a0,0,0,0,1,0,0V710A0,0,0,0,1,481.41,710Z" transform="translate(-1.09 0.75) rotate(-0.09)"/><path class="cls-15" d="M481.45,735.26h25.29a0,0,0,0,1,0,0v0a25.29,25.29,0,0,1-25.29,25.29h0a0,0,0,0,1,0,0V735.26A0,0,0,0,1,481.45,735.26Z" transform="translate(-253.06 1243.13) rotate(-90.09)"/><path class="cls-15" d="M506.7,709.93H532a0,0,0,0,1,0,0v0a25.29,25.29,0,0,1-25.29,25.29h0a0,0,0,0,1,0,0V709.93A0,0,0,0,1,506.7,709.93Z" transform="translate(1241.13 202.14) rotate(89.91)"/><path class="cls-15" d="M506.74,735.22H532a0,0,0,0,1,0,0v0a25.29,25.29,0,0,1-25.29,25.29h0a0,0,0,0,1,0,0V735.22A0,0,0,0,1,506.74,735.22Z" transform="translate(1039.89 1494.94) rotate(179.91)"/><path class="cls-21" d="M423.23,592.3a166.93,166.93,0,0,0-168,165.8L589,760.36A166.94,166.94,0,0,0,423.23,592.3Z"/><rect class="cls-10" x="422.85" y="560.36" width="3.97" height="32.89" transform="translate(-7.69 5.75) rotate(-0.77)"/><circle class="cls-10" cx="424.58" cy="557.27" r="5.93"/><polygon class="cls-10" points="363 517.91 374.42 548 385.17 538.1 397.52 555.68 389.52 523.6 376.26 531.9 363 517.91"/><polygon class="cls-10" points="405.27 500.75 400.74 521.2 410.13 519.65 410.57 533.62 417.67 513.31 407.49 513.09 405.27 500.75"/><polygon class="cls-15" points="71.29 67.76 95.1 39.24 81.49 39.24 81.49 -22.26 61.09 -22.26 61.09 39.24 47.48 39.24 71.29 67.76"/><polygon class="cls-19" points="59.43 42.4 83.24 13.87 69.63 13.87 69.63 -47.63 49.23 -47.63 49.23 13.87 35.62 13.87 59.43 42.4"/><polygon class="cls-5" points="43.42 64.2 67.23 35.67 53.62 35.67 53.62 -25.82 33.22 -25.82 33.22 35.67 19.61 35.67 43.42 64.2"/><path class="cls-22" d="M71.29,67.76,95.1,39.24H81.49V16l1.75-2.1H81.49V-22.26H69.63V-47.63H49.23v21.81h-16V35.67H19.61L43.42,64.2,55.87,49.29ZM53.62,35.44l.2.23h-.2Z"/><polygon class="cls-15" points="456.78 67.76 432.97 39.24 446.58 39.24 446.58 -22.26 466.98 -22.26 466.98 39.24 480.59 39.24 456.78 67.76"/><polygon class="cls-19" points="468.64 42.4 444.83 13.87 458.44 13.87 458.44 -47.63 478.84 -47.63 478.84 13.87 492.45 13.87 468.64 42.4"/><polygon class="cls-5" points="484.65 64.2 460.84 35.67 474.45 35.67 474.45 -25.82 494.85 -25.82 494.85 35.67 508.46 35.67 484.65 64.2"/><path class="cls-22" d="M472.2,49.29,484.65,64.2l23.81-28.53H494.85V-25.82h-16V-47.63h-20.4v25.37H446.58V13.87h-1.75l1.75,2.1V39.24H433l23.81,28.52Zm2.25-13.62h-.19l.19-.23Z"/></g></svg>