<svg width="1556" height="1377" viewBox="0 0 1556 1377" fill="none" xmlns="http://www.w3.org/2000/svg">
<rect x="6.93848" width="12.3583" height="12.3583" transform="rotate(34.1559 6.93848 0)" fill="#FFCC00"/>
<rect x="1521.94" y="1359" width="12.3583" height="12.3583" transform="rotate(34.1559 1521.94 1359)" fill="#FFCC00"/>
<g clip-path="url(#clip0_0_1)">
<path d="M1555.98 205.056L1541.02 196.02L1531.98 210.982L1546.94 220.019L1555.98 205.056Z" fill="#00C2BA"/>
<path d="M1541.03 196.025L1548.51 200.544C1547.31 202.528 1545.37 203.955 1543.12 204.511C1540.87 205.066 1538.49 204.705 1536.51 203.507L1541.03 196.025Z" fill="#FFCC00"/>
<path d="M1532.02 210.982L1536.54 203.501C1538.52 204.699 1539.95 206.637 1540.51 208.887C1541.06 211.138 1540.7 213.517 1539.5 215.501V215.501L1532.02 210.982Z" fill="#FFCC00"/>
<path d="M1555.98 205.016L1551.46 212.497C1549.48 211.299 1548.05 209.361 1547.49 207.111C1546.94 204.86 1547.3 202.481 1548.5 200.497L1555.98 205.016V205.016Z" fill="#FFCC00"/>
<path d="M1546.98 219.98L1539.5 215.462C1540.7 213.478 1542.64 212.051 1544.89 211.495C1547.14 210.94 1549.52 211.301 1551.5 212.499L1546.98 219.98Z" fill="#FFCC00"/>
</g>
<g clip-path="url(#clip1_0_1)">
<path d="M69.8684 925.165L53.1267 920.139L48.1002 936.88L64.8419 941.907L69.8684 925.165Z" fill="#00C2BA"/>
<path d="M53.1372 920.143L61.508 922.656C60.8415 924.876 59.3203 926.74 57.2792 927.839C55.238 928.937 52.844 929.18 50.624 928.513L53.1372 920.143Z" fill="#FFCC00"/>
<path d="M48.1399 936.871L50.6531 928.5C52.8732 929.167 54.7376 930.688 55.8361 932.729C56.9346 934.77 57.1773 937.164 56.5107 939.384V939.384L48.1399 936.871Z" fill="#FFCC00"/>
<path d="M69.8584 925.125L67.3452 933.496C65.1251 932.829 63.2607 931.308 62.1622 929.267C61.0637 927.226 60.821 924.832 61.4876 922.612L69.8584 925.125V925.125Z" fill="#FFCC00"/>
<path d="M64.8735 941.859L56.5027 939.346C57.1693 937.126 58.6904 935.262 60.7316 934.163C62.7728 933.065 65.1667 932.822 67.3868 933.489L64.8735 941.859Z" fill="#FFCC00"/>
</g>
<defs>
<clipPath id="clip0_0_1">
<rect width="24" height="24" fill="white" transform="translate(1532 196)"/>
</clipPath>
<clipPath id="clip1_0_1">
<rect width="24" height="24" fill="white" transform="translate(44.3899 922.365) rotate(-14.4182)"/>
</clipPath>
</defs>
</svg>
