<svg width="608" height="327" viewBox="0 0 608 327" fill="none" xmlns="http://www.w3.org/2000/svg">
<path d="M323.505 238.632C334.1 238.632 342.688 230.04 342.688 219.44C342.688 208.841 334.1 200.248 323.505 200.248C312.91 200.248 304.321 208.841 304.321 219.44C304.321 230.04 312.91 238.632 323.505 238.632Z" fill="white"/>
<path d="M189.475 290.986C203.259 290.986 214.433 279.807 214.433 266.017C214.433 252.228 203.259 241.049 189.475 241.049C175.691 241.049 164.518 252.228 164.518 266.017C164.518 279.807 175.691 290.986 189.475 290.986Z" fill="white"/>
<path d="M327.783 254.211C341.566 254.211 352.74 243.032 352.74 229.242C352.74 215.452 341.566 204.273 327.783 204.273C313.999 204.273 302.825 215.452 302.825 229.242C302.825 243.032 313.999 254.211 327.783 254.211Z" fill="white"/>
<path d="M66.206 260.763C79.9896 260.763 91.1635 249.585 91.1635 235.795C91.1635 222.005 79.9896 210.826 66.206 210.826C52.4224 210.826 41.2485 222.005 41.2485 235.795C41.2485 249.585 52.4224 260.763 66.206 260.763Z" fill="white"/>
<path d="M347.365 227.823C353.847 227.823 359.101 222.566 359.101 216.081C359.101 209.597 353.847 204.34 347.365 204.34C340.883 204.34 335.629 209.597 335.629 216.081C335.629 222.566 340.883 227.823 347.365 227.823Z" fill="white"/>
<path d="M306.538 254.254C315.909 254.254 323.505 246.654 323.505 237.279C323.505 227.905 315.909 220.305 306.538 220.305C297.167 220.305 289.571 227.905 289.571 237.279C289.571 246.654 297.167 254.254 306.538 254.254Z" fill="white"/>
<path d="M257.454 246.217C266.825 246.217 274.421 238.617 274.421 229.242C274.421 219.867 266.825 212.268 257.454 212.268C248.083 212.268 240.487 219.867 240.487 229.242C240.487 238.617 248.083 246.217 257.454 246.217Z" fill="white"/>
<path d="M120.975 300.522C131.472 300.522 139.981 292.008 139.981 281.507C139.981 271.005 131.472 262.492 120.975 262.492C110.478 262.492 101.969 271.005 101.969 281.507C101.969 292.008 110.478 300.522 120.975 300.522Z" fill="white"/>
<path d="M94.5657 214.473C105.063 214.473 113.572 205.96 113.572 195.458C113.572 184.957 105.063 176.443 94.5657 176.443C84.0688 176.443 75.5594 184.957 75.5594 195.458C75.5594 205.96 84.0688 214.473 94.5657 214.473Z" fill="white"/>
<path d="M116.642 200.104C127.139 200.104 135.648 191.591 135.648 181.089C135.648 170.587 127.139 162.074 116.642 162.074C106.145 162.074 97.6355 170.587 97.6355 181.089C97.6355 191.591 106.145 200.104 116.642 200.104Z" fill="white"/>
<path d="M160.982 238.145C171.479 238.145 179.989 229.632 179.989 219.13C179.989 208.628 171.479 200.115 160.982 200.115C150.485 200.115 141.976 208.628 141.976 219.13C141.976 229.632 150.485 238.145 160.982 238.145Z" fill="white"/>
<path d="M97.6355 246.26C108.132 246.26 116.642 237.747 116.642 227.245C116.642 216.744 108.132 208.23 97.6355 208.23C87.1387 208.23 78.6293 216.744 78.6293 227.245C78.6293 237.747 87.1387 246.26 97.6355 246.26Z" fill="white"/>
<path d="M228.396 270.321C238.893 270.321 247.403 261.807 247.403 251.306C247.403 240.804 238.893 232.291 228.396 232.291C217.9 232.291 209.39 240.804 209.39 251.306C209.39 261.807 217.9 270.321 228.396 270.321Z" fill="white"/>
<path d="M196.003 224.873C206.499 224.873 215.009 216.36 215.009 205.858C215.009 195.357 206.499 186.844 196.003 186.844C185.506 186.844 176.996 195.357 176.996 205.858C176.996 216.36 185.506 224.873 196.003 224.873Z" fill="white"/>
<path d="M214.432 301.242C240.561 301.242 261.743 280.05 261.743 253.91C261.743 227.769 240.561 206.578 214.432 206.578C188.303 206.578 167.122 227.769 167.122 253.91C167.122 280.05 188.303 301.242 214.432 301.242Z" fill="white"/>
<path d="M137.798 281.507C163.927 281.507 185.109 260.316 185.109 234.176C185.109 208.035 163.927 186.844 137.798 186.844C111.669 186.844 90.4875 208.035 90.4875 234.176C90.4875 260.316 111.669 281.507 137.798 281.507Z" fill="white"/>
<path d="M99.4862 269.111C119.813 269.111 136.291 252.625 136.291 232.29C136.291 211.954 119.813 195.469 99.4862 195.469C79.1597 195.469 62.6818 211.954 62.6818 232.29C62.6818 252.625 79.1597 269.111 99.4862 269.111Z" fill="white"/>
<path d="M173.14 214.484C181.623 214.484 188.5 207.604 188.5 199.117C188.5 190.63 181.623 183.75 173.14 183.75C164.657 183.75 157.78 190.63 157.78 199.117C157.78 207.604 164.657 214.484 173.14 214.484Z" fill="white"/>
<path d="M196.002 243.389C202.484 243.389 207.739 238.132 207.739 231.648C207.739 225.163 202.484 219.906 196.002 219.906C189.521 219.906 184.266 225.163 184.266 231.648C184.266 238.132 189.521 243.389 196.002 243.389Z" fill="white"/>
<path d="M43.8418 329.759C84.3624 323.883 123.466 310.637 159.22 290.676C184.828 276.328 208.434 258.666 229.427 238.145C252.301 257.792 277.022 275.177 303.246 290.055C349.72 316.305 400.309 334.476 452.858 343.796L446.342 378L53.1953 374.94L43.8418 329.759Z" fill="#00C2BA"/>
<path d="M204.259 339.217C232.441 335.093 184.155 307.707 229.227 282.472C259.781 265.376 212.881 254.266 229.383 238.123C252.269 257.78 277.006 275.173 303.246 290.056C349.72 316.306 400.309 334.477 452.858 343.796L446.342 378.001L53.1953 374.941L204.259 339.217Z" fill="#42EDF0"/>
<path d="M144.772 328.487L152.075 328.506L152.153 299.003L144.849 298.983L144.772 328.487Z" fill="#42EDF0"/>
<path d="M167.41 288.947C167.41 304.248 158.744 316.666 148.149 316.588L148.426 208.221C159.032 208.232 167.454 273.647 167.41 288.947Z" fill="#42EDF0"/>
<path d="M148.426 208.209L148.149 316.577C137.554 316.577 128.988 304.136 129.032 288.858C129.076 273.58 137.831 208.176 148.426 208.209Z" fill="#00C2BA"/>
<path d="M69.8119 328.838L77.1151 328.857L77.1923 299.354L69.8891 299.335L69.8119 328.838Z" fill="#42EDF0"/>
<path d="M92.4379 289.291C92.4379 304.592 83.7715 317.009 73.1768 316.932L73.4538 208.564C84.0596 208.587 92.4822 274.002 92.4379 289.291Z" fill="#42EDF0"/>
<path d="M73.4539 208.564L73.1768 316.932C62.5821 316.932 54.0154 304.492 54.0597 289.214C54.1041 273.935 62.8591 208.531 73.4539 208.564Z" fill="#00C2BA"/>
<path d="M29.6047 328.745L36.908 328.764L36.9852 299.26L29.6819 299.241L29.6047 328.745Z" fill="#42EDF0"/>
<path d="M52.2311 289.191C52.2311 304.48 43.5647 316.909 32.97 316.832L33.2581 208.453C43.8418 208.486 52.2754 273.89 52.2311 289.191Z" fill="#42EDF0"/>
<path d="M33.2582 208.453L32.97 316.832C22.3753 316.832 13.8086 304.381 13.853 289.113C13.8973 273.846 22.6523 208.431 33.2582 208.453Z" fill="#00C2BA"/>
<path d="M100.262 302.463C105.336 302.463 109.449 297.955 109.449 292.395C109.449 286.835 105.336 282.328 100.262 282.328C95.188 282.328 91.0747 286.835 91.0747 292.395C91.0747 297.955 95.188 302.463 100.262 302.463Z" fill="white"/>
<path d="M99.4863 278.324C97.3809 278.324 95.2962 278.739 93.3512 279.546C91.4062 280.352 89.6391 281.534 88.1509 283.024C86.6627 284.514 85.4825 286.283 84.6778 288.229C83.8732 290.175 83.4597 292.261 83.4612 294.368C83.4612 306.397 99.4863 324.159 99.4863 324.159C99.4863 324.159 115.522 306.42 115.522 294.368C115.524 292.26 115.11 290.173 114.305 288.226C113.499 286.279 112.318 284.51 110.829 283.02C109.339 281.53 107.571 280.348 105.625 279.543C103.679 278.737 101.593 278.323 99.4863 278.324ZM99.4863 300.1C98.3531 300.1 97.2453 299.764 96.3031 299.134C95.3609 298.504 94.6265 297.609 94.1928 296.561C93.7592 295.514 93.6457 294.361 93.8668 293.249C94.0879 292.137 94.6336 291.116 95.4348 290.314C96.2361 289.513 97.2571 288.967 98.3685 288.746C99.4799 288.524 100.632 288.638 101.679 289.072C102.726 289.506 103.621 290.24 104.25 291.183C104.88 292.126 105.216 293.234 105.216 294.368C105.216 295.888 104.612 297.346 103.538 298.421C102.463 299.496 101.006 300.1 99.4863 300.1Z" fill="#FF8800"/>
<path d="M262.519 252.525C267.593 252.525 271.706 248.018 271.706 242.458C271.706 236.898 267.593 232.391 262.519 232.391C257.445 232.391 253.332 236.898 253.332 242.458C253.332 248.018 257.445 252.525 262.519 252.525Z" fill="white"/>
<path d="M261.743 228.398C259.638 228.397 257.554 228.811 255.609 229.616C253.664 230.421 251.897 231.602 250.408 233.091C248.92 234.58 247.739 236.348 246.935 238.294C246.13 240.239 245.716 242.325 245.718 244.431C245.718 256.46 261.743 274.222 261.743 274.222C261.743 274.222 277.779 256.483 277.779 244.431C277.78 242.324 277.367 240.238 276.561 238.291C275.756 236.345 274.574 234.576 273.085 233.087C271.595 231.598 269.827 230.417 267.881 229.613C265.934 228.808 263.849 228.396 261.743 228.398ZM261.743 250.163C260.61 250.163 259.502 249.827 258.56 249.197C257.617 248.567 256.883 247.672 256.449 246.624C256.016 245.577 255.902 244.424 256.123 243.312C256.344 242.2 256.89 241.179 257.691 240.377C258.493 239.576 259.514 239.03 260.625 238.809C261.737 238.588 262.889 238.701 263.935 239.135C264.982 239.569 265.877 240.303 266.507 241.246C267.136 242.189 267.472 243.297 267.472 244.431C267.467 245.947 266.86 247.399 265.786 248.47C264.713 249.54 263.259 250.141 261.743 250.141V250.163Z" fill="#FF8800"/>
<path d="M326.142 298.227C330.445 298.227 333.933 294.738 333.933 290.433C333.933 286.128 330.445 282.639 326.142 282.639C321.84 282.639 318.352 286.128 318.352 290.433C318.352 294.738 321.84 298.227 326.142 298.227Z" fill="white"/>
<path d="M330.531 307.829C334.191 307.829 337.158 304.86 337.158 301.199C337.158 297.537 334.191 294.568 330.531 294.568C326.871 294.568 323.904 297.537 323.904 301.199C323.904 304.86 326.871 307.829 330.531 307.829Z" fill="white"/>
<path d="M339.885 307.972C342.168 307.972 344.018 306.121 344.018 303.837C344.018 301.553 342.168 299.701 339.885 299.701C337.602 299.701 335.751 301.553 335.751 303.837C335.751 306.121 337.602 307.972 339.885 307.972Z" fill="white"/>
<path d="M314.285 292.683C321.029 292.683 326.497 287.212 326.497 280.464C326.497 273.716 321.029 268.246 314.285 268.246C307.54 268.246 302.072 273.716 302.072 280.464C302.072 287.212 307.54 292.683 314.285 292.683Z" fill="white"/>
<path d="M315.836 270.864C320.861 270.864 324.935 266.788 324.935 261.761C324.935 256.734 320.861 252.658 315.836 252.658C310.811 252.658 306.737 256.734 306.737 261.761C306.737 266.788 310.811 270.864 315.836 270.864Z" fill="white"/>
<path d="M303.856 251.283C304.982 251.283 305.895 250.37 305.895 249.243C305.895 248.116 304.982 247.203 303.856 247.203C302.73 247.203 301.817 248.116 301.817 249.243C301.817 250.37 302.73 251.283 303.856 251.283Z" fill="white"/>
<path d="M301.008 274.234C301.938 274.234 302.692 273.479 302.692 272.549C302.692 271.618 301.938 270.863 301.008 270.863C300.077 270.863 299.323 271.618 299.323 272.549C299.323 273.479 300.077 274.234 301.008 274.234Z" fill="white"/>
<path d="M325.278 274.167C327.035 274.167 328.459 272.742 328.459 270.985C328.459 269.227 327.035 267.803 325.278 267.803C323.521 267.803 322.097 269.227 322.097 270.985C322.097 272.742 323.521 274.167 325.278 274.167Z" fill="white"/>
<path d="M305.684 260.108C307.82 260.108 309.552 258.376 309.552 256.239C309.552 254.102 307.82 252.369 305.684 252.369C303.548 252.369 301.817 254.102 301.817 256.239C301.817 258.376 303.548 260.108 305.684 260.108Z" fill="white"/>
<path d="M586.32 281.223L580.292 281.207L580.134 341.4L586.163 341.416L586.32 281.223Z" fill="#FFCC00"/>
<path d="M596.785 318.237L569.666 318.166C567.243 318.159 565.273 320.12 565.266 322.545L565.257 326.281C565.25 328.706 567.21 330.677 569.634 330.683L596.752 330.754C599.176 330.761 601.146 328.8 601.152 326.375L601.162 322.639C601.168 320.214 599.209 318.243 596.785 318.237Z" fill="#FFCC00"/>
<path d="M583.364 292.261C596.97 292.261 608 281.226 608 267.614C608 254.002 596.97 242.967 583.364 242.967C569.758 242.967 558.728 254.002 558.728 267.614C558.728 281.226 569.758 292.261 583.364 292.261Z" fill="#FFCC00"/>
<path d="M583.419 247.357C579.811 247.352 576.263 248.288 573.127 250.073C569.99 251.858 567.372 254.43 565.532 257.536L601.24 257.624C599.419 254.51 596.818 251.924 593.692 250.124C590.567 248.323 587.026 247.369 583.419 247.357Z" fill="#FF8800"/>
<path d="M583.308 288.835C587.267 288.838 591.145 287.708 594.483 285.578C597.821 283.449 600.481 280.409 602.148 276.817L564.469 276.717C566.12 280.329 568.773 283.392 572.112 285.54C575.452 287.688 579.338 288.832 583.308 288.835Z" fill="#FF8800"/>
<path d="M601.284 257.626L565.577 257.537C563.871 260.414 562.888 263.663 562.713 267.003C562.537 270.344 563.174 273.678 564.568 276.718L602.248 276.818C603.66 273.784 604.313 270.452 604.153 267.108C603.993 263.765 603.024 260.511 601.328 257.626H601.284Z" fill="white"/>
<path d="M573.933 263.257L568.835 263.246L566.275 267.659L568.813 272.083L573.911 272.094L576.471 267.681L573.933 263.257Z" fill="#FFCC00"/>
<path d="M588.296 263.1L579.053 263.076L579.029 272.323L588.272 272.347L588.296 263.1Z" fill="#FFCC00"/>
<path d="M595.987 263.113L590.634 272.349L601.306 272.371L595.987 263.113Z" fill="#FFCC00"/>
<path d="M516.87 262.236C526.534 263.345 533.183 267.869 538.514 271.616C543.489 275.13 547.993 279.27 551.912 283.934C551.222 280.23 549.989 276.647 548.255 273.302L546.393 239.43C545.485 215.947 534.845 212.898 517.79 213.075L373.475 213.364C343.398 213.663 336.904 235.538 331.695 264.099L507.793 262.336C510.804 261.939 513.851 261.905 516.87 262.236Z" fill="#FF8800"/>
<path d="M538.514 271.617C533.183 267.87 526.534 263.313 516.87 262.237C513.851 261.906 510.804 261.94 507.793 262.337L331.695 264.1C331.001 267.93 330.671 271.817 330.708 275.709V279.279C330.808 287.803 334.28 295.94 340.364 301.908C346.448 307.877 354.648 311.189 363.169 311.121L539.6 309.336C543.087 309.293 546.414 307.868 548.853 305.374C551.292 302.88 552.643 299.52 552.61 296.032C552.61 296.032 552.311 286.12 551.912 283.946C547.993 279.279 543.49 275.135 538.514 271.617Z" fill="#FF8800"/>
<path d="M550.776 298.278C553.555 298.25 555.768 294.351 555.72 289.569C555.671 284.786 553.38 280.933 550.601 280.961C547.822 280.989 545.609 284.888 545.657 289.67C545.706 294.453 547.998 298.306 550.776 298.278Z" fill="#FFCC00"/>
<path d="M539.744 277.847C541.904 277.847 543.656 276.095 543.656 273.933C543.656 271.772 541.904 270.02 539.744 270.02C537.583 270.02 535.832 271.772 535.832 273.933C535.832 276.095 537.583 277.847 539.744 277.847Z" fill="#42EDF0"/>
<path d="M410.535 277.661L432.965 277.439C434.772 277.439 436.235 276.33 436.224 275.066L435.902 243.545C435.902 242.259 434.406 241.216 432.577 241.239L406.999 241.494C405.204 241.494 403.741 242.602 403.752 243.866L407.199 275.354C407.243 276.64 408.728 277.683 410.535 277.661Z" fill="#FFCC00"/>
<path d="M393.678 241.826L363.025 242.291C361.229 242.291 359.777 243.4 359.8 244.697L360.465 276.219C360.465 277.505 361.983 278.525 363.789 278.436L397.579 277.904C399.386 277.904 400.838 276.795 400.804 275.498L397.014 244.043C396.981 242.801 395.485 241.781 393.678 241.826Z" fill="#FFCC00"/>
<path d="M446.065 276.108L522.599 275.643C524.395 275.643 525.858 274.534 525.847 273.27L525.536 241.749C525.536 240.462 524.04 239.431 522.212 239.453L445.067 240.562C443.272 240.562 441.809 241.671 441.82 242.935L442.696 273.802C442.806 275.088 444.269 276.13 446.065 276.108Z" fill="#FFCC00"/>
<path d="M544.354 312.463L355.344 314.37C353.959 314.357 352.576 314.231 351.211 313.993C346.024 313.161 342.123 310.012 341.37 306.11C341.37 304.779 344.029 303.659 347.299 303.626L546.781 301.619C553.929 301.542 557.265 301.508 554.672 305.367L552.777 307.906C549.784 311.199 547.634 312.429 544.354 312.463Z" fill="#42EDF0"/>
<path d="M493.686 328.34C503.944 328.34 512.26 320.021 512.26 309.758C512.26 299.495 503.944 291.176 493.686 291.176C483.427 291.176 475.112 299.495 475.112 309.758C475.112 320.021 483.427 328.34 493.686 328.34Z" fill="#FFCC00"/>
<path d="M393.036 329.348C403.294 329.348 411.61 321.029 411.61 310.766C411.61 300.503 403.294 292.184 393.036 292.184C382.778 292.184 374.462 300.503 374.462 310.766C374.462 321.029 382.778 329.348 393.036 329.348Z" fill="#FFCC00"/>
<path d="M428.448 218.6L363.242 219.966C359.828 220.038 357.118 222.865 357.189 226.281L357.3 231.546C357.371 234.962 360.197 237.674 363.612 237.602L428.817 236.236C432.232 236.164 434.942 233.337 434.87 229.921L434.76 224.655C434.688 221.239 431.862 218.528 428.448 218.6Z" fill="#FFCC00"/>
<path d="M424.009 228.938L364.023 230.195L364.079 232.889L424.066 231.632L424.009 228.938Z" fill="#A35EFF"/>
<path d="M388.338 224.852L364.029 225.361L364.085 228.055L388.395 227.546L388.338 224.852Z" fill="#A35EFF"/>
</svg>
