<svg width="49" height="54" viewBox="0 0 49 54" fill="none" xmlns="http://www.w3.org/2000/svg">
<path d="M42.9399 53.8434C42.9399 53.8434 51.9399 34.6973 46.9399 19.6938C44.2599 11.5016 38.6999 6.08135 30.9999 2.88691C26.5449 1.06608 21.7924 0.142572 16.9999 0.166466L-0.000118256 0.166466L-0.000120126 44.2703L21.3999 44.2703C33.2699 44.2497 42.9399 53.8434 42.9399 53.8434Z" fill="#42EDF0"/>
<path d="M21.4598 18.1819C21.4629 20.7942 24.0577 22.9085 27.2554 22.9045C30.4532 22.9004 33.0429 20.7796 33.0398 18.1674C33.0367 15.5551 30.4419 13.4408 27.2442 13.4448C24.0465 13.4488 21.4567 15.5697 21.4598 18.1819Z" fill="white"/>
<path d="M25.4581 16.869C25.4596 18.1723 26.7548 19.2271 28.3509 19.2251C29.947 19.2231 31.2397 18.165 31.2381 16.8617C31.2366 15.5584 29.9414 14.5036 28.3453 14.5056C26.7492 14.5076 25.4566 15.5657 25.4581 16.869Z" fill="black"/>
<path d="M21.4696 26.3128C21.4727 28.925 24.0674 31.0393 27.2651 31.0353C30.4629 31.0313 33.0526 28.9104 33.0496 26.2982C33.0465 23.686 30.4516 21.5716 27.2539 21.5756C24.0562 21.5797 21.4665 23.7006 21.4696 26.3128Z" fill="white"/>
<path d="M25.4581 25.3612C25.4596 26.6644 26.7548 27.7193 28.3509 27.7173C29.947 27.7153 31.2397 26.6571 31.2381 25.3539C31.2366 24.0506 29.9414 22.9958 28.3453 22.9978C26.7492 22.9998 25.4566 24.0579 25.4581 25.3612Z" fill="black"/>
<path d="M35.2297 29.3708C35.7984 28.8608 36.1999 28.1818 36.379 27.4271C36.558 26.6724 36.5059 25.8792 36.2297 25.1562" fill="#00C2BA"/>
<path d="M34.7901 29.3694C34.7885 29.4584 34.8124 29.5459 34.8588 29.6211C34.9051 29.6962 34.9719 29.7556 35.0509 29.7919C35.1298 29.8282 35.2173 29.8396 35.3026 29.825C35.3878 29.8103 35.4669 29.7701 35.5301 29.7094C36.14 29.1436 36.5747 28.4053 36.7801 27.5866C36.9901 26.7241 36.9306 25.8154 36.6101 24.9898C36.5891 24.9343 36.5578 24.8836 36.5177 24.8406C36.4777 24.7977 36.4299 24.7632 36.3769 24.7393C36.324 24.7154 36.267 24.7025 36.2093 24.7013C36.1515 24.7 36.094 24.7106 36.0401 24.7322C35.9863 24.7539 35.9371 24.7862 35.8954 24.8274C35.8537 24.8687 35.8203 24.918 35.7971 24.9725C35.7739 25.0271 35.7613 25.0858 35.7601 25.1453C35.7589 25.2049 35.7691 25.264 35.7901 25.3195C36.0401 25.9522 36.0925 26.6495 35.9402 27.3143C35.7879 27.9792 35.4383 28.5786 34.9401 29.0293C34.8931 29.0717 34.8554 29.124 34.8295 29.1826C34.8037 29.2413 34.7902 29.305 34.7901 29.3694Z" fill="black"/>
<path d="M17.8404 22.2299C18.345 21.6902 18.9801 21.2989 19.6804 21.0964C19.7395 21.081 19.8009 21.078 19.8612 21.0873C19.9215 21.0967 19.9794 21.1182 20.0315 21.1508C20.0836 21.1834 20.1289 21.2264 20.1647 21.2772C20.2006 21.328 20.2263 21.3856 20.2404 21.4468C20.4804 22.7452 20.8004 24.3114 21.1204 25.8365C21.4404 27.3616 21.7604 28.9279 22.0104 30.2366C22.0246 30.3126 22.0202 30.3911 21.9975 30.4649C21.9748 30.5387 21.9345 30.6055 21.8804 30.6592C21.8239 30.7104 21.756 30.7466 21.6828 30.7646C21.6096 30.7825 21.5332 30.7817 21.4604 30.7622C20.8329 30.5879 20.2333 30.3206 19.6804 29.9687C18.8054 29.5445 18.067 28.8704 17.5529 28.0265C17.0389 27.1826 16.7707 26.2043 16.7803 25.2079C16.7481 24.1116 17.1279 23.0447 17.8404 22.2299ZM21.0004 29.6389C20.7013 29.5183 20.4134 29.37 20.1404 29.1958C19.5763 28.8939 19.0768 28.4785 18.6715 27.974C18.2661 27.4695 17.963 26.8864 17.7803 26.259C17.6319 25.6752 17.618 25.0637 17.7395 24.4733C17.861 23.8829 18.1147 23.33 18.4803 22.8585C18.7633 22.5513 19.1034 22.306 19.4803 22.1372C19.7103 23.3325 19.9904 24.6927 20.2704 26.022L21.0004 29.6389Z" fill="black"/>
</svg>
