<svg width="145" height="187" viewBox="0 0 145 187" fill="none" xmlns="http://www.w3.org/2000/svg">
<g clip-path="url(#clip0)">
<path d="M48.3381 -7.62916e-06C41.9796 0.0105956 35.6855 1.27058 29.8151 3.708C23.9447 6.14543 18.613 9.71256 14.1244 14.2057C9.63577 18.6989 6.07818 24.0301 3.65473 29.895C1.23128 35.7598 -0.0105779 42.0435 6.7869e-05 48.3872L0.162065 145L97.0001 144.838L96.8381 48.2256C96.8274 41.8819 95.5645 35.6024 93.1214 29.7457C90.6783 23.8889 87.1029 18.5696 82.5992 14.0914C78.0956 9.61328 72.7519 6.06397 66.8734 3.64615C60.9949 1.22834 54.6965 -0.0106286 48.3381 -7.62916e-06Z" fill="#FFCC00"/>
<path d="M39.4884 48.3231C45.2243 48.3141 49.865 42.4617 49.8536 35.2515C49.8423 28.0413 45.1832 22.2035 39.4473 22.2125C33.7114 22.2215 29.0707 28.0738 29.0821 35.284C29.0934 42.4943 33.7525 48.332 39.4884 48.3231Z" fill="white"/>
<path d="M42.6998 41.7993C45.5677 41.7948 47.8881 38.8687 47.8824 35.2636C47.8767 31.6584 45.5472 28.7396 42.6792 28.7441C39.8113 28.7486 37.4909 31.6747 37.4966 35.2798C37.5023 38.885 39.8318 41.8038 42.6998 41.7993Z" fill="black"/>
<path d="M42.6952 43.0178C39.1673 43.0178 36.2873 39.552 36.2783 35.278C36.2693 31.0041 39.1493 27.5293 42.6772 27.5203C43.5786 27.5362 44.4644 27.7581 45.2663 28.1691C46.0683 28.58 46.7651 29.169 47.3031 29.8907C48.4952 31.4324 49.1295 33.3311 49.1031 35.278V35.278C49.1317 37.2253 48.4971 39.1247 47.3031 40.6654C46.7665 41.3892 46.0702 41.9803 45.2681 42.3929C44.466 42.8055 43.5795 43.0285 42.6772 43.0448L42.6952 43.0178ZM42.6952 29.9536C40.5083 29.9536 38.7263 32.3509 38.7353 35.278C38.7443 38.2051 40.5353 40.5756 42.7042 40.5756C43.2361 40.5569 43.7565 40.4159 44.2249 40.1636C44.6932 39.9113 45.0968 39.5545 45.4042 39.121C46.2598 38.0164 46.7165 36.656 46.7001 35.2601V35.2601C46.7248 33.8715 46.281 32.5149 45.4402 31.4081C45.1244 30.9705 44.7115 30.6115 44.2338 30.3592C43.7562 30.1069 43.2265 29.9681 42.6862 29.9536H42.6952Z" fill="black"/>
<path d="M57.3439 48.2951C63.0798 48.2861 67.7205 42.4337 67.7091 35.2235C67.6978 28.0133 63.0387 22.1755 57.3028 22.1845C51.5669 22.1935 46.9262 28.0458 46.9375 35.2561C46.9489 42.4663 51.608 48.3041 57.3439 48.2951Z" fill="white"/>
<path d="M60.5552 41.7714C63.4232 41.7669 65.7435 38.8407 65.7378 35.2356C65.7322 31.6305 63.4026 28.7116 60.5347 28.7161C57.6667 28.7206 55.3464 31.6467 55.3521 35.2519C55.3578 38.857 57.6873 41.7759 60.5552 41.7714Z" fill="black"/>
<path d="M60.5507 42.9909C59.6505 42.975 58.7661 42.753 57.9656 42.342C57.1651 41.931 56.4699 41.342 55.9338 40.6205C54.7654 39.0663 54.1338 37.1759 54.1338 35.2331C54.1338 33.2904 54.7654 31.4 55.9338 29.8458C56.468 29.1216 57.1626 28.5302 57.9633 28.1175C58.7641 27.7048 59.6495 27.482 60.5507 27.4664V27.4664C64.0786 27.4664 66.9495 30.9323 66.9585 35.1972C66.9585 39.4712 64.0966 42.955 60.5597 42.964L60.5507 42.9909ZM60.5507 29.9266C60.0196 29.9493 59.5006 30.092 59.0329 30.344C58.5652 30.5959 58.161 30.9506 57.8507 31.3812C57.038 32.5053 56.6006 33.8561 56.6006 35.2421C56.6006 36.6281 57.038 37.979 57.8507 39.103C58.1605 39.5334 58.5648 39.8874 59.0328 40.138C59.5007 40.3885 60.0199 40.529 60.5507 40.5486V40.5486C62.7376 40.5486 64.5196 38.1603 64.5106 35.2331C64.5196 32.306 62.7286 29.9266 60.5507 29.9266V29.9266Z" fill="black"/>
<path d="M50.2365 54.4569C49.0007 54.4576 47.777 54.2135 46.6365 53.7386C46.4847 53.616 46.3769 53.4474 46.3296 53.2583C46.2822 53.0692 46.2978 52.8698 46.3741 52.6903C46.4503 52.5109 46.583 52.361 46.7521 52.2634C46.9212 52.1658 47.1176 52.1258 47.3115 52.1494C48.7144 52.749 50.2694 52.8983 51.7611 52.5765C53.2528 52.2547 54.6071 51.4778 55.6364 50.3536C55.8028 50.1996 56.0214 50.114 56.2483 50.114C56.4753 50.114 56.6939 50.1996 56.8603 50.3536C57.0121 50.5191 57.0963 50.7353 57.0963 50.9597C57.0963 51.184 57.0121 51.4002 56.8603 51.5657C55.5487 52.9739 53.8266 53.935 51.9374 54.3133C51.3766 54.4172 50.8068 54.4654 50.2365 54.4569Z" fill="black"/>
</g>
<g clip-path="url(#clip1)">
<path d="M18 83.3224C18 83.3224 63.3051 61.6864 98.8141 73.5323C118.2 80.0027 131.007 93.4239 138.583 112.025C142.902 122.812 145.081 134.322 145 145.925L144.919 186.999L40.5672 186.874L40.6661 135.21C40.6661 106.676 18 83.3224 18 83.3224Z" fill="#42EDF0"/>
<path d="M113.669 121.335C113.679 113.623 108.677 107.365 102.497 107.357C96.3175 107.35 91.3002 113.596 91.2907 121.308C91.2812 129.02 96.283 135.278 102.463 135.286C108.642 135.293 113.66 129.047 113.669 121.335Z" fill="white"/>
<path d="M112.065 119.225C112.07 115.367 109.571 112.236 106.483 112.232C103.396 112.228 100.889 115.353 100.885 119.212C100.88 123.07 103.379 126.201 106.466 126.205C109.553 126.209 112.06 123.084 112.065 119.225Z" fill="black"/>
<path d="M94.4308 121.317C94.4403 113.605 89.4385 107.347 83.2588 107.339C77.0792 107.332 72.0619 113.578 72.0524 121.29C72.0429 129.002 77.0447 135.26 83.2244 135.268C89.404 135.275 94.4213 129.029 94.4308 121.317Z" fill="white"/>
<path d="M91.9896 119.198C91.9944 115.34 89.4955 112.209 86.4081 112.205C83.3208 112.201 80.8142 115.326 80.8094 119.185C80.8046 123.044 83.3036 126.175 86.3909 126.178C89.4782 126.182 91.9849 123.057 91.9896 119.198Z" fill="black"/>
<path d="M75.9141 101.942C77.1291 100.582 78.7384 99.6267 80.5222 99.2061C82.3061 98.7856 84.1775 98.9206 85.881 99.5926" fill="#00C2BA"/>
<path d="M75.9141 103.001C75.7045 103.005 75.4986 102.947 75.322 102.835C75.1453 102.723 75.0057 102.563 74.9205 102.373C74.8353 102.183 74.8082 101.973 74.8427 101.768C74.8771 101.564 74.9715 101.373 75.1142 101.221C76.4758 99.6994 78.2784 98.6305 80.2761 98.1606C82.2738 97.6907 84.3693 97.8427 86.2765 98.5958C86.5411 98.6997 86.7532 98.9034 86.8661 99.1621C86.979 99.4208 86.9835 99.7133 86.8787 99.9754C86.7738 100.237 86.5681 100.447 86.3068 100.559C86.0456 100.671 85.7502 100.676 85.4856 100.572C83.9495 99.9701 82.2614 99.8612 80.6594 100.26C79.1363 100.649 77.7636 101.476 76.714 102.636C76.6156 102.751 76.493 102.844 76.3549 102.907C76.2167 102.97 76.0663 103.002 75.9141 103.001Z" fill="black"/>
<path d="M85.7556 146.487C84.7517 146.488 83.7509 146.378 82.7718 146.158C77.9187 145.001 75.5191 141.147 74.4945 139.492C73.6701 138.153 73.0408 136.706 72.6251 135.193C72.5774 135.018 72.5755 134.834 72.6195 134.658C72.6636 134.482 72.7521 134.32 72.8768 134.187C73.0008 134.056 73.1569 133.958 73.33 133.903C73.5031 133.849 73.6875 133.839 73.8654 133.876C76.9391 134.463 80.6778 135.255 84.2907 136.021C87.9036 136.786 91.5974 137.56 94.6531 138.148C94.7982 138.179 94.9357 138.238 95.0576 138.322C95.1794 138.406 95.2833 138.513 95.3631 138.637C95.446 138.768 95.4994 138.916 95.5196 139.07C95.5398 139.223 95.5262 139.379 95.4799 139.527C95.0018 141.224 94.0703 142.761 92.7837 143.977C90.8496 145.67 88.3357 146.568 85.7556 146.487V146.487ZM75.2674 136.314C75.5629 137.03 75.9176 137.721 76.3279 138.379C77.2266 139.803 79.2847 143.141 83.2751 144.084C84.102 144.28 88.3889 145.125 91.3637 142.393C92.0841 141.716 92.6588 140.901 93.0533 139.999C90.2403 139.438 87.0139 138.762 83.8773 138.094C80.9204 137.48 77.9277 136.848 75.2674 136.314Z" fill="black"/>
</g>
<defs>
<clipPath id="clip0">
<rect width="97" height="145" fill="white"/>
</clipPath>
<clipPath id="clip1">
<rect width="127" height="117" fill="white" transform="translate(18 70)"/>
</clipPath>
</defs>
</svg>
