<svg width="69" height="75" viewBox="0 0 69 75" fill="none" xmlns="http://www.w3.org/2000/svg">
<path d="M37.43 74.1414L0 74.0383L0.120003 26.637C0.125303 21.5136 2.10413 16.6018 5.62174 12.9809C9.13935 9.36005 13.908 7.32617 18.88 7.32617C23.8468 7.35071 28.6014 9.4039 32.1013 13.0355C35.6012 16.6671 37.5607 21.5807 37.55 26.6989L37.43 74.1414Z" fill="#6B00FF"/>
<path d="M21.7533 31.0411C24.5583 30.9841 26.7758 27.9858 26.7061 24.3442C26.6364 20.7026 24.3059 17.7968 21.5009 17.8538C18.6958 17.9108 16.4784 20.9091 16.5481 24.5507C16.6178 28.1923 18.9482 31.0981 21.7533 31.0411Z" fill="white"/>
<path d="M23.6413 28.8353C25.0438 28.8067 26.1525 27.3076 26.1177 25.4867C26.0828 23.6658 24.9176 22.2128 23.5151 22.2413C22.1126 22.2699 21.0038 23.7691 21.0387 25.5899C21.0735 27.4108 22.2388 28.8638 23.6413 28.8353Z" fill="black"/>
<path d="M18.1201 15.3853C18.6419 14.7468 19.3393 14.2867 20.1201 14.0657C20.9413 13.8355 21.8118 13.8751 22.6101 14.1791" fill="#6B00FF"/>
<path d="M18.1203 15.8795C18.0058 15.8786 17.8955 15.8346 17.8103 15.7559C17.7658 15.7108 17.7305 15.6571 17.7064 15.5978C17.6823 15.5385 17.6699 15.4749 17.6699 15.4106C17.6699 15.3464 17.6823 15.2828 17.7064 15.2235C17.7305 15.1642 17.7658 15.1105 17.8103 15.0654C18.3951 14.3521 19.1761 13.8382 20.0502 13.5918C20.9702 13.3341 21.9451 13.3773 22.8402 13.7155C22.9596 13.7619 23.0561 13.8553 23.1086 13.9751C23.1611 14.095 23.1653 14.2314 23.1202 14.3544C23.0751 14.4774 22.9845 14.5769 22.8682 14.631C22.7519 14.6851 22.6196 14.6894 22.5002 14.6429C21.8121 14.3657 21.0574 14.316 20.3407 14.5007C19.624 14.6853 18.9808 15.0952 18.5003 15.6734C18.4568 15.7358 18.3998 15.7869 18.3339 15.8227C18.2679 15.8585 18.1948 15.8779 18.1203 15.8795Z" fill="black"/>
<path d="M20.6303 36.5183C20.1554 36.5222 19.684 36.4348 19.2403 36.2607C18.3572 35.8943 17.594 35.2759 17.0403 34.478C16.2303 33.2826 16.0903 32.1182 16.6603 31.3865C16.7197 31.3069 16.8016 31.2482 16.8948 31.2187C16.9879 31.1891 17.0877 31.1902 17.1803 31.2217C18.1803 31.5308 22.9803 33.1074 23.5603 33.5093C23.624 33.554 23.6764 33.6138 23.7129 33.6838C23.7495 33.7537 23.7692 33.8317 23.7703 33.9112C23.7348 34.2727 23.6277 34.623 23.4557 34.9402C23.2837 35.2575 23.0504 35.535 22.7703 35.7557C22.1674 36.2636 21.4088 36.5339 20.6303 36.5183ZM17.2903 32.2418C17.251 32.8528 17.4447 33.4555 17.8303 33.9215C18.2814 34.5616 18.8982 35.058 19.6103 35.3539C20.0378 35.5227 20.5001 35.5763 20.9533 35.5095C21.4065 35.4428 21.8357 35.258 22.2003 34.9726C22.4488 34.7526 22.6411 34.473 22.7603 34.1585C21.9403 33.8082 19.5603 32.9838 17.2903 32.2418Z" fill="black"/>
<path d="M12.0496 10.3561C9.21961 9.18139 7.64962 4.17336 9.50961 1.54569C9.83365 1.08784 10.2537 0.711097 10.7384 0.443499C11.2231 0.175901 11.7602 0.0243271 12.3096 0C14.4796 0.13396 15.7596 3.26653 16.0696 5.22441C16.1496 5.66751 16.6996 9.11955 14.8496 10.284C14.4148 10.5009 13.9401 10.6195 13.4572 10.632C12.9743 10.6444 12.4944 10.5504 12.0496 10.3561Z" fill="#6B00FF"/>
<path d="M18.49 10.4194C15.65 9.24463 14.08 4.2365 15.94 1.60877C16.263 1.14901 16.6826 0.770286 17.1674 0.500866C17.6522 0.231445 18.1898 0.0782653 18.74 0.0527344C20.91 0.186697 22.19 3.32965 22.5 5.28757C22.58 5.73068 23.13 9.18279 21.28 10.3472C20.8471 10.5646 20.374 10.6835 19.8926 10.6959C19.4113 10.7084 18.9329 10.6141 18.49 10.4194Z" fill="#6B00FF"/>
<path d="M24.4397 10.4186C21.5997 9.24385 20.0397 4.23585 21.8897 1.60818C22.2148 1.15141 22.635 0.775456 23.1195 0.507978C23.604 0.240501 24.1406 0.0882965 24.6897 0.0625C26.8597 0.196459 28.1497 3.32902 28.4597 5.28689C28.5297 5.72998 29.0897 9.18201 27.2397 10.3464C26.8057 10.5659 26.3307 10.6861 25.8473 10.6985C25.364 10.711 24.8838 10.6155 24.4397 10.4186Z" fill="#6B00FF"/>
<path d="M49.4701 17.9609C54.4349 17.9609 59.1964 19.9933 62.7071 23.6109C66.2178 27.2285 68.1901 32.1351 68.1901 37.2512V73.9769H30.79V37.2512C30.79 32.1423 32.7568 27.2419 36.2589 23.6255C39.7609 20.009 44.5121 17.9719 49.4701 17.9609Z" fill="#A35EFF"/>
<path d="M51.3549 41.8653C54.1599 41.8083 56.3773 38.81 56.3076 35.1684C56.2379 31.5269 53.9075 28.621 51.1024 28.678C48.2974 28.735 46.0799 31.7333 46.1497 35.3749C46.2194 39.0165 48.5498 41.9224 51.3549 41.8653Z" fill="white"/>
<path d="M49.4606 36.935C50.8632 36.9065 51.9719 35.4072 51.937 33.5864C51.9022 31.7655 50.7369 30.3124 49.3344 30.341C47.9319 30.3695 46.8232 31.8687 46.858 33.6896C46.8929 35.5105 48.0581 36.9635 49.4606 36.935Z" fill="black"/>
<path d="M47.7197 26.2057C48.2479 25.5749 48.9429 25.1164 49.7197 24.8863C50.5413 24.653 51.4137 24.6964 52.2097 25.01" fill="#6B00FF"/>
<path d="M47.7204 26.7003C47.6104 26.7007 47.504 26.6605 47.4204 26.5869C47.3714 26.5436 47.3314 26.4906 47.3028 26.431C47.2741 26.3714 47.2575 26.3064 47.2537 26.24C47.25 26.1736 47.2593 26.1071 47.281 26.0445C47.3028 25.9819 47.3366 25.9245 47.3804 25.8756C47.972 25.1701 48.7505 24.6578 49.6204 24.4015C50.5411 24.1449 51.5167 24.1918 52.4104 24.5355C52.4692 24.5573 52.5232 24.591 52.5692 24.6345C52.6152 24.6781 52.6524 24.7307 52.6785 24.7893C52.7045 24.8478 52.719 24.9112 52.7211 24.9756C52.7231 25.04 52.7127 25.1041 52.6904 25.1643C52.6692 25.225 52.6365 25.2806 52.5943 25.3281C52.552 25.3755 52.501 25.4138 52.4442 25.4407C52.3874 25.4676 52.3259 25.4825 52.2635 25.4846C52.201 25.4867 52.1387 25.476 52.0804 25.453C51.3923 25.1757 50.6376 25.126 49.9209 25.3107C49.2041 25.4954 48.5609 25.9054 48.0804 26.4838C48.039 26.5445 47.9854 26.5952 47.9233 26.6326C47.8612 26.6699 47.7919 26.693 47.7204 26.7003Z" fill="black"/>
<path d="M52.8197 47.2773C52.1755 47.2811 51.5369 47.1551 50.9397 46.9063C49.6397 46.3293 48.9397 45.4225 48.9997 44.4538C49.0059 44.3539 49.0434 44.2588 49.1065 44.1826C49.1696 44.1065 49.2549 44.0534 49.3497 44.0314C50.3497 43.7634 55.2397 42.4445 55.9297 42.4651C56.0081 42.4655 56.085 42.4865 56.1533 42.5262C56.2215 42.5659 56.2788 42.6229 56.3197 42.6918C56.4764 43.0078 56.5704 43.3528 56.5961 43.7067C56.6219 44.0605 56.5789 44.4161 56.4697 44.7527C56.2539 45.3681 55.8872 45.9155 55.4053 46.3416C54.9234 46.7677 54.3427 47.0581 53.7197 47.1845C53.4225 47.2395 53.1216 47.2705 52.8197 47.2773ZM49.9897 44.8763C50.277 45.4084 50.7483 45.8094 51.3097 45.9995C52.0243 46.2901 52.8028 46.3721 53.5597 46.2365C54.009 46.1412 54.4278 45.9307 54.7774 45.6246C55.127 45.3184 55.396 44.9264 55.5597 44.4848C55.6418 44.1465 55.6418 43.7926 55.5597 43.4543C54.7297 43.6398 52.2997 44.2478 49.9897 44.8763Z" fill="black"/>
<path d="M45.9202 21.7546C43.0802 20.5798 41.5202 15.5718 43.3702 12.9441C43.6952 12.4874 44.1155 12.1114 44.6 11.8439C45.0845 11.5764 45.6211 11.4242 46.1702 11.3984C48.3402 11.5324 49.6202 14.665 49.9402 16.6229C50.0102 17.066 50.5602 20.518 48.7202 21.6824C48.2863 21.9026 47.8113 22.0231 47.3279 22.0355C46.8444 22.048 46.3641 21.9521 45.9202 21.7546Z" fill="#A35EFF"/>
<path d="M49.75 20.8889C47.66 18.591 48.3 13.3562 51.05 11.8002C51.5317 11.5281 52.0662 11.3702 52.6147 11.3381C53.1631 11.3061 53.7116 11.4006 54.22 11.6147C56.14 12.6452 56.01 16.0766 55.49 17.9933C55.38 18.4261 54.49 21.7957 52.31 22.043C51.8278 22.0519 51.3495 21.9533 50.9077 21.7542C50.4658 21.555 50.0709 21.2598 49.75 20.8889Z" fill="#A35EFF"/>
</svg>
