<svg width="294" height="250" viewBox="0 0 294 250" fill="none" xmlns="http://www.w3.org/2000/svg">
<circle cx="147" cy="125" r="125" fill="#FFCC00"/>
<g clip-path="url(#clip0)">
<path d="M162.688 42.3399L169.116 83.3926C169.205 83.9585 169.516 84.4658 169.98 84.8036C170.444 85.1413 171.024 85.282 171.592 85.1948L231.038 75.936C231.605 75.8472 232.185 75.9865 232.649 76.3234C233.113 76.6603 233.425 77.1671 233.514 77.7326L235.012 87.3111C235.056 87.5916 235.155 87.8607 235.303 88.1031C235.451 88.3456 235.646 88.5565 235.875 88.7238C236.105 88.8912 236.366 89.0118 236.643 89.0786C236.92 89.1454 237.207 89.1571 237.488 89.1132C241.225 88.5316 244.591 86.5311 246.882 83.5305C249.174 80.5299 250.212 76.7618 249.78 73.0151L249.686 72.4309L243.015 29.824C242.925 29.2581 242.614 28.7508 242.15 28.413C241.686 28.0753 241.107 27.9346 240.539 28.0218L164.495 39.8984C163.932 39.9855 163.426 40.2909 163.087 40.7481C162.749 41.2054 162.605 41.7775 162.688 42.3399Z" fill="#42EDF0"/>
<path d="M182.391 69.8627C187.327 69.8627 191.328 65.8729 191.328 60.9511C191.328 56.0294 187.327 52.0396 182.391 52.0396C177.455 52.0396 173.454 56.0294 173.454 60.9511C173.454 65.8729 177.455 69.8627 182.391 69.8627Z" fill="#6B00FF"/>
<path d="M228.547 46.0317L195.013 51.4238L195.688 55.6024L229.223 50.2103L228.547 46.0317Z" fill="#6B00FF"/>
<path d="M240.152 53.0691L197.938 59.8721L198.618 64.0623L240.831 57.2593L240.152 53.0691Z" fill="#6B00FF"/>
<path d="M0 203.79L60.4636 203.007L114.958 223.404H134.971L205.327 199.811L110.067 183.338L0 203.79Z" fill="#42EDF0"/>
<path d="M137.366 102.916C145.877 101.578 154.573 103.666 161.539 108.721C168.506 113.776 173.174 121.384 174.516 129.87L187.62 212.743L123.434 222.835L110.33 139.962C109.666 135.759 109.838 131.467 110.837 127.331C111.836 123.194 113.643 119.295 116.153 115.855C118.664 112.415 121.829 109.502 125.469 107.282C129.109 105.061 133.152 103.578 137.366 102.916Z" fill="#6B00FF"/>
<path d="M148.579 141.461C153.37 140.599 156.371 135.019 155.281 128.998C154.192 122.978 149.424 118.796 144.633 119.658C139.842 120.52 136.841 126.1 137.931 132.121C139.021 138.141 143.788 142.323 148.579 141.461Z" fill="white"/>
<path d="M151.227 137.281C153.621 136.851 155.12 134.061 154.575 131.051C154.03 128.04 151.648 125.949 149.254 126.38C146.86 126.811 145.361 129.601 145.905 132.611C146.45 135.621 148.833 137.712 151.227 137.281Z" fill="black"/>
<path d="M138.188 116.449C138.933 115.212 140.044 114.236 141.368 113.654C142.692 113.072 144.164 112.912 145.582 113.197" fill="#6B00FF"/>
<path d="M138.188 116.449C138.933 115.212 140.044 114.236 141.368 113.654C142.692 113.072 144.164 112.912 145.582 113.197" stroke="black" stroke-width="3" stroke-miterlimit="10" stroke-linecap="round"/>
<path d="M140.675 143.718C140.675 143.718 150.933 145.223 151.994 145.713C152.033 146.686 151.69 147.635 151.038 148.359C149.335 150.381 146.616 150.15 145.864 149.973C144.412 149.638 143.083 148.903 142.029 147.852C140.686 146.463 140.039 144.892 140.675 143.718Z" stroke="black" stroke-width="3" stroke-linecap="round" stroke-linejoin="round"/>
<path d="M126.454 109.769C121.276 108.601 117.258 100.687 119.739 95.8535C119.806 95.7268 121.364 92.7893 124.128 92.5468C127.88 92.1721 130.915 97.0274 131.976 100.185C132.219 100.902 134.087 106.479 131.23 108.915C129.444 110.403 126.83 109.852 126.454 109.769Z" fill="#6B00FF"/>
<path d="M137.48 108.039C132.301 106.87 128.283 98.9562 130.765 94.1229C130.831 93.9906 132.39 91.0531 135.153 90.7831C138.906 90.4138 141.94 95.2637 143.001 98.4271C143.244 99.1436 145.118 104.715 142.255 107.151C140.475 108.672 137.856 108.121 137.48 108.039Z" fill="#6B00FF"/>
<path d="M147.694 106.43C142.515 105.261 138.497 97.3527 140.979 92.5194C141.045 92.3871 142.603 89.4496 145.361 89.1796C149.12 88.8103 152.154 93.6602 153.215 96.8181C153.453 97.54 155.326 103.112 152.469 105.548C150.678 107.069 148.064 106.518 147.694 106.43Z" fill="#6B00FF"/>
<path d="M190.99 112.762C195.204 112.1 199.509 112.271 203.657 113.268C207.805 114.264 211.715 116.065 215.165 118.569C218.615 121.072 221.537 124.229 223.763 127.858C225.989 131.488 227.477 135.519 228.141 139.722L237.774 200.65L173.594 210.741L163.96 149.812C163.295 145.61 163.466 141.318 164.465 137.181C165.463 133.045 167.269 129.145 169.779 125.705C172.289 122.264 175.454 119.35 179.093 117.13C182.733 114.909 186.775 113.425 190.99 112.762Z" fill="#A35EFF"/>
<path d="M202.207 151.311C206.998 150.449 209.999 144.869 208.909 138.849C207.82 132.828 203.052 128.646 198.261 129.509C193.47 130.371 190.469 135.951 191.559 141.971C192.649 147.992 197.416 152.174 202.207 151.311Z" fill="white"/>
<path d="M197.643 143.641C200.037 143.21 201.536 140.421 200.991 137.411C200.446 134.4 198.064 132.309 195.67 132.74C193.276 133.171 191.777 135.96 192.321 138.971C192.866 141.981 195.249 144.072 197.643 143.641Z" fill="black"/>
<path d="M191.814 126.292C192.563 125.059 193.675 124.088 194.999 123.511C196.323 122.933 197.794 122.779 199.209 123.068" fill="#6B00FF"/>
<path d="M191.814 126.292C192.563 125.059 193.675 124.088 194.999 123.511C196.323 122.933 197.794 122.779 199.209 123.068" stroke="black" stroke-width="3" stroke-miterlimit="10" stroke-linecap="round"/>
<path d="M199.685 156.184C199.685 156.184 209.163 152.001 210.324 151.853C210.883 152.655 211.101 153.646 210.932 154.608C210.572 157.22 208.135 158.466 207.417 158.725C206.007 159.212 204.489 159.296 203.034 158.967C201.16 158.471 199.773 157.49 199.685 156.184Z" stroke="black" stroke-width="3" stroke-linecap="round" stroke-linejoin="round"/>
<path d="M187.531 119.403C182.352 118.234 178.334 110.326 180.815 105.492C180.882 105.36 182.44 102.423 185.204 102.153C188.956 101.783 191.991 106.633 193.052 109.791C193.295 110.513 195.169 116.085 192.306 118.521C190.526 120.042 187.906 119.491 187.531 119.403Z" fill="#A35EFF"/>
<path d="M193.865 116.917C189.664 113.676 189.377 104.792 193.671 101.486C193.793 101.392 196.435 99.3915 199.066 100.306C202.625 101.552 203.321 107.228 202.934 110.541C202.851 111.296 202.188 117.154 198.563 118.135C196.308 118.758 194.169 117.154 193.865 116.917Z" fill="#A35EFF"/>
<path d="M201.663 188.122L294 168.816L242.313 201.971L128.808 226L114.958 223.404L201.663 188.122Z" fill="#00C2BA"/>
<path d="M10.2357 202.688L5.59316 202.644L0 203.79L60.4636 203.007L114.958 223.404L121.939 224.71L124.873 223.641L60.5741 201.542L10.2357 202.688Z" fill="#00C2BA"/>
<path d="M118.534 221.465L200.657 186.413L287.23 169.384L294 168.822L201.669 188.127L120.563 222.148L118.534 221.465Z" fill="#42EDF0"/>
</g>
<defs>
<clipPath id="clip0">
<rect width="294" height="198" fill="white" transform="translate(0 28)"/>
</clipPath>
</defs>
</svg>
