<svg width="72" height="69" viewBox="0 0 72 69" fill="none" xmlns="http://www.w3.org/2000/svg">
<path d="M6.56863e-05 34.5325C0.00660543 38.9906 0.865452 43.4037 2.5276 47.5196C4.18975 51.6355 6.62254 55.3737 9.68709 58.5204C12.7516 61.6672 16.3879 64.161 20.388 65.8592C24.3881 67.5574 28.6737 68.4269 33 68.4179L71.4335 68.3152L71.3172 0.407467L32.9003 0.510199C28.5718 0.516944 24.287 1.4024 20.2907 3.11603C16.2945 4.82968 12.665 7.33794 9.60971 10.4974C6.55442 13.6569 4.13316 17.4058 2.48429 21.5298C0.835425 25.6538 -0.00867061 30.0722 6.56863e-05 34.5325Z" fill="#FFCC00"/>
<path d="M32.9995 40.8192C32.9934 36.8002 29.001 33.5486 24.0821 33.5566C19.1633 33.5646 15.1808 36.829 15.1869 40.848C15.193 44.867 19.1855 48.1185 24.1043 48.1106C29.0231 48.1026 33.0057 44.8381 32.9995 40.8192Z" fill="white"/>
<path d="M28.545 38.567C28.542 36.5527 26.5457 34.9231 24.0863 34.9271C21.6269 34.9311 19.6357 36.5672 19.6387 38.5814C19.6418 40.5956 21.638 42.2253 24.0974 42.2213C26.5569 42.2173 28.5481 40.5812 28.545 38.567Z" fill="black" stroke="black" stroke-miterlimit="10"/>
<path d="M32.9639 28.3035C32.9577 24.2845 28.9653 21.0329 24.0465 21.0408C19.1276 21.0488 15.1451 24.3133 15.1513 28.3323C15.1574 32.3513 19.1498 35.6029 24.0686 35.595C28.9875 35.587 32.97 32.3225 32.9639 28.3035Z" fill="white"/>
<path d="M28.5255 26.0494C28.5224 24.0352 26.5262 22.4055 24.0668 22.4095C21.6074 22.4135 19.6161 24.0496 19.6192 26.0638C19.6223 28.0781 21.6185 29.7077 24.0779 29.7037C26.5373 29.6997 28.5285 28.0636 28.5255 26.0494Z" fill="black" stroke="black" stroke-miterlimit="10"/>
<path d="M37.1512 33.1955C37.1451 34.0599 36.9758 34.9148 36.6527 35.7126C36.6232 35.7856 36.5801 35.852 36.5257 35.9079C36.4714 35.9638 36.4068 36.0082 36.3359 36.0384C36.2649 36.0686 36.1888 36.0841 36.112 36.084C36.0352 36.0839 35.9592 36.0683 35.8883 36.0379C35.8174 36.0075 35.753 35.9631 35.6987 35.9071C35.6445 35.851 35.6015 35.7846 35.5722 35.7115C35.5429 35.6383 35.5278 35.5599 35.5279 35.4808C35.5279 35.4017 35.5431 35.3234 35.5726 35.2503C35.9708 34.2893 36.0751 33.2261 35.8717 32.2025C35.6685 31.1301 35.1389 30.1524 34.3596 29.4115C34.3029 29.3575 34.257 29.2925 34.2246 29.2203C34.1923 29.1481 34.174 29.07 34.1709 28.9905C34.1678 28.911 34.1799 28.8316 34.2066 28.757C34.2333 28.6823 34.274 28.6138 34.3264 28.5553C34.3787 28.4969 34.4418 28.4496 34.5118 28.4162C34.5819 28.3829 34.6577 28.3641 34.7349 28.3609C34.812 28.3577 34.8891 28.3702 34.9615 28.3977C35.034 28.4252 35.1004 28.4671 35.1572 28.5211C35.7861 29.115 36.2881 29.8374 36.6314 30.6421C36.9747 31.4469 37.1517 32.3165 37.1512 33.1955Z" fill="black"/>
</svg>
